M48
; DRILL file {KiCad (6.0.7)} date Thu Feb  2 12:11:45 2023
; FORMAT={-:-/ absolute / metric / decimal}
; #@! TF.CreationDate,2023-02-02T12:11:45-07:00
; #@! TF.GenerationSoftware,Kicad,Pcbnew,(6.0.7)
; #@! TF.FileFunction,Plated,1,4,PTH
FMAT,2
METRIC
; #@! TA.AperFunction,Plated,PTH,ComponentDrill
T1C0.200
; #@! TA.AperFunction,Plated,PTH,ViaDrill
T2C0.400
; #@! TA.AperFunction,Plated,PTH,ComponentDrill
T3C0.700
; #@! TA.AperFunction,Plated,PTH,ComponentDrill
T4C0.750
; #@! TA.AperFunction,Plated,PTH,ComponentDrill
T5C0.800
; #@! TA.AperFunction,Plated,PTH,ComponentDrill
T6C2.200
%
G90
G05
T1
X134.02Y-93.48
X134.02Y-94.48
X135.22Y-93.48
X135.22Y-94.48
X147.355Y-93.48
X147.355Y-94.48
X148.555Y-93.48
X148.555Y-94.48
X160.055Y-93.48
X160.055Y-94.48
X161.255Y-93.48
X161.255Y-94.48
T2
X128.905Y-89.535
X132.08Y-99.06
X133.35Y-99.06
X134.62Y-89.535
X135.89Y-99.06
X137.16Y-99.06
X141.605Y-89.535
X142.48Y-109.83
X145.415Y-99.06
X146.685Y-99.059
X147.955Y-89.535
X149.225Y-99.059
X150.495Y-99.059
X152.4Y-117.475
X154.305Y-118.11
X154.94Y-90.17
X155.815Y-100.94
X155.892Y-113.983
X156.845Y-115.57
X158.115Y-99.06
X159.385Y-99.06
X160.655Y-89.535
X161.925Y-99.06
X163.195Y-99.06
X169.545Y-119.38
X170.18Y-112.117
X171.585Y-110.355
X172.085Y-117.832
X173.355Y-116.84
X175.26Y-108.585
X175.26Y-114.3
X177.165Y-112.395
X179.705Y-113.03
X180.34Y-118.11
X182.88Y-118.745
X183.515Y-81.28
X185.42Y-114.3
T3
X141.24Y-126.275
X141.24Y-128.275
X141.24Y-130.275
X143.24Y-126.275
X143.24Y-128.275
X143.24Y-130.275
T4
X134.62Y-136.015
X137.16Y-136.015
X139.7Y-136.015
X142.24Y-136.015
X144.78Y-136.015
T5
X127.635Y-112.665
X127.635Y-114.665
X128.27Y-104.14
X128.27Y-106.14
X128.27Y-123.825
X128.27Y-139.065
X128.54Y-78.74
X130.54Y-78.74
X130.81Y-123.825
X130.81Y-126.365
X130.81Y-139.065
X131.604Y-112.665
X131.604Y-114.665
X133.35Y-123.825
X133.35Y-139.065
X135.89Y-123.825
X135.89Y-139.065
X136.063Y-112.598
X136.063Y-114.598
X136.063Y-116.598
X136.16Y-78.74
X138.16Y-78.74
X138.43Y-123.825
X138.43Y-139.065
X140.97Y-123.825
X140.97Y-139.065
X143.51Y-123.825
X143.51Y-139.065
X143.78Y-78.74
X145.78Y-78.74
X146.05Y-123.825
X146.05Y-139.065
X148.59Y-123.825
X148.59Y-139.065
X151.035Y-78.74
X151.13Y-123.825
X151.13Y-139.065
X153.035Y-78.74
X153.67Y-123.825
X153.67Y-139.065
X156.21Y-123.825
X156.21Y-139.065
X158.115Y-78.74
X158.75Y-123.825
X158.75Y-139.065
X160.115Y-78.74
X161.29Y-123.825
X161.29Y-139.065
X163.83Y-123.825
X163.83Y-139.065
X165.735Y-78.688
X166.37Y-123.825
X166.37Y-139.065
X167.735Y-78.688
X168.91Y-123.825
X168.91Y-139.065
X171.45Y-123.825
X171.45Y-139.065
X171.99Y-92.425
X171.99Y-94.425
X171.99Y-96.425
X171.99Y-98.425
X173.99Y-123.825
X173.99Y-126.365
X173.99Y-128.905
X173.99Y-131.445
X173.99Y-133.985
X173.99Y-136.525
X173.99Y-139.065
X174.895Y-78.74
X175.705Y-89.535
X175.705Y-101.6
X176.53Y-123.825
X176.53Y-139.065
X176.895Y-78.74
X177.705Y-89.535
X177.705Y-101.6
X179.07Y-123.825
X179.07Y-139.065
X179.705Y-89.535
X179.705Y-101.6
X181.61Y-123.825
X181.61Y-139.065
X181.705Y-89.535
X184.15Y-123.825
X184.15Y-139.065
X186.69Y-123.825
X186.69Y-139.065
T6
X120.65Y-78.74
X121.285Y-144.78
X186.69Y-78.74
X186.69Y-145.415
T0
M30
