%TF.GenerationSoftware,KiCad,Pcbnew,(6.0.7)*%
%TF.CreationDate,2023-02-02T12:11:48-07:00*%
%TF.ProjectId,Tellus,54656c6c-7573-42e6-9b69-6361645f7063,rev?*%
%TF.SameCoordinates,Original*%
%TF.FileFunction,Drillmap*%
%TF.FilePolarity,Positive*%
%FSLAX45Y45*%
G04 Gerber Fmt 4.5, Leading zero omitted, Abs format (unit mm)*
G04 Created by KiCad (PCBNEW (6.0.7)) date 2023-02-02 12:11:48*
%MOMM*%
%LPD*%
G01*
G04 APERTURE LIST*
%ADD10C,0.100000*%
%ADD11C,0.200000*%
G04 APERTURE END LIST*
D10*
X11730000Y-7540500D02*
X19350000Y-7540500D01*
X19350000Y-7540500D02*
X19350000Y-14906500D01*
X19350000Y-14906500D02*
X11730000Y-14906500D01*
X11730000Y-14906500D02*
X11730000Y-7540500D01*
D11*
X11982619Y-15221976D02*
X11982619Y-15021976D01*
X12030238Y-15021976D01*
X12058809Y-15031500D01*
X12077857Y-15050548D01*
X12087381Y-15069595D01*
X12096905Y-15107690D01*
X12096905Y-15136262D01*
X12087381Y-15174357D01*
X12077857Y-15193405D01*
X12058809Y-15212452D01*
X12030238Y-15221976D01*
X11982619Y-15221976D01*
X12182619Y-15221976D02*
X12182619Y-15088643D01*
X12182619Y-15126738D02*
X12192143Y-15107690D01*
X12201667Y-15098167D01*
X12220714Y-15088643D01*
X12239762Y-15088643D01*
X12306428Y-15221976D02*
X12306428Y-15088643D01*
X12306428Y-15021976D02*
X12296905Y-15031500D01*
X12306428Y-15041024D01*
X12315952Y-15031500D01*
X12306428Y-15021976D01*
X12306428Y-15041024D01*
X12430238Y-15221976D02*
X12411190Y-15212452D01*
X12401667Y-15193405D01*
X12401667Y-15021976D01*
X12535000Y-15221976D02*
X12515952Y-15212452D01*
X12506428Y-15193405D01*
X12506428Y-15021976D01*
X12763571Y-15221976D02*
X12763571Y-15021976D01*
X12830238Y-15164833D01*
X12896905Y-15021976D01*
X12896905Y-15221976D01*
X13077857Y-15221976D02*
X13077857Y-15117214D01*
X13068333Y-15098167D01*
X13049286Y-15088643D01*
X13011190Y-15088643D01*
X12992143Y-15098167D01*
X13077857Y-15212452D02*
X13058809Y-15221976D01*
X13011190Y-15221976D01*
X12992143Y-15212452D01*
X12982619Y-15193405D01*
X12982619Y-15174357D01*
X12992143Y-15155309D01*
X13011190Y-15145786D01*
X13058809Y-15145786D01*
X13077857Y-15136262D01*
X13173095Y-15088643D02*
X13173095Y-15288643D01*
X13173095Y-15098167D02*
X13192143Y-15088643D01*
X13230238Y-15088643D01*
X13249286Y-15098167D01*
X13258809Y-15107690D01*
X13268333Y-15126738D01*
X13268333Y-15183881D01*
X13258809Y-15202928D01*
X13249286Y-15212452D01*
X13230238Y-15221976D01*
X13192143Y-15221976D01*
X13173095Y-15212452D01*
X13354048Y-15202928D02*
X13363571Y-15212452D01*
X13354048Y-15221976D01*
X13344524Y-15212452D01*
X13354048Y-15202928D01*
X13354048Y-15221976D01*
X13354048Y-15098167D02*
X13363571Y-15107690D01*
X13354048Y-15117214D01*
X13344524Y-15107690D01*
X13354048Y-15098167D01*
X13354048Y-15117214D01*
M02*
