G04 #@! TF.GenerationSoftware,KiCad,Pcbnew,(6.0.6)*
G04 #@! TF.CreationDate,2023-02-07T12:19:58-07:00*
G04 #@! TF.ProjectId,Tellus,54656c6c-7573-42e6-9b69-6361645f7063,rev?*
G04 #@! TF.SameCoordinates,Original*
G04 #@! TF.FileFunction,Paste,Top*
G04 #@! TF.FilePolarity,Positive*
%FSLAX46Y46*%
G04 Gerber Fmt 4.6, Leading zero omitted, Abs format (unit mm)*
G04 Created by KiCad (PCBNEW (6.0.6)) date 2023-02-07 12:19:58*
%MOMM*%
%LPD*%
G01*
G04 APERTURE LIST*
G04 Aperture macros list*
%AMRoundRect*
0 Rectangle with rounded corners*
0 $1 Rounding radius*
0 $2 $3 $4 $5 $6 $7 $8 $9 X,Y pos of 4 corners*
0 Add a 4 corners polygon primitive as box body*
4,1,4,$2,$3,$4,$5,$6,$7,$8,$9,$2,$3,0*
0 Add four circle primitives for the rounded corners*
1,1,$1+$1,$2,$3*
1,1,$1+$1,$4,$5*
1,1,$1+$1,$6,$7*
1,1,$1+$1,$8,$9*
0 Add four rect primitives between the rounded corners*
20,1,$1+$1,$2,$3,$4,$5,0*
20,1,$1+$1,$4,$5,$6,$7,0*
20,1,$1+$1,$6,$7,$8,$9,0*
20,1,$1+$1,$8,$9,$2,$3,0*%
%AMFreePoly0*
4,1,9,3.862500,-0.866500,0.737500,-0.866500,0.737500,-0.450000,-0.737500,-0.450000,-0.737500,0.450000,0.737500,0.450000,0.737500,0.866500,3.862500,0.866500,3.862500,-0.866500,3.862500,-0.866500,$1*%
G04 Aperture macros list end*
%ADD10R,0.510000X1.100000*%
%ADD11R,0.900000X1.300000*%
%ADD12FreePoly0,270.000000*%
%ADD13RoundRect,0.250000X1.100000X-0.412500X1.100000X0.412500X-1.100000X0.412500X-1.100000X-0.412500X0*%
%ADD14RoundRect,0.250000X0.625000X-0.312500X0.625000X0.312500X-0.625000X0.312500X-0.625000X-0.312500X0*%
%ADD15R,0.475000X0.250000*%
%ADD16R,0.250000X0.475000*%
%ADD17RoundRect,0.250000X-1.100000X0.412500X-1.100000X-0.412500X1.100000X-0.412500X1.100000X0.412500X0*%
%ADD18RoundRect,0.250000X0.412500X1.100000X-0.412500X1.100000X-0.412500X-1.100000X0.412500X-1.100000X0*%
%ADD19RoundRect,0.250000X-0.312500X-0.625000X0.312500X-0.625000X0.312500X0.625000X-0.312500X0.625000X0*%
%ADD20RoundRect,0.031500X0.143500X-0.168500X0.143500X0.168500X-0.143500X0.168500X-0.143500X-0.168500X0*%
%ADD21RoundRect,0.035000X0.165000X-0.140000X0.165000X0.140000X-0.165000X0.140000X-0.165000X-0.140000X0*%
G04 APERTURE END LIST*
D10*
X158655000Y-96530000D03*
X159655000Y-96530000D03*
X160655000Y-96530000D03*
X161655000Y-96530000D03*
X162655000Y-96530000D03*
X162655000Y-91430000D03*
X161655000Y-91430000D03*
X160655000Y-91430000D03*
X159655000Y-91430000D03*
X158655000Y-91430000D03*
X145955000Y-96530000D03*
X146955000Y-96530000D03*
X147955000Y-96530000D03*
X148955000Y-96530000D03*
X149955000Y-96530000D03*
X149955000Y-91430000D03*
X148955000Y-91430000D03*
X147955000Y-91430000D03*
X146955000Y-91430000D03*
X145955000Y-91430000D03*
D11*
X150965000Y-105640000D03*
D12*
X149465000Y-105727500D03*
D11*
X147965000Y-105640000D03*
D10*
X132620000Y-96530000D03*
X133620000Y-96530000D03*
X134620000Y-96530000D03*
X135620000Y-96530000D03*
X136620000Y-96530000D03*
X136620000Y-91430000D03*
X135620000Y-91430000D03*
X134620000Y-91430000D03*
X133620000Y-91430000D03*
X132620000Y-91430000D03*
D13*
X129540000Y-95542500D03*
X129540000Y-92417500D03*
X162052000Y-111341713D03*
X162052000Y-108216713D03*
D14*
X175242500Y-119212500D03*
X175242500Y-116287500D03*
D15*
X173825000Y-113000000D03*
X173825000Y-112500000D03*
X173825000Y-112000000D03*
X173825000Y-111500000D03*
D16*
X173162500Y-111337500D03*
X172662500Y-111337500D03*
X172162500Y-111337500D03*
D15*
X171500000Y-111500000D03*
X171500000Y-112000000D03*
X171500000Y-112500000D03*
X171500000Y-113000000D03*
D16*
X172162500Y-113162500D03*
X172662500Y-113162500D03*
X173162500Y-113162500D03*
D17*
X155815000Y-103822500D03*
X155815000Y-106947500D03*
D18*
X175852614Y-106426000D03*
X172727614Y-106426000D03*
D13*
X141605000Y-95542500D03*
X141605000Y-92417500D03*
X154940000Y-95542500D03*
X154940000Y-92417500D03*
D14*
X180975000Y-84012500D03*
X180975000Y-81087500D03*
D19*
X178537500Y-119000000D03*
X181462500Y-119000000D03*
D18*
X183725000Y-113250000D03*
X180600000Y-113250000D03*
D14*
X170162500Y-119212500D03*
X170162500Y-116287500D03*
D13*
X166624000Y-111290500D03*
X166624000Y-108165500D03*
D20*
X180912500Y-108525000D03*
X181412500Y-108515000D03*
X181912500Y-108515000D03*
X182412500Y-108525000D03*
D21*
X182427500Y-108000000D03*
X182427500Y-107500000D03*
D20*
X182412500Y-106975000D03*
X181912500Y-106985000D03*
X181412500Y-106985000D03*
X180912500Y-106975000D03*
D21*
X180897500Y-107500000D03*
X180897500Y-108000000D03*
D13*
X142480000Y-106947500D03*
X142480000Y-103822500D03*
M02*
