%FSLAX45Y45*%
G04 Gerber Fmt 4.5, Leading zero omitted, Abs format (unit mm)*
G04 Created by KiCad (PCBNEW (6.0.6)) date 2023-02-07 12:20:26*
%MOMM*%
%LPD*%
G01*
G04 APERTURE LIST*
%TA.AperFunction,Profile*%
%ADD10C,0.100000*%
%TD*%
%ADD11C,0.200000*%
%ADD12C,0.040000*%
%ADD13C,0.070000*%
%ADD14C,0.075000*%
%ADD15C,0.080000*%
%ADD16C,0.100000*%
%ADD17C,0.220000*%
G04 APERTURE END LIST*
D10*
X11730000Y-7359933D02*
X19442729Y-7359933D01*
X19442729Y-7359933D02*
X19442729Y-14984140D01*
X19442729Y-14984140D02*
X11730000Y-14984140D01*
X11730000Y-14984140D02*
X11730000Y-7359933D01*
D11*
D12*
X12930000Y-8920800D02*
X12970000Y-8960800D01*
X12970000Y-8920800D02*
X12930000Y-8960800D01*
X12934000Y-9708200D02*
X12974000Y-9748200D01*
X12974000Y-9708200D02*
X12934000Y-9748200D01*
X13417532Y-10030000D02*
X13457532Y-10070000D01*
X13457532Y-10030000D02*
X13417532Y-10070000D01*
X13442000Y-8933500D02*
X13482000Y-8973500D01*
X13482000Y-8933500D02*
X13442000Y-8973500D01*
X14140500Y-8933500D02*
X14180500Y-8973500D01*
X14180500Y-8933500D02*
X14140500Y-8973500D01*
X14140500Y-9759000D02*
X14180500Y-9799000D01*
X14180500Y-9759000D02*
X14140500Y-9799000D01*
X14204000Y-10140000D02*
X14244000Y-10180000D01*
X14244000Y-10140000D02*
X14204000Y-10180000D01*
X14228000Y-10878000D02*
X14268000Y-10918000D01*
X14268000Y-10878000D02*
X14228000Y-10918000D01*
X14530000Y-9830000D02*
X14570000Y-9870000D01*
X14570000Y-9830000D02*
X14530000Y-9870000D01*
X14585000Y-10140000D02*
X14625000Y-10180000D01*
X14625000Y-10140000D02*
X14585000Y-10180000D01*
X14631265Y-9878735D02*
X14671265Y-9918735D01*
X14671265Y-9878735D02*
X14631265Y-9918735D01*
X14775500Y-8933500D02*
X14815500Y-8973500D01*
X14815500Y-8933500D02*
X14775500Y-8973500D01*
X14775500Y-9759000D02*
X14815500Y-9799000D01*
X14815500Y-9759000D02*
X14775500Y-9799000D01*
X14902500Y-11283000D02*
X14942500Y-11323000D01*
X14942500Y-11283000D02*
X14902500Y-11323000D01*
X14928735Y-9878735D02*
X14968735Y-9918735D01*
X14968735Y-9878735D02*
X14928735Y-9918735D01*
X14966000Y-10140000D02*
X15006000Y-10180000D01*
X15006000Y-10140000D02*
X14966000Y-10180000D01*
X15030000Y-9830000D02*
X15070000Y-9870000D01*
X15070000Y-9830000D02*
X15030000Y-9870000D01*
X15347000Y-10190800D02*
X15387000Y-10230800D01*
X15387000Y-10190800D02*
X15347000Y-10230800D01*
X15474000Y-8933500D02*
X15514000Y-8973500D01*
X15514000Y-8933500D02*
X15474000Y-8973500D01*
X15474000Y-9759000D02*
X15514000Y-9799000D01*
X15514000Y-9759000D02*
X15474000Y-9799000D01*
X15537500Y-10838500D02*
X15577500Y-10878500D01*
X15577500Y-10838500D02*
X15537500Y-10878500D01*
X15830000Y-9830000D02*
X15870000Y-9870000D01*
X15870000Y-9830000D02*
X15830000Y-9870000D01*
X15930000Y-9830000D02*
X15970000Y-9870000D01*
X15970000Y-9830000D02*
X15930000Y-9870000D01*
X15982000Y-10444800D02*
X16022000Y-10484800D01*
X16022000Y-10444800D02*
X15982000Y-10484800D01*
X16045500Y-8933500D02*
X16085500Y-8973500D01*
X16085500Y-8933500D02*
X16045500Y-8973500D01*
X16045500Y-9759000D02*
X16085500Y-9799000D01*
X16085500Y-9759000D02*
X16045500Y-9799000D01*
X16146840Y-9825365D02*
X16186840Y-9865365D01*
X16186840Y-9825365D02*
X16146840Y-9865365D01*
X16246188Y-9836324D02*
X16286188Y-9876324D01*
X16286188Y-9836324D02*
X16246188Y-9876324D01*
X16413800Y-10571800D02*
X16453800Y-10611800D01*
X16453800Y-10571800D02*
X16413800Y-10611800D01*
X16413800Y-11283000D02*
X16453800Y-11323000D01*
X16453800Y-11283000D02*
X16413800Y-11323000D01*
X16490000Y-10190800D02*
X16530000Y-10230800D01*
X16530000Y-10190800D02*
X16490000Y-10230800D01*
X16830000Y-11460800D02*
X16870000Y-11500800D01*
X16870000Y-11460800D02*
X16830000Y-11500800D01*
X16980000Y-11305000D02*
X17020000Y-11345000D01*
X17020000Y-11305000D02*
X16980000Y-11345000D01*
X16987480Y-12630000D02*
X17027480Y-12670000D01*
X17027480Y-12630000D02*
X16987480Y-12670000D01*
X17074200Y-10698800D02*
X17114200Y-10738800D01*
X17114200Y-10698800D02*
X17074200Y-10738800D01*
X17146250Y-11405000D02*
X17186250Y-11445000D01*
X17186250Y-11405000D02*
X17146250Y-11445000D01*
X17230000Y-11730000D02*
X17270000Y-11770000D01*
X17270000Y-11730000D02*
X17230000Y-11770000D01*
X17250250Y-12009000D02*
X17290250Y-12049000D01*
X17290250Y-12009000D02*
X17250250Y-12049000D01*
X17404400Y-11460800D02*
X17444400Y-11500800D01*
X17444400Y-11460800D02*
X17404400Y-11500800D01*
X17496250Y-11105000D02*
X17536250Y-11145000D01*
X17536250Y-11105000D02*
X17496250Y-11145000D01*
X17531400Y-11384600D02*
X17571400Y-11424600D01*
X17571400Y-11384600D02*
X17531400Y-11424600D01*
X17680000Y-11029000D02*
X17720000Y-11069000D01*
X17720000Y-11029000D02*
X17680000Y-11069000D01*
X17734600Y-10622600D02*
X17774600Y-10662600D01*
X17774600Y-10622600D02*
X17734600Y-10662600D01*
X17881230Y-11278770D02*
X17921230Y-11318770D01*
X17921230Y-11278770D02*
X17881230Y-11318770D01*
X17996250Y-10572232D02*
X18036250Y-10612232D01*
X18036250Y-10572232D02*
X17996250Y-10612232D01*
X18077500Y-8552500D02*
X18117500Y-8592500D01*
X18117500Y-8552500D02*
X18077500Y-8592500D01*
X18346250Y-10655000D02*
X18386250Y-10695000D01*
X18386250Y-10655000D02*
X18346250Y-10695000D01*
X18352500Y-11548750D02*
X18392500Y-11588750D01*
X18392500Y-11548750D02*
X18352500Y-11588750D01*
D13*
X14159000Y-12627500D02*
G75*
G03*
X14159000Y-12627500I-35000J0D01*
G01*
X14159000Y-12827500D02*
G75*
G03*
X14159000Y-12827500I-35000J0D01*
G01*
X14159000Y-13027500D02*
G75*
G03*
X14159000Y-13027500I-35000J0D01*
G01*
X14359000Y-12627500D02*
G75*
G03*
X14359000Y-12627500I-35000J0D01*
G01*
X14359000Y-12827500D02*
G75*
G03*
X14359000Y-12827500I-35000J0D01*
G01*
X14359000Y-13027500D02*
G75*
G03*
X14359000Y-13027500I-35000J0D01*
G01*
D14*
X13462000Y-13564000D02*
X13462000Y-13639000D01*
X13424500Y-13601500D02*
X13499500Y-13601500D01*
X13716000Y-13564000D02*
X13716000Y-13639000D01*
X13678500Y-13601500D02*
X13753500Y-13601500D01*
X13970000Y-13564000D02*
X13970000Y-13639000D01*
X13932500Y-13601500D02*
X14007500Y-13601500D01*
X14224000Y-13564000D02*
X14224000Y-13639000D01*
X14186500Y-13601500D02*
X14261500Y-13601500D01*
X14478000Y-13564000D02*
X14478000Y-13639000D01*
X14440500Y-13601500D02*
X14515500Y-13601500D01*
D15*
X12855284Y-12410784D02*
X12855284Y-12354215D01*
X12798715Y-12354215D01*
X12798715Y-12410784D01*
X12855284Y-12410784D01*
X12855284Y-13934784D02*
X12855284Y-13878215D01*
X12798715Y-13878215D01*
X12798715Y-13934784D01*
X12855284Y-13934784D01*
X13109284Y-12410784D02*
X13109284Y-12354215D01*
X13052715Y-12354215D01*
X13052715Y-12410784D01*
X13109284Y-12410784D01*
X13109284Y-12664784D02*
X13109284Y-12608215D01*
X13052715Y-12608215D01*
X13052715Y-12664784D01*
X13109284Y-12664784D01*
X13109284Y-13934784D02*
X13109284Y-13878215D01*
X13052715Y-13878215D01*
X13052715Y-13934784D01*
X13109284Y-13934784D01*
X13363284Y-12410784D02*
X13363284Y-12354215D01*
X13306715Y-12354215D01*
X13306715Y-12410784D01*
X13363284Y-12410784D01*
X13363284Y-13934784D02*
X13363284Y-13878215D01*
X13306715Y-13878215D01*
X13306715Y-13934784D01*
X13363284Y-13934784D01*
X13617284Y-12410784D02*
X13617284Y-12354215D01*
X13560715Y-12354215D01*
X13560715Y-12410784D01*
X13617284Y-12410784D01*
X13617284Y-13934784D02*
X13617284Y-13878215D01*
X13560715Y-13878215D01*
X13560715Y-13934784D01*
X13617284Y-13934784D01*
X13871284Y-12410784D02*
X13871284Y-12354215D01*
X13814715Y-12354215D01*
X13814715Y-12410784D01*
X13871284Y-12410784D01*
X13871284Y-13934784D02*
X13871284Y-13878215D01*
X13814715Y-13878215D01*
X13814715Y-13934784D01*
X13871284Y-13934784D01*
X14125284Y-12410784D02*
X14125284Y-12354215D01*
X14068715Y-12354215D01*
X14068715Y-12410784D01*
X14125284Y-12410784D01*
X14125284Y-13934784D02*
X14125284Y-13878215D01*
X14068715Y-13878215D01*
X14068715Y-13934784D01*
X14125284Y-13934784D01*
X14379284Y-12410784D02*
X14379284Y-12354215D01*
X14322715Y-12354215D01*
X14322715Y-12410784D01*
X14379284Y-12410784D01*
X14379284Y-13934784D02*
X14379284Y-13878215D01*
X14322715Y-13878215D01*
X14322715Y-13934784D01*
X14379284Y-13934784D01*
X14633284Y-12410784D02*
X14633284Y-12354215D01*
X14576715Y-12354215D01*
X14576715Y-12410784D01*
X14633284Y-12410784D01*
X14633284Y-13934784D02*
X14633284Y-13878215D01*
X14576715Y-13878215D01*
X14576715Y-13934784D01*
X14633284Y-13934784D01*
X14887284Y-12410784D02*
X14887284Y-12354215D01*
X14830715Y-12354215D01*
X14830715Y-12410784D01*
X14887284Y-12410784D01*
X14887284Y-13934784D02*
X14887284Y-13878215D01*
X14830715Y-13878215D01*
X14830715Y-13934784D01*
X14887284Y-13934784D01*
X15141284Y-12410784D02*
X15141284Y-12354215D01*
X15084715Y-12354215D01*
X15084715Y-12410784D01*
X15141284Y-12410784D01*
X15141284Y-13934784D02*
X15141284Y-13878215D01*
X15084715Y-13878215D01*
X15084715Y-13934784D01*
X15141284Y-13934784D01*
X15395284Y-12410784D02*
X15395284Y-12354215D01*
X15338715Y-12354215D01*
X15338715Y-12410784D01*
X15395284Y-12410784D01*
X15395284Y-13934784D02*
X15395284Y-13878215D01*
X15338715Y-13878215D01*
X15338715Y-13934784D01*
X15395284Y-13934784D01*
X15649284Y-12410784D02*
X15649284Y-12354215D01*
X15592715Y-12354215D01*
X15592715Y-12410784D01*
X15649284Y-12410784D01*
X15649284Y-13934784D02*
X15649284Y-13878215D01*
X15592715Y-13878215D01*
X15592715Y-13934784D01*
X15649284Y-13934784D01*
X15903284Y-12410784D02*
X15903284Y-12354215D01*
X15846715Y-12354215D01*
X15846715Y-12410784D01*
X15903284Y-12410784D01*
X15903284Y-13934784D02*
X15903284Y-13878215D01*
X15846715Y-13878215D01*
X15846715Y-13934784D01*
X15903284Y-13934784D01*
X16157284Y-12410784D02*
X16157284Y-12354215D01*
X16100715Y-12354215D01*
X16100715Y-12410784D01*
X16157284Y-12410784D01*
X16157284Y-13934784D02*
X16157284Y-13878215D01*
X16100715Y-13878215D01*
X16100715Y-13934784D01*
X16157284Y-13934784D01*
X16411284Y-12410784D02*
X16411284Y-12354215D01*
X16354715Y-12354215D01*
X16354715Y-12410784D01*
X16411284Y-12410784D01*
X16411284Y-13934784D02*
X16411284Y-13878215D01*
X16354715Y-13878215D01*
X16354715Y-13934784D01*
X16411284Y-13934784D01*
X16665284Y-12410784D02*
X16665284Y-12354215D01*
X16608715Y-12354215D01*
X16608715Y-12410784D01*
X16665284Y-12410784D01*
X16665284Y-13934784D02*
X16665284Y-13878215D01*
X16608715Y-13878215D01*
X16608715Y-13934784D01*
X16665284Y-13934784D01*
X16919285Y-12410784D02*
X16919285Y-12354215D01*
X16862716Y-12354215D01*
X16862716Y-12410784D01*
X16919285Y-12410784D01*
X16919285Y-13934784D02*
X16919285Y-13878215D01*
X16862716Y-13878215D01*
X16862716Y-13934784D01*
X16919285Y-13934784D01*
X17173285Y-12410784D02*
X17173285Y-12354215D01*
X17116716Y-12354215D01*
X17116716Y-12410784D01*
X17173285Y-12410784D01*
X17173285Y-13934784D02*
X17173285Y-13878215D01*
X17116716Y-13878215D01*
X17116716Y-13934784D01*
X17173285Y-13934784D01*
X17232385Y-9285856D02*
X17232385Y-9229287D01*
X17175816Y-9229287D01*
X17175816Y-9285856D01*
X17232385Y-9285856D01*
X17232385Y-9485856D02*
X17232385Y-9429287D01*
X17175816Y-9429287D01*
X17175816Y-9485856D01*
X17232385Y-9485856D01*
X17232385Y-9685856D02*
X17232385Y-9629287D01*
X17175816Y-9629287D01*
X17175816Y-9685856D01*
X17232385Y-9685856D01*
X17232385Y-9885856D02*
X17232385Y-9829287D01*
X17175816Y-9829287D01*
X17175816Y-9885856D01*
X17232385Y-9885856D01*
X17427285Y-12410784D02*
X17427285Y-12354215D01*
X17370716Y-12354215D01*
X17370716Y-12410784D01*
X17427285Y-12410784D01*
X17427285Y-12664784D02*
X17427285Y-12608215D01*
X17370716Y-12608215D01*
X17370716Y-12664784D01*
X17427285Y-12664784D01*
X17427285Y-12918784D02*
X17427285Y-12862215D01*
X17370716Y-12862215D01*
X17370716Y-12918784D01*
X17427285Y-12918784D01*
X17427285Y-13172784D02*
X17427285Y-13116215D01*
X17370716Y-13116215D01*
X17370716Y-13172784D01*
X17427285Y-13172784D01*
X17427285Y-13426784D02*
X17427285Y-13370215D01*
X17370716Y-13370215D01*
X17370716Y-13426784D01*
X17427285Y-13426784D01*
X17427285Y-13680784D02*
X17427285Y-13624215D01*
X17370716Y-13624215D01*
X17370716Y-13680784D01*
X17427285Y-13680784D01*
X17427285Y-13934784D02*
X17427285Y-13878215D01*
X17370716Y-13878215D01*
X17370716Y-13934784D01*
X17427285Y-13934784D01*
X17557385Y-8960856D02*
X17557385Y-8904287D01*
X17500816Y-8904287D01*
X17500816Y-8960856D01*
X17557385Y-8960856D01*
X17557385Y-10210856D02*
X17557385Y-10154287D01*
X17500816Y-10154287D01*
X17500816Y-10210856D01*
X17557385Y-10210856D01*
X17681285Y-12410784D02*
X17681285Y-12354215D01*
X17624716Y-12354215D01*
X17624716Y-12410784D01*
X17681285Y-12410784D01*
X17681285Y-13934784D02*
X17681285Y-13878215D01*
X17624716Y-13878215D01*
X17624716Y-13934784D01*
X17681285Y-13934784D01*
X17757385Y-8960856D02*
X17757385Y-8904287D01*
X17700816Y-8904287D01*
X17700816Y-8960856D01*
X17757385Y-8960856D01*
X17757385Y-10210856D02*
X17757385Y-10154287D01*
X17700816Y-10154287D01*
X17700816Y-10210856D01*
X17757385Y-10210856D01*
X17935285Y-12410784D02*
X17935285Y-12354215D01*
X17878716Y-12354215D01*
X17878716Y-12410784D01*
X17935285Y-12410784D01*
X17935285Y-13934784D02*
X17935285Y-13878215D01*
X17878716Y-13878215D01*
X17878716Y-13934784D01*
X17935285Y-13934784D01*
X17957385Y-8960856D02*
X17957385Y-8904287D01*
X17900816Y-8904287D01*
X17900816Y-8960856D01*
X17957385Y-8960856D01*
X17957385Y-10210856D02*
X17957385Y-10154287D01*
X17900816Y-10154287D01*
X17900816Y-10210856D01*
X17957385Y-10210856D01*
X18157385Y-8960856D02*
X18157385Y-8904287D01*
X18100816Y-8904287D01*
X18100816Y-8960856D01*
X18157385Y-8960856D01*
X18189285Y-12410784D02*
X18189285Y-12354215D01*
X18132716Y-12354215D01*
X18132716Y-12410784D01*
X18189285Y-12410784D01*
X18189285Y-13934784D02*
X18189285Y-13878215D01*
X18132716Y-13878215D01*
X18132716Y-13934784D01*
X18189285Y-13934784D01*
X18443285Y-12410784D02*
X18443285Y-12354215D01*
X18386716Y-12354215D01*
X18386716Y-12410784D01*
X18443285Y-12410784D01*
X18443285Y-13934784D02*
X18443285Y-13878215D01*
X18386716Y-13878215D01*
X18386716Y-13934784D01*
X18443285Y-13934784D01*
X18697285Y-12410784D02*
X18697285Y-12354215D01*
X18640716Y-12354215D01*
X18640716Y-12410784D01*
X18697285Y-12410784D01*
X18697285Y-13934784D02*
X18697285Y-13878215D01*
X18640716Y-13878215D01*
X18640716Y-13934784D01*
X18697285Y-13934784D01*
D16*
X12150000Y-9196500D02*
X12200000Y-9146500D01*
X12150000Y-9096500D01*
X12100000Y-9146500D01*
X12150000Y-9196500D01*
X12150000Y-9450500D02*
X12200000Y-9400500D01*
X12150000Y-9350500D01*
X12100000Y-9400500D01*
X12150000Y-9450500D01*
X12150000Y-10197500D02*
X12200000Y-10147500D01*
X12150000Y-10097500D01*
X12100000Y-10147500D01*
X12150000Y-10197500D01*
X12150000Y-10451500D02*
X12200000Y-10401500D01*
X12150000Y-10351500D01*
X12100000Y-10401500D01*
X12150000Y-10451500D01*
X12150000Y-10705500D02*
X12200000Y-10655500D01*
X12150000Y-10605500D01*
X12100000Y-10655500D01*
X12150000Y-10705500D01*
X12150000Y-11270000D02*
X12200000Y-11220000D01*
X12150000Y-11170000D01*
X12100000Y-11220000D01*
X12150000Y-11270000D01*
X12150000Y-11524000D02*
X12200000Y-11474000D01*
X12150000Y-11424000D01*
X12100000Y-11474000D01*
X12150000Y-11524000D01*
X12150000Y-11778000D02*
X12200000Y-11728000D01*
X12150000Y-11678000D01*
X12100000Y-11728000D01*
X12150000Y-11778000D01*
X12150000Y-12032000D02*
X12200000Y-11982000D01*
X12150000Y-11932000D01*
X12100000Y-11982000D01*
X12150000Y-12032000D01*
X12772500Y-7924000D02*
X12822500Y-7874000D01*
X12772500Y-7824000D01*
X12722500Y-7874000D01*
X12772500Y-7924000D01*
X13026500Y-7924000D02*
X13076500Y-7874000D01*
X13026500Y-7824000D01*
X12976500Y-7874000D01*
X13026500Y-7924000D01*
X13522500Y-7924000D02*
X13572500Y-7874000D01*
X13522500Y-7824000D01*
X13472500Y-7874000D01*
X13522500Y-7924000D01*
X13776500Y-7924000D02*
X13826500Y-7874000D01*
X13776500Y-7824000D01*
X13726500Y-7874000D01*
X13776500Y-7924000D01*
X14372500Y-7924000D02*
X14422500Y-7874000D01*
X14372500Y-7824000D01*
X14322500Y-7874000D01*
X14372500Y-7924000D01*
X14626500Y-7924000D02*
X14676500Y-7874000D01*
X14626500Y-7824000D01*
X14576500Y-7874000D01*
X14626500Y-7924000D01*
X15103500Y-7924000D02*
X15153500Y-7874000D01*
X15103500Y-7824000D01*
X15053500Y-7874000D01*
X15103500Y-7924000D01*
X15357500Y-7924000D02*
X15407500Y-7874000D01*
X15357500Y-7824000D01*
X15307500Y-7874000D01*
X15357500Y-7924000D01*
X15922500Y-7924000D02*
X15972500Y-7874000D01*
X15922500Y-7824000D01*
X15872500Y-7874000D01*
X15922500Y-7924000D01*
X16176500Y-7924000D02*
X16226500Y-7874000D01*
X16176500Y-7824000D01*
X16126500Y-7874000D01*
X16176500Y-7924000D01*
X16672500Y-7918750D02*
X16722500Y-7868750D01*
X16672500Y-7818750D01*
X16622500Y-7868750D01*
X16672500Y-7918750D01*
X16926500Y-7918750D02*
X16976500Y-7868750D01*
X16926500Y-7818750D01*
X16876500Y-7868750D01*
X16926500Y-7918750D01*
X17435500Y-7924000D02*
X17485500Y-7874000D01*
X17435500Y-7824000D01*
X17385500Y-7874000D01*
X17435500Y-7924000D01*
X17689500Y-7924000D02*
X17739500Y-7874000D01*
X17689500Y-7824000D01*
X17639500Y-7874000D01*
X17689500Y-7924000D01*
D17*
X12040000Y-7764000D02*
X12260000Y-7984000D01*
X12260000Y-7764000D02*
X12040000Y-7984000D01*
X12260000Y-7874000D02*
G75*
G03*
X12260000Y-7874000I-110000J0D01*
G01*
X12040000Y-14364000D02*
X12260000Y-14584000D01*
X12260000Y-14364000D02*
X12040000Y-14584000D01*
X12260000Y-14474000D02*
G75*
G03*
X12260000Y-14474000I-110000J0D01*
G01*
X18940000Y-7764000D02*
X19160000Y-7984000D01*
X19160000Y-7764000D02*
X18940000Y-7984000D01*
X19160000Y-7874000D02*
G75*
G03*
X19160000Y-7874000I-110000J0D01*
G01*
X18940000Y-14364000D02*
X19160000Y-14584000D01*
X19160000Y-14364000D02*
X18940000Y-14584000D01*
X19160000Y-14474000D02*
G75*
G03*
X19160000Y-14474000I-110000J0D01*
G01*
D11*
X11982619Y-15299616D02*
X11982619Y-15099616D01*
X12030238Y-15099616D01*
X12058809Y-15109140D01*
X12077857Y-15128188D01*
X12087381Y-15147235D01*
X12096905Y-15185331D01*
X12096905Y-15213902D01*
X12087381Y-15251997D01*
X12077857Y-15271045D01*
X12058809Y-15290093D01*
X12030238Y-15299616D01*
X11982619Y-15299616D01*
X12182619Y-15299616D02*
X12182619Y-15166283D01*
X12182619Y-15204378D02*
X12192143Y-15185331D01*
X12201667Y-15175807D01*
X12220714Y-15166283D01*
X12239762Y-15166283D01*
X12306428Y-15299616D02*
X12306428Y-15166283D01*
X12306428Y-15099616D02*
X12296905Y-15109140D01*
X12306428Y-15118664D01*
X12315952Y-15109140D01*
X12306428Y-15099616D01*
X12306428Y-15118664D01*
X12430238Y-15299616D02*
X12411190Y-15290093D01*
X12401667Y-15271045D01*
X12401667Y-15099616D01*
X12535000Y-15299616D02*
X12515952Y-15290093D01*
X12506428Y-15271045D01*
X12506428Y-15099616D01*
X12763571Y-15299616D02*
X12763571Y-15099616D01*
X12830238Y-15242474D01*
X12896905Y-15099616D01*
X12896905Y-15299616D01*
X13077857Y-15299616D02*
X13077857Y-15194854D01*
X13068333Y-15175807D01*
X13049286Y-15166283D01*
X13011190Y-15166283D01*
X12992143Y-15175807D01*
X13077857Y-15290093D02*
X13058809Y-15299616D01*
X13011190Y-15299616D01*
X12992143Y-15290093D01*
X12982619Y-15271045D01*
X12982619Y-15251997D01*
X12992143Y-15232950D01*
X13011190Y-15223426D01*
X13058809Y-15223426D01*
X13077857Y-15213902D01*
X13173095Y-15166283D02*
X13173095Y-15366283D01*
X13173095Y-15175807D02*
X13192143Y-15166283D01*
X13230238Y-15166283D01*
X13249286Y-15175807D01*
X13258809Y-15185331D01*
X13268333Y-15204378D01*
X13268333Y-15261521D01*
X13258809Y-15280569D01*
X13249286Y-15290093D01*
X13230238Y-15299616D01*
X13192143Y-15299616D01*
X13173095Y-15290093D01*
X13354048Y-15280569D02*
X13363571Y-15290093D01*
X13354048Y-15299616D01*
X13344524Y-15290093D01*
X13354048Y-15280569D01*
X13354048Y-15299616D01*
X13354048Y-15175807D02*
X13363571Y-15185331D01*
X13354048Y-15194854D01*
X13344524Y-15185331D01*
X13354048Y-15175807D01*
X13354048Y-15194854D01*
D12*
X11685000Y-15609140D02*
X11725000Y-15649140D01*
X11725000Y-15609140D02*
X11685000Y-15649140D01*
D11*
X12020714Y-15519616D02*
X12039762Y-15519616D01*
X12058809Y-15529140D01*
X12068333Y-15538664D01*
X12077857Y-15557712D01*
X12087381Y-15595807D01*
X12087381Y-15643426D01*
X12077857Y-15681521D01*
X12068333Y-15700569D01*
X12058809Y-15710093D01*
X12039762Y-15719616D01*
X12020714Y-15719616D01*
X12001667Y-15710093D01*
X11992143Y-15700569D01*
X11982619Y-15681521D01*
X11973095Y-15643426D01*
X11973095Y-15595807D01*
X11982619Y-15557712D01*
X11992143Y-15538664D01*
X12001667Y-15529140D01*
X12020714Y-15519616D01*
X12173095Y-15700569D02*
X12182619Y-15710093D01*
X12173095Y-15719616D01*
X12163571Y-15710093D01*
X12173095Y-15700569D01*
X12173095Y-15719616D01*
X12354048Y-15586283D02*
X12354048Y-15719616D01*
X12306428Y-15510093D02*
X12258809Y-15652950D01*
X12382619Y-15652950D01*
X12496905Y-15519616D02*
X12515952Y-15519616D01*
X12535000Y-15529140D01*
X12544524Y-15538664D01*
X12554048Y-15557712D01*
X12563571Y-15595807D01*
X12563571Y-15643426D01*
X12554048Y-15681521D01*
X12544524Y-15700569D01*
X12535000Y-15710093D01*
X12515952Y-15719616D01*
X12496905Y-15719616D01*
X12477857Y-15710093D01*
X12468333Y-15700569D01*
X12458809Y-15681521D01*
X12449286Y-15643426D01*
X12449286Y-15595807D01*
X12458809Y-15557712D01*
X12468333Y-15538664D01*
X12477857Y-15529140D01*
X12496905Y-15519616D01*
X12687381Y-15519616D02*
X12706428Y-15519616D01*
X12725476Y-15529140D01*
X12735000Y-15538664D01*
X12744524Y-15557712D01*
X12754048Y-15595807D01*
X12754048Y-15643426D01*
X12744524Y-15681521D01*
X12735000Y-15700569D01*
X12725476Y-15710093D01*
X12706428Y-15719616D01*
X12687381Y-15719616D01*
X12668333Y-15710093D01*
X12658809Y-15700569D01*
X12649286Y-15681521D01*
X12639762Y-15643426D01*
X12639762Y-15595807D01*
X12649286Y-15557712D01*
X12658809Y-15538664D01*
X12668333Y-15529140D01*
X12687381Y-15519616D01*
X12839762Y-15719616D02*
X12839762Y-15586283D01*
X12839762Y-15605331D02*
X12849286Y-15595807D01*
X12868333Y-15586283D01*
X12896905Y-15586283D01*
X12915952Y-15595807D01*
X12925476Y-15614854D01*
X12925476Y-15719616D01*
X12925476Y-15614854D02*
X12935000Y-15595807D01*
X12954048Y-15586283D01*
X12982619Y-15586283D01*
X13001667Y-15595807D01*
X13011190Y-15614854D01*
X13011190Y-15719616D01*
X13106428Y-15719616D02*
X13106428Y-15586283D01*
X13106428Y-15605331D02*
X13115952Y-15595807D01*
X13135000Y-15586283D01*
X13163571Y-15586283D01*
X13182619Y-15595807D01*
X13192143Y-15614854D01*
X13192143Y-15719616D01*
X13192143Y-15614854D02*
X13201667Y-15595807D01*
X13220714Y-15586283D01*
X13249286Y-15586283D01*
X13268333Y-15595807D01*
X13277857Y-15614854D01*
X13277857Y-15719616D01*
X13668333Y-15510093D02*
X13496905Y-15767235D01*
X13925476Y-15519616D02*
X13944524Y-15519616D01*
X13963571Y-15529140D01*
X13973095Y-15538664D01*
X13982619Y-15557712D01*
X13992143Y-15595807D01*
X13992143Y-15643426D01*
X13982619Y-15681521D01*
X13973095Y-15700569D01*
X13963571Y-15710093D01*
X13944524Y-15719616D01*
X13925476Y-15719616D01*
X13906428Y-15710093D01*
X13896905Y-15700569D01*
X13887381Y-15681521D01*
X13877857Y-15643426D01*
X13877857Y-15595807D01*
X13887381Y-15557712D01*
X13896905Y-15538664D01*
X13906428Y-15529140D01*
X13925476Y-15519616D01*
X14077857Y-15700569D02*
X14087381Y-15710093D01*
X14077857Y-15719616D01*
X14068333Y-15710093D01*
X14077857Y-15700569D01*
X14077857Y-15719616D01*
X14211190Y-15519616D02*
X14230238Y-15519616D01*
X14249286Y-15529140D01*
X14258809Y-15538664D01*
X14268333Y-15557712D01*
X14277857Y-15595807D01*
X14277857Y-15643426D01*
X14268333Y-15681521D01*
X14258809Y-15700569D01*
X14249286Y-15710093D01*
X14230238Y-15719616D01*
X14211190Y-15719616D01*
X14192143Y-15710093D01*
X14182619Y-15700569D01*
X14173095Y-15681521D01*
X14163571Y-15643426D01*
X14163571Y-15595807D01*
X14173095Y-15557712D01*
X14182619Y-15538664D01*
X14192143Y-15529140D01*
X14211190Y-15519616D01*
X14468333Y-15719616D02*
X14354048Y-15719616D01*
X14411190Y-15719616D02*
X14411190Y-15519616D01*
X14392143Y-15548188D01*
X14373095Y-15567235D01*
X14354048Y-15576759D01*
X14649286Y-15519616D02*
X14554048Y-15519616D01*
X14544524Y-15614854D01*
X14554048Y-15605331D01*
X14573095Y-15595807D01*
X14620714Y-15595807D01*
X14639762Y-15605331D01*
X14649286Y-15614854D01*
X14658809Y-15633902D01*
X14658809Y-15681521D01*
X14649286Y-15700569D01*
X14639762Y-15710093D01*
X14620714Y-15719616D01*
X14573095Y-15719616D01*
X14554048Y-15710093D01*
X14544524Y-15700569D01*
X14725476Y-15519616D02*
X14858809Y-15519616D01*
X14773095Y-15719616D01*
X14925476Y-15519616D02*
X14925476Y-15557712D01*
X15001667Y-15519616D02*
X15001667Y-15557712D01*
X15296905Y-15795807D02*
X15287381Y-15786283D01*
X15268333Y-15757712D01*
X15258809Y-15738664D01*
X15249286Y-15710093D01*
X15239762Y-15662474D01*
X15239762Y-15624378D01*
X15249286Y-15576759D01*
X15258809Y-15548188D01*
X15268333Y-15529140D01*
X15287381Y-15500569D01*
X15296905Y-15491045D01*
X15458809Y-15586283D02*
X15458809Y-15719616D01*
X15411190Y-15510093D02*
X15363571Y-15652950D01*
X15487381Y-15652950D01*
X15592143Y-15605331D02*
X15573095Y-15595807D01*
X15563571Y-15586283D01*
X15554048Y-15567235D01*
X15554048Y-15557712D01*
X15563571Y-15538664D01*
X15573095Y-15529140D01*
X15592143Y-15519616D01*
X15630238Y-15519616D01*
X15649286Y-15529140D01*
X15658809Y-15538664D01*
X15668333Y-15557712D01*
X15668333Y-15567235D01*
X15658809Y-15586283D01*
X15649286Y-15595807D01*
X15630238Y-15605331D01*
X15592143Y-15605331D01*
X15573095Y-15614854D01*
X15563571Y-15624378D01*
X15554048Y-15643426D01*
X15554048Y-15681521D01*
X15563571Y-15700569D01*
X15573095Y-15710093D01*
X15592143Y-15719616D01*
X15630238Y-15719616D01*
X15649286Y-15710093D01*
X15658809Y-15700569D01*
X15668333Y-15681521D01*
X15668333Y-15643426D01*
X15658809Y-15624378D01*
X15649286Y-15614854D01*
X15630238Y-15605331D01*
X15906428Y-15719616D02*
X15906428Y-15519616D01*
X15992143Y-15719616D02*
X15992143Y-15614854D01*
X15982619Y-15595807D01*
X15963571Y-15586283D01*
X15935000Y-15586283D01*
X15915952Y-15595807D01*
X15906428Y-15605331D01*
X16115952Y-15719616D02*
X16096905Y-15710093D01*
X16087381Y-15700569D01*
X16077857Y-15681521D01*
X16077857Y-15624378D01*
X16087381Y-15605331D01*
X16096905Y-15595807D01*
X16115952Y-15586283D01*
X16144524Y-15586283D01*
X16163571Y-15595807D01*
X16173095Y-15605331D01*
X16182619Y-15624378D01*
X16182619Y-15681521D01*
X16173095Y-15700569D01*
X16163571Y-15710093D01*
X16144524Y-15719616D01*
X16115952Y-15719616D01*
X16296905Y-15719616D02*
X16277857Y-15710093D01*
X16268333Y-15691045D01*
X16268333Y-15519616D01*
X16449286Y-15710093D02*
X16430238Y-15719616D01*
X16392143Y-15719616D01*
X16373095Y-15710093D01*
X16363571Y-15691045D01*
X16363571Y-15614854D01*
X16373095Y-15595807D01*
X16392143Y-15586283D01*
X16430238Y-15586283D01*
X16449286Y-15595807D01*
X16458809Y-15614854D01*
X16458809Y-15633902D01*
X16363571Y-15652950D01*
X16535000Y-15710093D02*
X16554048Y-15719616D01*
X16592143Y-15719616D01*
X16611190Y-15710093D01*
X16620714Y-15691045D01*
X16620714Y-15681521D01*
X16611190Y-15662474D01*
X16592143Y-15652950D01*
X16563571Y-15652950D01*
X16544524Y-15643426D01*
X16535000Y-15624378D01*
X16535000Y-15614854D01*
X16544524Y-15595807D01*
X16563571Y-15586283D01*
X16592143Y-15586283D01*
X16611190Y-15595807D01*
X16687381Y-15795807D02*
X16696905Y-15786283D01*
X16715952Y-15757712D01*
X16725476Y-15738664D01*
X16735000Y-15710093D01*
X16744524Y-15662474D01*
X16744524Y-15624378D01*
X16735000Y-15576759D01*
X16725476Y-15548188D01*
X16715952Y-15529140D01*
X16696905Y-15500569D01*
X16687381Y-15491045D01*
D13*
X11725000Y-15893140D02*
G75*
G03*
X11725000Y-15893140I-35000J0D01*
G01*
D11*
X12020714Y-15783616D02*
X12039762Y-15783616D01*
X12058809Y-15793140D01*
X12068333Y-15802664D01*
X12077857Y-15821712D01*
X12087381Y-15859807D01*
X12087381Y-15907426D01*
X12077857Y-15945521D01*
X12068333Y-15964569D01*
X12058809Y-15974093D01*
X12039762Y-15983616D01*
X12020714Y-15983616D01*
X12001667Y-15974093D01*
X11992143Y-15964569D01*
X11982619Y-15945521D01*
X11973095Y-15907426D01*
X11973095Y-15859807D01*
X11982619Y-15821712D01*
X11992143Y-15802664D01*
X12001667Y-15793140D01*
X12020714Y-15783616D01*
X12173095Y-15964569D02*
X12182619Y-15974093D01*
X12173095Y-15983616D01*
X12163571Y-15974093D01*
X12173095Y-15964569D01*
X12173095Y-15983616D01*
X12249286Y-15783616D02*
X12382619Y-15783616D01*
X12296905Y-15983616D01*
X12496905Y-15783616D02*
X12515952Y-15783616D01*
X12535000Y-15793140D01*
X12544524Y-15802664D01*
X12554048Y-15821712D01*
X12563571Y-15859807D01*
X12563571Y-15907426D01*
X12554048Y-15945521D01*
X12544524Y-15964569D01*
X12535000Y-15974093D01*
X12515952Y-15983616D01*
X12496905Y-15983616D01*
X12477857Y-15974093D01*
X12468333Y-15964569D01*
X12458809Y-15945521D01*
X12449286Y-15907426D01*
X12449286Y-15859807D01*
X12458809Y-15821712D01*
X12468333Y-15802664D01*
X12477857Y-15793140D01*
X12496905Y-15783616D01*
X12687381Y-15783616D02*
X12706428Y-15783616D01*
X12725476Y-15793140D01*
X12735000Y-15802664D01*
X12744524Y-15821712D01*
X12754048Y-15859807D01*
X12754048Y-15907426D01*
X12744524Y-15945521D01*
X12735000Y-15964569D01*
X12725476Y-15974093D01*
X12706428Y-15983616D01*
X12687381Y-15983616D01*
X12668333Y-15974093D01*
X12658809Y-15964569D01*
X12649286Y-15945521D01*
X12639762Y-15907426D01*
X12639762Y-15859807D01*
X12649286Y-15821712D01*
X12658809Y-15802664D01*
X12668333Y-15793140D01*
X12687381Y-15783616D01*
X12839762Y-15983616D02*
X12839762Y-15850283D01*
X12839762Y-15869331D02*
X12849286Y-15859807D01*
X12868333Y-15850283D01*
X12896905Y-15850283D01*
X12915952Y-15859807D01*
X12925476Y-15878854D01*
X12925476Y-15983616D01*
X12925476Y-15878854D02*
X12935000Y-15859807D01*
X12954048Y-15850283D01*
X12982619Y-15850283D01*
X13001667Y-15859807D01*
X13011190Y-15878854D01*
X13011190Y-15983616D01*
X13106428Y-15983616D02*
X13106428Y-15850283D01*
X13106428Y-15869331D02*
X13115952Y-15859807D01*
X13135000Y-15850283D01*
X13163571Y-15850283D01*
X13182619Y-15859807D01*
X13192143Y-15878854D01*
X13192143Y-15983616D01*
X13192143Y-15878854D02*
X13201667Y-15859807D01*
X13220714Y-15850283D01*
X13249286Y-15850283D01*
X13268333Y-15859807D01*
X13277857Y-15878854D01*
X13277857Y-15983616D01*
X13668333Y-15774093D02*
X13496905Y-16031235D01*
X13925476Y-15783616D02*
X13944524Y-15783616D01*
X13963571Y-15793140D01*
X13973095Y-15802664D01*
X13982619Y-15821712D01*
X13992143Y-15859807D01*
X13992143Y-15907426D01*
X13982619Y-15945521D01*
X13973095Y-15964569D01*
X13963571Y-15974093D01*
X13944524Y-15983616D01*
X13925476Y-15983616D01*
X13906428Y-15974093D01*
X13896905Y-15964569D01*
X13887381Y-15945521D01*
X13877857Y-15907426D01*
X13877857Y-15859807D01*
X13887381Y-15821712D01*
X13896905Y-15802664D01*
X13906428Y-15793140D01*
X13925476Y-15783616D01*
X14077857Y-15964569D02*
X14087381Y-15974093D01*
X14077857Y-15983616D01*
X14068333Y-15974093D01*
X14077857Y-15964569D01*
X14077857Y-15983616D01*
X14211190Y-15783616D02*
X14230238Y-15783616D01*
X14249286Y-15793140D01*
X14258809Y-15802664D01*
X14268333Y-15821712D01*
X14277857Y-15859807D01*
X14277857Y-15907426D01*
X14268333Y-15945521D01*
X14258809Y-15964569D01*
X14249286Y-15974093D01*
X14230238Y-15983616D01*
X14211190Y-15983616D01*
X14192143Y-15974093D01*
X14182619Y-15964569D01*
X14173095Y-15945521D01*
X14163571Y-15907426D01*
X14163571Y-15859807D01*
X14173095Y-15821712D01*
X14182619Y-15802664D01*
X14192143Y-15793140D01*
X14211190Y-15783616D01*
X14354048Y-15802664D02*
X14363571Y-15793140D01*
X14382619Y-15783616D01*
X14430238Y-15783616D01*
X14449286Y-15793140D01*
X14458809Y-15802664D01*
X14468333Y-15821712D01*
X14468333Y-15840759D01*
X14458809Y-15869331D01*
X14344524Y-15983616D01*
X14468333Y-15983616D01*
X14535000Y-15783616D02*
X14668333Y-15783616D01*
X14582619Y-15983616D01*
X14830238Y-15783616D02*
X14792143Y-15783616D01*
X14773095Y-15793140D01*
X14763571Y-15802664D01*
X14744524Y-15831235D01*
X14735000Y-15869331D01*
X14735000Y-15945521D01*
X14744524Y-15964569D01*
X14754048Y-15974093D01*
X14773095Y-15983616D01*
X14811190Y-15983616D01*
X14830238Y-15974093D01*
X14839762Y-15964569D01*
X14849286Y-15945521D01*
X14849286Y-15897902D01*
X14839762Y-15878854D01*
X14830238Y-15869331D01*
X14811190Y-15859807D01*
X14773095Y-15859807D01*
X14754048Y-15869331D01*
X14744524Y-15878854D01*
X14735000Y-15897902D01*
X14925476Y-15783616D02*
X14925476Y-15821712D01*
X15001667Y-15783616D02*
X15001667Y-15821712D01*
X15296905Y-16059807D02*
X15287381Y-16050283D01*
X15268333Y-16021712D01*
X15258809Y-16002664D01*
X15249286Y-15974093D01*
X15239762Y-15926474D01*
X15239762Y-15888378D01*
X15249286Y-15840759D01*
X15258809Y-15812188D01*
X15268333Y-15793140D01*
X15287381Y-15764569D01*
X15296905Y-15755045D01*
X15458809Y-15783616D02*
X15420714Y-15783616D01*
X15401667Y-15793140D01*
X15392143Y-15802664D01*
X15373095Y-15831235D01*
X15363571Y-15869331D01*
X15363571Y-15945521D01*
X15373095Y-15964569D01*
X15382619Y-15974093D01*
X15401667Y-15983616D01*
X15439762Y-15983616D01*
X15458809Y-15974093D01*
X15468333Y-15964569D01*
X15477857Y-15945521D01*
X15477857Y-15897902D01*
X15468333Y-15878854D01*
X15458809Y-15869331D01*
X15439762Y-15859807D01*
X15401667Y-15859807D01*
X15382619Y-15869331D01*
X15373095Y-15878854D01*
X15363571Y-15897902D01*
X15715952Y-15983616D02*
X15715952Y-15783616D01*
X15801667Y-15983616D02*
X15801667Y-15878854D01*
X15792143Y-15859807D01*
X15773095Y-15850283D01*
X15744524Y-15850283D01*
X15725476Y-15859807D01*
X15715952Y-15869331D01*
X15925476Y-15983616D02*
X15906428Y-15974093D01*
X15896905Y-15964569D01*
X15887381Y-15945521D01*
X15887381Y-15888378D01*
X15896905Y-15869331D01*
X15906428Y-15859807D01*
X15925476Y-15850283D01*
X15954048Y-15850283D01*
X15973095Y-15859807D01*
X15982619Y-15869331D01*
X15992143Y-15888378D01*
X15992143Y-15945521D01*
X15982619Y-15964569D01*
X15973095Y-15974093D01*
X15954048Y-15983616D01*
X15925476Y-15983616D01*
X16106428Y-15983616D02*
X16087381Y-15974093D01*
X16077857Y-15955045D01*
X16077857Y-15783616D01*
X16258809Y-15974093D02*
X16239762Y-15983616D01*
X16201667Y-15983616D01*
X16182619Y-15974093D01*
X16173095Y-15955045D01*
X16173095Y-15878854D01*
X16182619Y-15859807D01*
X16201667Y-15850283D01*
X16239762Y-15850283D01*
X16258809Y-15859807D01*
X16268333Y-15878854D01*
X16268333Y-15897902D01*
X16173095Y-15916950D01*
X16344524Y-15974093D02*
X16363571Y-15983616D01*
X16401667Y-15983616D01*
X16420714Y-15974093D01*
X16430238Y-15955045D01*
X16430238Y-15945521D01*
X16420714Y-15926474D01*
X16401667Y-15916950D01*
X16373095Y-15916950D01*
X16354048Y-15907426D01*
X16344524Y-15888378D01*
X16344524Y-15878854D01*
X16354048Y-15859807D01*
X16373095Y-15850283D01*
X16401667Y-15850283D01*
X16420714Y-15859807D01*
X16496905Y-16059807D02*
X16506428Y-16050283D01*
X16525476Y-16021712D01*
X16535000Y-16002664D01*
X16544524Y-15974093D01*
X16554048Y-15926474D01*
X16554048Y-15888378D01*
X16544524Y-15840759D01*
X16535000Y-15812188D01*
X16525476Y-15793140D01*
X16506428Y-15764569D01*
X16496905Y-15755045D01*
D14*
X11687500Y-16119640D02*
X11687500Y-16194640D01*
X11650000Y-16157140D02*
X11725000Y-16157140D01*
D11*
X12020714Y-16047616D02*
X12039762Y-16047616D01*
X12058809Y-16057140D01*
X12068333Y-16066664D01*
X12077857Y-16085712D01*
X12087381Y-16123807D01*
X12087381Y-16171426D01*
X12077857Y-16209521D01*
X12068333Y-16228569D01*
X12058809Y-16238093D01*
X12039762Y-16247616D01*
X12020714Y-16247616D01*
X12001667Y-16238093D01*
X11992143Y-16228569D01*
X11982619Y-16209521D01*
X11973095Y-16171426D01*
X11973095Y-16123807D01*
X11982619Y-16085712D01*
X11992143Y-16066664D01*
X12001667Y-16057140D01*
X12020714Y-16047616D01*
X12173095Y-16228569D02*
X12182619Y-16238093D01*
X12173095Y-16247616D01*
X12163571Y-16238093D01*
X12173095Y-16228569D01*
X12173095Y-16247616D01*
X12249286Y-16047616D02*
X12382619Y-16047616D01*
X12296905Y-16247616D01*
X12554048Y-16047616D02*
X12458809Y-16047616D01*
X12449286Y-16142854D01*
X12458809Y-16133331D01*
X12477857Y-16123807D01*
X12525476Y-16123807D01*
X12544524Y-16133331D01*
X12554048Y-16142854D01*
X12563571Y-16161902D01*
X12563571Y-16209521D01*
X12554048Y-16228569D01*
X12544524Y-16238093D01*
X12525476Y-16247616D01*
X12477857Y-16247616D01*
X12458809Y-16238093D01*
X12449286Y-16228569D01*
X12687381Y-16047616D02*
X12706428Y-16047616D01*
X12725476Y-16057140D01*
X12735000Y-16066664D01*
X12744524Y-16085712D01*
X12754048Y-16123807D01*
X12754048Y-16171426D01*
X12744524Y-16209521D01*
X12735000Y-16228569D01*
X12725476Y-16238093D01*
X12706428Y-16247616D01*
X12687381Y-16247616D01*
X12668333Y-16238093D01*
X12658809Y-16228569D01*
X12649286Y-16209521D01*
X12639762Y-16171426D01*
X12639762Y-16123807D01*
X12649286Y-16085712D01*
X12658809Y-16066664D01*
X12668333Y-16057140D01*
X12687381Y-16047616D01*
X12839762Y-16247616D02*
X12839762Y-16114283D01*
X12839762Y-16133331D02*
X12849286Y-16123807D01*
X12868333Y-16114283D01*
X12896905Y-16114283D01*
X12915952Y-16123807D01*
X12925476Y-16142854D01*
X12925476Y-16247616D01*
X12925476Y-16142854D02*
X12935000Y-16123807D01*
X12954048Y-16114283D01*
X12982619Y-16114283D01*
X13001667Y-16123807D01*
X13011190Y-16142854D01*
X13011190Y-16247616D01*
X13106428Y-16247616D02*
X13106428Y-16114283D01*
X13106428Y-16133331D02*
X13115952Y-16123807D01*
X13135000Y-16114283D01*
X13163571Y-16114283D01*
X13182619Y-16123807D01*
X13192143Y-16142854D01*
X13192143Y-16247616D01*
X13192143Y-16142854D02*
X13201667Y-16123807D01*
X13220714Y-16114283D01*
X13249286Y-16114283D01*
X13268333Y-16123807D01*
X13277857Y-16142854D01*
X13277857Y-16247616D01*
X13668333Y-16038093D02*
X13496905Y-16295235D01*
X13925476Y-16047616D02*
X13944524Y-16047616D01*
X13963571Y-16057140D01*
X13973095Y-16066664D01*
X13982619Y-16085712D01*
X13992143Y-16123807D01*
X13992143Y-16171426D01*
X13982619Y-16209521D01*
X13973095Y-16228569D01*
X13963571Y-16238093D01*
X13944524Y-16247616D01*
X13925476Y-16247616D01*
X13906428Y-16238093D01*
X13896905Y-16228569D01*
X13887381Y-16209521D01*
X13877857Y-16171426D01*
X13877857Y-16123807D01*
X13887381Y-16085712D01*
X13896905Y-16066664D01*
X13906428Y-16057140D01*
X13925476Y-16047616D01*
X14077857Y-16228569D02*
X14087381Y-16238093D01*
X14077857Y-16247616D01*
X14068333Y-16238093D01*
X14077857Y-16228569D01*
X14077857Y-16247616D01*
X14211190Y-16047616D02*
X14230238Y-16047616D01*
X14249286Y-16057140D01*
X14258809Y-16066664D01*
X14268333Y-16085712D01*
X14277857Y-16123807D01*
X14277857Y-16171426D01*
X14268333Y-16209521D01*
X14258809Y-16228569D01*
X14249286Y-16238093D01*
X14230238Y-16247616D01*
X14211190Y-16247616D01*
X14192143Y-16238093D01*
X14182619Y-16228569D01*
X14173095Y-16209521D01*
X14163571Y-16171426D01*
X14163571Y-16123807D01*
X14173095Y-16085712D01*
X14182619Y-16066664D01*
X14192143Y-16057140D01*
X14211190Y-16047616D01*
X14354048Y-16066664D02*
X14363571Y-16057140D01*
X14382619Y-16047616D01*
X14430238Y-16047616D01*
X14449286Y-16057140D01*
X14458809Y-16066664D01*
X14468333Y-16085712D01*
X14468333Y-16104759D01*
X14458809Y-16133331D01*
X14344524Y-16247616D01*
X14468333Y-16247616D01*
X14563571Y-16247616D02*
X14601667Y-16247616D01*
X14620714Y-16238093D01*
X14630238Y-16228569D01*
X14649286Y-16199997D01*
X14658809Y-16161902D01*
X14658809Y-16085712D01*
X14649286Y-16066664D01*
X14639762Y-16057140D01*
X14620714Y-16047616D01*
X14582619Y-16047616D01*
X14563571Y-16057140D01*
X14554048Y-16066664D01*
X14544524Y-16085712D01*
X14544524Y-16133331D01*
X14554048Y-16152378D01*
X14563571Y-16161902D01*
X14582619Y-16171426D01*
X14620714Y-16171426D01*
X14639762Y-16161902D01*
X14649286Y-16152378D01*
X14658809Y-16133331D01*
X14839762Y-16047616D02*
X14744524Y-16047616D01*
X14735000Y-16142854D01*
X14744524Y-16133331D01*
X14763571Y-16123807D01*
X14811190Y-16123807D01*
X14830238Y-16133331D01*
X14839762Y-16142854D01*
X14849286Y-16161902D01*
X14849286Y-16209521D01*
X14839762Y-16228569D01*
X14830238Y-16238093D01*
X14811190Y-16247616D01*
X14763571Y-16247616D01*
X14744524Y-16238093D01*
X14735000Y-16228569D01*
X14925476Y-16047616D02*
X14925476Y-16085712D01*
X15001667Y-16047616D02*
X15001667Y-16085712D01*
X15296905Y-16323807D02*
X15287381Y-16314283D01*
X15268333Y-16285712D01*
X15258809Y-16266664D01*
X15249286Y-16238093D01*
X15239762Y-16190474D01*
X15239762Y-16152378D01*
X15249286Y-16104759D01*
X15258809Y-16076188D01*
X15268333Y-16057140D01*
X15287381Y-16028569D01*
X15296905Y-16019045D01*
X15468333Y-16047616D02*
X15373095Y-16047616D01*
X15363571Y-16142854D01*
X15373095Y-16133331D01*
X15392143Y-16123807D01*
X15439762Y-16123807D01*
X15458809Y-16133331D01*
X15468333Y-16142854D01*
X15477857Y-16161902D01*
X15477857Y-16209521D01*
X15468333Y-16228569D01*
X15458809Y-16238093D01*
X15439762Y-16247616D01*
X15392143Y-16247616D01*
X15373095Y-16238093D01*
X15363571Y-16228569D01*
X15715952Y-16247616D02*
X15715952Y-16047616D01*
X15801667Y-16247616D02*
X15801667Y-16142854D01*
X15792143Y-16123807D01*
X15773095Y-16114283D01*
X15744524Y-16114283D01*
X15725476Y-16123807D01*
X15715952Y-16133331D01*
X15925476Y-16247616D02*
X15906428Y-16238093D01*
X15896905Y-16228569D01*
X15887381Y-16209521D01*
X15887381Y-16152378D01*
X15896905Y-16133331D01*
X15906428Y-16123807D01*
X15925476Y-16114283D01*
X15954048Y-16114283D01*
X15973095Y-16123807D01*
X15982619Y-16133331D01*
X15992143Y-16152378D01*
X15992143Y-16209521D01*
X15982619Y-16228569D01*
X15973095Y-16238093D01*
X15954048Y-16247616D01*
X15925476Y-16247616D01*
X16106428Y-16247616D02*
X16087381Y-16238093D01*
X16077857Y-16219045D01*
X16077857Y-16047616D01*
X16258809Y-16238093D02*
X16239762Y-16247616D01*
X16201667Y-16247616D01*
X16182619Y-16238093D01*
X16173095Y-16219045D01*
X16173095Y-16142854D01*
X16182619Y-16123807D01*
X16201667Y-16114283D01*
X16239762Y-16114283D01*
X16258809Y-16123807D01*
X16268333Y-16142854D01*
X16268333Y-16161902D01*
X16173095Y-16180950D01*
X16344524Y-16238093D02*
X16363571Y-16247616D01*
X16401667Y-16247616D01*
X16420714Y-16238093D01*
X16430238Y-16219045D01*
X16430238Y-16209521D01*
X16420714Y-16190474D01*
X16401667Y-16180950D01*
X16373095Y-16180950D01*
X16354048Y-16171426D01*
X16344524Y-16152378D01*
X16344524Y-16142854D01*
X16354048Y-16123807D01*
X16373095Y-16114283D01*
X16401667Y-16114283D01*
X16420714Y-16123807D01*
X16496905Y-16323807D02*
X16506428Y-16314283D01*
X16525476Y-16285712D01*
X16535000Y-16266664D01*
X16544524Y-16238093D01*
X16554048Y-16190474D01*
X16554048Y-16152378D01*
X16544524Y-16104759D01*
X16535000Y-16076188D01*
X16525476Y-16057140D01*
X16506428Y-16028569D01*
X16496905Y-16019045D01*
D15*
X11713284Y-16449425D02*
X11713284Y-16392856D01*
X11656715Y-16392856D01*
X11656715Y-16449425D01*
X11713284Y-16449425D01*
D11*
X12020714Y-16311616D02*
X12039762Y-16311616D01*
X12058809Y-16321140D01*
X12068333Y-16330664D01*
X12077857Y-16349712D01*
X12087381Y-16387807D01*
X12087381Y-16435426D01*
X12077857Y-16473521D01*
X12068333Y-16492569D01*
X12058809Y-16502093D01*
X12039762Y-16511616D01*
X12020714Y-16511616D01*
X12001667Y-16502093D01*
X11992143Y-16492569D01*
X11982619Y-16473521D01*
X11973095Y-16435426D01*
X11973095Y-16387807D01*
X11982619Y-16349712D01*
X11992143Y-16330664D01*
X12001667Y-16321140D01*
X12020714Y-16311616D01*
X12173095Y-16492569D02*
X12182619Y-16502093D01*
X12173095Y-16511616D01*
X12163571Y-16502093D01*
X12173095Y-16492569D01*
X12173095Y-16511616D01*
X12296905Y-16397331D02*
X12277857Y-16387807D01*
X12268333Y-16378283D01*
X12258809Y-16359235D01*
X12258809Y-16349712D01*
X12268333Y-16330664D01*
X12277857Y-16321140D01*
X12296905Y-16311616D01*
X12335000Y-16311616D01*
X12354048Y-16321140D01*
X12363571Y-16330664D01*
X12373095Y-16349712D01*
X12373095Y-16359235D01*
X12363571Y-16378283D01*
X12354048Y-16387807D01*
X12335000Y-16397331D01*
X12296905Y-16397331D01*
X12277857Y-16406854D01*
X12268333Y-16416378D01*
X12258809Y-16435426D01*
X12258809Y-16473521D01*
X12268333Y-16492569D01*
X12277857Y-16502093D01*
X12296905Y-16511616D01*
X12335000Y-16511616D01*
X12354048Y-16502093D01*
X12363571Y-16492569D01*
X12373095Y-16473521D01*
X12373095Y-16435426D01*
X12363571Y-16416378D01*
X12354048Y-16406854D01*
X12335000Y-16397331D01*
X12496905Y-16311616D02*
X12515952Y-16311616D01*
X12535000Y-16321140D01*
X12544524Y-16330664D01*
X12554048Y-16349712D01*
X12563571Y-16387807D01*
X12563571Y-16435426D01*
X12554048Y-16473521D01*
X12544524Y-16492569D01*
X12535000Y-16502093D01*
X12515952Y-16511616D01*
X12496905Y-16511616D01*
X12477857Y-16502093D01*
X12468333Y-16492569D01*
X12458809Y-16473521D01*
X12449286Y-16435426D01*
X12449286Y-16387807D01*
X12458809Y-16349712D01*
X12468333Y-16330664D01*
X12477857Y-16321140D01*
X12496905Y-16311616D01*
X12687381Y-16311616D02*
X12706428Y-16311616D01*
X12725476Y-16321140D01*
X12735000Y-16330664D01*
X12744524Y-16349712D01*
X12754048Y-16387807D01*
X12754048Y-16435426D01*
X12744524Y-16473521D01*
X12735000Y-16492569D01*
X12725476Y-16502093D01*
X12706428Y-16511616D01*
X12687381Y-16511616D01*
X12668333Y-16502093D01*
X12658809Y-16492569D01*
X12649286Y-16473521D01*
X12639762Y-16435426D01*
X12639762Y-16387807D01*
X12649286Y-16349712D01*
X12658809Y-16330664D01*
X12668333Y-16321140D01*
X12687381Y-16311616D01*
X12839762Y-16511616D02*
X12839762Y-16378283D01*
X12839762Y-16397331D02*
X12849286Y-16387807D01*
X12868333Y-16378283D01*
X12896905Y-16378283D01*
X12915952Y-16387807D01*
X12925476Y-16406854D01*
X12925476Y-16511616D01*
X12925476Y-16406854D02*
X12935000Y-16387807D01*
X12954048Y-16378283D01*
X12982619Y-16378283D01*
X13001667Y-16387807D01*
X13011190Y-16406854D01*
X13011190Y-16511616D01*
X13106428Y-16511616D02*
X13106428Y-16378283D01*
X13106428Y-16397331D02*
X13115952Y-16387807D01*
X13135000Y-16378283D01*
X13163571Y-16378283D01*
X13182619Y-16387807D01*
X13192143Y-16406854D01*
X13192143Y-16511616D01*
X13192143Y-16406854D02*
X13201667Y-16387807D01*
X13220714Y-16378283D01*
X13249286Y-16378283D01*
X13268333Y-16387807D01*
X13277857Y-16406854D01*
X13277857Y-16511616D01*
X13668333Y-16302093D02*
X13496905Y-16559235D01*
X13925476Y-16311616D02*
X13944524Y-16311616D01*
X13963571Y-16321140D01*
X13973095Y-16330664D01*
X13982619Y-16349712D01*
X13992143Y-16387807D01*
X13992143Y-16435426D01*
X13982619Y-16473521D01*
X13973095Y-16492569D01*
X13963571Y-16502093D01*
X13944524Y-16511616D01*
X13925476Y-16511616D01*
X13906428Y-16502093D01*
X13896905Y-16492569D01*
X13887381Y-16473521D01*
X13877857Y-16435426D01*
X13877857Y-16387807D01*
X13887381Y-16349712D01*
X13896905Y-16330664D01*
X13906428Y-16321140D01*
X13925476Y-16311616D01*
X14077857Y-16492569D02*
X14087381Y-16502093D01*
X14077857Y-16511616D01*
X14068333Y-16502093D01*
X14077857Y-16492569D01*
X14077857Y-16511616D01*
X14211190Y-16311616D02*
X14230238Y-16311616D01*
X14249286Y-16321140D01*
X14258809Y-16330664D01*
X14268333Y-16349712D01*
X14277857Y-16387807D01*
X14277857Y-16435426D01*
X14268333Y-16473521D01*
X14258809Y-16492569D01*
X14249286Y-16502093D01*
X14230238Y-16511616D01*
X14211190Y-16511616D01*
X14192143Y-16502093D01*
X14182619Y-16492569D01*
X14173095Y-16473521D01*
X14163571Y-16435426D01*
X14163571Y-16387807D01*
X14173095Y-16349712D01*
X14182619Y-16330664D01*
X14192143Y-16321140D01*
X14211190Y-16311616D01*
X14344524Y-16311616D02*
X14468333Y-16311616D01*
X14401667Y-16387807D01*
X14430238Y-16387807D01*
X14449286Y-16397331D01*
X14458809Y-16406854D01*
X14468333Y-16425902D01*
X14468333Y-16473521D01*
X14458809Y-16492569D01*
X14449286Y-16502093D01*
X14430238Y-16511616D01*
X14373095Y-16511616D01*
X14354048Y-16502093D01*
X14344524Y-16492569D01*
X14658809Y-16511616D02*
X14544524Y-16511616D01*
X14601667Y-16511616D02*
X14601667Y-16311616D01*
X14582619Y-16340188D01*
X14563571Y-16359235D01*
X14544524Y-16368759D01*
X14839762Y-16311616D02*
X14744524Y-16311616D01*
X14735000Y-16406854D01*
X14744524Y-16397331D01*
X14763571Y-16387807D01*
X14811190Y-16387807D01*
X14830238Y-16397331D01*
X14839762Y-16406854D01*
X14849286Y-16425902D01*
X14849286Y-16473521D01*
X14839762Y-16492569D01*
X14830238Y-16502093D01*
X14811190Y-16511616D01*
X14763571Y-16511616D01*
X14744524Y-16502093D01*
X14735000Y-16492569D01*
X14925476Y-16311616D02*
X14925476Y-16349712D01*
X15001667Y-16311616D02*
X15001667Y-16349712D01*
X15296905Y-16587807D02*
X15287381Y-16578283D01*
X15268333Y-16549712D01*
X15258809Y-16530664D01*
X15249286Y-16502093D01*
X15239762Y-16454474D01*
X15239762Y-16416378D01*
X15249286Y-16368759D01*
X15258809Y-16340188D01*
X15268333Y-16321140D01*
X15287381Y-16292569D01*
X15296905Y-16283045D01*
X15458809Y-16311616D02*
X15420714Y-16311616D01*
X15401667Y-16321140D01*
X15392143Y-16330664D01*
X15373095Y-16359235D01*
X15363571Y-16397331D01*
X15363571Y-16473521D01*
X15373095Y-16492569D01*
X15382619Y-16502093D01*
X15401667Y-16511616D01*
X15439762Y-16511616D01*
X15458809Y-16502093D01*
X15468333Y-16492569D01*
X15477857Y-16473521D01*
X15477857Y-16425902D01*
X15468333Y-16406854D01*
X15458809Y-16397331D01*
X15439762Y-16387807D01*
X15401667Y-16387807D01*
X15382619Y-16397331D01*
X15373095Y-16406854D01*
X15363571Y-16425902D01*
X15658809Y-16311616D02*
X15563571Y-16311616D01*
X15554048Y-16406854D01*
X15563571Y-16397331D01*
X15582619Y-16387807D01*
X15630238Y-16387807D01*
X15649286Y-16397331D01*
X15658809Y-16406854D01*
X15668333Y-16425902D01*
X15668333Y-16473521D01*
X15658809Y-16492569D01*
X15649286Y-16502093D01*
X15630238Y-16511616D01*
X15582619Y-16511616D01*
X15563571Y-16502093D01*
X15554048Y-16492569D01*
X15906428Y-16511616D02*
X15906428Y-16311616D01*
X15992143Y-16511616D02*
X15992143Y-16406854D01*
X15982619Y-16387807D01*
X15963571Y-16378283D01*
X15935000Y-16378283D01*
X15915952Y-16387807D01*
X15906428Y-16397331D01*
X16115952Y-16511616D02*
X16096905Y-16502093D01*
X16087381Y-16492569D01*
X16077857Y-16473521D01*
X16077857Y-16416378D01*
X16087381Y-16397331D01*
X16096905Y-16387807D01*
X16115952Y-16378283D01*
X16144524Y-16378283D01*
X16163571Y-16387807D01*
X16173095Y-16397331D01*
X16182619Y-16416378D01*
X16182619Y-16473521D01*
X16173095Y-16492569D01*
X16163571Y-16502093D01*
X16144524Y-16511616D01*
X16115952Y-16511616D01*
X16296905Y-16511616D02*
X16277857Y-16502093D01*
X16268333Y-16483045D01*
X16268333Y-16311616D01*
X16449286Y-16502093D02*
X16430238Y-16511616D01*
X16392143Y-16511616D01*
X16373095Y-16502093D01*
X16363571Y-16483045D01*
X16363571Y-16406854D01*
X16373095Y-16387807D01*
X16392143Y-16378283D01*
X16430238Y-16378283D01*
X16449286Y-16387807D01*
X16458809Y-16406854D01*
X16458809Y-16425902D01*
X16363571Y-16444950D01*
X16535000Y-16502093D02*
X16554048Y-16511616D01*
X16592143Y-16511616D01*
X16611190Y-16502093D01*
X16620714Y-16483045D01*
X16620714Y-16473521D01*
X16611190Y-16454474D01*
X16592143Y-16444950D01*
X16563571Y-16444950D01*
X16544524Y-16435426D01*
X16535000Y-16416378D01*
X16535000Y-16406854D01*
X16544524Y-16387807D01*
X16563571Y-16378283D01*
X16592143Y-16378283D01*
X16611190Y-16387807D01*
X16687381Y-16587807D02*
X16696905Y-16578283D01*
X16715952Y-16549712D01*
X16725476Y-16530664D01*
X16735000Y-16502093D01*
X16744524Y-16454474D01*
X16744524Y-16416378D01*
X16735000Y-16368759D01*
X16725476Y-16340188D01*
X16715952Y-16321140D01*
X16696905Y-16292569D01*
X16687381Y-16283045D01*
D16*
X11675000Y-16735140D02*
X11725000Y-16685140D01*
X11675000Y-16635140D01*
X11625000Y-16685140D01*
X11675000Y-16735140D01*
D11*
X12087381Y-16775616D02*
X11973095Y-16775616D01*
X12030238Y-16775616D02*
X12030238Y-16575616D01*
X12011190Y-16604188D01*
X11992143Y-16623235D01*
X11973095Y-16632759D01*
X12173095Y-16756569D02*
X12182619Y-16766093D01*
X12173095Y-16775616D01*
X12163571Y-16766093D01*
X12173095Y-16756569D01*
X12173095Y-16775616D01*
X12306428Y-16575616D02*
X12325476Y-16575616D01*
X12344524Y-16585140D01*
X12354048Y-16594664D01*
X12363571Y-16613712D01*
X12373095Y-16651807D01*
X12373095Y-16699426D01*
X12363571Y-16737521D01*
X12354048Y-16756569D01*
X12344524Y-16766093D01*
X12325476Y-16775616D01*
X12306428Y-16775616D01*
X12287381Y-16766093D01*
X12277857Y-16756569D01*
X12268333Y-16737521D01*
X12258809Y-16699426D01*
X12258809Y-16651807D01*
X12268333Y-16613712D01*
X12277857Y-16594664D01*
X12287381Y-16585140D01*
X12306428Y-16575616D01*
X12496905Y-16575616D02*
X12515952Y-16575616D01*
X12535000Y-16585140D01*
X12544524Y-16594664D01*
X12554048Y-16613712D01*
X12563571Y-16651807D01*
X12563571Y-16699426D01*
X12554048Y-16737521D01*
X12544524Y-16756569D01*
X12535000Y-16766093D01*
X12515952Y-16775616D01*
X12496905Y-16775616D01*
X12477857Y-16766093D01*
X12468333Y-16756569D01*
X12458809Y-16737521D01*
X12449286Y-16699426D01*
X12449286Y-16651807D01*
X12458809Y-16613712D01*
X12468333Y-16594664D01*
X12477857Y-16585140D01*
X12496905Y-16575616D01*
X12687381Y-16575616D02*
X12706428Y-16575616D01*
X12725476Y-16585140D01*
X12735000Y-16594664D01*
X12744524Y-16613712D01*
X12754048Y-16651807D01*
X12754048Y-16699426D01*
X12744524Y-16737521D01*
X12735000Y-16756569D01*
X12725476Y-16766093D01*
X12706428Y-16775616D01*
X12687381Y-16775616D01*
X12668333Y-16766093D01*
X12658809Y-16756569D01*
X12649286Y-16737521D01*
X12639762Y-16699426D01*
X12639762Y-16651807D01*
X12649286Y-16613712D01*
X12658809Y-16594664D01*
X12668333Y-16585140D01*
X12687381Y-16575616D01*
X12839762Y-16775616D02*
X12839762Y-16642283D01*
X12839762Y-16661331D02*
X12849286Y-16651807D01*
X12868333Y-16642283D01*
X12896905Y-16642283D01*
X12915952Y-16651807D01*
X12925476Y-16670854D01*
X12925476Y-16775616D01*
X12925476Y-16670854D02*
X12935000Y-16651807D01*
X12954048Y-16642283D01*
X12982619Y-16642283D01*
X13001667Y-16651807D01*
X13011190Y-16670854D01*
X13011190Y-16775616D01*
X13106428Y-16775616D02*
X13106428Y-16642283D01*
X13106428Y-16661331D02*
X13115952Y-16651807D01*
X13135000Y-16642283D01*
X13163571Y-16642283D01*
X13182619Y-16651807D01*
X13192143Y-16670854D01*
X13192143Y-16775616D01*
X13192143Y-16670854D02*
X13201667Y-16651807D01*
X13220714Y-16642283D01*
X13249286Y-16642283D01*
X13268333Y-16651807D01*
X13277857Y-16670854D01*
X13277857Y-16775616D01*
X13668333Y-16566093D02*
X13496905Y-16823236D01*
X13925476Y-16575616D02*
X13944524Y-16575616D01*
X13963571Y-16585140D01*
X13973095Y-16594664D01*
X13982619Y-16613712D01*
X13992143Y-16651807D01*
X13992143Y-16699426D01*
X13982619Y-16737521D01*
X13973095Y-16756569D01*
X13963571Y-16766093D01*
X13944524Y-16775616D01*
X13925476Y-16775616D01*
X13906428Y-16766093D01*
X13896905Y-16756569D01*
X13887381Y-16737521D01*
X13877857Y-16699426D01*
X13877857Y-16651807D01*
X13887381Y-16613712D01*
X13896905Y-16594664D01*
X13906428Y-16585140D01*
X13925476Y-16575616D01*
X14077857Y-16756569D02*
X14087381Y-16766093D01*
X14077857Y-16775616D01*
X14068333Y-16766093D01*
X14077857Y-16756569D01*
X14077857Y-16775616D01*
X14211190Y-16575616D02*
X14230238Y-16575616D01*
X14249286Y-16585140D01*
X14258809Y-16594664D01*
X14268333Y-16613712D01*
X14277857Y-16651807D01*
X14277857Y-16699426D01*
X14268333Y-16737521D01*
X14258809Y-16756569D01*
X14249286Y-16766093D01*
X14230238Y-16775616D01*
X14211190Y-16775616D01*
X14192143Y-16766093D01*
X14182619Y-16756569D01*
X14173095Y-16737521D01*
X14163571Y-16699426D01*
X14163571Y-16651807D01*
X14173095Y-16613712D01*
X14182619Y-16594664D01*
X14192143Y-16585140D01*
X14211190Y-16575616D01*
X14344524Y-16575616D02*
X14468333Y-16575616D01*
X14401667Y-16651807D01*
X14430238Y-16651807D01*
X14449286Y-16661331D01*
X14458809Y-16670854D01*
X14468333Y-16689902D01*
X14468333Y-16737521D01*
X14458809Y-16756569D01*
X14449286Y-16766093D01*
X14430238Y-16775616D01*
X14373095Y-16775616D01*
X14354048Y-16766093D01*
X14344524Y-16756569D01*
X14563571Y-16775616D02*
X14601667Y-16775616D01*
X14620714Y-16766093D01*
X14630238Y-16756569D01*
X14649286Y-16727997D01*
X14658809Y-16689902D01*
X14658809Y-16613712D01*
X14649286Y-16594664D01*
X14639762Y-16585140D01*
X14620714Y-16575616D01*
X14582619Y-16575616D01*
X14563571Y-16585140D01*
X14554048Y-16594664D01*
X14544524Y-16613712D01*
X14544524Y-16661331D01*
X14554048Y-16680378D01*
X14563571Y-16689902D01*
X14582619Y-16699426D01*
X14620714Y-16699426D01*
X14639762Y-16689902D01*
X14649286Y-16680378D01*
X14658809Y-16661331D01*
X14830238Y-16642283D02*
X14830238Y-16775616D01*
X14782619Y-16566093D02*
X14735000Y-16708950D01*
X14858809Y-16708950D01*
X14925476Y-16575616D02*
X14925476Y-16613712D01*
X15001667Y-16575616D02*
X15001667Y-16613712D01*
X15296905Y-16851807D02*
X15287381Y-16842283D01*
X15268333Y-16813712D01*
X15258809Y-16794664D01*
X15249286Y-16766093D01*
X15239762Y-16718474D01*
X15239762Y-16680378D01*
X15249286Y-16632759D01*
X15258809Y-16604188D01*
X15268333Y-16585140D01*
X15287381Y-16556569D01*
X15296905Y-16547045D01*
X15363571Y-16594664D02*
X15373095Y-16585140D01*
X15392143Y-16575616D01*
X15439762Y-16575616D01*
X15458809Y-16585140D01*
X15468333Y-16594664D01*
X15477857Y-16613712D01*
X15477857Y-16632759D01*
X15468333Y-16661331D01*
X15354048Y-16775616D01*
X15477857Y-16775616D01*
X15544524Y-16575616D02*
X15668333Y-16575616D01*
X15601667Y-16651807D01*
X15630238Y-16651807D01*
X15649286Y-16661331D01*
X15658809Y-16670854D01*
X15668333Y-16689902D01*
X15668333Y-16737521D01*
X15658809Y-16756569D01*
X15649286Y-16766093D01*
X15630238Y-16775616D01*
X15573095Y-16775616D01*
X15554048Y-16766093D01*
X15544524Y-16756569D01*
X15906428Y-16775616D02*
X15906428Y-16575616D01*
X15992143Y-16775616D02*
X15992143Y-16670854D01*
X15982619Y-16651807D01*
X15963571Y-16642283D01*
X15935000Y-16642283D01*
X15915952Y-16651807D01*
X15906428Y-16661331D01*
X16115952Y-16775616D02*
X16096905Y-16766093D01*
X16087381Y-16756569D01*
X16077857Y-16737521D01*
X16077857Y-16680378D01*
X16087381Y-16661331D01*
X16096905Y-16651807D01*
X16115952Y-16642283D01*
X16144524Y-16642283D01*
X16163571Y-16651807D01*
X16173095Y-16661331D01*
X16182619Y-16680378D01*
X16182619Y-16737521D01*
X16173095Y-16756569D01*
X16163571Y-16766093D01*
X16144524Y-16775616D01*
X16115952Y-16775616D01*
X16296905Y-16775616D02*
X16277857Y-16766093D01*
X16268333Y-16747045D01*
X16268333Y-16575616D01*
X16449286Y-16766093D02*
X16430238Y-16775616D01*
X16392143Y-16775616D01*
X16373095Y-16766093D01*
X16363571Y-16747045D01*
X16363571Y-16670854D01*
X16373095Y-16651807D01*
X16392143Y-16642283D01*
X16430238Y-16642283D01*
X16449286Y-16651807D01*
X16458809Y-16670854D01*
X16458809Y-16689902D01*
X16363571Y-16708950D01*
X16535000Y-16766093D02*
X16554048Y-16775616D01*
X16592143Y-16775616D01*
X16611190Y-16766093D01*
X16620714Y-16747045D01*
X16620714Y-16737521D01*
X16611190Y-16718474D01*
X16592143Y-16708950D01*
X16563571Y-16708950D01*
X16544524Y-16699426D01*
X16535000Y-16680378D01*
X16535000Y-16670854D01*
X16544524Y-16651807D01*
X16563571Y-16642283D01*
X16592143Y-16642283D01*
X16611190Y-16651807D01*
X16687381Y-16851807D02*
X16696905Y-16842283D01*
X16715952Y-16813712D01*
X16725476Y-16794664D01*
X16735000Y-16766093D01*
X16744524Y-16718474D01*
X16744524Y-16680378D01*
X16735000Y-16632759D01*
X16725476Y-16604188D01*
X16715952Y-16585140D01*
X16696905Y-16556569D01*
X16687381Y-16547045D01*
X11525000Y-16849140D02*
X11725000Y-17049140D01*
X11725000Y-16849140D02*
X11525000Y-17049140D01*
X11725000Y-16949140D02*
G75*
G03*
X11725000Y-16949140I-100000J0D01*
G01*
X11973095Y-16858664D02*
X11982619Y-16849140D01*
X12001667Y-16839616D01*
X12049286Y-16839616D01*
X12068333Y-16849140D01*
X12077857Y-16858664D01*
X12087381Y-16877712D01*
X12087381Y-16896759D01*
X12077857Y-16925331D01*
X11963571Y-17039616D01*
X12087381Y-17039616D01*
X12173095Y-17020569D02*
X12182619Y-17030093D01*
X12173095Y-17039616D01*
X12163571Y-17030093D01*
X12173095Y-17020569D01*
X12173095Y-17039616D01*
X12258809Y-16858664D02*
X12268333Y-16849140D01*
X12287381Y-16839616D01*
X12335000Y-16839616D01*
X12354048Y-16849140D01*
X12363571Y-16858664D01*
X12373095Y-16877712D01*
X12373095Y-16896759D01*
X12363571Y-16925331D01*
X12249286Y-17039616D01*
X12373095Y-17039616D01*
X12496905Y-16839616D02*
X12515952Y-16839616D01*
X12535000Y-16849140D01*
X12544524Y-16858664D01*
X12554048Y-16877712D01*
X12563571Y-16915807D01*
X12563571Y-16963426D01*
X12554048Y-17001521D01*
X12544524Y-17020569D01*
X12535000Y-17030093D01*
X12515952Y-17039616D01*
X12496905Y-17039616D01*
X12477857Y-17030093D01*
X12468333Y-17020569D01*
X12458809Y-17001521D01*
X12449286Y-16963426D01*
X12449286Y-16915807D01*
X12458809Y-16877712D01*
X12468333Y-16858664D01*
X12477857Y-16849140D01*
X12496905Y-16839616D01*
X12687381Y-16839616D02*
X12706428Y-16839616D01*
X12725476Y-16849140D01*
X12735000Y-16858664D01*
X12744524Y-16877712D01*
X12754048Y-16915807D01*
X12754048Y-16963426D01*
X12744524Y-17001521D01*
X12735000Y-17020569D01*
X12725476Y-17030093D01*
X12706428Y-17039616D01*
X12687381Y-17039616D01*
X12668333Y-17030093D01*
X12658809Y-17020569D01*
X12649286Y-17001521D01*
X12639762Y-16963426D01*
X12639762Y-16915807D01*
X12649286Y-16877712D01*
X12658809Y-16858664D01*
X12668333Y-16849140D01*
X12687381Y-16839616D01*
X12839762Y-17039616D02*
X12839762Y-16906283D01*
X12839762Y-16925331D02*
X12849286Y-16915807D01*
X12868333Y-16906283D01*
X12896905Y-16906283D01*
X12915952Y-16915807D01*
X12925476Y-16934855D01*
X12925476Y-17039616D01*
X12925476Y-16934855D02*
X12935000Y-16915807D01*
X12954048Y-16906283D01*
X12982619Y-16906283D01*
X13001667Y-16915807D01*
X13011190Y-16934855D01*
X13011190Y-17039616D01*
X13106428Y-17039616D02*
X13106428Y-16906283D01*
X13106428Y-16925331D02*
X13115952Y-16915807D01*
X13135000Y-16906283D01*
X13163571Y-16906283D01*
X13182619Y-16915807D01*
X13192143Y-16934855D01*
X13192143Y-17039616D01*
X13192143Y-16934855D02*
X13201667Y-16915807D01*
X13220714Y-16906283D01*
X13249286Y-16906283D01*
X13268333Y-16915807D01*
X13277857Y-16934855D01*
X13277857Y-17039616D01*
X13668333Y-16830093D02*
X13496905Y-17087236D01*
X13925476Y-16839616D02*
X13944524Y-16839616D01*
X13963571Y-16849140D01*
X13973095Y-16858664D01*
X13982619Y-16877712D01*
X13992143Y-16915807D01*
X13992143Y-16963426D01*
X13982619Y-17001521D01*
X13973095Y-17020569D01*
X13963571Y-17030093D01*
X13944524Y-17039616D01*
X13925476Y-17039616D01*
X13906428Y-17030093D01*
X13896905Y-17020569D01*
X13887381Y-17001521D01*
X13877857Y-16963426D01*
X13877857Y-16915807D01*
X13887381Y-16877712D01*
X13896905Y-16858664D01*
X13906428Y-16849140D01*
X13925476Y-16839616D01*
X14077857Y-17020569D02*
X14087381Y-17030093D01*
X14077857Y-17039616D01*
X14068333Y-17030093D01*
X14077857Y-17020569D01*
X14077857Y-17039616D01*
X14211190Y-16839616D02*
X14230238Y-16839616D01*
X14249286Y-16849140D01*
X14258809Y-16858664D01*
X14268333Y-16877712D01*
X14277857Y-16915807D01*
X14277857Y-16963426D01*
X14268333Y-17001521D01*
X14258809Y-17020569D01*
X14249286Y-17030093D01*
X14230238Y-17039616D01*
X14211190Y-17039616D01*
X14192143Y-17030093D01*
X14182619Y-17020569D01*
X14173095Y-17001521D01*
X14163571Y-16963426D01*
X14163571Y-16915807D01*
X14173095Y-16877712D01*
X14182619Y-16858664D01*
X14192143Y-16849140D01*
X14211190Y-16839616D01*
X14392143Y-16925331D02*
X14373095Y-16915807D01*
X14363571Y-16906283D01*
X14354048Y-16887236D01*
X14354048Y-16877712D01*
X14363571Y-16858664D01*
X14373095Y-16849140D01*
X14392143Y-16839616D01*
X14430238Y-16839616D01*
X14449286Y-16849140D01*
X14458809Y-16858664D01*
X14468333Y-16877712D01*
X14468333Y-16887236D01*
X14458809Y-16906283D01*
X14449286Y-16915807D01*
X14430238Y-16925331D01*
X14392143Y-16925331D01*
X14373095Y-16934855D01*
X14363571Y-16944378D01*
X14354048Y-16963426D01*
X14354048Y-17001521D01*
X14363571Y-17020569D01*
X14373095Y-17030093D01*
X14392143Y-17039616D01*
X14430238Y-17039616D01*
X14449286Y-17030093D01*
X14458809Y-17020569D01*
X14468333Y-17001521D01*
X14468333Y-16963426D01*
X14458809Y-16944378D01*
X14449286Y-16934855D01*
X14430238Y-16925331D01*
X14639762Y-16839616D02*
X14601667Y-16839616D01*
X14582619Y-16849140D01*
X14573095Y-16858664D01*
X14554048Y-16887236D01*
X14544524Y-16925331D01*
X14544524Y-17001521D01*
X14554048Y-17020569D01*
X14563571Y-17030093D01*
X14582619Y-17039616D01*
X14620714Y-17039616D01*
X14639762Y-17030093D01*
X14649286Y-17020569D01*
X14658809Y-17001521D01*
X14658809Y-16953902D01*
X14649286Y-16934855D01*
X14639762Y-16925331D01*
X14620714Y-16915807D01*
X14582619Y-16915807D01*
X14563571Y-16925331D01*
X14554048Y-16934855D01*
X14544524Y-16953902D01*
X14830238Y-16839616D02*
X14792143Y-16839616D01*
X14773095Y-16849140D01*
X14763571Y-16858664D01*
X14744524Y-16887236D01*
X14735000Y-16925331D01*
X14735000Y-17001521D01*
X14744524Y-17020569D01*
X14754048Y-17030093D01*
X14773095Y-17039616D01*
X14811190Y-17039616D01*
X14830238Y-17030093D01*
X14839762Y-17020569D01*
X14849286Y-17001521D01*
X14849286Y-16953902D01*
X14839762Y-16934855D01*
X14830238Y-16925331D01*
X14811190Y-16915807D01*
X14773095Y-16915807D01*
X14754048Y-16925331D01*
X14744524Y-16934855D01*
X14735000Y-16953902D01*
X14925476Y-16839616D02*
X14925476Y-16877712D01*
X15001667Y-16839616D02*
X15001667Y-16877712D01*
X15296905Y-17115807D02*
X15287381Y-17106283D01*
X15268333Y-17077712D01*
X15258809Y-17058664D01*
X15249286Y-17030093D01*
X15239762Y-16982474D01*
X15239762Y-16944378D01*
X15249286Y-16896759D01*
X15258809Y-16868188D01*
X15268333Y-16849140D01*
X15287381Y-16820569D01*
X15296905Y-16811045D01*
X15458809Y-16906283D02*
X15458809Y-17039616D01*
X15411190Y-16830093D02*
X15363571Y-16972950D01*
X15487381Y-16972950D01*
X15715952Y-17039616D02*
X15715952Y-16839616D01*
X15801667Y-17039616D02*
X15801667Y-16934855D01*
X15792143Y-16915807D01*
X15773095Y-16906283D01*
X15744524Y-16906283D01*
X15725476Y-16915807D01*
X15715952Y-16925331D01*
X15925476Y-17039616D02*
X15906428Y-17030093D01*
X15896905Y-17020569D01*
X15887381Y-17001521D01*
X15887381Y-16944378D01*
X15896905Y-16925331D01*
X15906428Y-16915807D01*
X15925476Y-16906283D01*
X15954048Y-16906283D01*
X15973095Y-16915807D01*
X15982619Y-16925331D01*
X15992143Y-16944378D01*
X15992143Y-17001521D01*
X15982619Y-17020569D01*
X15973095Y-17030093D01*
X15954048Y-17039616D01*
X15925476Y-17039616D01*
X16106428Y-17039616D02*
X16087381Y-17030093D01*
X16077857Y-17011045D01*
X16077857Y-16839616D01*
X16258809Y-17030093D02*
X16239762Y-17039616D01*
X16201667Y-17039616D01*
X16182619Y-17030093D01*
X16173095Y-17011045D01*
X16173095Y-16934855D01*
X16182619Y-16915807D01*
X16201667Y-16906283D01*
X16239762Y-16906283D01*
X16258809Y-16915807D01*
X16268333Y-16934855D01*
X16268333Y-16953902D01*
X16173095Y-16972950D01*
X16344524Y-17030093D02*
X16363571Y-17039616D01*
X16401667Y-17039616D01*
X16420714Y-17030093D01*
X16430238Y-17011045D01*
X16430238Y-17001521D01*
X16420714Y-16982474D01*
X16401667Y-16972950D01*
X16373095Y-16972950D01*
X16354048Y-16963426D01*
X16344524Y-16944378D01*
X16344524Y-16934855D01*
X16354048Y-16915807D01*
X16373095Y-16906283D01*
X16401667Y-16906283D01*
X16420714Y-16915807D01*
X16496905Y-17115807D02*
X16506428Y-17106283D01*
X16525476Y-17077712D01*
X16535000Y-17058664D01*
X16544524Y-17030093D01*
X16554048Y-16982474D01*
X16554048Y-16944378D01*
X16544524Y-16896759D01*
X16535000Y-16868188D01*
X16525476Y-16849140D01*
X16506428Y-16820569D01*
X16496905Y-16811045D01*
M02*
