%FSLAX45Y45*%
G04 Gerber Fmt 4.5, Leading zero omitted, Abs format (unit mm)*
G04 Created by KiCad (PCBNEW (6.0.6)) date 2023-02-07 12:20:26*
%MOMM*%
%LPD*%
G01*
G04 APERTURE LIST*
%TA.AperFunction,Profile*%
%ADD10C,0.100000*%
%TD*%
%ADD11C,0.200000*%
G04 APERTURE END LIST*
D10*
X11730000Y-7359933D02*
X19442729Y-7359933D01*
X19442729Y-7359933D02*
X19442729Y-14984140D01*
X19442729Y-14984140D02*
X11730000Y-14984140D01*
X11730000Y-14984140D02*
X11730000Y-7359933D01*
D11*
X11982619Y-15299616D02*
X11982619Y-15099616D01*
X12030238Y-15099616D01*
X12058809Y-15109140D01*
X12077857Y-15128188D01*
X12087381Y-15147235D01*
X12096905Y-15185331D01*
X12096905Y-15213902D01*
X12087381Y-15251997D01*
X12077857Y-15271045D01*
X12058809Y-15290093D01*
X12030238Y-15299616D01*
X11982619Y-15299616D01*
X12182619Y-15299616D02*
X12182619Y-15166283D01*
X12182619Y-15204378D02*
X12192143Y-15185331D01*
X12201667Y-15175807D01*
X12220714Y-15166283D01*
X12239762Y-15166283D01*
X12306428Y-15299616D02*
X12306428Y-15166283D01*
X12306428Y-15099616D02*
X12296905Y-15109140D01*
X12306428Y-15118664D01*
X12315952Y-15109140D01*
X12306428Y-15099616D01*
X12306428Y-15118664D01*
X12430238Y-15299616D02*
X12411190Y-15290093D01*
X12401667Y-15271045D01*
X12401667Y-15099616D01*
X12535000Y-15299616D02*
X12515952Y-15290093D01*
X12506428Y-15271045D01*
X12506428Y-15099616D01*
X12763571Y-15299616D02*
X12763571Y-15099616D01*
X12830238Y-15242474D01*
X12896905Y-15099616D01*
X12896905Y-15299616D01*
X13077857Y-15299616D02*
X13077857Y-15194854D01*
X13068333Y-15175807D01*
X13049286Y-15166283D01*
X13011190Y-15166283D01*
X12992143Y-15175807D01*
X13077857Y-15290093D02*
X13058809Y-15299616D01*
X13011190Y-15299616D01*
X12992143Y-15290093D01*
X12982619Y-15271045D01*
X12982619Y-15251997D01*
X12992143Y-15232950D01*
X13011190Y-15223426D01*
X13058809Y-15223426D01*
X13077857Y-15213902D01*
X13173095Y-15166283D02*
X13173095Y-15366283D01*
X13173095Y-15175807D02*
X13192143Y-15166283D01*
X13230238Y-15166283D01*
X13249286Y-15175807D01*
X13258809Y-15185331D01*
X13268333Y-15204378D01*
X13268333Y-15261521D01*
X13258809Y-15280569D01*
X13249286Y-15290093D01*
X13230238Y-15299616D01*
X13192143Y-15299616D01*
X13173095Y-15290093D01*
X13354048Y-15280569D02*
X13363571Y-15290093D01*
X13354048Y-15299616D01*
X13344524Y-15290093D01*
X13354048Y-15280569D01*
X13354048Y-15299616D01*
X13354048Y-15175807D02*
X13363571Y-15185331D01*
X13354048Y-15194854D01*
X13344524Y-15185331D01*
X13354048Y-15175807D01*
X13354048Y-15194854D01*
M02*
