%TF.GenerationSoftware,KiCad,Pcbnew,(6.0.7)*%
%TF.CreationDate,2023-02-02T12:11:16-07:00*%
%TF.ProjectId,Tellus,54656c6c-7573-42e6-9b69-6361645f7063,rev?*%
%TF.SameCoordinates,Original*%
%TF.FileFunction,Paste,Top*%
%TF.FilePolarity,Positive*%
%FSLAX46Y46*%
G04 Gerber Fmt 4.6, Leading zero omitted, Abs format (unit mm)*
G04 Created by KiCad (PCBNEW (6.0.7)) date 2023-02-02 12:11:16*
%MOMM*%
%LPD*%
G01*
G04 APERTURE LIST*
G04 Aperture macros list*
%AMRoundRect*
0 Rectangle with rounded corners*
0 $1 Rounding radius*
0 $2 $3 $4 $5 $6 $7 $8 $9 X,Y pos of 4 corners*
0 Add a 4 corners polygon primitive as box body*
4,1,4,$2,$3,$4,$5,$6,$7,$8,$9,$2,$3,0*
0 Add four circle primitives for the rounded corners*
1,1,$1+$1,$2,$3*
1,1,$1+$1,$4,$5*
1,1,$1+$1,$6,$7*
1,1,$1+$1,$8,$9*
0 Add four rect primitives between the rounded corners*
20,1,$1+$1,$2,$3,$4,$5,0*
20,1,$1+$1,$4,$5,$6,$7,0*
20,1,$1+$1,$6,$7,$8,$9,0*
20,1,$1+$1,$8,$9,$2,$3,0*%
G04 Aperture macros list end*
%ADD10RoundRect,0.250000X1.100000X-0.412500X1.100000X0.412500X-1.100000X0.412500X-1.100000X-0.412500X0*%
%ADD11RoundRect,0.250000X0.412500X1.100000X-0.412500X1.100000X-0.412500X-1.100000X0.412500X-1.100000X0*%
%ADD12RoundRect,0.250000X-0.625000X0.312500X-0.625000X-0.312500X0.625000X-0.312500X0.625000X0.312500X0*%
%ADD13R,0.475000X0.250000*%
%ADD14R,0.250000X0.475000*%
%ADD15RoundRect,0.250000X-1.100000X0.412500X-1.100000X-0.412500X1.100000X-0.412500X1.100000X0.412500X0*%
%ADD16RoundRect,0.180000X0.235000X-0.180000X0.235000X0.180000X-0.235000X0.180000X-0.235000X-0.180000X0*%
%ADD17RoundRect,0.075000X0.075000X-0.662500X0.075000X0.662500X-0.075000X0.662500X-0.075000X-0.662500X0*%
%ADD18RoundRect,0.250000X0.625000X-0.312500X0.625000X0.312500X-0.625000X0.312500X-0.625000X-0.312500X0*%
%ADD19RoundRect,0.250000X-0.312500X-0.625000X0.312500X-0.625000X0.312500X0.625000X-0.312500X0.625000X0*%
%ADD20RoundRect,0.250000X-0.412500X-1.100000X0.412500X-1.100000X0.412500X1.100000X-0.412500X1.100000X0*%
%ADD21RoundRect,0.031500X-0.168500X-0.143500X0.168500X-0.143500X0.168500X0.143500X-0.168500X0.143500X0*%
%ADD22RoundRect,0.035000X-0.140000X-0.165000X0.140000X-0.165000X0.140000X0.165000X-0.140000X0.165000X0*%
%ADD23R,1.500000X2.000000*%
%ADD24R,3.800000X2.000000*%
G04 APERTURE END LIST*
D10*
%TO.C,C1*%
X128905000Y-95542500D03*
X128905000Y-92417500D03*
%TD*%
D11*
%TO.C,C2*%
X166027500Y-109220000D03*
X162902500Y-109220000D03*
%TD*%
D12*
%TO.C,R3*%
X172720000Y-105852500D03*
X172720000Y-108777500D03*
%TD*%
D13*
%TO.C,U7*%
X170922500Y-113907500D03*
X170922500Y-114407500D03*
X170922500Y-114907500D03*
X170922500Y-115407500D03*
D14*
X171585000Y-115570000D03*
X172085000Y-115570000D03*
X172585000Y-115570000D03*
D13*
X173247500Y-115407500D03*
X173247500Y-114907500D03*
X173247500Y-114407500D03*
X173247500Y-113907500D03*
D14*
X172585000Y-113745000D03*
X172085000Y-113745000D03*
X171585000Y-113745000D03*
%TD*%
D15*
%TO.C,C3*%
X155815000Y-103822500D03*
X155815000Y-106947500D03*
%TD*%
D11*
%TO.C,C4*%
X166027500Y-102235000D03*
X162902500Y-102235000D03*
%TD*%
D10*
%TO.C,C5*%
X141605000Y-95542500D03*
X141605000Y-92417500D03*
%TD*%
%TO.C,C6*%
X154940000Y-95542500D03*
X154940000Y-92417500D03*
%TD*%
D16*
%TO.C,U3*%
X148450000Y-93550000D03*
X147460000Y-93550000D03*
X148450000Y-94410000D03*
X147460000Y-94410000D03*
D17*
X146955000Y-96142500D03*
X147455000Y-96142500D03*
X147955000Y-96142500D03*
X148455000Y-96142500D03*
X148955000Y-96142500D03*
X148955000Y-91817500D03*
X148455000Y-91817500D03*
X147955000Y-91817500D03*
X147455000Y-91817500D03*
X146955000Y-91817500D03*
%TD*%
D18*
%TO.C,R1*%
X180975000Y-84012500D03*
X180975000Y-81087500D03*
%TD*%
D19*
%TO.C,R4*%
X175702500Y-118110000D03*
X178627500Y-118110000D03*
%TD*%
D20*
%TO.C,C9*%
X185762500Y-117475000D03*
X188887500Y-117475000D03*
%TD*%
D12*
%TO.C,R2*%
X177800000Y-105852500D03*
X177800000Y-108777500D03*
%TD*%
D11*
%TO.C,C7*%
X166027500Y-113030000D03*
X162902500Y-113030000D03*
%TD*%
D21*
%TO.C,U6*%
X181470000Y-114185000D03*
X181480000Y-114685000D03*
X181480000Y-115185000D03*
X181470000Y-115685000D03*
D22*
X181995000Y-115700000D03*
X182495000Y-115700000D03*
D21*
X183020000Y-115685000D03*
X183010000Y-115185000D03*
X183010000Y-114685000D03*
X183020000Y-114185000D03*
D22*
X182495000Y-114170000D03*
X181995000Y-114170000D03*
%TD*%
D16*
%TO.C,U1*%
X134125000Y-93550000D03*
X135115000Y-93550000D03*
X135115000Y-94410000D03*
X134125000Y-94410000D03*
D17*
X133620000Y-96142500D03*
X134120000Y-96142500D03*
X134620000Y-96142500D03*
X135120000Y-96142500D03*
X135620000Y-96142500D03*
X135620000Y-91817500D03*
X135120000Y-91817500D03*
X134620000Y-91817500D03*
X134120000Y-91817500D03*
X133620000Y-91817500D03*
%TD*%
D16*
%TO.C,U4*%
X161150000Y-93550000D03*
X161150000Y-94410000D03*
X160160000Y-94410000D03*
X160160000Y-93550000D03*
D17*
X159655000Y-96142500D03*
X160155000Y-96142500D03*
X160655000Y-96142500D03*
X161155000Y-96142500D03*
X161655000Y-96142500D03*
X161655000Y-91817500D03*
X161155000Y-91817500D03*
X160655000Y-91817500D03*
X160155000Y-91817500D03*
X159655000Y-91817500D03*
%TD*%
D10*
%TO.C,C8*%
X142480000Y-106947500D03*
X142480000Y-103822500D03*
%TD*%
D23*
%TO.C,U2*%
X151765000Y-104140000D03*
X149465000Y-104140000D03*
D24*
X149465000Y-110440000D03*
D23*
X147165000Y-104140000D03*
%TD*%
M02*
