M48
; DRILL file {KiCad (6.0.6)} date Tue Feb  7 12:20:25 2023
; FORMAT={-:-/ absolute / metric / decimal}
; #@! TF.CreationDate,2023-02-07T12:20:25-07:00
; #@! TF.GenerationSoftware,Kicad,Pcbnew,(6.0.6)
; #@! TF.FileFunction,Plated,1,4,PTH
FMAT,2
METRIC
; #@! TA.AperFunction,Plated,PTH,ViaDrill
T1C0.400
; #@! TA.AperFunction,Plated,PTH,ComponentDrill
T2C0.700
; #@! TA.AperFunction,Plated,PTH,ComponentDrill
T3C0.750
; #@! TA.AperFunction,Plated,PTH,ComponentDrill
T4C0.800
; #@! TA.AperFunction,Plated,PTH,ComponentDrill
T5C1.000
; #@! TA.AperFunction,Plated,PTH,ComponentDrill
T6C2.200
%
G90
G05
T1
X129.5Y-89.408
X129.54Y-97.282
X134.375Y-100.5
X134.62Y-89.535
X141.605Y-89.535
X141.605Y-97.79
X142.24Y-101.6
X142.48Y-108.98
X145.5Y-98.5
X146.05Y-101.6
X146.513Y-98.987
X147.955Y-89.535
X147.955Y-97.79
X149.225Y-113.03
X149.487Y-98.987
X149.86Y-101.6
X150.5Y-98.5
X153.67Y-102.108
X154.94Y-89.535
X154.94Y-97.79
X155.575Y-108.585
X158.5Y-98.5
X159.5Y-98.5
X160.02Y-104.648
X160.655Y-89.535
X160.655Y-97.79
X161.668Y-98.454
X162.662Y-98.563
X164.338Y-105.918
X164.338Y-113.03
X165.1Y-102.108
X168.5Y-114.808
X170.0Y-113.25
X170.075Y-126.5
X170.942Y-107.188
X171.662Y-114.25
X172.5Y-117.5
X172.702Y-120.29
X174.244Y-114.808
X175.162Y-111.25
X175.514Y-114.046
X177.0Y-110.49
X177.546Y-106.426
X179.012Y-112.988
X180.162Y-105.922
X180.975Y-85.725
X183.662Y-106.75
X183.725Y-115.688
T2
X141.24Y-126.275
X141.24Y-128.275
X141.24Y-130.275
X143.24Y-126.275
X143.24Y-128.275
X143.24Y-130.275
T3
X134.62Y-136.015
X137.16Y-136.015
X139.7Y-136.015
X142.24Y-136.015
X144.78Y-136.015
T4
X128.27Y-123.825
X128.27Y-139.065
X130.81Y-123.825
X130.81Y-126.365
X130.81Y-139.065
X133.35Y-123.825
X133.35Y-139.065
X135.89Y-123.825
X135.89Y-139.065
X138.43Y-123.825
X138.43Y-139.065
X140.97Y-123.825
X140.97Y-139.065
X143.51Y-123.825
X143.51Y-139.065
X146.05Y-123.825
X146.05Y-139.065
X148.59Y-123.825
X148.59Y-139.065
X151.13Y-123.825
X151.13Y-139.065
X153.67Y-123.825
X153.67Y-139.065
X156.21Y-123.825
X156.21Y-139.065
X158.75Y-123.825
X158.75Y-139.065
X161.29Y-123.825
X161.29Y-139.065
X163.83Y-123.825
X163.83Y-139.065
X166.37Y-123.825
X166.37Y-139.065
X168.91Y-123.825
X168.91Y-139.065
X171.45Y-123.825
X171.45Y-139.065
X172.041Y-92.576
X172.041Y-94.576
X172.041Y-96.576
X172.041Y-98.576
X173.99Y-123.825
X173.99Y-126.365
X173.99Y-128.905
X173.99Y-131.445
X173.99Y-133.985
X173.99Y-136.525
X173.99Y-139.065
X175.291Y-89.326
X175.291Y-101.826
X176.53Y-123.825
X176.53Y-139.065
X177.291Y-89.326
X177.291Y-101.826
X179.07Y-123.825
X179.07Y-139.065
X179.291Y-89.326
X179.291Y-101.826
X181.291Y-89.326
X181.61Y-123.825
X181.61Y-139.065
X184.15Y-123.825
X184.15Y-139.065
X186.69Y-123.825
X186.69Y-139.065
T5
X121.5Y-91.465
X121.5Y-94.005
X121.5Y-101.475
X121.5Y-104.015
X121.5Y-106.555
X121.5Y-112.2
X121.5Y-114.74
X121.5Y-117.28
X121.5Y-119.82
X127.725Y-78.74
X130.265Y-78.74
X135.225Y-78.74
X137.765Y-78.74
X143.725Y-78.74
X146.265Y-78.74
X151.035Y-78.74
X153.575Y-78.74
X159.225Y-78.74
X161.765Y-78.74
X166.725Y-78.688
X169.265Y-78.688
X174.355Y-78.74
X176.895Y-78.74
T6
X121.5Y-78.74
X121.5Y-144.74
X190.5Y-78.74
X190.5Y-144.74
T0
M30
