%TF.GenerationSoftware,KiCad,Pcbnew,(6.0.7)*%
%TF.CreationDate,2023-02-02T12:11:16-07:00*%
%TF.ProjectId,Tellus,54656c6c-7573-42e6-9b69-6361645f7063,rev?*%
%TF.SameCoordinates,Original*%
%TF.FileFunction,Legend,Top*%
%TF.FilePolarity,Positive*%
%FSLAX46Y46*%
G04 Gerber Fmt 4.6, Leading zero omitted, Abs format (unit mm)*
G04 Created by KiCad (PCBNEW (6.0.7)) date 2023-02-02 12:11:16*
%MOMM*%
%LPD*%
G01*
G04 APERTURE LIST*
G04 Aperture macros list*
%AMRoundRect*
0 Rectangle with rounded corners*
0 $1 Rounding radius*
0 $2 $3 $4 $5 $6 $7 $8 $9 X,Y pos of 4 corners*
0 Add a 4 corners polygon primitive as box body*
4,1,4,$2,$3,$4,$5,$6,$7,$8,$9,$2,$3,0*
0 Add four circle primitives for the rounded corners*
1,1,$1+$1,$2,$3*
1,1,$1+$1,$4,$5*
1,1,$1+$1,$6,$7*
1,1,$1+$1,$8,$9*
0 Add four rect primitives between the rounded corners*
20,1,$1+$1,$2,$3,$4,$5,0*
20,1,$1+$1,$4,$5,$6,$7,0*
20,1,$1+$1,$6,$7,$8,$9,0*
20,1,$1+$1,$8,$9,$2,$3,0*%
G04 Aperture macros list end*
%ADD10C,0.150000*%
%ADD11C,0.250000*%
%ADD12C,0.300000*%
%ADD13C,0.120000*%
%ADD14C,0.127000*%
%ADD15C,0.200000*%
%ADD16C,0.010000*%
%ADD17R,1.350000X1.350000*%
%ADD18O,1.350000X1.350000*%
%ADD19C,1.308000*%
%ADD20C,1.258000*%
%ADD21C,1.208000*%
%ADD22RoundRect,0.250000X1.100000X-0.412500X1.100000X0.412500X-1.100000X0.412500X-1.100000X-0.412500X0*%
%ADD23RoundRect,0.250000X0.412500X1.100000X-0.412500X1.100000X-0.412500X-1.100000X0.412500X-1.100000X0*%
%ADD24RoundRect,0.250000X-0.625000X0.312500X-0.625000X-0.312500X0.625000X-0.312500X0.625000X0.312500X0*%
%ADD25RoundRect,0.250000X-1.100000X0.412500X-1.100000X-0.412500X1.100000X-0.412500X1.100000X0.412500X0*%
%ADD26C,4.400000*%
%ADD27RoundRect,0.075000X0.075000X-0.662500X0.075000X0.662500X-0.075000X0.662500X-0.075000X-0.662500X0*%
%ADD28R,1.980000X1.730000*%
%ADD29RoundRect,0.250000X0.625000X-0.312500X0.625000X0.312500X-0.625000X0.312500X-0.625000X-0.312500X0*%
%ADD30RoundRect,0.250000X-0.312500X-0.625000X0.312500X-0.625000X0.312500X0.625000X-0.312500X0.625000X0*%
%ADD31RoundRect,0.250000X-0.412500X-1.100000X0.412500X-1.100000X0.412500X1.100000X-0.412500X1.100000X0*%
%ADD32R,1.500000X2.000000*%
%ADD33R,3.800000X2.000000*%
G04 APERTURE END LIST*
D10*
X135255000Y-100330000D02*
X125730000Y-100330000D01*
X125730000Y-100330000D02*
X125730000Y-107950000D01*
X125730000Y-107950000D02*
X135255000Y-107950000D01*
X135255000Y-107950000D02*
X135255000Y-100330000D01*
X140970000Y-76200000D02*
X155575000Y-76200000D01*
X155575000Y-76200000D02*
X155575000Y-85725000D01*
X155575000Y-85725000D02*
X140970000Y-85725000D01*
X140970000Y-85725000D02*
X140970000Y-76200000D01*
X172085000Y-76200000D02*
X179705000Y-76200000D01*
X179705000Y-76200000D02*
X179705000Y-85725000D01*
X179705000Y-85725000D02*
X172085000Y-85725000D01*
X172085000Y-85725000D02*
X172085000Y-76200000D01*
X125730000Y-76200000D02*
X140335000Y-76200000D01*
X140335000Y-76200000D02*
X140335000Y-85725000D01*
X140335000Y-85725000D02*
X125730000Y-85725000D01*
X125730000Y-85725000D02*
X125730000Y-76200000D01*
X190755000Y-103410000D02*
X169165000Y-103410000D01*
X169165000Y-103410000D02*
X169165000Y-86900000D01*
X169165000Y-86900000D02*
X190755000Y-86900000D01*
X190755000Y-86900000D02*
X190755000Y-103410000D01*
X156210000Y-76200000D02*
X170815000Y-76200000D01*
X170815000Y-76200000D02*
X170815000Y-85725000D01*
X170815000Y-85725000D02*
X156210000Y-85725000D01*
X156210000Y-85725000D02*
X156210000Y-76200000D01*
X149217380Y-82027380D02*
X149217380Y-81027380D01*
X149550714Y-81741666D01*
X149884047Y-81027380D01*
X149884047Y-82027380D01*
X150360238Y-82027380D02*
X150360238Y-81360714D01*
X150360238Y-81027380D02*
X150312619Y-81075000D01*
X150360238Y-81122619D01*
X150407857Y-81075000D01*
X150360238Y-81027380D01*
X150360238Y-81122619D01*
X151265000Y-82027380D02*
X151265000Y-81027380D01*
X151265000Y-81979761D02*
X151169761Y-82027380D01*
X150979285Y-82027380D01*
X150884047Y-81979761D01*
X150836428Y-81932142D01*
X150788809Y-81836904D01*
X150788809Y-81551190D01*
X150836428Y-81455952D01*
X150884047Y-81408333D01*
X150979285Y-81360714D01*
X151169761Y-81360714D01*
X151265000Y-81408333D01*
X152169761Y-82027380D02*
X152169761Y-81027380D01*
X152169761Y-81979761D02*
X152074523Y-82027380D01*
X151884047Y-82027380D01*
X151788809Y-81979761D01*
X151741190Y-81932142D01*
X151693571Y-81836904D01*
X151693571Y-81551190D01*
X151741190Y-81455952D01*
X151788809Y-81408333D01*
X151884047Y-81360714D01*
X152074523Y-81360714D01*
X152169761Y-81408333D01*
X152788809Y-82027380D02*
X152693571Y-81979761D01*
X152645952Y-81884523D01*
X152645952Y-81027380D01*
X153550714Y-81979761D02*
X153455476Y-82027380D01*
X153265000Y-82027380D01*
X153169761Y-81979761D01*
X153122142Y-81884523D01*
X153122142Y-81503571D01*
X153169761Y-81408333D01*
X153265000Y-81360714D01*
X153455476Y-81360714D01*
X153550714Y-81408333D01*
X153598333Y-81503571D01*
X153598333Y-81598809D01*
X153122142Y-81694047D01*
X150645952Y-83637380D02*
X150312619Y-83161190D01*
X150074523Y-83637380D02*
X150074523Y-82637380D01*
X150455476Y-82637380D01*
X150550714Y-82685000D01*
X150598333Y-82732619D01*
X150645952Y-82827857D01*
X150645952Y-82970714D01*
X150598333Y-83065952D01*
X150550714Y-83113571D01*
X150455476Y-83161190D01*
X150074523Y-83161190D01*
X151074523Y-83637380D02*
X151074523Y-82970714D01*
X151074523Y-82637380D02*
X151026904Y-82685000D01*
X151074523Y-82732619D01*
X151122142Y-82685000D01*
X151074523Y-82637380D01*
X151074523Y-82732619D01*
X151979285Y-82970714D02*
X151979285Y-83780238D01*
X151931666Y-83875476D01*
X151884047Y-83923095D01*
X151788809Y-83970714D01*
X151645952Y-83970714D01*
X151550714Y-83923095D01*
X151979285Y-83589761D02*
X151884047Y-83637380D01*
X151693571Y-83637380D01*
X151598333Y-83589761D01*
X151550714Y-83542142D01*
X151503095Y-83446904D01*
X151503095Y-83161190D01*
X151550714Y-83065952D01*
X151598333Y-83018333D01*
X151693571Y-82970714D01*
X151884047Y-82970714D01*
X151979285Y-83018333D01*
X152455476Y-83637380D02*
X152455476Y-82637380D01*
X152884047Y-83637380D02*
X152884047Y-83113571D01*
X152836428Y-83018333D01*
X152741190Y-82970714D01*
X152598333Y-82970714D01*
X152503095Y-83018333D01*
X152455476Y-83065952D01*
X153217380Y-82970714D02*
X153598333Y-82970714D01*
X153360238Y-82637380D02*
X153360238Y-83494523D01*
X153407857Y-83589761D01*
X153503095Y-83637380D01*
X153598333Y-83637380D01*
X123642380Y-108830238D02*
X122642380Y-108830238D01*
X123642380Y-108258809D01*
X122642380Y-108258809D01*
X123356666Y-107830238D02*
X123356666Y-107354047D01*
X123642380Y-107925476D02*
X122642380Y-107592142D01*
X123642380Y-107258809D01*
X123594761Y-106973095D02*
X123642380Y-106830238D01*
X123642380Y-106592142D01*
X123594761Y-106496904D01*
X123547142Y-106449285D01*
X123451904Y-106401666D01*
X123356666Y-106401666D01*
X123261428Y-106449285D01*
X123213809Y-106496904D01*
X123166190Y-106592142D01*
X123118571Y-106782619D01*
X123070952Y-106877857D01*
X123023333Y-106925476D01*
X122928095Y-106973095D01*
X122832857Y-106973095D01*
X122737619Y-106925476D01*
X122690000Y-106877857D01*
X122642380Y-106782619D01*
X122642380Y-106544523D01*
X122690000Y-106401666D01*
X123356666Y-106020714D02*
X123356666Y-105544523D01*
X123642380Y-106115952D02*
X122642380Y-105782619D01*
X123642380Y-105449285D01*
X123642380Y-104354047D02*
X122642380Y-104354047D01*
X123356666Y-104020714D01*
X122642380Y-103687380D01*
X123642380Y-103687380D01*
X123642380Y-103211190D02*
X122642380Y-103211190D01*
X123642380Y-102735000D02*
X122642380Y-102735000D01*
X123642380Y-102163571D01*
X122642380Y-102163571D01*
X123642380Y-101687380D02*
X122642380Y-101687380D01*
X122642380Y-101449285D01*
X122690000Y-101306428D01*
X122785238Y-101211190D01*
X122880476Y-101163571D01*
X123070952Y-101115952D01*
X123213809Y-101115952D01*
X123404285Y-101163571D01*
X123499523Y-101211190D01*
X123594761Y-101306428D01*
X123642380Y-101449285D01*
X123642380Y-101687380D01*
X123594761Y-100735000D02*
X123642380Y-100592142D01*
X123642380Y-100354047D01*
X123594761Y-100258809D01*
X123547142Y-100211190D01*
X123451904Y-100163571D01*
X123356666Y-100163571D01*
X123261428Y-100211190D01*
X123213809Y-100258809D01*
X123166190Y-100354047D01*
X123118571Y-100544523D01*
X123070952Y-100639761D01*
X123023333Y-100687380D01*
X122928095Y-100735000D01*
X122832857Y-100735000D01*
X122737619Y-100687380D01*
X122690000Y-100639761D01*
X122642380Y-100544523D01*
X122642380Y-100306428D01*
X122690000Y-100163571D01*
X122737619Y-99020714D02*
X122690000Y-98973095D01*
X122642380Y-98877857D01*
X122642380Y-98639761D01*
X122690000Y-98544523D01*
X122737619Y-98496904D01*
X122832857Y-98449285D01*
X122928095Y-98449285D01*
X123070952Y-98496904D01*
X123642380Y-99068333D01*
X123642380Y-98449285D01*
X122642380Y-97830238D02*
X122642380Y-97735000D01*
X122690000Y-97639761D01*
X122737619Y-97592142D01*
X122832857Y-97544523D01*
X123023333Y-97496904D01*
X123261428Y-97496904D01*
X123451904Y-97544523D01*
X123547142Y-97592142D01*
X123594761Y-97639761D01*
X123642380Y-97735000D01*
X123642380Y-97830238D01*
X123594761Y-97925476D01*
X123547142Y-97973095D01*
X123451904Y-98020714D01*
X123261428Y-98068333D01*
X123023333Y-98068333D01*
X122832857Y-98020714D01*
X122737619Y-97973095D01*
X122690000Y-97925476D01*
X122642380Y-97830238D01*
X122737619Y-97115952D02*
X122690000Y-97068333D01*
X122642380Y-96973095D01*
X122642380Y-96735000D01*
X122690000Y-96639761D01*
X122737619Y-96592142D01*
X122832857Y-96544523D01*
X122928095Y-96544523D01*
X123070952Y-96592142D01*
X123642380Y-97163571D01*
X123642380Y-96544523D01*
X122642380Y-96211190D02*
X122642380Y-95592142D01*
X123023333Y-95925476D01*
X123023333Y-95782619D01*
X123070952Y-95687380D01*
X123118571Y-95639761D01*
X123213809Y-95592142D01*
X123451904Y-95592142D01*
X123547142Y-95639761D01*
X123594761Y-95687380D01*
X123642380Y-95782619D01*
X123642380Y-96068333D01*
X123594761Y-96163571D01*
X123547142Y-96211190D01*
D11*
X120550952Y-135114761D02*
X120550952Y-133686190D01*
X123050952Y-134400476D02*
X120550952Y-134400476D01*
X122931904Y-131900476D02*
X123050952Y-132138571D01*
X123050952Y-132614761D01*
X122931904Y-132852857D01*
X122693809Y-132971904D01*
X121741428Y-132971904D01*
X121503333Y-132852857D01*
X121384285Y-132614761D01*
X121384285Y-132138571D01*
X121503333Y-131900476D01*
X121741428Y-131781428D01*
X121979523Y-131781428D01*
X122217619Y-132971904D01*
X123050952Y-130352857D02*
X122931904Y-130590952D01*
X122693809Y-130709999D01*
X120550952Y-130709999D01*
X123050952Y-129043333D02*
X122931904Y-129281428D01*
X122693809Y-129400476D01*
X120550952Y-129400476D01*
X121384285Y-127019523D02*
X123050952Y-127019523D01*
X121384285Y-128090952D02*
X122693809Y-128090952D01*
X122931904Y-127971904D01*
X123050952Y-127733809D01*
X123050952Y-127376666D01*
X122931904Y-127138571D01*
X122812857Y-127019523D01*
X122931904Y-125948095D02*
X123050952Y-125710000D01*
X123050952Y-125233809D01*
X122931904Y-124995714D01*
X122693809Y-124876666D01*
X122574761Y-124876666D01*
X122336666Y-124995714D01*
X122217619Y-125233809D01*
X122217619Y-125590952D01*
X122098571Y-125829047D01*
X121860476Y-125948095D01*
X121741428Y-125948095D01*
X121503333Y-125829047D01*
X121384285Y-125590952D01*
X121384285Y-125233809D01*
X121503333Y-124995714D01*
X123050952Y-120471904D02*
X121860476Y-121305238D01*
X123050952Y-121900476D02*
X120550952Y-121900476D01*
X120550952Y-120948095D01*
X120670000Y-120710000D01*
X120789047Y-120590952D01*
X121027142Y-120471904D01*
X121384285Y-120471904D01*
X121622380Y-120590952D01*
X121741428Y-120710000D01*
X121860476Y-120948095D01*
X121860476Y-121900476D01*
X122931904Y-118448095D02*
X123050952Y-118686190D01*
X123050952Y-119162380D01*
X122931904Y-119400476D01*
X122693809Y-119519523D01*
X121741428Y-119519523D01*
X121503333Y-119400476D01*
X121384285Y-119162380D01*
X121384285Y-118686190D01*
X121503333Y-118448095D01*
X121741428Y-118329047D01*
X121979523Y-118329047D01*
X122217619Y-119519523D01*
X121384285Y-117495714D02*
X123050952Y-116900476D01*
X121384285Y-116305238D01*
X123050952Y-114043333D02*
X123050952Y-115471904D01*
X123050952Y-114757619D02*
X120550952Y-114757619D01*
X120908095Y-114995714D01*
X121146190Y-115233809D01*
X121265238Y-115471904D01*
D10*
X165743095Y-82027380D02*
X165409761Y-81551190D01*
X165171666Y-82027380D02*
X165171666Y-81027380D01*
X165552619Y-81027380D01*
X165647857Y-81075000D01*
X165695476Y-81122619D01*
X165743095Y-81217857D01*
X165743095Y-81360714D01*
X165695476Y-81455952D01*
X165647857Y-81503571D01*
X165552619Y-81551190D01*
X165171666Y-81551190D01*
X166552619Y-81979761D02*
X166457380Y-82027380D01*
X166266904Y-82027380D01*
X166171666Y-81979761D01*
X166124047Y-81884523D01*
X166124047Y-81503571D01*
X166171666Y-81408333D01*
X166266904Y-81360714D01*
X166457380Y-81360714D01*
X166552619Y-81408333D01*
X166600238Y-81503571D01*
X166600238Y-81598809D01*
X166124047Y-81694047D01*
X167457380Y-82027380D02*
X167457380Y-81503571D01*
X167409761Y-81408333D01*
X167314523Y-81360714D01*
X167124047Y-81360714D01*
X167028809Y-81408333D01*
X167457380Y-81979761D02*
X167362142Y-82027380D01*
X167124047Y-82027380D01*
X167028809Y-81979761D01*
X166981190Y-81884523D01*
X166981190Y-81789285D01*
X167028809Y-81694047D01*
X167124047Y-81646428D01*
X167362142Y-81646428D01*
X167457380Y-81598809D01*
X167933571Y-82027380D02*
X167933571Y-81360714D01*
X167933571Y-81551190D02*
X167981190Y-81455952D01*
X168028809Y-81408333D01*
X168124047Y-81360714D01*
X168219285Y-81360714D01*
X165885952Y-83637380D02*
X165552619Y-83161190D01*
X165314523Y-83637380D02*
X165314523Y-82637380D01*
X165695476Y-82637380D01*
X165790714Y-82685000D01*
X165838333Y-82732619D01*
X165885952Y-82827857D01*
X165885952Y-82970714D01*
X165838333Y-83065952D01*
X165790714Y-83113571D01*
X165695476Y-83161190D01*
X165314523Y-83161190D01*
X166314523Y-83637380D02*
X166314523Y-82970714D01*
X166314523Y-82637380D02*
X166266904Y-82685000D01*
X166314523Y-82732619D01*
X166362142Y-82685000D01*
X166314523Y-82637380D01*
X166314523Y-82732619D01*
X167219285Y-82970714D02*
X167219285Y-83780238D01*
X167171666Y-83875476D01*
X167124047Y-83923095D01*
X167028809Y-83970714D01*
X166885952Y-83970714D01*
X166790714Y-83923095D01*
X167219285Y-83589761D02*
X167124047Y-83637380D01*
X166933571Y-83637380D01*
X166838333Y-83589761D01*
X166790714Y-83542142D01*
X166743095Y-83446904D01*
X166743095Y-83161190D01*
X166790714Y-83065952D01*
X166838333Y-83018333D01*
X166933571Y-82970714D01*
X167124047Y-82970714D01*
X167219285Y-83018333D01*
X167695476Y-83637380D02*
X167695476Y-82637380D01*
X168124047Y-83637380D02*
X168124047Y-83113571D01*
X168076428Y-83018333D01*
X167981190Y-82970714D01*
X167838333Y-82970714D01*
X167743095Y-83018333D01*
X167695476Y-83065952D01*
X168457380Y-82970714D02*
X168838333Y-82970714D01*
X168600238Y-82637380D02*
X168600238Y-83494523D01*
X168647857Y-83589761D01*
X168743095Y-83637380D01*
X168838333Y-83637380D01*
X159139047Y-82197380D02*
X158805714Y-81721190D01*
X158567619Y-82197380D02*
X158567619Y-81197380D01*
X158948571Y-81197380D01*
X159043809Y-81245000D01*
X159091428Y-81292619D01*
X159139047Y-81387857D01*
X159139047Y-81530714D01*
X159091428Y-81625952D01*
X159043809Y-81673571D01*
X158948571Y-81721190D01*
X158567619Y-81721190D01*
X159948571Y-82149761D02*
X159853333Y-82197380D01*
X159662857Y-82197380D01*
X159567619Y-82149761D01*
X159520000Y-82054523D01*
X159520000Y-81673571D01*
X159567619Y-81578333D01*
X159662857Y-81530714D01*
X159853333Y-81530714D01*
X159948571Y-81578333D01*
X159996190Y-81673571D01*
X159996190Y-81768809D01*
X159520000Y-81864047D01*
X160853333Y-82197380D02*
X160853333Y-81673571D01*
X160805714Y-81578333D01*
X160710476Y-81530714D01*
X160520000Y-81530714D01*
X160424761Y-81578333D01*
X160853333Y-82149761D02*
X160758095Y-82197380D01*
X160520000Y-82197380D01*
X160424761Y-82149761D01*
X160377142Y-82054523D01*
X160377142Y-81959285D01*
X160424761Y-81864047D01*
X160520000Y-81816428D01*
X160758095Y-81816428D01*
X160853333Y-81768809D01*
X161329523Y-82197380D02*
X161329523Y-81530714D01*
X161329523Y-81721190D02*
X161377142Y-81625952D01*
X161424761Y-81578333D01*
X161520000Y-81530714D01*
X161615238Y-81530714D01*
X159329523Y-83807380D02*
X158853333Y-83807380D01*
X158853333Y-82807380D01*
X160043809Y-83759761D02*
X159948571Y-83807380D01*
X159758095Y-83807380D01*
X159662857Y-83759761D01*
X159615238Y-83664523D01*
X159615238Y-83283571D01*
X159662857Y-83188333D01*
X159758095Y-83140714D01*
X159948571Y-83140714D01*
X160043809Y-83188333D01*
X160091428Y-83283571D01*
X160091428Y-83378809D01*
X159615238Y-83474047D01*
X160377142Y-83140714D02*
X160758095Y-83140714D01*
X160520000Y-83807380D02*
X160520000Y-82950238D01*
X160567619Y-82855000D01*
X160662857Y-82807380D01*
X160758095Y-82807380D01*
X160948571Y-83140714D02*
X161329523Y-83140714D01*
X161091428Y-82807380D02*
X161091428Y-83664523D01*
X161139047Y-83759761D01*
X161234285Y-83807380D01*
X161329523Y-83807380D01*
X128817857Y-119832380D02*
X128341666Y-119832380D01*
X128341666Y-118832380D01*
X129151190Y-119832380D02*
X129151190Y-119165714D01*
X129151190Y-118832380D02*
X129103571Y-118880000D01*
X129151190Y-118927619D01*
X129198809Y-118880000D01*
X129151190Y-118832380D01*
X129151190Y-118927619D01*
X129627380Y-119832380D02*
X129627380Y-118832380D01*
X129865476Y-118832380D01*
X130008333Y-118880000D01*
X130103571Y-118975238D01*
X130151190Y-119070476D01*
X130198809Y-119260952D01*
X130198809Y-119403809D01*
X130151190Y-119594285D01*
X130103571Y-119689523D01*
X130008333Y-119784761D01*
X129865476Y-119832380D01*
X129627380Y-119832380D01*
X130579761Y-119546666D02*
X131055952Y-119546666D01*
X130484523Y-119832380D02*
X130817857Y-118832380D01*
X131151190Y-119832380D01*
X132055952Y-119832380D02*
X131722619Y-119356190D01*
X131484523Y-119832380D02*
X131484523Y-118832380D01*
X131865476Y-118832380D01*
X131960714Y-118880000D01*
X132008333Y-118927619D01*
X132055952Y-119022857D01*
X132055952Y-119165714D01*
X132008333Y-119260952D01*
X131960714Y-119308571D01*
X131865476Y-119356190D01*
X131484523Y-119356190D01*
D12*
X125150714Y-144188571D02*
X125150714Y-142688571D01*
X125650714Y-143760000D01*
X126150714Y-142688571D01*
X126150714Y-144188571D01*
X126793571Y-142831428D02*
X126865000Y-142760000D01*
X127007857Y-142688571D01*
X127365000Y-142688571D01*
X127507857Y-142760000D01*
X127579285Y-142831428D01*
X127650714Y-142974285D01*
X127650714Y-143117142D01*
X127579285Y-143331428D01*
X126722142Y-144188571D01*
X127650714Y-144188571D01*
X119435714Y-83228571D02*
X119435714Y-81728571D01*
X119935714Y-82800000D01*
X120435714Y-81728571D01*
X120435714Y-83228571D01*
X121078571Y-81871428D02*
X121150000Y-81800000D01*
X121292857Y-81728571D01*
X121650000Y-81728571D01*
X121792857Y-81800000D01*
X121864285Y-81871428D01*
X121935714Y-82014285D01*
X121935714Y-82157142D01*
X121864285Y-82371428D01*
X121007142Y-83228571D01*
X121935714Y-83228571D01*
D10*
X176078095Y-95702380D02*
X176078095Y-94702380D01*
X176078095Y-95178571D02*
X176649523Y-95178571D01*
X176649523Y-95702380D02*
X176649523Y-94702380D01*
X177125714Y-95702380D02*
X177125714Y-94702380D01*
X177459047Y-95416666D01*
X177792380Y-94702380D01*
X177792380Y-95702380D01*
X178268571Y-95321428D02*
X179030476Y-95321428D01*
X179840000Y-95178571D02*
X179982857Y-95226190D01*
X180030476Y-95273809D01*
X180078095Y-95369047D01*
X180078095Y-95511904D01*
X180030476Y-95607142D01*
X179982857Y-95654761D01*
X179887619Y-95702380D01*
X179506666Y-95702380D01*
X179506666Y-94702380D01*
X179840000Y-94702380D01*
X179935238Y-94750000D01*
X179982857Y-94797619D01*
X180030476Y-94892857D01*
X180030476Y-94988095D01*
X179982857Y-95083333D01*
X179935238Y-95130952D01*
X179840000Y-95178571D01*
X179506666Y-95178571D01*
X180363809Y-94702380D02*
X180935238Y-94702380D01*
X180649523Y-95702380D02*
X180649523Y-94702380D01*
X181697142Y-95035714D02*
X181697142Y-95702380D01*
X181459047Y-94654761D02*
X181220952Y-95369047D01*
X181840000Y-95369047D01*
X182697142Y-94702380D02*
X182220952Y-94702380D01*
X182173333Y-95178571D01*
X182220952Y-95130952D01*
X182316190Y-95083333D01*
X182554285Y-95083333D01*
X182649523Y-95130952D01*
X182697142Y-95178571D01*
X182744761Y-95273809D01*
X182744761Y-95511904D01*
X182697142Y-95607142D01*
X182649523Y-95654761D01*
X182554285Y-95702380D01*
X182316190Y-95702380D01*
X182220952Y-95654761D01*
X182173333Y-95607142D01*
X183363809Y-94702380D02*
X183459047Y-94702380D01*
X183554285Y-94750000D01*
X183601904Y-94797619D01*
X183649523Y-94892857D01*
X183697142Y-95083333D01*
X183697142Y-95321428D01*
X183649523Y-95511904D01*
X183601904Y-95607142D01*
X183554285Y-95654761D01*
X183459047Y-95702380D01*
X183363809Y-95702380D01*
X183268571Y-95654761D01*
X183220952Y-95607142D01*
X183173333Y-95511904D01*
X183125714Y-95321428D01*
X183125714Y-95083333D01*
X183173333Y-94892857D01*
X183220952Y-94797619D01*
X183268571Y-94750000D01*
X183363809Y-94702380D01*
X184078095Y-94797619D02*
X184125714Y-94750000D01*
X184220952Y-94702380D01*
X184459047Y-94702380D01*
X184554285Y-94750000D01*
X184601904Y-94797619D01*
X184649523Y-94892857D01*
X184649523Y-94988095D01*
X184601904Y-95130952D01*
X184030476Y-95702380D01*
X184649523Y-95702380D01*
X175204523Y-83637380D02*
X174728333Y-83637380D01*
X174728333Y-82637380D01*
X175537857Y-83637380D02*
X175537857Y-82637380D01*
X175775952Y-82637380D01*
X175918809Y-82685000D01*
X176014047Y-82780238D01*
X176061666Y-82875476D01*
X176109285Y-83065952D01*
X176109285Y-83208809D01*
X176061666Y-83399285D01*
X176014047Y-83494523D01*
X175918809Y-83589761D01*
X175775952Y-83637380D01*
X175537857Y-83637380D01*
X177109285Y-83637380D02*
X176775952Y-83161190D01*
X176537857Y-83637380D02*
X176537857Y-82637380D01*
X176918809Y-82637380D01*
X177014047Y-82685000D01*
X177061666Y-82732619D01*
X177109285Y-82827857D01*
X177109285Y-82970714D01*
X177061666Y-83065952D01*
X177014047Y-83113571D01*
X176918809Y-83161190D01*
X176537857Y-83161190D01*
X128436904Y-81673571D02*
X128103571Y-81673571D01*
X128103571Y-82197380D02*
X128103571Y-81197380D01*
X128579761Y-81197380D01*
X128960714Y-82197380D02*
X128960714Y-81530714D01*
X128960714Y-81721190D02*
X129008333Y-81625952D01*
X129055952Y-81578333D01*
X129151190Y-81530714D01*
X129246428Y-81530714D01*
X129722619Y-82197380D02*
X129627380Y-82149761D01*
X129579761Y-82102142D01*
X129532142Y-82006904D01*
X129532142Y-81721190D01*
X129579761Y-81625952D01*
X129627380Y-81578333D01*
X129722619Y-81530714D01*
X129865476Y-81530714D01*
X129960714Y-81578333D01*
X130008333Y-81625952D01*
X130055952Y-81721190D01*
X130055952Y-82006904D01*
X130008333Y-82102142D01*
X129960714Y-82149761D01*
X129865476Y-82197380D01*
X129722619Y-82197380D01*
X130484523Y-81530714D02*
X130484523Y-82197380D01*
X130484523Y-81625952D02*
X130532142Y-81578333D01*
X130627380Y-81530714D01*
X130770238Y-81530714D01*
X130865476Y-81578333D01*
X130913095Y-81673571D01*
X130913095Y-82197380D01*
X131246428Y-81530714D02*
X131627380Y-81530714D01*
X131389285Y-81197380D02*
X131389285Y-82054523D01*
X131436904Y-82149761D01*
X131532142Y-82197380D01*
X131627380Y-82197380D01*
X129484523Y-83807380D02*
X129008333Y-83807380D01*
X129008333Y-82807380D01*
X130198809Y-83759761D02*
X130103571Y-83807380D01*
X129913095Y-83807380D01*
X129817857Y-83759761D01*
X129770238Y-83664523D01*
X129770238Y-83283571D01*
X129817857Y-83188333D01*
X129913095Y-83140714D01*
X130103571Y-83140714D01*
X130198809Y-83188333D01*
X130246428Y-83283571D01*
X130246428Y-83378809D01*
X129770238Y-83474047D01*
X130532142Y-83140714D02*
X130913095Y-83140714D01*
X130675000Y-83807380D02*
X130675000Y-82950238D01*
X130722619Y-82855000D01*
X130817857Y-82807380D01*
X130913095Y-82807380D01*
X131103571Y-83140714D02*
X131484523Y-83140714D01*
X131246428Y-82807380D02*
X131246428Y-83664523D01*
X131294047Y-83759761D01*
X131389285Y-83807380D01*
X131484523Y-83807380D01*
X143169285Y-87447380D02*
X143169285Y-86447380D01*
X143502619Y-87161666D01*
X143835952Y-86447380D01*
X143835952Y-87447380D01*
X144455000Y-87447380D02*
X144359761Y-87399761D01*
X144312142Y-87352142D01*
X144264523Y-87256904D01*
X144264523Y-86971190D01*
X144312142Y-86875952D01*
X144359761Y-86828333D01*
X144455000Y-86780714D01*
X144597857Y-86780714D01*
X144693095Y-86828333D01*
X144740714Y-86875952D01*
X144788333Y-86971190D01*
X144788333Y-87256904D01*
X144740714Y-87352142D01*
X144693095Y-87399761D01*
X144597857Y-87447380D01*
X144455000Y-87447380D01*
X145074047Y-86780714D02*
X145455000Y-86780714D01*
X145216904Y-86447380D02*
X145216904Y-87304523D01*
X145264523Y-87399761D01*
X145359761Y-87447380D01*
X145455000Y-87447380D01*
X145931190Y-87447380D02*
X145835952Y-87399761D01*
X145788333Y-87352142D01*
X145740714Y-87256904D01*
X145740714Y-86971190D01*
X145788333Y-86875952D01*
X145835952Y-86828333D01*
X145931190Y-86780714D01*
X146074047Y-86780714D01*
X146169285Y-86828333D01*
X146216904Y-86875952D01*
X146264523Y-86971190D01*
X146264523Y-87256904D01*
X146216904Y-87352142D01*
X146169285Y-87399761D01*
X146074047Y-87447380D01*
X145931190Y-87447380D01*
X146693095Y-87447380D02*
X146693095Y-86780714D01*
X146693095Y-86971190D02*
X146740714Y-86875952D01*
X146788333Y-86828333D01*
X146883571Y-86780714D01*
X146978809Y-86780714D01*
X148264523Y-86447380D02*
X148455000Y-86447380D01*
X148550238Y-86495000D01*
X148645476Y-86590238D01*
X148693095Y-86780714D01*
X148693095Y-87114047D01*
X148645476Y-87304523D01*
X148550238Y-87399761D01*
X148455000Y-87447380D01*
X148264523Y-87447380D01*
X148169285Y-87399761D01*
X148074047Y-87304523D01*
X148026428Y-87114047D01*
X148026428Y-86780714D01*
X148074047Y-86590238D01*
X148169285Y-86495000D01*
X148264523Y-86447380D01*
X149550238Y-86780714D02*
X149550238Y-87447380D01*
X149121666Y-86780714D02*
X149121666Y-87304523D01*
X149169285Y-87399761D01*
X149264523Y-87447380D01*
X149407380Y-87447380D01*
X149502619Y-87399761D01*
X149550238Y-87352142D01*
X150026428Y-86780714D02*
X150026428Y-87780714D01*
X150026428Y-86828333D02*
X150121666Y-86780714D01*
X150312142Y-86780714D01*
X150407380Y-86828333D01*
X150455000Y-86875952D01*
X150502619Y-86971190D01*
X150502619Y-87256904D01*
X150455000Y-87352142D01*
X150407380Y-87399761D01*
X150312142Y-87447380D01*
X150121666Y-87447380D01*
X150026428Y-87399761D01*
X151359761Y-86780714D02*
X151359761Y-87447380D01*
X150931190Y-86780714D02*
X150931190Y-87304523D01*
X150978809Y-87399761D01*
X151074047Y-87447380D01*
X151216904Y-87447380D01*
X151312142Y-87399761D01*
X151359761Y-87352142D01*
X151693095Y-86780714D02*
X152074047Y-86780714D01*
X151835952Y-86447380D02*
X151835952Y-87304523D01*
X151883571Y-87399761D01*
X151978809Y-87447380D01*
X152074047Y-87447380D01*
X152359761Y-87399761D02*
X152455000Y-87447380D01*
X152645476Y-87447380D01*
X152740714Y-87399761D01*
X152788333Y-87304523D01*
X152788333Y-87256904D01*
X152740714Y-87161666D01*
X152645476Y-87114047D01*
X152502619Y-87114047D01*
X152407380Y-87066428D01*
X152359761Y-86971190D01*
X152359761Y-86923571D01*
X152407380Y-86828333D01*
X152502619Y-86780714D01*
X152645476Y-86780714D01*
X152740714Y-86828333D01*
D12*
X180395714Y-144823571D02*
X180395714Y-143323571D01*
X180895714Y-144395000D01*
X181395714Y-143323571D01*
X181395714Y-144823571D01*
X182038571Y-143466428D02*
X182110000Y-143395000D01*
X182252857Y-143323571D01*
X182610000Y-143323571D01*
X182752857Y-143395000D01*
X182824285Y-143466428D01*
X182895714Y-143609285D01*
X182895714Y-143752142D01*
X182824285Y-143966428D01*
X181967142Y-144823571D01*
X182895714Y-144823571D01*
D10*
X129603809Y-102052380D02*
X129603809Y-101052380D01*
X129984761Y-101052380D01*
X130080000Y-101100000D01*
X130127619Y-101147619D01*
X130175238Y-101242857D01*
X130175238Y-101385714D01*
X130127619Y-101480952D01*
X130080000Y-101528571D01*
X129984761Y-101576190D01*
X129603809Y-101576190D01*
X130508571Y-101052380D02*
X130746666Y-102052380D01*
X130937142Y-101338095D01*
X131127619Y-102052380D01*
X131365714Y-101052380D01*
X132318095Y-102052380D02*
X131984761Y-101576190D01*
X131746666Y-102052380D02*
X131746666Y-101052380D01*
X132127619Y-101052380D01*
X132222857Y-101100000D01*
X132270476Y-101147619D01*
X132318095Y-101242857D01*
X132318095Y-101385714D01*
X132270476Y-101480952D01*
X132222857Y-101528571D01*
X132127619Y-101576190D01*
X131746666Y-101576190D01*
X133508571Y-102052380D02*
X133508571Y-101052380D01*
X133984761Y-102052380D02*
X133984761Y-101052380D01*
X134556190Y-102052380D01*
X134556190Y-101052380D01*
D12*
X185475714Y-83228571D02*
X185475714Y-81728571D01*
X185975714Y-82800000D01*
X186475714Y-81728571D01*
X186475714Y-83228571D01*
X187118571Y-81871428D02*
X187190000Y-81800000D01*
X187332857Y-81728571D01*
X187690000Y-81728571D01*
X187832857Y-81800000D01*
X187904285Y-81871428D01*
X187975714Y-82014285D01*
X187975714Y-82157142D01*
X187904285Y-82371428D01*
X187047142Y-83228571D01*
X187975714Y-83228571D01*
D10*
X130683095Y-105650000D02*
X130587857Y-105602380D01*
X130445000Y-105602380D01*
X130302142Y-105650000D01*
X130206904Y-105745238D01*
X130159285Y-105840476D01*
X130111666Y-106030952D01*
X130111666Y-106173809D01*
X130159285Y-106364285D01*
X130206904Y-106459523D01*
X130302142Y-106554761D01*
X130445000Y-106602380D01*
X130540238Y-106602380D01*
X130683095Y-106554761D01*
X130730714Y-106507142D01*
X130730714Y-106173809D01*
X130540238Y-106173809D01*
X131159285Y-106602380D02*
X131159285Y-105602380D01*
X131730714Y-106602380D01*
X131730714Y-105602380D01*
X132206904Y-106602380D02*
X132206904Y-105602380D01*
X132445000Y-105602380D01*
X132587857Y-105650000D01*
X132683095Y-105745238D01*
X132730714Y-105840476D01*
X132778333Y-106030952D01*
X132778333Y-106173809D01*
X132730714Y-106364285D01*
X132683095Y-106459523D01*
X132587857Y-106554761D01*
X132445000Y-106602380D01*
X132206904Y-106602380D01*
X142232380Y-82197380D02*
X142232380Y-81197380D01*
X142565714Y-81911666D01*
X142899047Y-81197380D01*
X142899047Y-82197380D01*
X143375238Y-82197380D02*
X143375238Y-81530714D01*
X143375238Y-81197380D02*
X143327619Y-81245000D01*
X143375238Y-81292619D01*
X143422857Y-81245000D01*
X143375238Y-81197380D01*
X143375238Y-81292619D01*
X144280000Y-82197380D02*
X144280000Y-81197380D01*
X144280000Y-82149761D02*
X144184761Y-82197380D01*
X143994285Y-82197380D01*
X143899047Y-82149761D01*
X143851428Y-82102142D01*
X143803809Y-82006904D01*
X143803809Y-81721190D01*
X143851428Y-81625952D01*
X143899047Y-81578333D01*
X143994285Y-81530714D01*
X144184761Y-81530714D01*
X144280000Y-81578333D01*
X145184761Y-82197380D02*
X145184761Y-81197380D01*
X145184761Y-82149761D02*
X145089523Y-82197380D01*
X144899047Y-82197380D01*
X144803809Y-82149761D01*
X144756190Y-82102142D01*
X144708571Y-82006904D01*
X144708571Y-81721190D01*
X144756190Y-81625952D01*
X144803809Y-81578333D01*
X144899047Y-81530714D01*
X145089523Y-81530714D01*
X145184761Y-81578333D01*
X145803809Y-82197380D02*
X145708571Y-82149761D01*
X145660952Y-82054523D01*
X145660952Y-81197380D01*
X146565714Y-82149761D02*
X146470476Y-82197380D01*
X146280000Y-82197380D01*
X146184761Y-82149761D01*
X146137142Y-82054523D01*
X146137142Y-81673571D01*
X146184761Y-81578333D01*
X146280000Y-81530714D01*
X146470476Y-81530714D01*
X146565714Y-81578333D01*
X146613333Y-81673571D01*
X146613333Y-81768809D01*
X146137142Y-81864047D01*
X144089523Y-83807380D02*
X143613333Y-83807380D01*
X143613333Y-82807380D01*
X144803809Y-83759761D02*
X144708571Y-83807380D01*
X144518095Y-83807380D01*
X144422857Y-83759761D01*
X144375238Y-83664523D01*
X144375238Y-83283571D01*
X144422857Y-83188333D01*
X144518095Y-83140714D01*
X144708571Y-83140714D01*
X144803809Y-83188333D01*
X144851428Y-83283571D01*
X144851428Y-83378809D01*
X144375238Y-83474047D01*
X145137142Y-83140714D02*
X145518095Y-83140714D01*
X145280000Y-83807380D02*
X145280000Y-82950238D01*
X145327619Y-82855000D01*
X145422857Y-82807380D01*
X145518095Y-82807380D01*
X145708571Y-83140714D02*
X146089523Y-83140714D01*
X145851428Y-82807380D02*
X145851428Y-83664523D01*
X145899047Y-83759761D01*
X145994285Y-83807380D01*
X146089523Y-83807380D01*
X135421904Y-81503571D02*
X135088571Y-81503571D01*
X135088571Y-82027380D02*
X135088571Y-81027380D01*
X135564761Y-81027380D01*
X135945714Y-82027380D02*
X135945714Y-81360714D01*
X135945714Y-81551190D02*
X135993333Y-81455952D01*
X136040952Y-81408333D01*
X136136190Y-81360714D01*
X136231428Y-81360714D01*
X136707619Y-82027380D02*
X136612380Y-81979761D01*
X136564761Y-81932142D01*
X136517142Y-81836904D01*
X136517142Y-81551190D01*
X136564761Y-81455952D01*
X136612380Y-81408333D01*
X136707619Y-81360714D01*
X136850476Y-81360714D01*
X136945714Y-81408333D01*
X136993333Y-81455952D01*
X137040952Y-81551190D01*
X137040952Y-81836904D01*
X136993333Y-81932142D01*
X136945714Y-81979761D01*
X136850476Y-82027380D01*
X136707619Y-82027380D01*
X137469523Y-81360714D02*
X137469523Y-82027380D01*
X137469523Y-81455952D02*
X137517142Y-81408333D01*
X137612380Y-81360714D01*
X137755238Y-81360714D01*
X137850476Y-81408333D01*
X137898095Y-81503571D01*
X137898095Y-82027380D01*
X138231428Y-81360714D02*
X138612380Y-81360714D01*
X138374285Y-81027380D02*
X138374285Y-81884523D01*
X138421904Y-81979761D01*
X138517142Y-82027380D01*
X138612380Y-82027380D01*
X136040952Y-83637380D02*
X135707619Y-83161190D01*
X135469523Y-83637380D02*
X135469523Y-82637380D01*
X135850476Y-82637380D01*
X135945714Y-82685000D01*
X135993333Y-82732619D01*
X136040952Y-82827857D01*
X136040952Y-82970714D01*
X135993333Y-83065952D01*
X135945714Y-83113571D01*
X135850476Y-83161190D01*
X135469523Y-83161190D01*
X136469523Y-83637380D02*
X136469523Y-82970714D01*
X136469523Y-82637380D02*
X136421904Y-82685000D01*
X136469523Y-82732619D01*
X136517142Y-82685000D01*
X136469523Y-82637380D01*
X136469523Y-82732619D01*
X137374285Y-82970714D02*
X137374285Y-83780238D01*
X137326666Y-83875476D01*
X137279047Y-83923095D01*
X137183809Y-83970714D01*
X137040952Y-83970714D01*
X136945714Y-83923095D01*
X137374285Y-83589761D02*
X137279047Y-83637380D01*
X137088571Y-83637380D01*
X136993333Y-83589761D01*
X136945714Y-83542142D01*
X136898095Y-83446904D01*
X136898095Y-83161190D01*
X136945714Y-83065952D01*
X136993333Y-83018333D01*
X137088571Y-82970714D01*
X137279047Y-82970714D01*
X137374285Y-83018333D01*
X137850476Y-83637380D02*
X137850476Y-82637380D01*
X138279047Y-83637380D02*
X138279047Y-83113571D01*
X138231428Y-83018333D01*
X138136190Y-82970714D01*
X137993333Y-82970714D01*
X137898095Y-83018333D01*
X137850476Y-83065952D01*
X138612380Y-82970714D02*
X138993333Y-82970714D01*
X138755238Y-82637380D02*
X138755238Y-83494523D01*
X138802857Y-83589761D01*
X138898095Y-83637380D01*
X138993333Y-83637380D01*
X121102380Y-109211190D02*
X120102380Y-109211190D01*
X120816666Y-108877857D01*
X120102380Y-108544523D01*
X121102380Y-108544523D01*
X121054761Y-108115952D02*
X121102380Y-107973095D01*
X121102380Y-107735000D01*
X121054761Y-107639761D01*
X121007142Y-107592142D01*
X120911904Y-107544523D01*
X120816666Y-107544523D01*
X120721428Y-107592142D01*
X120673809Y-107639761D01*
X120626190Y-107735000D01*
X120578571Y-107925476D01*
X120530952Y-108020714D01*
X120483333Y-108068333D01*
X120388095Y-108115952D01*
X120292857Y-108115952D01*
X120197619Y-108068333D01*
X120150000Y-108020714D01*
X120102380Y-107925476D01*
X120102380Y-107687380D01*
X120150000Y-107544523D01*
X120102380Y-107115952D02*
X120911904Y-107115952D01*
X121007142Y-107068333D01*
X121054761Y-107020714D01*
X121102380Y-106925476D01*
X121102380Y-106735000D01*
X121054761Y-106639761D01*
X121007142Y-106592142D01*
X120911904Y-106544523D01*
X120102380Y-106544523D01*
X121102380Y-104735000D02*
X120626190Y-105068333D01*
X121102380Y-105306428D02*
X120102380Y-105306428D01*
X120102380Y-104925476D01*
X120150000Y-104830238D01*
X120197619Y-104782619D01*
X120292857Y-104735000D01*
X120435714Y-104735000D01*
X120530952Y-104782619D01*
X120578571Y-104830238D01*
X120626190Y-104925476D01*
X120626190Y-105306428D01*
X121102380Y-104163571D02*
X121054761Y-104258809D01*
X121007142Y-104306428D01*
X120911904Y-104354047D01*
X120626190Y-104354047D01*
X120530952Y-104306428D01*
X120483333Y-104258809D01*
X120435714Y-104163571D01*
X120435714Y-104020714D01*
X120483333Y-103925476D01*
X120530952Y-103877857D01*
X120626190Y-103830238D01*
X120911904Y-103830238D01*
X121007142Y-103877857D01*
X121054761Y-103925476D01*
X121102380Y-104020714D01*
X121102380Y-104163571D01*
X121102380Y-103401666D02*
X120102380Y-103401666D01*
X120483333Y-103401666D02*
X120435714Y-103306428D01*
X120435714Y-103115952D01*
X120483333Y-103020714D01*
X120530952Y-102973095D01*
X120626190Y-102925476D01*
X120911904Y-102925476D01*
X121007142Y-102973095D01*
X121054761Y-103020714D01*
X121102380Y-103115952D01*
X121102380Y-103306428D01*
X121054761Y-103401666D01*
X121102380Y-102354047D02*
X121054761Y-102449285D01*
X121007142Y-102496904D01*
X120911904Y-102544523D01*
X120626190Y-102544523D01*
X120530952Y-102496904D01*
X120483333Y-102449285D01*
X120435714Y-102354047D01*
X120435714Y-102211190D01*
X120483333Y-102115952D01*
X120530952Y-102068333D01*
X120626190Y-102020714D01*
X120911904Y-102020714D01*
X121007142Y-102068333D01*
X121054761Y-102115952D01*
X121102380Y-102211190D01*
X121102380Y-102354047D01*
X120435714Y-101735000D02*
X120435714Y-101354047D01*
X120102380Y-101592142D02*
X120959523Y-101592142D01*
X121054761Y-101544523D01*
X121102380Y-101449285D01*
X121102380Y-101354047D01*
X121102380Y-101020714D02*
X120435714Y-101020714D01*
X120102380Y-101020714D02*
X120150000Y-101068333D01*
X120197619Y-101020714D01*
X120150000Y-100973095D01*
X120102380Y-101020714D01*
X120197619Y-101020714D01*
X121054761Y-100115952D02*
X121102380Y-100211190D01*
X121102380Y-100401666D01*
X121054761Y-100496904D01*
X121007142Y-100544523D01*
X120911904Y-100592142D01*
X120626190Y-100592142D01*
X120530952Y-100544523D01*
X120483333Y-100496904D01*
X120435714Y-100401666D01*
X120435714Y-100211190D01*
X120483333Y-100115952D01*
X121054761Y-99735000D02*
X121102380Y-99639761D01*
X121102380Y-99449285D01*
X121054761Y-99354047D01*
X120959523Y-99306428D01*
X120911904Y-99306428D01*
X120816666Y-99354047D01*
X120769047Y-99449285D01*
X120769047Y-99592142D01*
X120721428Y-99687380D01*
X120626190Y-99735000D01*
X120578571Y-99735000D01*
X120483333Y-99687380D01*
X120435714Y-99592142D01*
X120435714Y-99449285D01*
X120483333Y-99354047D01*
X121007142Y-97544523D02*
X121054761Y-97592142D01*
X121102380Y-97735000D01*
X121102380Y-97830238D01*
X121054761Y-97973095D01*
X120959523Y-98068333D01*
X120864285Y-98115952D01*
X120673809Y-98163571D01*
X120530952Y-98163571D01*
X120340476Y-98115952D01*
X120245238Y-98068333D01*
X120150000Y-97973095D01*
X120102380Y-97830238D01*
X120102380Y-97735000D01*
X120150000Y-97592142D01*
X120197619Y-97544523D01*
X121102380Y-96973095D02*
X121054761Y-97068333D01*
X120959523Y-97115952D01*
X120102380Y-97115952D01*
X120435714Y-96163571D02*
X121102380Y-96163571D01*
X120435714Y-96592142D02*
X120959523Y-96592142D01*
X121054761Y-96544523D01*
X121102380Y-96449285D01*
X121102380Y-96306428D01*
X121054761Y-96211190D01*
X121007142Y-96163571D01*
X121102380Y-95687380D02*
X120102380Y-95687380D01*
X120483333Y-95687380D02*
X120435714Y-95592142D01*
X120435714Y-95401666D01*
X120483333Y-95306428D01*
X120530952Y-95258809D01*
X120626190Y-95211190D01*
X120911904Y-95211190D01*
X121007142Y-95258809D01*
X121054761Y-95306428D01*
X121102380Y-95401666D01*
X121102380Y-95592142D01*
X121054761Y-95687380D01*
X131254523Y-103062380D02*
X130778333Y-103062380D01*
X130730714Y-103538571D01*
X130778333Y-103490952D01*
X130873571Y-103443333D01*
X131111666Y-103443333D01*
X131206904Y-103490952D01*
X131254523Y-103538571D01*
X131302142Y-103633809D01*
X131302142Y-103871904D01*
X131254523Y-103967142D01*
X131206904Y-104014761D01*
X131111666Y-104062380D01*
X130873571Y-104062380D01*
X130778333Y-104014761D01*
X130730714Y-103967142D01*
X131587857Y-103062380D02*
X131921190Y-104062380D01*
X132254523Y-103062380D01*
%TO.C,J13*%
X181217380Y-102409523D02*
X181931666Y-102409523D01*
X182074523Y-102457142D01*
X182169761Y-102552380D01*
X182217380Y-102695238D01*
X182217380Y-102790476D01*
X182217380Y-101409523D02*
X182217380Y-101980952D01*
X182217380Y-101695238D02*
X181217380Y-101695238D01*
X181360238Y-101790476D01*
X181455476Y-101885714D01*
X181503095Y-101980952D01*
X181217380Y-101076190D02*
X181217380Y-100457142D01*
X181598333Y-100790476D01*
X181598333Y-100647619D01*
X181645952Y-100552380D01*
X181693571Y-100504761D01*
X181788809Y-100457142D01*
X182026904Y-100457142D01*
X182122142Y-100504761D01*
X182169761Y-100552380D01*
X182217380Y-100647619D01*
X182217380Y-100933333D01*
X182169761Y-101028571D01*
X182122142Y-101076190D01*
%TO.C,U5*%
X156543095Y-130802380D02*
X156543095Y-131611904D01*
X156590714Y-131707142D01*
X156638333Y-131754761D01*
X156733571Y-131802380D01*
X156924047Y-131802380D01*
X157019285Y-131754761D01*
X157066904Y-131707142D01*
X157114523Y-131611904D01*
X157114523Y-130802380D01*
X158066904Y-130802380D02*
X157590714Y-130802380D01*
X157543095Y-131278571D01*
X157590714Y-131230952D01*
X157685952Y-131183333D01*
X157924047Y-131183333D01*
X158019285Y-131230952D01*
X158066904Y-131278571D01*
X158114523Y-131373809D01*
X158114523Y-131611904D01*
X158066904Y-131707142D01*
X158019285Y-131754761D01*
X157924047Y-131802380D01*
X157685952Y-131802380D01*
X157590714Y-131754761D01*
X157543095Y-131707142D01*
%TO.C,J6*%
X178407380Y-79073333D02*
X179121666Y-79073333D01*
X179264523Y-79120952D01*
X179359761Y-79216190D01*
X179407380Y-79359047D01*
X179407380Y-79454285D01*
X178407380Y-78168571D02*
X178407380Y-78359047D01*
X178455000Y-78454285D01*
X178502619Y-78501904D01*
X178645476Y-78597142D01*
X178835952Y-78644761D01*
X179216904Y-78644761D01*
X179312142Y-78597142D01*
X179359761Y-78549523D01*
X179407380Y-78454285D01*
X179407380Y-78263809D01*
X179359761Y-78168571D01*
X179312142Y-78120952D01*
X179216904Y-78073333D01*
X178978809Y-78073333D01*
X178883571Y-78120952D01*
X178835952Y-78168571D01*
X178788333Y-78263809D01*
X178788333Y-78454285D01*
X178835952Y-78549523D01*
X178883571Y-78597142D01*
X178978809Y-78644761D01*
%TO.C,C1*%
X126962142Y-94146666D02*
X127009761Y-94194285D01*
X127057380Y-94337142D01*
X127057380Y-94432380D01*
X127009761Y-94575238D01*
X126914523Y-94670476D01*
X126819285Y-94718095D01*
X126628809Y-94765714D01*
X126485952Y-94765714D01*
X126295476Y-94718095D01*
X126200238Y-94670476D01*
X126105000Y-94575238D01*
X126057380Y-94432380D01*
X126057380Y-94337142D01*
X126105000Y-94194285D01*
X126152619Y-94146666D01*
X127057380Y-93194285D02*
X127057380Y-93765714D01*
X127057380Y-93480000D02*
X126057380Y-93480000D01*
X126200238Y-93575238D01*
X126295476Y-93670476D01*
X126343095Y-93765714D01*
%TO.C,C2*%
X161647142Y-109386666D02*
X161694761Y-109434285D01*
X161742380Y-109577142D01*
X161742380Y-109672380D01*
X161694761Y-109815238D01*
X161599523Y-109910476D01*
X161504285Y-109958095D01*
X161313809Y-110005714D01*
X161170952Y-110005714D01*
X160980476Y-109958095D01*
X160885238Y-109910476D01*
X160790000Y-109815238D01*
X160742380Y-109672380D01*
X160742380Y-109577142D01*
X160790000Y-109434285D01*
X160837619Y-109386666D01*
X160837619Y-109005714D02*
X160790000Y-108958095D01*
X160742380Y-108862857D01*
X160742380Y-108624761D01*
X160790000Y-108529523D01*
X160837619Y-108481904D01*
X160932857Y-108434285D01*
X161028095Y-108434285D01*
X161170952Y-108481904D01*
X161742380Y-109053333D01*
X161742380Y-108434285D01*
%TO.C,J14*%
X135252990Y-118110809D02*
X135252990Y-118825095D01*
X135205371Y-118967952D01*
X135110133Y-119063190D01*
X134967275Y-119110809D01*
X134872037Y-119110809D01*
X136252990Y-119110809D02*
X135681561Y-119110809D01*
X135967275Y-119110809D02*
X135967275Y-118110809D01*
X135872037Y-118253667D01*
X135776799Y-118348905D01*
X135681561Y-118396524D01*
X137110133Y-118444143D02*
X137110133Y-119110809D01*
X136872037Y-118063190D02*
X136633942Y-118777476D01*
X137252990Y-118777476D01*
%TO.C,J4*%
X141337884Y-78981149D02*
X142052170Y-78981149D01*
X142195027Y-79028768D01*
X142290265Y-79124006D01*
X142337884Y-79266863D01*
X142337884Y-79362101D01*
X141671218Y-78076387D02*
X142337884Y-78076387D01*
X141290265Y-78314482D02*
X142004551Y-78552577D01*
X142004551Y-77933530D01*
%TO.C,J9*%
X127301666Y-110057380D02*
X127301666Y-110771666D01*
X127254047Y-110914523D01*
X127158809Y-111009761D01*
X127015952Y-111057380D01*
X126920714Y-111057380D01*
X127825476Y-111057380D02*
X128015952Y-111057380D01*
X128111190Y-111009761D01*
X128158809Y-110962142D01*
X128254047Y-110819285D01*
X128301666Y-110628809D01*
X128301666Y-110247857D01*
X128254047Y-110152619D01*
X128206428Y-110105000D01*
X128111190Y-110057380D01*
X127920714Y-110057380D01*
X127825476Y-110105000D01*
X127777857Y-110152619D01*
X127730238Y-110247857D01*
X127730238Y-110485952D01*
X127777857Y-110581190D01*
X127825476Y-110628809D01*
X127920714Y-110676428D01*
X128111190Y-110676428D01*
X128206428Y-110628809D01*
X128254047Y-110581190D01*
X128301666Y-110485952D01*
%TO.C,R3*%
X174992380Y-107481666D02*
X174516190Y-107815000D01*
X174992380Y-108053095D02*
X173992380Y-108053095D01*
X173992380Y-107672142D01*
X174040000Y-107576904D01*
X174087619Y-107529285D01*
X174182857Y-107481666D01*
X174325714Y-107481666D01*
X174420952Y-107529285D01*
X174468571Y-107576904D01*
X174516190Y-107672142D01*
X174516190Y-108053095D01*
X173992380Y-107148333D02*
X173992380Y-106529285D01*
X174373333Y-106862619D01*
X174373333Y-106719761D01*
X174420952Y-106624523D01*
X174468571Y-106576904D01*
X174563809Y-106529285D01*
X174801904Y-106529285D01*
X174897142Y-106576904D01*
X174944761Y-106624523D01*
X174992380Y-106719761D01*
X174992380Y-107005476D01*
X174944761Y-107100714D01*
X174897142Y-107148333D01*
%TO.C,U7*%
X171323095Y-111569880D02*
X171323095Y-112379404D01*
X171370714Y-112474642D01*
X171418333Y-112522261D01*
X171513571Y-112569880D01*
X171704047Y-112569880D01*
X171799285Y-112522261D01*
X171846904Y-112474642D01*
X171894523Y-112379404D01*
X171894523Y-111569880D01*
X172275476Y-111569880D02*
X172942142Y-111569880D01*
X172513571Y-112569880D01*
%TO.C,J10*%
X127460476Y-101052380D02*
X127460476Y-101766666D01*
X127412857Y-101909523D01*
X127317619Y-102004761D01*
X127174761Y-102052380D01*
X127079523Y-102052380D01*
X128460476Y-102052380D02*
X127889047Y-102052380D01*
X128174761Y-102052380D02*
X128174761Y-101052380D01*
X128079523Y-101195238D01*
X127984285Y-101290476D01*
X127889047Y-101338095D01*
X129079523Y-101052380D02*
X129174761Y-101052380D01*
X129270000Y-101100000D01*
X129317619Y-101147619D01*
X129365238Y-101242857D01*
X129412857Y-101433333D01*
X129412857Y-101671428D01*
X129365238Y-101861904D01*
X129317619Y-101957142D01*
X129270000Y-102004761D01*
X129174761Y-102052380D01*
X129079523Y-102052380D01*
X128984285Y-102004761D01*
X128936666Y-101957142D01*
X128889047Y-101861904D01*
X128841428Y-101671428D01*
X128841428Y-101433333D01*
X128889047Y-101242857D01*
X128936666Y-101147619D01*
X128984285Y-101100000D01*
X129079523Y-101052380D01*
%TO.C,C3*%
X158472142Y-105551666D02*
X158519761Y-105599285D01*
X158567380Y-105742142D01*
X158567380Y-105837380D01*
X158519761Y-105980238D01*
X158424523Y-106075476D01*
X158329285Y-106123095D01*
X158138809Y-106170714D01*
X157995952Y-106170714D01*
X157805476Y-106123095D01*
X157710238Y-106075476D01*
X157615000Y-105980238D01*
X157567380Y-105837380D01*
X157567380Y-105742142D01*
X157615000Y-105599285D01*
X157662619Y-105551666D01*
X157567380Y-105218333D02*
X157567380Y-104599285D01*
X157948333Y-104932619D01*
X157948333Y-104789761D01*
X157995952Y-104694523D01*
X158043571Y-104646904D01*
X158138809Y-104599285D01*
X158376904Y-104599285D01*
X158472142Y-104646904D01*
X158519761Y-104694523D01*
X158567380Y-104789761D01*
X158567380Y-105075476D01*
X158519761Y-105170714D01*
X158472142Y-105218333D01*
%TO.C,J7*%
X169632380Y-79020833D02*
X170346666Y-79020833D01*
X170489523Y-79068452D01*
X170584761Y-79163690D01*
X170632380Y-79306547D01*
X170632380Y-79401785D01*
X169632380Y-78639880D02*
X169632380Y-77973214D01*
X170632380Y-78401785D01*
%TO.C,C4*%
X164298333Y-105132142D02*
X164250714Y-105179761D01*
X164107857Y-105227380D01*
X164012619Y-105227380D01*
X163869761Y-105179761D01*
X163774523Y-105084523D01*
X163726904Y-104989285D01*
X163679285Y-104798809D01*
X163679285Y-104655952D01*
X163726904Y-104465476D01*
X163774523Y-104370238D01*
X163869761Y-104275000D01*
X164012619Y-104227380D01*
X164107857Y-104227380D01*
X164250714Y-104275000D01*
X164298333Y-104322619D01*
X165155476Y-104560714D02*
X165155476Y-105227380D01*
X164917380Y-104179761D02*
X164679285Y-104894047D01*
X165298333Y-104894047D01*
%TO.C,J1*%
X125932380Y-79073333D02*
X126646666Y-79073333D01*
X126789523Y-79120952D01*
X126884761Y-79216190D01*
X126932380Y-79359047D01*
X126932380Y-79454285D01*
X126932380Y-78073333D02*
X126932380Y-78644761D01*
X126932380Y-78359047D02*
X125932380Y-78359047D01*
X126075238Y-78454285D01*
X126170476Y-78549523D01*
X126218095Y-78644761D01*
%TO.C,C5*%
X139662142Y-94146666D02*
X139709761Y-94194285D01*
X139757380Y-94337142D01*
X139757380Y-94432380D01*
X139709761Y-94575238D01*
X139614523Y-94670476D01*
X139519285Y-94718095D01*
X139328809Y-94765714D01*
X139185952Y-94765714D01*
X138995476Y-94718095D01*
X138900238Y-94670476D01*
X138805000Y-94575238D01*
X138757380Y-94432380D01*
X138757380Y-94337142D01*
X138805000Y-94194285D01*
X138852619Y-94146666D01*
X138757380Y-93241904D02*
X138757380Y-93718095D01*
X139233571Y-93765714D01*
X139185952Y-93718095D01*
X139138333Y-93622857D01*
X139138333Y-93384761D01*
X139185952Y-93289523D01*
X139233571Y-93241904D01*
X139328809Y-93194285D01*
X139566904Y-93194285D01*
X139662142Y-93241904D01*
X139709761Y-93289523D01*
X139757380Y-93384761D01*
X139757380Y-93622857D01*
X139709761Y-93718095D01*
X139662142Y-93765714D01*
%TO.C,C6*%
X152997142Y-94146666D02*
X153044761Y-94194285D01*
X153092380Y-94337142D01*
X153092380Y-94432380D01*
X153044761Y-94575238D01*
X152949523Y-94670476D01*
X152854285Y-94718095D01*
X152663809Y-94765714D01*
X152520952Y-94765714D01*
X152330476Y-94718095D01*
X152235238Y-94670476D01*
X152140000Y-94575238D01*
X152092380Y-94432380D01*
X152092380Y-94337142D01*
X152140000Y-94194285D01*
X152187619Y-94146666D01*
X152092380Y-93289523D02*
X152092380Y-93480000D01*
X152140000Y-93575238D01*
X152187619Y-93622857D01*
X152330476Y-93718095D01*
X152520952Y-93765714D01*
X152901904Y-93765714D01*
X152997142Y-93718095D01*
X153044761Y-93670476D01*
X153092380Y-93575238D01*
X153092380Y-93384761D01*
X153044761Y-93289523D01*
X152997142Y-93241904D01*
X152901904Y-93194285D01*
X152663809Y-93194285D01*
X152568571Y-93241904D01*
X152520952Y-93289523D01*
X152473333Y-93384761D01*
X152473333Y-93575238D01*
X152520952Y-93670476D01*
X152568571Y-93718095D01*
X152663809Y-93765714D01*
%TO.C,REF1*%
X119602380Y-84907380D02*
X119269047Y-84431190D01*
X119030952Y-84907380D02*
X119030952Y-83907380D01*
X119411904Y-83907380D01*
X119507142Y-83955000D01*
X119554761Y-84002619D01*
X119602380Y-84097857D01*
X119602380Y-84240714D01*
X119554761Y-84335952D01*
X119507142Y-84383571D01*
X119411904Y-84431190D01*
X119030952Y-84431190D01*
X120030952Y-84383571D02*
X120364285Y-84383571D01*
X120507142Y-84907380D02*
X120030952Y-84907380D01*
X120030952Y-83907380D01*
X120507142Y-83907380D01*
X121269047Y-84383571D02*
X120935714Y-84383571D01*
X120935714Y-84907380D02*
X120935714Y-83907380D01*
X121411904Y-83907380D01*
X122316666Y-84907380D02*
X121745238Y-84907380D01*
X122030952Y-84907380D02*
X122030952Y-83907380D01*
X121935714Y-84050238D01*
X121840476Y-84145476D01*
X121745238Y-84193095D01*
%TO.C,J12*%
X171180476Y-99937380D02*
X171180476Y-100651666D01*
X171132857Y-100794523D01*
X171037619Y-100889761D01*
X170894761Y-100937380D01*
X170799523Y-100937380D01*
X172180476Y-100937380D02*
X171609047Y-100937380D01*
X171894761Y-100937380D02*
X171894761Y-99937380D01*
X171799523Y-100080238D01*
X171704285Y-100175476D01*
X171609047Y-100223095D01*
X172561428Y-100032619D02*
X172609047Y-99985000D01*
X172704285Y-99937380D01*
X172942380Y-99937380D01*
X173037619Y-99985000D01*
X173085238Y-100032619D01*
X173132857Y-100127857D01*
X173132857Y-100223095D01*
X173085238Y-100365952D01*
X172513809Y-100937380D01*
X173132857Y-100937380D01*
%TO.C,REF3*%
X125317380Y-145867380D02*
X124984047Y-145391190D01*
X124745952Y-145867380D02*
X124745952Y-144867380D01*
X125126904Y-144867380D01*
X125222142Y-144915000D01*
X125269761Y-144962619D01*
X125317380Y-145057857D01*
X125317380Y-145200714D01*
X125269761Y-145295952D01*
X125222142Y-145343571D01*
X125126904Y-145391190D01*
X124745952Y-145391190D01*
X125745952Y-145343571D02*
X126079285Y-145343571D01*
X126222142Y-145867380D02*
X125745952Y-145867380D01*
X125745952Y-144867380D01*
X126222142Y-144867380D01*
X126984047Y-145343571D02*
X126650714Y-145343571D01*
X126650714Y-145867380D02*
X126650714Y-144867380D01*
X127126904Y-144867380D01*
X127412619Y-144867380D02*
X128031666Y-144867380D01*
X127698333Y-145248333D01*
X127841190Y-145248333D01*
X127936428Y-145295952D01*
X127984047Y-145343571D01*
X128031666Y-145438809D01*
X128031666Y-145676904D01*
X127984047Y-145772142D01*
X127936428Y-145819761D01*
X127841190Y-145867380D01*
X127555476Y-145867380D01*
X127460238Y-145819761D01*
X127412619Y-145772142D01*
%TO.C,U3*%
X144322380Y-94741904D02*
X145131904Y-94741904D01*
X145227142Y-94694285D01*
X145274761Y-94646666D01*
X145322380Y-94551428D01*
X145322380Y-94360952D01*
X145274761Y-94265714D01*
X145227142Y-94218095D01*
X145131904Y-94170476D01*
X144322380Y-94170476D01*
X144322380Y-93789523D02*
X144322380Y-93170476D01*
X144703333Y-93503809D01*
X144703333Y-93360952D01*
X144750952Y-93265714D01*
X144798571Y-93218095D01*
X144893809Y-93170476D01*
X145131904Y-93170476D01*
X145227142Y-93218095D01*
X145274761Y-93265714D01*
X145322380Y-93360952D01*
X145322380Y-93646666D01*
X145274761Y-93741904D01*
X145227142Y-93789523D01*
%TO.C,R1*%
X181427380Y-79541666D02*
X180951190Y-79875000D01*
X181427380Y-80113095D02*
X180427380Y-80113095D01*
X180427380Y-79732142D01*
X180475000Y-79636904D01*
X180522619Y-79589285D01*
X180617857Y-79541666D01*
X180760714Y-79541666D01*
X180855952Y-79589285D01*
X180903571Y-79636904D01*
X180951190Y-79732142D01*
X180951190Y-80113095D01*
X181427380Y-78589285D02*
X181427380Y-79160714D01*
X181427380Y-78875000D02*
X180427380Y-78875000D01*
X180570238Y-78970238D01*
X180665476Y-79065476D01*
X180713095Y-79160714D01*
%TO.C,J5*%
X162012380Y-79073333D02*
X162726666Y-79073333D01*
X162869523Y-79120952D01*
X162964761Y-79216190D01*
X163012380Y-79359047D01*
X163012380Y-79454285D01*
X162012380Y-78120952D02*
X162012380Y-78597142D01*
X162488571Y-78644761D01*
X162440952Y-78597142D01*
X162393333Y-78501904D01*
X162393333Y-78263809D01*
X162440952Y-78168571D01*
X162488571Y-78120952D01*
X162583809Y-78073333D01*
X162821904Y-78073333D01*
X162917142Y-78120952D01*
X162964761Y-78168571D01*
X163012380Y-78263809D01*
X163012380Y-78501904D01*
X162964761Y-78597142D01*
X162917142Y-78644761D01*
%TO.C,R4*%
X176998333Y-121102380D02*
X176665000Y-120626190D01*
X176426904Y-121102380D02*
X176426904Y-120102380D01*
X176807857Y-120102380D01*
X176903095Y-120150000D01*
X176950714Y-120197619D01*
X176998333Y-120292857D01*
X176998333Y-120435714D01*
X176950714Y-120530952D01*
X176903095Y-120578571D01*
X176807857Y-120626190D01*
X176426904Y-120626190D01*
X177855476Y-120435714D02*
X177855476Y-121102380D01*
X177617380Y-120054761D02*
X177379285Y-120769047D01*
X177998333Y-120769047D01*
%TO.C,C9*%
X187158333Y-115532142D02*
X187110714Y-115579761D01*
X186967857Y-115627380D01*
X186872619Y-115627380D01*
X186729761Y-115579761D01*
X186634523Y-115484523D01*
X186586904Y-115389285D01*
X186539285Y-115198809D01*
X186539285Y-115055952D01*
X186586904Y-114865476D01*
X186634523Y-114770238D01*
X186729761Y-114675000D01*
X186872619Y-114627380D01*
X186967857Y-114627380D01*
X187110714Y-114675000D01*
X187158333Y-114722619D01*
X187634523Y-115627380D02*
X187825000Y-115627380D01*
X187920238Y-115579761D01*
X187967857Y-115532142D01*
X188063095Y-115389285D01*
X188110714Y-115198809D01*
X188110714Y-114817857D01*
X188063095Y-114722619D01*
X188015476Y-114675000D01*
X187920238Y-114627380D01*
X187729761Y-114627380D01*
X187634523Y-114675000D01*
X187586904Y-114722619D01*
X187539285Y-114817857D01*
X187539285Y-115055952D01*
X187586904Y-115151190D01*
X187634523Y-115198809D01*
X187729761Y-115246428D01*
X187920238Y-115246428D01*
X188015476Y-115198809D01*
X188063095Y-115151190D01*
X188110714Y-115055952D01*
%TO.C,R2*%
X180157380Y-107481666D02*
X179681190Y-107815000D01*
X180157380Y-108053095D02*
X179157380Y-108053095D01*
X179157380Y-107672142D01*
X179205000Y-107576904D01*
X179252619Y-107529285D01*
X179347857Y-107481666D01*
X179490714Y-107481666D01*
X179585952Y-107529285D01*
X179633571Y-107576904D01*
X179681190Y-107672142D01*
X179681190Y-108053095D01*
X179252619Y-107100714D02*
X179205000Y-107053095D01*
X179157380Y-106957857D01*
X179157380Y-106719761D01*
X179205000Y-106624523D01*
X179252619Y-106576904D01*
X179347857Y-106529285D01*
X179443095Y-106529285D01*
X179585952Y-106576904D01*
X180157380Y-107148333D01*
X180157380Y-106529285D01*
%TO.C,J11*%
X173097380Y-90344523D02*
X173811666Y-90344523D01*
X173954523Y-90392142D01*
X174049761Y-90487380D01*
X174097380Y-90630238D01*
X174097380Y-90725476D01*
X174097380Y-89344523D02*
X174097380Y-89915952D01*
X174097380Y-89630238D02*
X173097380Y-89630238D01*
X173240238Y-89725476D01*
X173335476Y-89820714D01*
X173383095Y-89915952D01*
X174097380Y-88392142D02*
X174097380Y-88963571D01*
X174097380Y-88677857D02*
X173097380Y-88677857D01*
X173240238Y-88773095D01*
X173335476Y-88868333D01*
X173383095Y-88963571D01*
%TO.C,C7*%
X161647142Y-113196666D02*
X161694761Y-113244285D01*
X161742380Y-113387142D01*
X161742380Y-113482380D01*
X161694761Y-113625238D01*
X161599523Y-113720476D01*
X161504285Y-113768095D01*
X161313809Y-113815714D01*
X161170952Y-113815714D01*
X160980476Y-113768095D01*
X160885238Y-113720476D01*
X160790000Y-113625238D01*
X160742380Y-113482380D01*
X160742380Y-113387142D01*
X160790000Y-113244285D01*
X160837619Y-113196666D01*
X160742380Y-112863333D02*
X160742380Y-112196666D01*
X161742380Y-112625238D01*
%TO.C,REF2*%
X185642380Y-84907380D02*
X185309047Y-84431190D01*
X185070952Y-84907380D02*
X185070952Y-83907380D01*
X185451904Y-83907380D01*
X185547142Y-83955000D01*
X185594761Y-84002619D01*
X185642380Y-84097857D01*
X185642380Y-84240714D01*
X185594761Y-84335952D01*
X185547142Y-84383571D01*
X185451904Y-84431190D01*
X185070952Y-84431190D01*
X186070952Y-84383571D02*
X186404285Y-84383571D01*
X186547142Y-84907380D02*
X186070952Y-84907380D01*
X186070952Y-83907380D01*
X186547142Y-83907380D01*
X187309047Y-84383571D02*
X186975714Y-84383571D01*
X186975714Y-84907380D02*
X186975714Y-83907380D01*
X187451904Y-83907380D01*
X187785238Y-84002619D02*
X187832857Y-83955000D01*
X187928095Y-83907380D01*
X188166190Y-83907380D01*
X188261428Y-83955000D01*
X188309047Y-84002619D01*
X188356666Y-84097857D01*
X188356666Y-84193095D01*
X188309047Y-84335952D01*
X187737619Y-84907380D01*
X188356666Y-84907380D01*
%TO.C,J2*%
X133552380Y-79073333D02*
X134266666Y-79073333D01*
X134409523Y-79120952D01*
X134504761Y-79216190D01*
X134552380Y-79359047D01*
X134552380Y-79454285D01*
X133647619Y-78644761D02*
X133600000Y-78597142D01*
X133552380Y-78501904D01*
X133552380Y-78263809D01*
X133600000Y-78168571D01*
X133647619Y-78120952D01*
X133742857Y-78073333D01*
X133838095Y-78073333D01*
X133980952Y-78120952D01*
X134552380Y-78692380D01*
X134552380Y-78073333D01*
%TO.C,U6*%
X181483095Y-112482380D02*
X181483095Y-113291904D01*
X181530714Y-113387142D01*
X181578333Y-113434761D01*
X181673571Y-113482380D01*
X181864047Y-113482380D01*
X181959285Y-113434761D01*
X182006904Y-113387142D01*
X182054523Y-113291904D01*
X182054523Y-112482380D01*
X182959285Y-112482380D02*
X182768809Y-112482380D01*
X182673571Y-112530000D01*
X182625952Y-112577619D01*
X182530714Y-112720476D01*
X182483095Y-112910952D01*
X182483095Y-113291904D01*
X182530714Y-113387142D01*
X182578333Y-113434761D01*
X182673571Y-113482380D01*
X182864047Y-113482380D01*
X182959285Y-113434761D01*
X183006904Y-113387142D01*
X183054523Y-113291904D01*
X183054523Y-113053809D01*
X183006904Y-112958571D01*
X182959285Y-112910952D01*
X182864047Y-112863333D01*
X182673571Y-112863333D01*
X182578333Y-112910952D01*
X182530714Y-112958571D01*
X182483095Y-113053809D01*
%TO.C,J8*%
X131270293Y-110057399D02*
X131270293Y-110771685D01*
X131222674Y-110914542D01*
X131127436Y-111009780D01*
X130984579Y-111057399D01*
X130889341Y-111057399D01*
X131889341Y-110485971D02*
X131794103Y-110438352D01*
X131746484Y-110390733D01*
X131698865Y-110295495D01*
X131698865Y-110247876D01*
X131746484Y-110152638D01*
X131794103Y-110105019D01*
X131889341Y-110057399D01*
X132079817Y-110057399D01*
X132175055Y-110105019D01*
X132222674Y-110152638D01*
X132270293Y-110247876D01*
X132270293Y-110295495D01*
X132222674Y-110390733D01*
X132175055Y-110438352D01*
X132079817Y-110485971D01*
X131889341Y-110485971D01*
X131794103Y-110533590D01*
X131746484Y-110581209D01*
X131698865Y-110676447D01*
X131698865Y-110866923D01*
X131746484Y-110962161D01*
X131794103Y-111009780D01*
X131889341Y-111057399D01*
X132079817Y-111057399D01*
X132175055Y-111009780D01*
X132222674Y-110962161D01*
X132270293Y-110866923D01*
X132270293Y-110676447D01*
X132222674Y-110581209D01*
X132175055Y-110533590D01*
X132079817Y-110485971D01*
%TO.C,U1*%
X131622380Y-94741904D02*
X132431904Y-94741904D01*
X132527142Y-94694285D01*
X132574761Y-94646666D01*
X132622380Y-94551428D01*
X132622380Y-94360952D01*
X132574761Y-94265714D01*
X132527142Y-94218095D01*
X132431904Y-94170476D01*
X131622380Y-94170476D01*
X132622380Y-93170476D02*
X132622380Y-93741904D01*
X132622380Y-93456190D02*
X131622380Y-93456190D01*
X131765238Y-93551428D01*
X131860476Y-93646666D01*
X131908095Y-93741904D01*
%TO.C,J3*%
X148042380Y-79073333D02*
X148756666Y-79073333D01*
X148899523Y-79120952D01*
X148994761Y-79216190D01*
X149042380Y-79359047D01*
X149042380Y-79454285D01*
X148042380Y-78692380D02*
X148042380Y-78073333D01*
X148423333Y-78406666D01*
X148423333Y-78263809D01*
X148470952Y-78168571D01*
X148518571Y-78120952D01*
X148613809Y-78073333D01*
X148851904Y-78073333D01*
X148947142Y-78120952D01*
X148994761Y-78168571D01*
X149042380Y-78263809D01*
X149042380Y-78549523D01*
X148994761Y-78644761D01*
X148947142Y-78692380D01*
%TO.C,U4*%
X162647380Y-94741904D02*
X163456904Y-94741904D01*
X163552142Y-94694285D01*
X163599761Y-94646666D01*
X163647380Y-94551428D01*
X163647380Y-94360952D01*
X163599761Y-94265714D01*
X163552142Y-94218095D01*
X163456904Y-94170476D01*
X162647380Y-94170476D01*
X162980714Y-93265714D02*
X163647380Y-93265714D01*
X162599761Y-93503809D02*
X163314047Y-93741904D01*
X163314047Y-93122857D01*
%TO.C,REF4*%
X180562380Y-146502380D02*
X180229047Y-146026190D01*
X179990952Y-146502380D02*
X179990952Y-145502380D01*
X180371904Y-145502380D01*
X180467142Y-145550000D01*
X180514761Y-145597619D01*
X180562380Y-145692857D01*
X180562380Y-145835714D01*
X180514761Y-145930952D01*
X180467142Y-145978571D01*
X180371904Y-146026190D01*
X179990952Y-146026190D01*
X180990952Y-145978571D02*
X181324285Y-145978571D01*
X181467142Y-146502380D02*
X180990952Y-146502380D01*
X180990952Y-145502380D01*
X181467142Y-145502380D01*
X182229047Y-145978571D02*
X181895714Y-145978571D01*
X181895714Y-146502380D02*
X181895714Y-145502380D01*
X182371904Y-145502380D01*
X183181428Y-145835714D02*
X183181428Y-146502380D01*
X182943333Y-145454761D02*
X182705238Y-146169047D01*
X183324285Y-146169047D01*
%TO.C,C8*%
X140297142Y-105551666D02*
X140344761Y-105599285D01*
X140392380Y-105742142D01*
X140392380Y-105837380D01*
X140344761Y-105980238D01*
X140249523Y-106075476D01*
X140154285Y-106123095D01*
X139963809Y-106170714D01*
X139820952Y-106170714D01*
X139630476Y-106123095D01*
X139535238Y-106075476D01*
X139440000Y-105980238D01*
X139392380Y-105837380D01*
X139392380Y-105742142D01*
X139440000Y-105599285D01*
X139487619Y-105551666D01*
X139820952Y-104980238D02*
X139773333Y-105075476D01*
X139725714Y-105123095D01*
X139630476Y-105170714D01*
X139582857Y-105170714D01*
X139487619Y-105123095D01*
X139440000Y-105075476D01*
X139392380Y-104980238D01*
X139392380Y-104789761D01*
X139440000Y-104694523D01*
X139487619Y-104646904D01*
X139582857Y-104599285D01*
X139630476Y-104599285D01*
X139725714Y-104646904D01*
X139773333Y-104694523D01*
X139820952Y-104789761D01*
X139820952Y-104980238D01*
X139868571Y-105075476D01*
X139916190Y-105123095D01*
X140011428Y-105170714D01*
X140201904Y-105170714D01*
X140297142Y-105123095D01*
X140344761Y-105075476D01*
X140392380Y-104980238D01*
X140392380Y-104789761D01*
X140344761Y-104694523D01*
X140297142Y-104646904D01*
X140201904Y-104599285D01*
X140011428Y-104599285D01*
X139916190Y-104646904D01*
X139868571Y-104694523D01*
X139820952Y-104789761D01*
%TO.C,U2*%
X150582380Y-108076904D02*
X151391904Y-108076904D01*
X151487142Y-108029285D01*
X151534761Y-107981666D01*
X151582380Y-107886428D01*
X151582380Y-107695952D01*
X151534761Y-107600714D01*
X151487142Y-107553095D01*
X151391904Y-107505476D01*
X150582380Y-107505476D01*
X150677619Y-107076904D02*
X150630000Y-107029285D01*
X150582380Y-106934047D01*
X150582380Y-106695952D01*
X150630000Y-106600714D01*
X150677619Y-106553095D01*
X150772857Y-106505476D01*
X150868095Y-106505476D01*
X151010952Y-106553095D01*
X151582380Y-107124523D01*
X151582380Y-106505476D01*
D13*
%TO.C,J13*%
X174645000Y-100540000D02*
X174645000Y-102660000D01*
X180765000Y-100540000D02*
X180765000Y-101600000D01*
X178705000Y-100540000D02*
X174645000Y-100540000D01*
X179705000Y-100540000D02*
X180765000Y-100540000D01*
X178705000Y-102660000D02*
X174645000Y-102660000D01*
X178705000Y-100540000D02*
X178705000Y-102660000D01*
D14*
%TO.C,U5*%
X127000000Y-122555000D02*
X187960000Y-122555000D01*
X187960000Y-140335000D02*
X127000000Y-140335000D01*
X127000000Y-122555000D02*
X127000000Y-127415000D01*
X127000000Y-127415000D02*
X126300000Y-127415000D01*
X127000000Y-135475000D02*
X126300000Y-135475000D01*
X127000000Y-140335000D02*
X127000000Y-135475000D01*
X187960000Y-122555000D02*
X187960000Y-140335000D01*
X126300000Y-135475000D02*
X126300000Y-127415000D01*
D15*
X133450000Y-140945000D02*
G75*
G03*
X133450000Y-140945000I-100000J0D01*
G01*
D13*
%TO.C,J6*%
X175895000Y-77680000D02*
X175895000Y-79800000D01*
X175895000Y-79800000D02*
X173835000Y-79800000D01*
X173835000Y-77680000D02*
X173835000Y-79800000D01*
X177955000Y-77680000D02*
X177955000Y-78740000D01*
X175895000Y-77680000D02*
X173835000Y-77680000D01*
X176895000Y-77680000D02*
X177955000Y-77680000D01*
%TO.C,C1*%
X130265000Y-94691252D02*
X130265000Y-93268748D01*
X127545000Y-94691252D02*
X127545000Y-93268748D01*
%TO.C,C2*%
X165176252Y-110580000D02*
X163753748Y-110580000D01*
X165176252Y-107860000D02*
X163753748Y-107860000D01*
%TO.C,J14*%
X137122514Y-115598429D02*
X135002514Y-115598429D01*
X135002514Y-115598429D02*
X135002514Y-111538429D01*
X137122514Y-111538429D02*
X135002514Y-111538429D01*
X137122514Y-117658429D02*
X136062514Y-117658429D01*
X137122514Y-116598429D02*
X137122514Y-117658429D01*
X137122514Y-115598429D02*
X137122514Y-111538429D01*
%TO.C,J4*%
X146840000Y-79800000D02*
X146840000Y-77680000D01*
X144780000Y-79800000D02*
X144780000Y-77680000D01*
X144780000Y-79800000D02*
X146840000Y-79800000D01*
X144780000Y-77680000D02*
X146840000Y-77680000D01*
X142720000Y-79800000D02*
X142720000Y-78740000D01*
X143780000Y-79800000D02*
X142720000Y-79800000D01*
%TO.C,J9*%
X126575000Y-113665000D02*
X128695000Y-113665000D01*
X126575000Y-115725000D02*
X128695000Y-115725000D01*
X126575000Y-113665000D02*
X126575000Y-115725000D01*
X126575000Y-111605000D02*
X127635000Y-111605000D01*
X128695000Y-113665000D02*
X128695000Y-115725000D01*
X126575000Y-112665000D02*
X126575000Y-111605000D01*
%TO.C,R3*%
X173630000Y-106587936D02*
X173630000Y-108042064D01*
X171810000Y-106587936D02*
X171810000Y-108042064D01*
D14*
%TO.C,U7*%
X173585000Y-115907500D02*
X173030000Y-115907500D01*
X173030000Y-113407500D02*
X173585000Y-113407500D01*
X173585000Y-113407500D02*
X173585000Y-113462500D01*
X170585000Y-115907500D02*
X170585000Y-115852500D01*
X170585000Y-113407500D02*
X170585000Y-113462500D01*
X171140000Y-115907500D02*
X170585000Y-115907500D01*
X173585000Y-115907500D02*
X173585000Y-115852500D01*
X170585000Y-113407500D02*
X171140000Y-113407500D01*
D15*
X170116000Y-113807500D02*
G75*
G03*
X170116000Y-113807500I-100000J0D01*
G01*
D13*
%TO.C,J10*%
X127210000Y-105140000D02*
X129330000Y-105140000D01*
X127210000Y-104140000D02*
X127210000Y-103080000D01*
X127210000Y-107200000D02*
X129330000Y-107200000D01*
X127210000Y-103080000D02*
X128270000Y-103080000D01*
X129330000Y-105140000D02*
X129330000Y-107200000D01*
X127210000Y-105140000D02*
X127210000Y-107200000D01*
%TO.C,C3*%
X157175000Y-104673748D02*
X157175000Y-106096252D01*
X154455000Y-104673748D02*
X154455000Y-106096252D01*
%TO.C,J7*%
X165735000Y-79747500D02*
X164675000Y-79747500D01*
X166735000Y-77627500D02*
X168795000Y-77627500D01*
X168795000Y-79747500D02*
X168795000Y-77627500D01*
X166735000Y-79747500D02*
X168795000Y-79747500D01*
X166735000Y-79747500D02*
X166735000Y-77627500D01*
X164675000Y-79747500D02*
X164675000Y-78687500D01*
%TO.C,C4*%
X165176252Y-100875000D02*
X163753748Y-100875000D01*
X165176252Y-103595000D02*
X163753748Y-103595000D01*
%TO.C,J1*%
X129540000Y-79800000D02*
X131600000Y-79800000D01*
X128540000Y-79800000D02*
X127480000Y-79800000D01*
X129540000Y-79800000D02*
X129540000Y-77680000D01*
X129540000Y-77680000D02*
X131600000Y-77680000D01*
X127480000Y-79800000D02*
X127480000Y-78740000D01*
X131600000Y-79800000D02*
X131600000Y-77680000D01*
%TO.C,C5*%
X140245000Y-94691252D02*
X140245000Y-93268748D01*
X142965000Y-94691252D02*
X142965000Y-93268748D01*
%TO.C,C6*%
X156300000Y-94691252D02*
X156300000Y-93268748D01*
X153580000Y-94691252D02*
X153580000Y-93268748D01*
%TO.C,J12*%
X173050000Y-99485000D02*
X171990000Y-99485000D01*
X170930000Y-97425000D02*
X170930000Y-91365000D01*
X173050000Y-98425000D02*
X173050000Y-99485000D01*
X173050000Y-97425000D02*
X173050000Y-91365000D01*
X173050000Y-97425000D02*
X170930000Y-97425000D01*
X173050000Y-91365000D02*
X170930000Y-91365000D01*
%TO.C,U3*%
X149565000Y-93980000D02*
X149565000Y-95480000D01*
X146345000Y-93980000D02*
X146345000Y-96880000D01*
X149565000Y-93980000D02*
X149565000Y-92480000D01*
X146345000Y-93980000D02*
X146345000Y-92480000D01*
%TO.C,R1*%
X180065000Y-83277064D02*
X180065000Y-81822936D01*
X181885000Y-83277064D02*
X181885000Y-81822936D01*
%TO.C,J5*%
X161175000Y-79800000D02*
X161175000Y-77680000D01*
X158115000Y-79800000D02*
X157055000Y-79800000D01*
X159115000Y-79800000D02*
X161175000Y-79800000D01*
X157055000Y-79800000D02*
X157055000Y-78740000D01*
X159115000Y-79800000D02*
X159115000Y-77680000D01*
X159115000Y-77680000D02*
X161175000Y-77680000D01*
%TO.C,R4*%
X176437936Y-119020000D02*
X177892064Y-119020000D01*
X176437936Y-117200000D02*
X177892064Y-117200000D01*
%TO.C,C9*%
X186613748Y-116115000D02*
X188036252Y-116115000D01*
X186613748Y-118835000D02*
X188036252Y-118835000D01*
%TO.C,R2*%
X176890000Y-106587936D02*
X176890000Y-108042064D01*
X178710000Y-106587936D02*
X178710000Y-108042064D01*
%TO.C,J11*%
X176705000Y-90595000D02*
X176705000Y-88475000D01*
X174645000Y-90595000D02*
X174645000Y-89535000D01*
X176705000Y-88475000D02*
X182765000Y-88475000D01*
X182765000Y-90595000D02*
X182765000Y-88475000D01*
X176705000Y-90595000D02*
X182765000Y-90595000D01*
X175705000Y-90595000D02*
X174645000Y-90595000D01*
%TO.C,C7*%
X165176252Y-114390000D02*
X163753748Y-114390000D01*
X165176252Y-111670000D02*
X163753748Y-111670000D01*
%TO.C,J2*%
X137160000Y-79800000D02*
X137160000Y-77680000D01*
X137160000Y-77680000D02*
X139220000Y-77680000D01*
X137160000Y-79800000D02*
X139220000Y-79800000D01*
X136160000Y-79800000D02*
X135100000Y-79800000D01*
X139220000Y-79800000D02*
X139220000Y-77680000D01*
X135100000Y-79800000D02*
X135100000Y-78740000D01*
D15*
%TO.C,U6*%
X180770000Y-114140000D02*
G75*
G03*
X180770000Y-114140000I-100000J0D01*
G01*
D13*
%TO.C,J8*%
X130543627Y-113665019D02*
X130543627Y-115725019D01*
X130543627Y-115725019D02*
X132663627Y-115725019D01*
X132663627Y-113665019D02*
X132663627Y-115725019D01*
X130543627Y-112665019D02*
X130543627Y-111605019D01*
X130543627Y-111605019D02*
X131603627Y-111605019D01*
X130543627Y-113665019D02*
X132663627Y-113665019D01*
%TO.C,U1*%
X133010000Y-93980000D02*
X133010000Y-92480000D01*
X133010000Y-93980000D02*
X133010000Y-96880000D01*
X136230000Y-93980000D02*
X136230000Y-95480000D01*
X136230000Y-93980000D02*
X136230000Y-92480000D01*
%TO.C,J3*%
X151035000Y-79800000D02*
X149975000Y-79800000D01*
X152035000Y-79800000D02*
X154095000Y-79800000D01*
X152035000Y-77680000D02*
X154095000Y-77680000D01*
X149975000Y-79800000D02*
X149975000Y-78740000D01*
X152035000Y-79800000D02*
X152035000Y-77680000D01*
X154095000Y-79800000D02*
X154095000Y-77680000D01*
%TO.C,U4*%
X162265000Y-93980000D02*
X162265000Y-92480000D01*
X159045000Y-93980000D02*
X159045000Y-96880000D01*
X162265000Y-93980000D02*
X162265000Y-95480000D01*
X159045000Y-93980000D02*
X159045000Y-92480000D01*
%TO.C,C8*%
X143840000Y-106096252D02*
X143840000Y-104673748D01*
X141120000Y-106096252D02*
X141120000Y-104673748D01*
%TO.C,U2*%
X152875000Y-109200000D02*
X151615000Y-109200000D01*
X152875000Y-103190000D02*
X152875000Y-109200000D01*
X146055000Y-109200000D02*
X147315000Y-109200000D01*
X146055000Y-105440000D02*
X146055000Y-109200000D01*
%TD*%
%LPC*%
%TO.C,U7*%
G36*
X171210000Y-115582500D02*
G01*
X170635000Y-115582500D01*
X170635000Y-115232500D01*
X171210000Y-115232500D01*
X171210000Y-115582500D01*
G37*
D16*
X171210000Y-115582500D02*
X170635000Y-115582500D01*
X170635000Y-115232500D01*
X171210000Y-115232500D01*
X171210000Y-115582500D01*
G36*
X172260000Y-115857500D02*
G01*
X171910000Y-115857500D01*
X171910000Y-115282500D01*
X172260000Y-115282500D01*
X172260000Y-115857500D01*
G37*
X172260000Y-115857500D02*
X171910000Y-115857500D01*
X171910000Y-115282500D01*
X172260000Y-115282500D01*
X172260000Y-115857500D01*
G36*
X173535000Y-114082500D02*
G01*
X172960000Y-114082500D01*
X172960000Y-113732500D01*
X173535000Y-113732500D01*
X173535000Y-114082500D01*
G37*
X173535000Y-114082500D02*
X172960000Y-114082500D01*
X172960000Y-113732500D01*
X173535000Y-113732500D01*
X173535000Y-114082500D01*
G36*
X171760000Y-114032500D02*
G01*
X171410000Y-114032500D01*
X171410000Y-113457500D01*
X171760000Y-113457500D01*
X171760000Y-114032500D01*
G37*
X171760000Y-114032500D02*
X171410000Y-114032500D01*
X171410000Y-113457500D01*
X171760000Y-113457500D01*
X171760000Y-114032500D01*
G36*
X173535000Y-115082500D02*
G01*
X172960000Y-115082500D01*
X172960000Y-114732500D01*
X173535000Y-114732500D01*
X173535000Y-115082500D01*
G37*
X173535000Y-115082500D02*
X172960000Y-115082500D01*
X172960000Y-114732500D01*
X173535000Y-114732500D01*
X173535000Y-115082500D01*
G36*
X172260000Y-114032500D02*
G01*
X171910000Y-114032500D01*
X171910000Y-113457500D01*
X172260000Y-113457500D01*
X172260000Y-114032500D01*
G37*
X172260000Y-114032500D02*
X171910000Y-114032500D01*
X171910000Y-113457500D01*
X172260000Y-113457500D01*
X172260000Y-114032500D01*
G36*
X173535000Y-115582500D02*
G01*
X172960000Y-115582500D01*
X172960000Y-115232500D01*
X173535000Y-115232500D01*
X173535000Y-115582500D01*
G37*
X173535000Y-115582500D02*
X172960000Y-115582500D01*
X172960000Y-115232500D01*
X173535000Y-115232500D01*
X173535000Y-115582500D01*
G36*
X171210000Y-114582500D02*
G01*
X170635000Y-114582500D01*
X170635000Y-114232500D01*
X171210000Y-114232500D01*
X171210000Y-114582500D01*
G37*
X171210000Y-114582500D02*
X170635000Y-114582500D01*
X170635000Y-114232500D01*
X171210000Y-114232500D01*
X171210000Y-114582500D01*
G36*
X172760000Y-114032500D02*
G01*
X172410000Y-114032500D01*
X172410000Y-113457500D01*
X172760000Y-113457500D01*
X172760000Y-114032500D01*
G37*
X172760000Y-114032500D02*
X172410000Y-114032500D01*
X172410000Y-113457500D01*
X172760000Y-113457500D01*
X172760000Y-114032500D01*
G36*
X173535000Y-114582500D02*
G01*
X172960000Y-114582500D01*
X172960000Y-114232500D01*
X173535000Y-114232500D01*
X173535000Y-114582500D01*
G37*
X173535000Y-114582500D02*
X172960000Y-114582500D01*
X172960000Y-114232500D01*
X173535000Y-114232500D01*
X173535000Y-114582500D01*
G36*
X171760000Y-115857500D02*
G01*
X171410000Y-115857500D01*
X171410000Y-115282500D01*
X171760000Y-115282500D01*
X171760000Y-115857500D01*
G37*
X171760000Y-115857500D02*
X171410000Y-115857500D01*
X171410000Y-115282500D01*
X171760000Y-115282500D01*
X171760000Y-115857500D01*
G36*
X172760000Y-115857500D02*
G01*
X172410000Y-115857500D01*
X172410000Y-115282500D01*
X172760000Y-115282500D01*
X172760000Y-115857500D01*
G37*
X172760000Y-115857500D02*
X172410000Y-115857500D01*
X172410000Y-115282500D01*
X172760000Y-115282500D01*
X172760000Y-115857500D01*
G36*
X171210000Y-114082500D02*
G01*
X170635000Y-114082500D01*
X170635000Y-113732500D01*
X171210000Y-113732500D01*
X171210000Y-114082500D01*
G37*
X171210000Y-114082500D02*
X170635000Y-114082500D01*
X170635000Y-113732500D01*
X171210000Y-113732500D01*
X171210000Y-114082500D01*
G36*
X171210000Y-115082500D02*
G01*
X170635000Y-115082500D01*
X170635000Y-114732500D01*
X171210000Y-114732500D01*
X171210000Y-115082500D01*
G37*
X171210000Y-115082500D02*
X170635000Y-115082500D01*
X170635000Y-114732500D01*
X171210000Y-114732500D01*
X171210000Y-115082500D01*
%TO.C,U6*%
G36*
X181626000Y-113961000D02*
G01*
X181631000Y-113961000D01*
X181637000Y-113963000D01*
X181642000Y-113964000D01*
X181648000Y-113966000D01*
X181663000Y-113972000D01*
X181673000Y-113978000D01*
X181677000Y-113981000D01*
X181682000Y-113985000D01*
X181694000Y-113997000D01*
X181697000Y-114001000D01*
X181701000Y-114006000D01*
X181704000Y-114010000D01*
X181707000Y-114015000D01*
X181709000Y-114020000D01*
X181712000Y-114025000D01*
X181714000Y-114031000D01*
X181716000Y-114036000D01*
X181717000Y-114041000D01*
X181719000Y-114053000D01*
X181720000Y-114058000D01*
X181720000Y-114312000D01*
X181719000Y-114317000D01*
X181717000Y-114329000D01*
X181716000Y-114334000D01*
X181714000Y-114339000D01*
X181712000Y-114345000D01*
X181709000Y-114350000D01*
X181707000Y-114355000D01*
X181704000Y-114360000D01*
X181701000Y-114364000D01*
X181697000Y-114369000D01*
X181694000Y-114373000D01*
X181682000Y-114385000D01*
X181677000Y-114389000D01*
X181673000Y-114392000D01*
X181663000Y-114398000D01*
X181648000Y-114404000D01*
X181642000Y-114406000D01*
X181637000Y-114407000D01*
X181631000Y-114409000D01*
X181626000Y-114409000D01*
X181620000Y-114410000D01*
X181320000Y-114410000D01*
X181314000Y-114409000D01*
X181309000Y-114409000D01*
X181303000Y-114407000D01*
X181298000Y-114406000D01*
X181292000Y-114404000D01*
X181277000Y-114398000D01*
X181267000Y-114392000D01*
X181263000Y-114389000D01*
X181258000Y-114385000D01*
X181246000Y-114373000D01*
X181243000Y-114369000D01*
X181239000Y-114364000D01*
X181236000Y-114360000D01*
X181233000Y-114355000D01*
X181231000Y-114350000D01*
X181228000Y-114345000D01*
X181226000Y-114339000D01*
X181224000Y-114334000D01*
X181223000Y-114329000D01*
X181221000Y-114317000D01*
X181220000Y-114312000D01*
X181220000Y-114058000D01*
X181221000Y-114053000D01*
X181223000Y-114041000D01*
X181224000Y-114036000D01*
X181226000Y-114031000D01*
X181228000Y-114025000D01*
X181231000Y-114020000D01*
X181233000Y-114015000D01*
X181236000Y-114010000D01*
X181239000Y-114006000D01*
X181243000Y-114001000D01*
X181246000Y-113997000D01*
X181258000Y-113985000D01*
X181263000Y-113981000D01*
X181267000Y-113978000D01*
X181277000Y-113972000D01*
X181292000Y-113966000D01*
X181298000Y-113964000D01*
X181303000Y-113963000D01*
X181309000Y-113961000D01*
X181314000Y-113961000D01*
X181320000Y-113960000D01*
X181620000Y-113960000D01*
X181626000Y-113961000D01*
G37*
X181626000Y-113961000D02*
X181631000Y-113961000D01*
X181637000Y-113963000D01*
X181642000Y-113964000D01*
X181648000Y-113966000D01*
X181663000Y-113972000D01*
X181673000Y-113978000D01*
X181677000Y-113981000D01*
X181682000Y-113985000D01*
X181694000Y-113997000D01*
X181697000Y-114001000D01*
X181701000Y-114006000D01*
X181704000Y-114010000D01*
X181707000Y-114015000D01*
X181709000Y-114020000D01*
X181712000Y-114025000D01*
X181714000Y-114031000D01*
X181716000Y-114036000D01*
X181717000Y-114041000D01*
X181719000Y-114053000D01*
X181720000Y-114058000D01*
X181720000Y-114312000D01*
X181719000Y-114317000D01*
X181717000Y-114329000D01*
X181716000Y-114334000D01*
X181714000Y-114339000D01*
X181712000Y-114345000D01*
X181709000Y-114350000D01*
X181707000Y-114355000D01*
X181704000Y-114360000D01*
X181701000Y-114364000D01*
X181697000Y-114369000D01*
X181694000Y-114373000D01*
X181682000Y-114385000D01*
X181677000Y-114389000D01*
X181673000Y-114392000D01*
X181663000Y-114398000D01*
X181648000Y-114404000D01*
X181642000Y-114406000D01*
X181637000Y-114407000D01*
X181631000Y-114409000D01*
X181626000Y-114409000D01*
X181620000Y-114410000D01*
X181320000Y-114410000D01*
X181314000Y-114409000D01*
X181309000Y-114409000D01*
X181303000Y-114407000D01*
X181298000Y-114406000D01*
X181292000Y-114404000D01*
X181277000Y-114398000D01*
X181267000Y-114392000D01*
X181263000Y-114389000D01*
X181258000Y-114385000D01*
X181246000Y-114373000D01*
X181243000Y-114369000D01*
X181239000Y-114364000D01*
X181236000Y-114360000D01*
X181233000Y-114355000D01*
X181231000Y-114350000D01*
X181228000Y-114345000D01*
X181226000Y-114339000D01*
X181224000Y-114334000D01*
X181223000Y-114329000D01*
X181221000Y-114317000D01*
X181220000Y-114312000D01*
X181220000Y-114058000D01*
X181221000Y-114053000D01*
X181223000Y-114041000D01*
X181224000Y-114036000D01*
X181226000Y-114031000D01*
X181228000Y-114025000D01*
X181231000Y-114020000D01*
X181233000Y-114015000D01*
X181236000Y-114010000D01*
X181239000Y-114006000D01*
X181243000Y-114001000D01*
X181246000Y-113997000D01*
X181258000Y-113985000D01*
X181263000Y-113981000D01*
X181267000Y-113978000D01*
X181277000Y-113972000D01*
X181292000Y-113966000D01*
X181298000Y-113964000D01*
X181303000Y-113963000D01*
X181309000Y-113961000D01*
X181314000Y-113961000D01*
X181320000Y-113960000D01*
X181620000Y-113960000D01*
X181626000Y-113961000D01*
G36*
X182127000Y-113921000D02*
G01*
X182139000Y-113923000D01*
X182144000Y-113924000D01*
X182149000Y-113926000D01*
X182155000Y-113928000D01*
X182160000Y-113931000D01*
X182165000Y-113933000D01*
X182170000Y-113936000D01*
X182174000Y-113939000D01*
X182179000Y-113943000D01*
X182183000Y-113946000D01*
X182195000Y-113958000D01*
X182199000Y-113963000D01*
X182202000Y-113967000D01*
X182208000Y-113977000D01*
X182214000Y-113992000D01*
X182216000Y-113998000D01*
X182217000Y-114003000D01*
X182219000Y-114009000D01*
X182219000Y-114014000D01*
X182220000Y-114020000D01*
X182220000Y-114320000D01*
X182219000Y-114326000D01*
X182219000Y-114331000D01*
X182217000Y-114337000D01*
X182216000Y-114342000D01*
X182214000Y-114348000D01*
X182208000Y-114363000D01*
X182202000Y-114373000D01*
X182199000Y-114377000D01*
X182195000Y-114382000D01*
X182183000Y-114394000D01*
X182179000Y-114397000D01*
X182174000Y-114401000D01*
X182170000Y-114404000D01*
X182165000Y-114407000D01*
X182160000Y-114409000D01*
X182155000Y-114412000D01*
X182149000Y-114414000D01*
X182144000Y-114416000D01*
X182139000Y-114417000D01*
X182127000Y-114419000D01*
X182122000Y-114420000D01*
X181868000Y-114420000D01*
X181863000Y-114419000D01*
X181851000Y-114417000D01*
X181846000Y-114416000D01*
X181841000Y-114414000D01*
X181835000Y-114412000D01*
X181830000Y-114409000D01*
X181825000Y-114407000D01*
X181820000Y-114404000D01*
X181816000Y-114401000D01*
X181811000Y-114397000D01*
X181807000Y-114394000D01*
X181795000Y-114382000D01*
X181791000Y-114377000D01*
X181788000Y-114373000D01*
X181782000Y-114363000D01*
X181776000Y-114348000D01*
X181774000Y-114342000D01*
X181773000Y-114337000D01*
X181771000Y-114331000D01*
X181771000Y-114326000D01*
X181770000Y-114320000D01*
X181770000Y-114020000D01*
X181771000Y-114014000D01*
X181771000Y-114009000D01*
X181773000Y-114003000D01*
X181774000Y-113998000D01*
X181776000Y-113992000D01*
X181782000Y-113977000D01*
X181788000Y-113967000D01*
X181791000Y-113963000D01*
X181795000Y-113958000D01*
X181807000Y-113946000D01*
X181811000Y-113943000D01*
X181816000Y-113939000D01*
X181820000Y-113936000D01*
X181825000Y-113933000D01*
X181830000Y-113931000D01*
X181835000Y-113928000D01*
X181841000Y-113926000D01*
X181846000Y-113924000D01*
X181851000Y-113923000D01*
X181863000Y-113921000D01*
X181868000Y-113920000D01*
X182122000Y-113920000D01*
X182127000Y-113921000D01*
G37*
X182127000Y-113921000D02*
X182139000Y-113923000D01*
X182144000Y-113924000D01*
X182149000Y-113926000D01*
X182155000Y-113928000D01*
X182160000Y-113931000D01*
X182165000Y-113933000D01*
X182170000Y-113936000D01*
X182174000Y-113939000D01*
X182179000Y-113943000D01*
X182183000Y-113946000D01*
X182195000Y-113958000D01*
X182199000Y-113963000D01*
X182202000Y-113967000D01*
X182208000Y-113977000D01*
X182214000Y-113992000D01*
X182216000Y-113998000D01*
X182217000Y-114003000D01*
X182219000Y-114009000D01*
X182219000Y-114014000D01*
X182220000Y-114020000D01*
X182220000Y-114320000D01*
X182219000Y-114326000D01*
X182219000Y-114331000D01*
X182217000Y-114337000D01*
X182216000Y-114342000D01*
X182214000Y-114348000D01*
X182208000Y-114363000D01*
X182202000Y-114373000D01*
X182199000Y-114377000D01*
X182195000Y-114382000D01*
X182183000Y-114394000D01*
X182179000Y-114397000D01*
X182174000Y-114401000D01*
X182170000Y-114404000D01*
X182165000Y-114407000D01*
X182160000Y-114409000D01*
X182155000Y-114412000D01*
X182149000Y-114414000D01*
X182144000Y-114416000D01*
X182139000Y-114417000D01*
X182127000Y-114419000D01*
X182122000Y-114420000D01*
X181868000Y-114420000D01*
X181863000Y-114419000D01*
X181851000Y-114417000D01*
X181846000Y-114416000D01*
X181841000Y-114414000D01*
X181835000Y-114412000D01*
X181830000Y-114409000D01*
X181825000Y-114407000D01*
X181820000Y-114404000D01*
X181816000Y-114401000D01*
X181811000Y-114397000D01*
X181807000Y-114394000D01*
X181795000Y-114382000D01*
X181791000Y-114377000D01*
X181788000Y-114373000D01*
X181782000Y-114363000D01*
X181776000Y-114348000D01*
X181774000Y-114342000D01*
X181773000Y-114337000D01*
X181771000Y-114331000D01*
X181771000Y-114326000D01*
X181770000Y-114320000D01*
X181770000Y-114020000D01*
X181771000Y-114014000D01*
X181771000Y-114009000D01*
X181773000Y-114003000D01*
X181774000Y-113998000D01*
X181776000Y-113992000D01*
X181782000Y-113977000D01*
X181788000Y-113967000D01*
X181791000Y-113963000D01*
X181795000Y-113958000D01*
X181807000Y-113946000D01*
X181811000Y-113943000D01*
X181816000Y-113939000D01*
X181820000Y-113936000D01*
X181825000Y-113933000D01*
X181830000Y-113931000D01*
X181835000Y-113928000D01*
X181841000Y-113926000D01*
X181846000Y-113924000D01*
X181851000Y-113923000D01*
X181863000Y-113921000D01*
X181868000Y-113920000D01*
X182122000Y-113920000D01*
X182127000Y-113921000D01*
G36*
X183176000Y-115461000D02*
G01*
X183181000Y-115461000D01*
X183187000Y-115463000D01*
X183192000Y-115464000D01*
X183198000Y-115466000D01*
X183213000Y-115472000D01*
X183223000Y-115478000D01*
X183227000Y-115481000D01*
X183232000Y-115485000D01*
X183244000Y-115497000D01*
X183247000Y-115501000D01*
X183251000Y-115506000D01*
X183254000Y-115510000D01*
X183257000Y-115515000D01*
X183259000Y-115520000D01*
X183262000Y-115525000D01*
X183264000Y-115531000D01*
X183266000Y-115536000D01*
X183267000Y-115541000D01*
X183269000Y-115553000D01*
X183270000Y-115558000D01*
X183270000Y-115812000D01*
X183269000Y-115817000D01*
X183267000Y-115829000D01*
X183266000Y-115834000D01*
X183264000Y-115839000D01*
X183262000Y-115845000D01*
X183259000Y-115850000D01*
X183257000Y-115855000D01*
X183254000Y-115860000D01*
X183251000Y-115864000D01*
X183247000Y-115869000D01*
X183244000Y-115873000D01*
X183232000Y-115885000D01*
X183227000Y-115889000D01*
X183223000Y-115892000D01*
X183213000Y-115898000D01*
X183198000Y-115904000D01*
X183192000Y-115906000D01*
X183187000Y-115907000D01*
X183181000Y-115909000D01*
X183176000Y-115909000D01*
X183170000Y-115910000D01*
X182870000Y-115910000D01*
X182864000Y-115909000D01*
X182859000Y-115909000D01*
X182853000Y-115907000D01*
X182848000Y-115906000D01*
X182842000Y-115904000D01*
X182827000Y-115898000D01*
X182817000Y-115892000D01*
X182813000Y-115889000D01*
X182808000Y-115885000D01*
X182796000Y-115873000D01*
X182793000Y-115869000D01*
X182789000Y-115864000D01*
X182786000Y-115860000D01*
X182783000Y-115855000D01*
X182781000Y-115850000D01*
X182778000Y-115845000D01*
X182776000Y-115839000D01*
X182774000Y-115834000D01*
X182773000Y-115829000D01*
X182771000Y-115817000D01*
X182770000Y-115812000D01*
X182770000Y-115558000D01*
X182771000Y-115553000D01*
X182773000Y-115541000D01*
X182774000Y-115536000D01*
X182776000Y-115531000D01*
X182778000Y-115525000D01*
X182781000Y-115520000D01*
X182783000Y-115515000D01*
X182786000Y-115510000D01*
X182789000Y-115506000D01*
X182793000Y-115501000D01*
X182796000Y-115497000D01*
X182808000Y-115485000D01*
X182813000Y-115481000D01*
X182817000Y-115478000D01*
X182827000Y-115472000D01*
X182842000Y-115466000D01*
X182848000Y-115464000D01*
X182853000Y-115463000D01*
X182859000Y-115461000D01*
X182864000Y-115461000D01*
X182870000Y-115460000D01*
X183170000Y-115460000D01*
X183176000Y-115461000D01*
G37*
X183176000Y-115461000D02*
X183181000Y-115461000D01*
X183187000Y-115463000D01*
X183192000Y-115464000D01*
X183198000Y-115466000D01*
X183213000Y-115472000D01*
X183223000Y-115478000D01*
X183227000Y-115481000D01*
X183232000Y-115485000D01*
X183244000Y-115497000D01*
X183247000Y-115501000D01*
X183251000Y-115506000D01*
X183254000Y-115510000D01*
X183257000Y-115515000D01*
X183259000Y-115520000D01*
X183262000Y-115525000D01*
X183264000Y-115531000D01*
X183266000Y-115536000D01*
X183267000Y-115541000D01*
X183269000Y-115553000D01*
X183270000Y-115558000D01*
X183270000Y-115812000D01*
X183269000Y-115817000D01*
X183267000Y-115829000D01*
X183266000Y-115834000D01*
X183264000Y-115839000D01*
X183262000Y-115845000D01*
X183259000Y-115850000D01*
X183257000Y-115855000D01*
X183254000Y-115860000D01*
X183251000Y-115864000D01*
X183247000Y-115869000D01*
X183244000Y-115873000D01*
X183232000Y-115885000D01*
X183227000Y-115889000D01*
X183223000Y-115892000D01*
X183213000Y-115898000D01*
X183198000Y-115904000D01*
X183192000Y-115906000D01*
X183187000Y-115907000D01*
X183181000Y-115909000D01*
X183176000Y-115909000D01*
X183170000Y-115910000D01*
X182870000Y-115910000D01*
X182864000Y-115909000D01*
X182859000Y-115909000D01*
X182853000Y-115907000D01*
X182848000Y-115906000D01*
X182842000Y-115904000D01*
X182827000Y-115898000D01*
X182817000Y-115892000D01*
X182813000Y-115889000D01*
X182808000Y-115885000D01*
X182796000Y-115873000D01*
X182793000Y-115869000D01*
X182789000Y-115864000D01*
X182786000Y-115860000D01*
X182783000Y-115855000D01*
X182781000Y-115850000D01*
X182778000Y-115845000D01*
X182776000Y-115839000D01*
X182774000Y-115834000D01*
X182773000Y-115829000D01*
X182771000Y-115817000D01*
X182770000Y-115812000D01*
X182770000Y-115558000D01*
X182771000Y-115553000D01*
X182773000Y-115541000D01*
X182774000Y-115536000D01*
X182776000Y-115531000D01*
X182778000Y-115525000D01*
X182781000Y-115520000D01*
X182783000Y-115515000D01*
X182786000Y-115510000D01*
X182789000Y-115506000D01*
X182793000Y-115501000D01*
X182796000Y-115497000D01*
X182808000Y-115485000D01*
X182813000Y-115481000D01*
X182817000Y-115478000D01*
X182827000Y-115472000D01*
X182842000Y-115466000D01*
X182848000Y-115464000D01*
X182853000Y-115463000D01*
X182859000Y-115461000D01*
X182864000Y-115461000D01*
X182870000Y-115460000D01*
X183170000Y-115460000D01*
X183176000Y-115461000D01*
G36*
X181626000Y-115461000D02*
G01*
X181631000Y-115461000D01*
X181637000Y-115463000D01*
X181642000Y-115464000D01*
X181648000Y-115466000D01*
X181663000Y-115472000D01*
X181673000Y-115478000D01*
X181677000Y-115481000D01*
X181682000Y-115485000D01*
X181694000Y-115497000D01*
X181697000Y-115501000D01*
X181701000Y-115506000D01*
X181704000Y-115510000D01*
X181707000Y-115515000D01*
X181709000Y-115520000D01*
X181712000Y-115525000D01*
X181714000Y-115531000D01*
X181716000Y-115536000D01*
X181717000Y-115541000D01*
X181719000Y-115553000D01*
X181720000Y-115558000D01*
X181720000Y-115812000D01*
X181719000Y-115817000D01*
X181717000Y-115829000D01*
X181716000Y-115834000D01*
X181714000Y-115839000D01*
X181712000Y-115845000D01*
X181709000Y-115850000D01*
X181707000Y-115855000D01*
X181704000Y-115860000D01*
X181701000Y-115864000D01*
X181697000Y-115869000D01*
X181694000Y-115873000D01*
X181682000Y-115885000D01*
X181677000Y-115889000D01*
X181673000Y-115892000D01*
X181663000Y-115898000D01*
X181648000Y-115904000D01*
X181642000Y-115906000D01*
X181637000Y-115907000D01*
X181631000Y-115909000D01*
X181626000Y-115909000D01*
X181620000Y-115910000D01*
X181320000Y-115910000D01*
X181314000Y-115909000D01*
X181309000Y-115909000D01*
X181303000Y-115907000D01*
X181298000Y-115906000D01*
X181292000Y-115904000D01*
X181277000Y-115898000D01*
X181267000Y-115892000D01*
X181263000Y-115889000D01*
X181258000Y-115885000D01*
X181246000Y-115873000D01*
X181243000Y-115869000D01*
X181239000Y-115864000D01*
X181236000Y-115860000D01*
X181233000Y-115855000D01*
X181231000Y-115850000D01*
X181228000Y-115845000D01*
X181226000Y-115839000D01*
X181224000Y-115834000D01*
X181223000Y-115829000D01*
X181221000Y-115817000D01*
X181220000Y-115812000D01*
X181220000Y-115558000D01*
X181221000Y-115553000D01*
X181223000Y-115541000D01*
X181224000Y-115536000D01*
X181226000Y-115531000D01*
X181228000Y-115525000D01*
X181231000Y-115520000D01*
X181233000Y-115515000D01*
X181236000Y-115510000D01*
X181239000Y-115506000D01*
X181243000Y-115501000D01*
X181246000Y-115497000D01*
X181258000Y-115485000D01*
X181263000Y-115481000D01*
X181267000Y-115478000D01*
X181277000Y-115472000D01*
X181292000Y-115466000D01*
X181298000Y-115464000D01*
X181303000Y-115463000D01*
X181309000Y-115461000D01*
X181314000Y-115461000D01*
X181320000Y-115460000D01*
X181620000Y-115460000D01*
X181626000Y-115461000D01*
G37*
X181626000Y-115461000D02*
X181631000Y-115461000D01*
X181637000Y-115463000D01*
X181642000Y-115464000D01*
X181648000Y-115466000D01*
X181663000Y-115472000D01*
X181673000Y-115478000D01*
X181677000Y-115481000D01*
X181682000Y-115485000D01*
X181694000Y-115497000D01*
X181697000Y-115501000D01*
X181701000Y-115506000D01*
X181704000Y-115510000D01*
X181707000Y-115515000D01*
X181709000Y-115520000D01*
X181712000Y-115525000D01*
X181714000Y-115531000D01*
X181716000Y-115536000D01*
X181717000Y-115541000D01*
X181719000Y-115553000D01*
X181720000Y-115558000D01*
X181720000Y-115812000D01*
X181719000Y-115817000D01*
X181717000Y-115829000D01*
X181716000Y-115834000D01*
X181714000Y-115839000D01*
X181712000Y-115845000D01*
X181709000Y-115850000D01*
X181707000Y-115855000D01*
X181704000Y-115860000D01*
X181701000Y-115864000D01*
X181697000Y-115869000D01*
X181694000Y-115873000D01*
X181682000Y-115885000D01*
X181677000Y-115889000D01*
X181673000Y-115892000D01*
X181663000Y-115898000D01*
X181648000Y-115904000D01*
X181642000Y-115906000D01*
X181637000Y-115907000D01*
X181631000Y-115909000D01*
X181626000Y-115909000D01*
X181620000Y-115910000D01*
X181320000Y-115910000D01*
X181314000Y-115909000D01*
X181309000Y-115909000D01*
X181303000Y-115907000D01*
X181298000Y-115906000D01*
X181292000Y-115904000D01*
X181277000Y-115898000D01*
X181267000Y-115892000D01*
X181263000Y-115889000D01*
X181258000Y-115885000D01*
X181246000Y-115873000D01*
X181243000Y-115869000D01*
X181239000Y-115864000D01*
X181236000Y-115860000D01*
X181233000Y-115855000D01*
X181231000Y-115850000D01*
X181228000Y-115845000D01*
X181226000Y-115839000D01*
X181224000Y-115834000D01*
X181223000Y-115829000D01*
X181221000Y-115817000D01*
X181220000Y-115812000D01*
X181220000Y-115558000D01*
X181221000Y-115553000D01*
X181223000Y-115541000D01*
X181224000Y-115536000D01*
X181226000Y-115531000D01*
X181228000Y-115525000D01*
X181231000Y-115520000D01*
X181233000Y-115515000D01*
X181236000Y-115510000D01*
X181239000Y-115506000D01*
X181243000Y-115501000D01*
X181246000Y-115497000D01*
X181258000Y-115485000D01*
X181263000Y-115481000D01*
X181267000Y-115478000D01*
X181277000Y-115472000D01*
X181292000Y-115466000D01*
X181298000Y-115464000D01*
X181303000Y-115463000D01*
X181309000Y-115461000D01*
X181314000Y-115461000D01*
X181320000Y-115460000D01*
X181620000Y-115460000D01*
X181626000Y-115461000D01*
G36*
X181636000Y-114961000D02*
G01*
X181641000Y-114961000D01*
X181647000Y-114963000D01*
X181652000Y-114964000D01*
X181658000Y-114966000D01*
X181673000Y-114972000D01*
X181683000Y-114978000D01*
X181687000Y-114981000D01*
X181692000Y-114985000D01*
X181704000Y-114997000D01*
X181707000Y-115001000D01*
X181711000Y-115006000D01*
X181714000Y-115010000D01*
X181717000Y-115015000D01*
X181719000Y-115020000D01*
X181722000Y-115025000D01*
X181724000Y-115031000D01*
X181726000Y-115036000D01*
X181727000Y-115041000D01*
X181729000Y-115053000D01*
X181730000Y-115058000D01*
X181730000Y-115312000D01*
X181729000Y-115317000D01*
X181727000Y-115329000D01*
X181726000Y-115334000D01*
X181724000Y-115339000D01*
X181722000Y-115345000D01*
X181719000Y-115350000D01*
X181717000Y-115355000D01*
X181714000Y-115360000D01*
X181711000Y-115364000D01*
X181707000Y-115369000D01*
X181704000Y-115373000D01*
X181692000Y-115385000D01*
X181687000Y-115389000D01*
X181683000Y-115392000D01*
X181673000Y-115398000D01*
X181658000Y-115404000D01*
X181652000Y-115406000D01*
X181647000Y-115407000D01*
X181641000Y-115409000D01*
X181636000Y-115409000D01*
X181630000Y-115410000D01*
X181330000Y-115410000D01*
X181324000Y-115409000D01*
X181319000Y-115409000D01*
X181313000Y-115407000D01*
X181308000Y-115406000D01*
X181302000Y-115404000D01*
X181287000Y-115398000D01*
X181277000Y-115392000D01*
X181273000Y-115389000D01*
X181268000Y-115385000D01*
X181256000Y-115373000D01*
X181253000Y-115369000D01*
X181249000Y-115364000D01*
X181246000Y-115360000D01*
X181243000Y-115355000D01*
X181241000Y-115350000D01*
X181238000Y-115345000D01*
X181236000Y-115339000D01*
X181234000Y-115334000D01*
X181233000Y-115329000D01*
X181231000Y-115317000D01*
X181230000Y-115312000D01*
X181230000Y-115058000D01*
X181231000Y-115053000D01*
X181233000Y-115041000D01*
X181234000Y-115036000D01*
X181236000Y-115031000D01*
X181238000Y-115025000D01*
X181241000Y-115020000D01*
X181243000Y-115015000D01*
X181246000Y-115010000D01*
X181249000Y-115006000D01*
X181253000Y-115001000D01*
X181256000Y-114997000D01*
X181268000Y-114985000D01*
X181273000Y-114981000D01*
X181277000Y-114978000D01*
X181287000Y-114972000D01*
X181302000Y-114966000D01*
X181308000Y-114964000D01*
X181313000Y-114963000D01*
X181319000Y-114961000D01*
X181324000Y-114961000D01*
X181330000Y-114960000D01*
X181630000Y-114960000D01*
X181636000Y-114961000D01*
G37*
X181636000Y-114961000D02*
X181641000Y-114961000D01*
X181647000Y-114963000D01*
X181652000Y-114964000D01*
X181658000Y-114966000D01*
X181673000Y-114972000D01*
X181683000Y-114978000D01*
X181687000Y-114981000D01*
X181692000Y-114985000D01*
X181704000Y-114997000D01*
X181707000Y-115001000D01*
X181711000Y-115006000D01*
X181714000Y-115010000D01*
X181717000Y-115015000D01*
X181719000Y-115020000D01*
X181722000Y-115025000D01*
X181724000Y-115031000D01*
X181726000Y-115036000D01*
X181727000Y-115041000D01*
X181729000Y-115053000D01*
X181730000Y-115058000D01*
X181730000Y-115312000D01*
X181729000Y-115317000D01*
X181727000Y-115329000D01*
X181726000Y-115334000D01*
X181724000Y-115339000D01*
X181722000Y-115345000D01*
X181719000Y-115350000D01*
X181717000Y-115355000D01*
X181714000Y-115360000D01*
X181711000Y-115364000D01*
X181707000Y-115369000D01*
X181704000Y-115373000D01*
X181692000Y-115385000D01*
X181687000Y-115389000D01*
X181683000Y-115392000D01*
X181673000Y-115398000D01*
X181658000Y-115404000D01*
X181652000Y-115406000D01*
X181647000Y-115407000D01*
X181641000Y-115409000D01*
X181636000Y-115409000D01*
X181630000Y-115410000D01*
X181330000Y-115410000D01*
X181324000Y-115409000D01*
X181319000Y-115409000D01*
X181313000Y-115407000D01*
X181308000Y-115406000D01*
X181302000Y-115404000D01*
X181287000Y-115398000D01*
X181277000Y-115392000D01*
X181273000Y-115389000D01*
X181268000Y-115385000D01*
X181256000Y-115373000D01*
X181253000Y-115369000D01*
X181249000Y-115364000D01*
X181246000Y-115360000D01*
X181243000Y-115355000D01*
X181241000Y-115350000D01*
X181238000Y-115345000D01*
X181236000Y-115339000D01*
X181234000Y-115334000D01*
X181233000Y-115329000D01*
X181231000Y-115317000D01*
X181230000Y-115312000D01*
X181230000Y-115058000D01*
X181231000Y-115053000D01*
X181233000Y-115041000D01*
X181234000Y-115036000D01*
X181236000Y-115031000D01*
X181238000Y-115025000D01*
X181241000Y-115020000D01*
X181243000Y-115015000D01*
X181246000Y-115010000D01*
X181249000Y-115006000D01*
X181253000Y-115001000D01*
X181256000Y-114997000D01*
X181268000Y-114985000D01*
X181273000Y-114981000D01*
X181277000Y-114978000D01*
X181287000Y-114972000D01*
X181302000Y-114966000D01*
X181308000Y-114964000D01*
X181313000Y-114963000D01*
X181319000Y-114961000D01*
X181324000Y-114961000D01*
X181330000Y-114960000D01*
X181630000Y-114960000D01*
X181636000Y-114961000D01*
G36*
X181636000Y-114461000D02*
G01*
X181641000Y-114461000D01*
X181647000Y-114463000D01*
X181652000Y-114464000D01*
X181658000Y-114466000D01*
X181673000Y-114472000D01*
X181683000Y-114478000D01*
X181687000Y-114481000D01*
X181692000Y-114485000D01*
X181704000Y-114497000D01*
X181707000Y-114501000D01*
X181711000Y-114506000D01*
X181714000Y-114510000D01*
X181717000Y-114515000D01*
X181719000Y-114520000D01*
X181722000Y-114525000D01*
X181724000Y-114531000D01*
X181726000Y-114536000D01*
X181727000Y-114541000D01*
X181729000Y-114553000D01*
X181730000Y-114558000D01*
X181730000Y-114812000D01*
X181729000Y-114817000D01*
X181727000Y-114829000D01*
X181726000Y-114834000D01*
X181724000Y-114839000D01*
X181722000Y-114845000D01*
X181719000Y-114850000D01*
X181717000Y-114855000D01*
X181714000Y-114860000D01*
X181711000Y-114864000D01*
X181707000Y-114869000D01*
X181704000Y-114873000D01*
X181692000Y-114885000D01*
X181687000Y-114889000D01*
X181683000Y-114892000D01*
X181673000Y-114898000D01*
X181658000Y-114904000D01*
X181652000Y-114906000D01*
X181647000Y-114907000D01*
X181641000Y-114909000D01*
X181636000Y-114909000D01*
X181630000Y-114910000D01*
X181330000Y-114910000D01*
X181324000Y-114909000D01*
X181319000Y-114909000D01*
X181313000Y-114907000D01*
X181308000Y-114906000D01*
X181302000Y-114904000D01*
X181287000Y-114898000D01*
X181277000Y-114892000D01*
X181273000Y-114889000D01*
X181268000Y-114885000D01*
X181256000Y-114873000D01*
X181253000Y-114869000D01*
X181249000Y-114864000D01*
X181246000Y-114860000D01*
X181243000Y-114855000D01*
X181241000Y-114850000D01*
X181238000Y-114845000D01*
X181236000Y-114839000D01*
X181234000Y-114834000D01*
X181233000Y-114829000D01*
X181231000Y-114817000D01*
X181230000Y-114812000D01*
X181230000Y-114558000D01*
X181231000Y-114553000D01*
X181233000Y-114541000D01*
X181234000Y-114536000D01*
X181236000Y-114531000D01*
X181238000Y-114525000D01*
X181241000Y-114520000D01*
X181243000Y-114515000D01*
X181246000Y-114510000D01*
X181249000Y-114506000D01*
X181253000Y-114501000D01*
X181256000Y-114497000D01*
X181268000Y-114485000D01*
X181273000Y-114481000D01*
X181277000Y-114478000D01*
X181287000Y-114472000D01*
X181302000Y-114466000D01*
X181308000Y-114464000D01*
X181313000Y-114463000D01*
X181319000Y-114461000D01*
X181324000Y-114461000D01*
X181330000Y-114460000D01*
X181630000Y-114460000D01*
X181636000Y-114461000D01*
G37*
X181636000Y-114461000D02*
X181641000Y-114461000D01*
X181647000Y-114463000D01*
X181652000Y-114464000D01*
X181658000Y-114466000D01*
X181673000Y-114472000D01*
X181683000Y-114478000D01*
X181687000Y-114481000D01*
X181692000Y-114485000D01*
X181704000Y-114497000D01*
X181707000Y-114501000D01*
X181711000Y-114506000D01*
X181714000Y-114510000D01*
X181717000Y-114515000D01*
X181719000Y-114520000D01*
X181722000Y-114525000D01*
X181724000Y-114531000D01*
X181726000Y-114536000D01*
X181727000Y-114541000D01*
X181729000Y-114553000D01*
X181730000Y-114558000D01*
X181730000Y-114812000D01*
X181729000Y-114817000D01*
X181727000Y-114829000D01*
X181726000Y-114834000D01*
X181724000Y-114839000D01*
X181722000Y-114845000D01*
X181719000Y-114850000D01*
X181717000Y-114855000D01*
X181714000Y-114860000D01*
X181711000Y-114864000D01*
X181707000Y-114869000D01*
X181704000Y-114873000D01*
X181692000Y-114885000D01*
X181687000Y-114889000D01*
X181683000Y-114892000D01*
X181673000Y-114898000D01*
X181658000Y-114904000D01*
X181652000Y-114906000D01*
X181647000Y-114907000D01*
X181641000Y-114909000D01*
X181636000Y-114909000D01*
X181630000Y-114910000D01*
X181330000Y-114910000D01*
X181324000Y-114909000D01*
X181319000Y-114909000D01*
X181313000Y-114907000D01*
X181308000Y-114906000D01*
X181302000Y-114904000D01*
X181287000Y-114898000D01*
X181277000Y-114892000D01*
X181273000Y-114889000D01*
X181268000Y-114885000D01*
X181256000Y-114873000D01*
X181253000Y-114869000D01*
X181249000Y-114864000D01*
X181246000Y-114860000D01*
X181243000Y-114855000D01*
X181241000Y-114850000D01*
X181238000Y-114845000D01*
X181236000Y-114839000D01*
X181234000Y-114834000D01*
X181233000Y-114829000D01*
X181231000Y-114817000D01*
X181230000Y-114812000D01*
X181230000Y-114558000D01*
X181231000Y-114553000D01*
X181233000Y-114541000D01*
X181234000Y-114536000D01*
X181236000Y-114531000D01*
X181238000Y-114525000D01*
X181241000Y-114520000D01*
X181243000Y-114515000D01*
X181246000Y-114510000D01*
X181249000Y-114506000D01*
X181253000Y-114501000D01*
X181256000Y-114497000D01*
X181268000Y-114485000D01*
X181273000Y-114481000D01*
X181277000Y-114478000D01*
X181287000Y-114472000D01*
X181302000Y-114466000D01*
X181308000Y-114464000D01*
X181313000Y-114463000D01*
X181319000Y-114461000D01*
X181324000Y-114461000D01*
X181330000Y-114460000D01*
X181630000Y-114460000D01*
X181636000Y-114461000D01*
G36*
X183166000Y-114461000D02*
G01*
X183171000Y-114461000D01*
X183177000Y-114463000D01*
X183182000Y-114464000D01*
X183188000Y-114466000D01*
X183203000Y-114472000D01*
X183213000Y-114478000D01*
X183217000Y-114481000D01*
X183222000Y-114485000D01*
X183234000Y-114497000D01*
X183237000Y-114501000D01*
X183241000Y-114506000D01*
X183244000Y-114510000D01*
X183247000Y-114515000D01*
X183249000Y-114520000D01*
X183252000Y-114525000D01*
X183254000Y-114531000D01*
X183256000Y-114536000D01*
X183257000Y-114541000D01*
X183259000Y-114553000D01*
X183260000Y-114558000D01*
X183260000Y-114812000D01*
X183259000Y-114817000D01*
X183257000Y-114829000D01*
X183256000Y-114834000D01*
X183254000Y-114839000D01*
X183252000Y-114845000D01*
X183249000Y-114850000D01*
X183247000Y-114855000D01*
X183244000Y-114860000D01*
X183241000Y-114864000D01*
X183237000Y-114869000D01*
X183234000Y-114873000D01*
X183222000Y-114885000D01*
X183217000Y-114889000D01*
X183213000Y-114892000D01*
X183203000Y-114898000D01*
X183188000Y-114904000D01*
X183182000Y-114906000D01*
X183177000Y-114907000D01*
X183171000Y-114909000D01*
X183166000Y-114909000D01*
X183160000Y-114910000D01*
X182860000Y-114910000D01*
X182854000Y-114909000D01*
X182849000Y-114909000D01*
X182843000Y-114907000D01*
X182838000Y-114906000D01*
X182832000Y-114904000D01*
X182817000Y-114898000D01*
X182807000Y-114892000D01*
X182803000Y-114889000D01*
X182798000Y-114885000D01*
X182786000Y-114873000D01*
X182783000Y-114869000D01*
X182779000Y-114864000D01*
X182776000Y-114860000D01*
X182773000Y-114855000D01*
X182771000Y-114850000D01*
X182768000Y-114845000D01*
X182766000Y-114839000D01*
X182764000Y-114834000D01*
X182763000Y-114829000D01*
X182761000Y-114817000D01*
X182760000Y-114812000D01*
X182760000Y-114558000D01*
X182761000Y-114553000D01*
X182763000Y-114541000D01*
X182764000Y-114536000D01*
X182766000Y-114531000D01*
X182768000Y-114525000D01*
X182771000Y-114520000D01*
X182773000Y-114515000D01*
X182776000Y-114510000D01*
X182779000Y-114506000D01*
X182783000Y-114501000D01*
X182786000Y-114497000D01*
X182798000Y-114485000D01*
X182803000Y-114481000D01*
X182807000Y-114478000D01*
X182817000Y-114472000D01*
X182832000Y-114466000D01*
X182838000Y-114464000D01*
X182843000Y-114463000D01*
X182849000Y-114461000D01*
X182854000Y-114461000D01*
X182860000Y-114460000D01*
X183160000Y-114460000D01*
X183166000Y-114461000D01*
G37*
X183166000Y-114461000D02*
X183171000Y-114461000D01*
X183177000Y-114463000D01*
X183182000Y-114464000D01*
X183188000Y-114466000D01*
X183203000Y-114472000D01*
X183213000Y-114478000D01*
X183217000Y-114481000D01*
X183222000Y-114485000D01*
X183234000Y-114497000D01*
X183237000Y-114501000D01*
X183241000Y-114506000D01*
X183244000Y-114510000D01*
X183247000Y-114515000D01*
X183249000Y-114520000D01*
X183252000Y-114525000D01*
X183254000Y-114531000D01*
X183256000Y-114536000D01*
X183257000Y-114541000D01*
X183259000Y-114553000D01*
X183260000Y-114558000D01*
X183260000Y-114812000D01*
X183259000Y-114817000D01*
X183257000Y-114829000D01*
X183256000Y-114834000D01*
X183254000Y-114839000D01*
X183252000Y-114845000D01*
X183249000Y-114850000D01*
X183247000Y-114855000D01*
X183244000Y-114860000D01*
X183241000Y-114864000D01*
X183237000Y-114869000D01*
X183234000Y-114873000D01*
X183222000Y-114885000D01*
X183217000Y-114889000D01*
X183213000Y-114892000D01*
X183203000Y-114898000D01*
X183188000Y-114904000D01*
X183182000Y-114906000D01*
X183177000Y-114907000D01*
X183171000Y-114909000D01*
X183166000Y-114909000D01*
X183160000Y-114910000D01*
X182860000Y-114910000D01*
X182854000Y-114909000D01*
X182849000Y-114909000D01*
X182843000Y-114907000D01*
X182838000Y-114906000D01*
X182832000Y-114904000D01*
X182817000Y-114898000D01*
X182807000Y-114892000D01*
X182803000Y-114889000D01*
X182798000Y-114885000D01*
X182786000Y-114873000D01*
X182783000Y-114869000D01*
X182779000Y-114864000D01*
X182776000Y-114860000D01*
X182773000Y-114855000D01*
X182771000Y-114850000D01*
X182768000Y-114845000D01*
X182766000Y-114839000D01*
X182764000Y-114834000D01*
X182763000Y-114829000D01*
X182761000Y-114817000D01*
X182760000Y-114812000D01*
X182760000Y-114558000D01*
X182761000Y-114553000D01*
X182763000Y-114541000D01*
X182764000Y-114536000D01*
X182766000Y-114531000D01*
X182768000Y-114525000D01*
X182771000Y-114520000D01*
X182773000Y-114515000D01*
X182776000Y-114510000D01*
X182779000Y-114506000D01*
X182783000Y-114501000D01*
X182786000Y-114497000D01*
X182798000Y-114485000D01*
X182803000Y-114481000D01*
X182807000Y-114478000D01*
X182817000Y-114472000D01*
X182832000Y-114466000D01*
X182838000Y-114464000D01*
X182843000Y-114463000D01*
X182849000Y-114461000D01*
X182854000Y-114461000D01*
X182860000Y-114460000D01*
X183160000Y-114460000D01*
X183166000Y-114461000D01*
G36*
X183176000Y-113961000D02*
G01*
X183181000Y-113961000D01*
X183187000Y-113963000D01*
X183192000Y-113964000D01*
X183198000Y-113966000D01*
X183213000Y-113972000D01*
X183223000Y-113978000D01*
X183227000Y-113981000D01*
X183232000Y-113985000D01*
X183244000Y-113997000D01*
X183247000Y-114001000D01*
X183251000Y-114006000D01*
X183254000Y-114010000D01*
X183257000Y-114015000D01*
X183259000Y-114020000D01*
X183262000Y-114025000D01*
X183264000Y-114031000D01*
X183266000Y-114036000D01*
X183267000Y-114041000D01*
X183269000Y-114053000D01*
X183270000Y-114058000D01*
X183270000Y-114312000D01*
X183269000Y-114317000D01*
X183267000Y-114329000D01*
X183266000Y-114334000D01*
X183264000Y-114339000D01*
X183262000Y-114345000D01*
X183259000Y-114350000D01*
X183257000Y-114355000D01*
X183254000Y-114360000D01*
X183251000Y-114364000D01*
X183247000Y-114369000D01*
X183244000Y-114373000D01*
X183232000Y-114385000D01*
X183227000Y-114389000D01*
X183223000Y-114392000D01*
X183213000Y-114398000D01*
X183198000Y-114404000D01*
X183192000Y-114406000D01*
X183187000Y-114407000D01*
X183181000Y-114409000D01*
X183176000Y-114409000D01*
X183170000Y-114410000D01*
X182870000Y-114410000D01*
X182864000Y-114409000D01*
X182859000Y-114409000D01*
X182853000Y-114407000D01*
X182848000Y-114406000D01*
X182842000Y-114404000D01*
X182827000Y-114398000D01*
X182817000Y-114392000D01*
X182813000Y-114389000D01*
X182808000Y-114385000D01*
X182796000Y-114373000D01*
X182793000Y-114369000D01*
X182789000Y-114364000D01*
X182786000Y-114360000D01*
X182783000Y-114355000D01*
X182781000Y-114350000D01*
X182778000Y-114345000D01*
X182776000Y-114339000D01*
X182774000Y-114334000D01*
X182773000Y-114329000D01*
X182771000Y-114317000D01*
X182770000Y-114312000D01*
X182770000Y-114058000D01*
X182771000Y-114053000D01*
X182773000Y-114041000D01*
X182774000Y-114036000D01*
X182776000Y-114031000D01*
X182778000Y-114025000D01*
X182781000Y-114020000D01*
X182783000Y-114015000D01*
X182786000Y-114010000D01*
X182789000Y-114006000D01*
X182793000Y-114001000D01*
X182796000Y-113997000D01*
X182808000Y-113985000D01*
X182813000Y-113981000D01*
X182817000Y-113978000D01*
X182827000Y-113972000D01*
X182842000Y-113966000D01*
X182848000Y-113964000D01*
X182853000Y-113963000D01*
X182859000Y-113961000D01*
X182864000Y-113961000D01*
X182870000Y-113960000D01*
X183170000Y-113960000D01*
X183176000Y-113961000D01*
G37*
X183176000Y-113961000D02*
X183181000Y-113961000D01*
X183187000Y-113963000D01*
X183192000Y-113964000D01*
X183198000Y-113966000D01*
X183213000Y-113972000D01*
X183223000Y-113978000D01*
X183227000Y-113981000D01*
X183232000Y-113985000D01*
X183244000Y-113997000D01*
X183247000Y-114001000D01*
X183251000Y-114006000D01*
X183254000Y-114010000D01*
X183257000Y-114015000D01*
X183259000Y-114020000D01*
X183262000Y-114025000D01*
X183264000Y-114031000D01*
X183266000Y-114036000D01*
X183267000Y-114041000D01*
X183269000Y-114053000D01*
X183270000Y-114058000D01*
X183270000Y-114312000D01*
X183269000Y-114317000D01*
X183267000Y-114329000D01*
X183266000Y-114334000D01*
X183264000Y-114339000D01*
X183262000Y-114345000D01*
X183259000Y-114350000D01*
X183257000Y-114355000D01*
X183254000Y-114360000D01*
X183251000Y-114364000D01*
X183247000Y-114369000D01*
X183244000Y-114373000D01*
X183232000Y-114385000D01*
X183227000Y-114389000D01*
X183223000Y-114392000D01*
X183213000Y-114398000D01*
X183198000Y-114404000D01*
X183192000Y-114406000D01*
X183187000Y-114407000D01*
X183181000Y-114409000D01*
X183176000Y-114409000D01*
X183170000Y-114410000D01*
X182870000Y-114410000D01*
X182864000Y-114409000D01*
X182859000Y-114409000D01*
X182853000Y-114407000D01*
X182848000Y-114406000D01*
X182842000Y-114404000D01*
X182827000Y-114398000D01*
X182817000Y-114392000D01*
X182813000Y-114389000D01*
X182808000Y-114385000D01*
X182796000Y-114373000D01*
X182793000Y-114369000D01*
X182789000Y-114364000D01*
X182786000Y-114360000D01*
X182783000Y-114355000D01*
X182781000Y-114350000D01*
X182778000Y-114345000D01*
X182776000Y-114339000D01*
X182774000Y-114334000D01*
X182773000Y-114329000D01*
X182771000Y-114317000D01*
X182770000Y-114312000D01*
X182770000Y-114058000D01*
X182771000Y-114053000D01*
X182773000Y-114041000D01*
X182774000Y-114036000D01*
X182776000Y-114031000D01*
X182778000Y-114025000D01*
X182781000Y-114020000D01*
X182783000Y-114015000D01*
X182786000Y-114010000D01*
X182789000Y-114006000D01*
X182793000Y-114001000D01*
X182796000Y-113997000D01*
X182808000Y-113985000D01*
X182813000Y-113981000D01*
X182817000Y-113978000D01*
X182827000Y-113972000D01*
X182842000Y-113966000D01*
X182848000Y-113964000D01*
X182853000Y-113963000D01*
X182859000Y-113961000D01*
X182864000Y-113961000D01*
X182870000Y-113960000D01*
X183170000Y-113960000D01*
X183176000Y-113961000D01*
G36*
X182627000Y-115451000D02*
G01*
X182639000Y-115453000D01*
X182644000Y-115454000D01*
X182649000Y-115456000D01*
X182655000Y-115458000D01*
X182660000Y-115461000D01*
X182665000Y-115463000D01*
X182670000Y-115466000D01*
X182674000Y-115469000D01*
X182679000Y-115473000D01*
X182683000Y-115476000D01*
X182695000Y-115488000D01*
X182699000Y-115493000D01*
X182702000Y-115497000D01*
X182708000Y-115507000D01*
X182714000Y-115522000D01*
X182716000Y-115528000D01*
X182717000Y-115533000D01*
X182719000Y-115539000D01*
X182719000Y-115544000D01*
X182720000Y-115550000D01*
X182720000Y-115850000D01*
X182719000Y-115856000D01*
X182719000Y-115861000D01*
X182717000Y-115867000D01*
X182716000Y-115872000D01*
X182714000Y-115878000D01*
X182708000Y-115893000D01*
X182702000Y-115903000D01*
X182699000Y-115907000D01*
X182695000Y-115912000D01*
X182683000Y-115924000D01*
X182679000Y-115927000D01*
X182674000Y-115931000D01*
X182670000Y-115934000D01*
X182665000Y-115937000D01*
X182660000Y-115939000D01*
X182655000Y-115942000D01*
X182649000Y-115944000D01*
X182644000Y-115946000D01*
X182639000Y-115947000D01*
X182627000Y-115949000D01*
X182622000Y-115950000D01*
X182368000Y-115950000D01*
X182363000Y-115949000D01*
X182351000Y-115947000D01*
X182346000Y-115946000D01*
X182341000Y-115944000D01*
X182335000Y-115942000D01*
X182330000Y-115939000D01*
X182325000Y-115937000D01*
X182320000Y-115934000D01*
X182316000Y-115931000D01*
X182311000Y-115927000D01*
X182307000Y-115924000D01*
X182295000Y-115912000D01*
X182291000Y-115907000D01*
X182288000Y-115903000D01*
X182282000Y-115893000D01*
X182276000Y-115878000D01*
X182274000Y-115872000D01*
X182273000Y-115867000D01*
X182271000Y-115861000D01*
X182271000Y-115856000D01*
X182270000Y-115850000D01*
X182270000Y-115550000D01*
X182271000Y-115544000D01*
X182271000Y-115539000D01*
X182273000Y-115533000D01*
X182274000Y-115528000D01*
X182276000Y-115522000D01*
X182282000Y-115507000D01*
X182288000Y-115497000D01*
X182291000Y-115493000D01*
X182295000Y-115488000D01*
X182307000Y-115476000D01*
X182311000Y-115473000D01*
X182316000Y-115469000D01*
X182320000Y-115466000D01*
X182325000Y-115463000D01*
X182330000Y-115461000D01*
X182335000Y-115458000D01*
X182341000Y-115456000D01*
X182346000Y-115454000D01*
X182351000Y-115453000D01*
X182363000Y-115451000D01*
X182368000Y-115450000D01*
X182622000Y-115450000D01*
X182627000Y-115451000D01*
G37*
X182627000Y-115451000D02*
X182639000Y-115453000D01*
X182644000Y-115454000D01*
X182649000Y-115456000D01*
X182655000Y-115458000D01*
X182660000Y-115461000D01*
X182665000Y-115463000D01*
X182670000Y-115466000D01*
X182674000Y-115469000D01*
X182679000Y-115473000D01*
X182683000Y-115476000D01*
X182695000Y-115488000D01*
X182699000Y-115493000D01*
X182702000Y-115497000D01*
X182708000Y-115507000D01*
X182714000Y-115522000D01*
X182716000Y-115528000D01*
X182717000Y-115533000D01*
X182719000Y-115539000D01*
X182719000Y-115544000D01*
X182720000Y-115550000D01*
X182720000Y-115850000D01*
X182719000Y-115856000D01*
X182719000Y-115861000D01*
X182717000Y-115867000D01*
X182716000Y-115872000D01*
X182714000Y-115878000D01*
X182708000Y-115893000D01*
X182702000Y-115903000D01*
X182699000Y-115907000D01*
X182695000Y-115912000D01*
X182683000Y-115924000D01*
X182679000Y-115927000D01*
X182674000Y-115931000D01*
X182670000Y-115934000D01*
X182665000Y-115937000D01*
X182660000Y-115939000D01*
X182655000Y-115942000D01*
X182649000Y-115944000D01*
X182644000Y-115946000D01*
X182639000Y-115947000D01*
X182627000Y-115949000D01*
X182622000Y-115950000D01*
X182368000Y-115950000D01*
X182363000Y-115949000D01*
X182351000Y-115947000D01*
X182346000Y-115946000D01*
X182341000Y-115944000D01*
X182335000Y-115942000D01*
X182330000Y-115939000D01*
X182325000Y-115937000D01*
X182320000Y-115934000D01*
X182316000Y-115931000D01*
X182311000Y-115927000D01*
X182307000Y-115924000D01*
X182295000Y-115912000D01*
X182291000Y-115907000D01*
X182288000Y-115903000D01*
X182282000Y-115893000D01*
X182276000Y-115878000D01*
X182274000Y-115872000D01*
X182273000Y-115867000D01*
X182271000Y-115861000D01*
X182271000Y-115856000D01*
X182270000Y-115850000D01*
X182270000Y-115550000D01*
X182271000Y-115544000D01*
X182271000Y-115539000D01*
X182273000Y-115533000D01*
X182274000Y-115528000D01*
X182276000Y-115522000D01*
X182282000Y-115507000D01*
X182288000Y-115497000D01*
X182291000Y-115493000D01*
X182295000Y-115488000D01*
X182307000Y-115476000D01*
X182311000Y-115473000D01*
X182316000Y-115469000D01*
X182320000Y-115466000D01*
X182325000Y-115463000D01*
X182330000Y-115461000D01*
X182335000Y-115458000D01*
X182341000Y-115456000D01*
X182346000Y-115454000D01*
X182351000Y-115453000D01*
X182363000Y-115451000D01*
X182368000Y-115450000D01*
X182622000Y-115450000D01*
X182627000Y-115451000D01*
G36*
X183166000Y-114961000D02*
G01*
X183171000Y-114961000D01*
X183177000Y-114963000D01*
X183182000Y-114964000D01*
X183188000Y-114966000D01*
X183203000Y-114972000D01*
X183213000Y-114978000D01*
X183217000Y-114981000D01*
X183222000Y-114985000D01*
X183234000Y-114997000D01*
X183237000Y-115001000D01*
X183241000Y-115006000D01*
X183244000Y-115010000D01*
X183247000Y-115015000D01*
X183249000Y-115020000D01*
X183252000Y-115025000D01*
X183254000Y-115031000D01*
X183256000Y-115036000D01*
X183257000Y-115041000D01*
X183259000Y-115053000D01*
X183260000Y-115058000D01*
X183260000Y-115312000D01*
X183259000Y-115317000D01*
X183257000Y-115329000D01*
X183256000Y-115334000D01*
X183254000Y-115339000D01*
X183252000Y-115345000D01*
X183249000Y-115350000D01*
X183247000Y-115355000D01*
X183244000Y-115360000D01*
X183241000Y-115364000D01*
X183237000Y-115369000D01*
X183234000Y-115373000D01*
X183222000Y-115385000D01*
X183217000Y-115389000D01*
X183213000Y-115392000D01*
X183203000Y-115398000D01*
X183188000Y-115404000D01*
X183182000Y-115406000D01*
X183177000Y-115407000D01*
X183171000Y-115409000D01*
X183166000Y-115409000D01*
X183160000Y-115410000D01*
X182860000Y-115410000D01*
X182854000Y-115409000D01*
X182849000Y-115409000D01*
X182843000Y-115407000D01*
X182838000Y-115406000D01*
X182832000Y-115404000D01*
X182817000Y-115398000D01*
X182807000Y-115392000D01*
X182803000Y-115389000D01*
X182798000Y-115385000D01*
X182786000Y-115373000D01*
X182783000Y-115369000D01*
X182779000Y-115364000D01*
X182776000Y-115360000D01*
X182773000Y-115355000D01*
X182771000Y-115350000D01*
X182768000Y-115345000D01*
X182766000Y-115339000D01*
X182764000Y-115334000D01*
X182763000Y-115329000D01*
X182761000Y-115317000D01*
X182760000Y-115312000D01*
X182760000Y-115058000D01*
X182761000Y-115053000D01*
X182763000Y-115041000D01*
X182764000Y-115036000D01*
X182766000Y-115031000D01*
X182768000Y-115025000D01*
X182771000Y-115020000D01*
X182773000Y-115015000D01*
X182776000Y-115010000D01*
X182779000Y-115006000D01*
X182783000Y-115001000D01*
X182786000Y-114997000D01*
X182798000Y-114985000D01*
X182803000Y-114981000D01*
X182807000Y-114978000D01*
X182817000Y-114972000D01*
X182832000Y-114966000D01*
X182838000Y-114964000D01*
X182843000Y-114963000D01*
X182849000Y-114961000D01*
X182854000Y-114961000D01*
X182860000Y-114960000D01*
X183160000Y-114960000D01*
X183166000Y-114961000D01*
G37*
X183166000Y-114961000D02*
X183171000Y-114961000D01*
X183177000Y-114963000D01*
X183182000Y-114964000D01*
X183188000Y-114966000D01*
X183203000Y-114972000D01*
X183213000Y-114978000D01*
X183217000Y-114981000D01*
X183222000Y-114985000D01*
X183234000Y-114997000D01*
X183237000Y-115001000D01*
X183241000Y-115006000D01*
X183244000Y-115010000D01*
X183247000Y-115015000D01*
X183249000Y-115020000D01*
X183252000Y-115025000D01*
X183254000Y-115031000D01*
X183256000Y-115036000D01*
X183257000Y-115041000D01*
X183259000Y-115053000D01*
X183260000Y-115058000D01*
X183260000Y-115312000D01*
X183259000Y-115317000D01*
X183257000Y-115329000D01*
X183256000Y-115334000D01*
X183254000Y-115339000D01*
X183252000Y-115345000D01*
X183249000Y-115350000D01*
X183247000Y-115355000D01*
X183244000Y-115360000D01*
X183241000Y-115364000D01*
X183237000Y-115369000D01*
X183234000Y-115373000D01*
X183222000Y-115385000D01*
X183217000Y-115389000D01*
X183213000Y-115392000D01*
X183203000Y-115398000D01*
X183188000Y-115404000D01*
X183182000Y-115406000D01*
X183177000Y-115407000D01*
X183171000Y-115409000D01*
X183166000Y-115409000D01*
X183160000Y-115410000D01*
X182860000Y-115410000D01*
X182854000Y-115409000D01*
X182849000Y-115409000D01*
X182843000Y-115407000D01*
X182838000Y-115406000D01*
X182832000Y-115404000D01*
X182817000Y-115398000D01*
X182807000Y-115392000D01*
X182803000Y-115389000D01*
X182798000Y-115385000D01*
X182786000Y-115373000D01*
X182783000Y-115369000D01*
X182779000Y-115364000D01*
X182776000Y-115360000D01*
X182773000Y-115355000D01*
X182771000Y-115350000D01*
X182768000Y-115345000D01*
X182766000Y-115339000D01*
X182764000Y-115334000D01*
X182763000Y-115329000D01*
X182761000Y-115317000D01*
X182760000Y-115312000D01*
X182760000Y-115058000D01*
X182761000Y-115053000D01*
X182763000Y-115041000D01*
X182764000Y-115036000D01*
X182766000Y-115031000D01*
X182768000Y-115025000D01*
X182771000Y-115020000D01*
X182773000Y-115015000D01*
X182776000Y-115010000D01*
X182779000Y-115006000D01*
X182783000Y-115001000D01*
X182786000Y-114997000D01*
X182798000Y-114985000D01*
X182803000Y-114981000D01*
X182807000Y-114978000D01*
X182817000Y-114972000D01*
X182832000Y-114966000D01*
X182838000Y-114964000D01*
X182843000Y-114963000D01*
X182849000Y-114961000D01*
X182854000Y-114961000D01*
X182860000Y-114960000D01*
X183160000Y-114960000D01*
X183166000Y-114961000D01*
G36*
X182127000Y-115451000D02*
G01*
X182139000Y-115453000D01*
X182144000Y-115454000D01*
X182149000Y-115456000D01*
X182155000Y-115458000D01*
X182160000Y-115461000D01*
X182165000Y-115463000D01*
X182170000Y-115466000D01*
X182174000Y-115469000D01*
X182179000Y-115473000D01*
X182183000Y-115476000D01*
X182195000Y-115488000D01*
X182199000Y-115493000D01*
X182202000Y-115497000D01*
X182208000Y-115507000D01*
X182214000Y-115522000D01*
X182216000Y-115528000D01*
X182217000Y-115533000D01*
X182219000Y-115539000D01*
X182219000Y-115544000D01*
X182220000Y-115550000D01*
X182220000Y-115850000D01*
X182219000Y-115856000D01*
X182219000Y-115861000D01*
X182217000Y-115867000D01*
X182216000Y-115872000D01*
X182214000Y-115878000D01*
X182208000Y-115893000D01*
X182202000Y-115903000D01*
X182199000Y-115907000D01*
X182195000Y-115912000D01*
X182183000Y-115924000D01*
X182179000Y-115927000D01*
X182174000Y-115931000D01*
X182170000Y-115934000D01*
X182165000Y-115937000D01*
X182160000Y-115939000D01*
X182155000Y-115942000D01*
X182149000Y-115944000D01*
X182144000Y-115946000D01*
X182139000Y-115947000D01*
X182127000Y-115949000D01*
X182122000Y-115950000D01*
X181868000Y-115950000D01*
X181863000Y-115949000D01*
X181851000Y-115947000D01*
X181846000Y-115946000D01*
X181841000Y-115944000D01*
X181835000Y-115942000D01*
X181830000Y-115939000D01*
X181825000Y-115937000D01*
X181820000Y-115934000D01*
X181816000Y-115931000D01*
X181811000Y-115927000D01*
X181807000Y-115924000D01*
X181795000Y-115912000D01*
X181791000Y-115907000D01*
X181788000Y-115903000D01*
X181782000Y-115893000D01*
X181776000Y-115878000D01*
X181774000Y-115872000D01*
X181773000Y-115867000D01*
X181771000Y-115861000D01*
X181771000Y-115856000D01*
X181770000Y-115850000D01*
X181770000Y-115550000D01*
X181771000Y-115544000D01*
X181771000Y-115539000D01*
X181773000Y-115533000D01*
X181774000Y-115528000D01*
X181776000Y-115522000D01*
X181782000Y-115507000D01*
X181788000Y-115497000D01*
X181791000Y-115493000D01*
X181795000Y-115488000D01*
X181807000Y-115476000D01*
X181811000Y-115473000D01*
X181816000Y-115469000D01*
X181820000Y-115466000D01*
X181825000Y-115463000D01*
X181830000Y-115461000D01*
X181835000Y-115458000D01*
X181841000Y-115456000D01*
X181846000Y-115454000D01*
X181851000Y-115453000D01*
X181863000Y-115451000D01*
X181868000Y-115450000D01*
X182122000Y-115450000D01*
X182127000Y-115451000D01*
G37*
X182127000Y-115451000D02*
X182139000Y-115453000D01*
X182144000Y-115454000D01*
X182149000Y-115456000D01*
X182155000Y-115458000D01*
X182160000Y-115461000D01*
X182165000Y-115463000D01*
X182170000Y-115466000D01*
X182174000Y-115469000D01*
X182179000Y-115473000D01*
X182183000Y-115476000D01*
X182195000Y-115488000D01*
X182199000Y-115493000D01*
X182202000Y-115497000D01*
X182208000Y-115507000D01*
X182214000Y-115522000D01*
X182216000Y-115528000D01*
X182217000Y-115533000D01*
X182219000Y-115539000D01*
X182219000Y-115544000D01*
X182220000Y-115550000D01*
X182220000Y-115850000D01*
X182219000Y-115856000D01*
X182219000Y-115861000D01*
X182217000Y-115867000D01*
X182216000Y-115872000D01*
X182214000Y-115878000D01*
X182208000Y-115893000D01*
X182202000Y-115903000D01*
X182199000Y-115907000D01*
X182195000Y-115912000D01*
X182183000Y-115924000D01*
X182179000Y-115927000D01*
X182174000Y-115931000D01*
X182170000Y-115934000D01*
X182165000Y-115937000D01*
X182160000Y-115939000D01*
X182155000Y-115942000D01*
X182149000Y-115944000D01*
X182144000Y-115946000D01*
X182139000Y-115947000D01*
X182127000Y-115949000D01*
X182122000Y-115950000D01*
X181868000Y-115950000D01*
X181863000Y-115949000D01*
X181851000Y-115947000D01*
X181846000Y-115946000D01*
X181841000Y-115944000D01*
X181835000Y-115942000D01*
X181830000Y-115939000D01*
X181825000Y-115937000D01*
X181820000Y-115934000D01*
X181816000Y-115931000D01*
X181811000Y-115927000D01*
X181807000Y-115924000D01*
X181795000Y-115912000D01*
X181791000Y-115907000D01*
X181788000Y-115903000D01*
X181782000Y-115893000D01*
X181776000Y-115878000D01*
X181774000Y-115872000D01*
X181773000Y-115867000D01*
X181771000Y-115861000D01*
X181771000Y-115856000D01*
X181770000Y-115850000D01*
X181770000Y-115550000D01*
X181771000Y-115544000D01*
X181771000Y-115539000D01*
X181773000Y-115533000D01*
X181774000Y-115528000D01*
X181776000Y-115522000D01*
X181782000Y-115507000D01*
X181788000Y-115497000D01*
X181791000Y-115493000D01*
X181795000Y-115488000D01*
X181807000Y-115476000D01*
X181811000Y-115473000D01*
X181816000Y-115469000D01*
X181820000Y-115466000D01*
X181825000Y-115463000D01*
X181830000Y-115461000D01*
X181835000Y-115458000D01*
X181841000Y-115456000D01*
X181846000Y-115454000D01*
X181851000Y-115453000D01*
X181863000Y-115451000D01*
X181868000Y-115450000D01*
X182122000Y-115450000D01*
X182127000Y-115451000D01*
G36*
X182627000Y-113921000D02*
G01*
X182639000Y-113923000D01*
X182644000Y-113924000D01*
X182649000Y-113926000D01*
X182655000Y-113928000D01*
X182660000Y-113931000D01*
X182665000Y-113933000D01*
X182670000Y-113936000D01*
X182674000Y-113939000D01*
X182679000Y-113943000D01*
X182683000Y-113946000D01*
X182695000Y-113958000D01*
X182699000Y-113963000D01*
X182702000Y-113967000D01*
X182708000Y-113977000D01*
X182714000Y-113992000D01*
X182716000Y-113998000D01*
X182717000Y-114003000D01*
X182719000Y-114009000D01*
X182719000Y-114014000D01*
X182720000Y-114020000D01*
X182720000Y-114320000D01*
X182719000Y-114326000D01*
X182719000Y-114331000D01*
X182717000Y-114337000D01*
X182716000Y-114342000D01*
X182714000Y-114348000D01*
X182708000Y-114363000D01*
X182702000Y-114373000D01*
X182699000Y-114377000D01*
X182695000Y-114382000D01*
X182683000Y-114394000D01*
X182679000Y-114397000D01*
X182674000Y-114401000D01*
X182670000Y-114404000D01*
X182665000Y-114407000D01*
X182660000Y-114409000D01*
X182655000Y-114412000D01*
X182649000Y-114414000D01*
X182644000Y-114416000D01*
X182639000Y-114417000D01*
X182627000Y-114419000D01*
X182622000Y-114420000D01*
X182368000Y-114420000D01*
X182363000Y-114419000D01*
X182351000Y-114417000D01*
X182346000Y-114416000D01*
X182341000Y-114414000D01*
X182335000Y-114412000D01*
X182330000Y-114409000D01*
X182325000Y-114407000D01*
X182320000Y-114404000D01*
X182316000Y-114401000D01*
X182311000Y-114397000D01*
X182307000Y-114394000D01*
X182295000Y-114382000D01*
X182291000Y-114377000D01*
X182288000Y-114373000D01*
X182282000Y-114363000D01*
X182276000Y-114348000D01*
X182274000Y-114342000D01*
X182273000Y-114337000D01*
X182271000Y-114331000D01*
X182271000Y-114326000D01*
X182270000Y-114320000D01*
X182270000Y-114020000D01*
X182271000Y-114014000D01*
X182271000Y-114009000D01*
X182273000Y-114003000D01*
X182274000Y-113998000D01*
X182276000Y-113992000D01*
X182282000Y-113977000D01*
X182288000Y-113967000D01*
X182291000Y-113963000D01*
X182295000Y-113958000D01*
X182307000Y-113946000D01*
X182311000Y-113943000D01*
X182316000Y-113939000D01*
X182320000Y-113936000D01*
X182325000Y-113933000D01*
X182330000Y-113931000D01*
X182335000Y-113928000D01*
X182341000Y-113926000D01*
X182346000Y-113924000D01*
X182351000Y-113923000D01*
X182363000Y-113921000D01*
X182368000Y-113920000D01*
X182622000Y-113920000D01*
X182627000Y-113921000D01*
G37*
X182627000Y-113921000D02*
X182639000Y-113923000D01*
X182644000Y-113924000D01*
X182649000Y-113926000D01*
X182655000Y-113928000D01*
X182660000Y-113931000D01*
X182665000Y-113933000D01*
X182670000Y-113936000D01*
X182674000Y-113939000D01*
X182679000Y-113943000D01*
X182683000Y-113946000D01*
X182695000Y-113958000D01*
X182699000Y-113963000D01*
X182702000Y-113967000D01*
X182708000Y-113977000D01*
X182714000Y-113992000D01*
X182716000Y-113998000D01*
X182717000Y-114003000D01*
X182719000Y-114009000D01*
X182719000Y-114014000D01*
X182720000Y-114020000D01*
X182720000Y-114320000D01*
X182719000Y-114326000D01*
X182719000Y-114331000D01*
X182717000Y-114337000D01*
X182716000Y-114342000D01*
X182714000Y-114348000D01*
X182708000Y-114363000D01*
X182702000Y-114373000D01*
X182699000Y-114377000D01*
X182695000Y-114382000D01*
X182683000Y-114394000D01*
X182679000Y-114397000D01*
X182674000Y-114401000D01*
X182670000Y-114404000D01*
X182665000Y-114407000D01*
X182660000Y-114409000D01*
X182655000Y-114412000D01*
X182649000Y-114414000D01*
X182644000Y-114416000D01*
X182639000Y-114417000D01*
X182627000Y-114419000D01*
X182622000Y-114420000D01*
X182368000Y-114420000D01*
X182363000Y-114419000D01*
X182351000Y-114417000D01*
X182346000Y-114416000D01*
X182341000Y-114414000D01*
X182335000Y-114412000D01*
X182330000Y-114409000D01*
X182325000Y-114407000D01*
X182320000Y-114404000D01*
X182316000Y-114401000D01*
X182311000Y-114397000D01*
X182307000Y-114394000D01*
X182295000Y-114382000D01*
X182291000Y-114377000D01*
X182288000Y-114373000D01*
X182282000Y-114363000D01*
X182276000Y-114348000D01*
X182274000Y-114342000D01*
X182273000Y-114337000D01*
X182271000Y-114331000D01*
X182271000Y-114326000D01*
X182270000Y-114320000D01*
X182270000Y-114020000D01*
X182271000Y-114014000D01*
X182271000Y-114009000D01*
X182273000Y-114003000D01*
X182274000Y-113998000D01*
X182276000Y-113992000D01*
X182282000Y-113977000D01*
X182288000Y-113967000D01*
X182291000Y-113963000D01*
X182295000Y-113958000D01*
X182307000Y-113946000D01*
X182311000Y-113943000D01*
X182316000Y-113939000D01*
X182320000Y-113936000D01*
X182325000Y-113933000D01*
X182330000Y-113931000D01*
X182335000Y-113928000D01*
X182341000Y-113926000D01*
X182346000Y-113924000D01*
X182351000Y-113923000D01*
X182363000Y-113921000D01*
X182368000Y-113920000D01*
X182622000Y-113920000D01*
X182627000Y-113921000D01*
%TD*%
D17*
%TO.C,J13*%
X179705000Y-101600000D03*
D18*
X177705000Y-101600000D03*
X175705000Y-101600000D03*
%TD*%
D19*
%TO.C,U5*%
X130810000Y-139065000D03*
X133350000Y-139065000D03*
X135890000Y-139065000D03*
X138430000Y-139065000D03*
X163830000Y-139065000D03*
X133350000Y-123825000D03*
X173990000Y-133985000D03*
X140970000Y-139065000D03*
X143510000Y-139065000D03*
D20*
X134620000Y-136015000D03*
D19*
X146050000Y-139065000D03*
X148590000Y-139065000D03*
X151130000Y-139065000D03*
X153670000Y-139065000D03*
X156210000Y-139065000D03*
X158750000Y-139065000D03*
X161290000Y-139065000D03*
X161290000Y-123825000D03*
X158750000Y-123825000D03*
X156210000Y-123825000D03*
X153670000Y-123825000D03*
X151130000Y-123825000D03*
X148590000Y-123825000D03*
X146050000Y-123825000D03*
X143510000Y-123825000D03*
X140970000Y-123825000D03*
X138430000Y-123825000D03*
X135890000Y-123825000D03*
X166370000Y-139065000D03*
X168910000Y-139065000D03*
X171450000Y-139065000D03*
X173990000Y-139065000D03*
X176530000Y-139065000D03*
X179070000Y-139065000D03*
X181610000Y-139065000D03*
X184150000Y-139065000D03*
X186690000Y-139065000D03*
X186690000Y-123825000D03*
X184150000Y-123825000D03*
X181610000Y-123825000D03*
X179070000Y-123825000D03*
X176530000Y-123825000D03*
X173990000Y-123825000D03*
X171450000Y-123825000D03*
X168910000Y-123825000D03*
X166370000Y-123825000D03*
D20*
X139700000Y-136015000D03*
X137160000Y-136015000D03*
D19*
X128270000Y-139065000D03*
X163830000Y-123825000D03*
X130810000Y-123825000D03*
X173990000Y-131445000D03*
D21*
X143240000Y-128275000D03*
X141240000Y-128275000D03*
D19*
X173990000Y-126365000D03*
X173990000Y-128905000D03*
D21*
X141240000Y-126275000D03*
X143240000Y-126275000D03*
X143240000Y-130275000D03*
X141240000Y-130275000D03*
D20*
X142240000Y-136015000D03*
X144780000Y-136015000D03*
D19*
X173990000Y-136525000D03*
X128270000Y-123825000D03*
X130810000Y-126365000D03*
%TD*%
D17*
%TO.C,J6*%
X176895000Y-78740000D03*
D18*
X174895000Y-78740000D03*
%TD*%
D22*
%TO.C,C1*%
X128905000Y-95542500D03*
X128905000Y-92417500D03*
%TD*%
D23*
%TO.C,C2*%
X166027500Y-109220000D03*
X162902500Y-109220000D03*
%TD*%
D17*
%TO.C,J14*%
X136062514Y-116598429D03*
D18*
X136062514Y-114598429D03*
X136062514Y-112598429D03*
%TD*%
D17*
%TO.C,J4*%
X143780000Y-78740000D03*
D18*
X145780000Y-78740000D03*
%TD*%
D17*
%TO.C,J9*%
X127635000Y-112665000D03*
D18*
X127635000Y-114665000D03*
%TD*%
D24*
%TO.C,R3*%
X172720000Y-105852500D03*
X172720000Y-108777500D03*
%TD*%
D17*
%TO.C,J10*%
X128270000Y-104140000D03*
D18*
X128270000Y-106140000D03*
%TD*%
D25*
%TO.C,C3*%
X155815000Y-103822500D03*
X155815000Y-106947500D03*
%TD*%
D17*
%TO.C,J7*%
X165735000Y-78687500D03*
D18*
X167735000Y-78687500D03*
%TD*%
D23*
%TO.C,C4*%
X166027500Y-102235000D03*
X162902500Y-102235000D03*
%TD*%
D17*
%TO.C,J1*%
X128540000Y-78740000D03*
D18*
X130540000Y-78740000D03*
%TD*%
D22*
%TO.C,C5*%
X141605000Y-95542500D03*
X141605000Y-92417500D03*
%TD*%
%TO.C,C6*%
X154940000Y-95542500D03*
X154940000Y-92417500D03*
%TD*%
D26*
%TO.C,REF1*%
X120650000Y-78740000D03*
%TD*%
D17*
%TO.C,J12*%
X171990000Y-98425000D03*
D18*
X171990000Y-96425000D03*
X171990000Y-94425000D03*
X171990000Y-92425000D03*
%TD*%
D26*
%TO.C,REF3*%
X121285000Y-144780000D03*
%TD*%
D27*
%TO.C,U3*%
X146955000Y-96142500D03*
X147455000Y-96142500D03*
X147955000Y-96142500D03*
X148455000Y-96142500D03*
X148955000Y-96142500D03*
X148955000Y-91817500D03*
X148455000Y-91817500D03*
X147955000Y-91817500D03*
X147455000Y-91817500D03*
X146955000Y-91817500D03*
D28*
X147955000Y-93980000D03*
%TD*%
D29*
%TO.C,R1*%
X180975000Y-84012500D03*
X180975000Y-81087500D03*
%TD*%
D17*
%TO.C,J5*%
X158115000Y-78740000D03*
D18*
X160115000Y-78740000D03*
%TD*%
D30*
%TO.C,R4*%
X175702500Y-118110000D03*
X178627500Y-118110000D03*
%TD*%
D31*
%TO.C,C9*%
X185762500Y-117475000D03*
X188887500Y-117475000D03*
%TD*%
D24*
%TO.C,R2*%
X177800000Y-105852500D03*
X177800000Y-108777500D03*
%TD*%
D17*
%TO.C,J11*%
X175705000Y-89535000D03*
D18*
X177705000Y-89535000D03*
X179705000Y-89535000D03*
X181705000Y-89535000D03*
%TD*%
D23*
%TO.C,C7*%
X166027500Y-113030000D03*
X162902500Y-113030000D03*
%TD*%
D26*
%TO.C,REF2*%
X186690000Y-78740000D03*
%TD*%
D17*
%TO.C,J2*%
X136160000Y-78740000D03*
D18*
X138160000Y-78740000D03*
%TD*%
D17*
%TO.C,J8*%
X131603627Y-112665019D03*
D18*
X131603627Y-114665019D03*
%TD*%
D27*
%TO.C,U1*%
X133620000Y-96142500D03*
X134120000Y-96142500D03*
X134620000Y-96142500D03*
X135120000Y-96142500D03*
X135620000Y-96142500D03*
X135620000Y-91817500D03*
X135120000Y-91817500D03*
X134620000Y-91817500D03*
X134120000Y-91817500D03*
X133620000Y-91817500D03*
D28*
X134620000Y-93980000D03*
%TD*%
D17*
%TO.C,J3*%
X151035000Y-78740000D03*
D18*
X153035000Y-78740000D03*
%TD*%
D27*
%TO.C,U4*%
X159655000Y-96142500D03*
X160155000Y-96142500D03*
X160655000Y-96142500D03*
X161155000Y-96142500D03*
X161655000Y-96142500D03*
X161655000Y-91817500D03*
X161155000Y-91817500D03*
X160655000Y-91817500D03*
X160155000Y-91817500D03*
X159655000Y-91817500D03*
D28*
X160655000Y-93980000D03*
%TD*%
D26*
%TO.C,REF4*%
X186690000Y-145415000D03*
%TD*%
D22*
%TO.C,C8*%
X142480000Y-106947500D03*
X142480000Y-103822500D03*
%TD*%
D32*
%TO.C,U2*%
X151765000Y-104140000D03*
X149465000Y-104140000D03*
D33*
X149465000Y-110440000D03*
D32*
X147165000Y-104140000D03*
%TD*%
M02*
