%TF.GenerationSoftware,KiCad,Pcbnew,(6.0.7)*%
%TF.CreationDate,2023-02-02T12:11:16-07:00*%
%TF.ProjectId,Tellus,54656c6c-7573-42e6-9b69-6361645f7063,rev?*%
%TF.SameCoordinates,Original*%
%TF.FileFunction,Copper,L1,Top*%
%TF.FilePolarity,Positive*%
%FSLAX46Y46*%
G04 Gerber Fmt 4.6, Leading zero omitted, Abs format (unit mm)*
G04 Created by KiCad (PCBNEW (6.0.7)) date 2023-02-02 12:11:16*
%MOMM*%
%LPD*%
G01*
G04 APERTURE LIST*
G04 Aperture macros list*
%AMRoundRect*
0 Rectangle with rounded corners*
0 $1 Rounding radius*
0 $2 $3 $4 $5 $6 $7 $8 $9 X,Y pos of 4 corners*
0 Add a 4 corners polygon primitive as box body*
4,1,4,$2,$3,$4,$5,$6,$7,$8,$9,$2,$3,0*
0 Add four circle primitives for the rounded corners*
1,1,$1+$1,$2,$3*
1,1,$1+$1,$4,$5*
1,1,$1+$1,$6,$7*
1,1,$1+$1,$8,$9*
0 Add four rect primitives between the rounded corners*
20,1,$1+$1,$2,$3,$4,$5,0*
20,1,$1+$1,$4,$5,$6,$7,0*
20,1,$1+$1,$6,$7,$8,$9,0*
20,1,$1+$1,$8,$9,$2,$3,0*%
G04 Aperture macros list end*
%TA.AperFunction,ComponentPad*%
%ADD10R,1.350000X1.350000*%
%TD*%
%TA.AperFunction,ComponentPad*%
%ADD11O,1.350000X1.350000*%
%TD*%
%TA.AperFunction,ComponentPad*%
%ADD12C,1.308000*%
%TD*%
%TA.AperFunction,ComponentPad*%
%ADD13C,1.258000*%
%TD*%
%TA.AperFunction,ComponentPad*%
%ADD14C,1.208000*%
%TD*%
%TA.AperFunction,SMDPad,CuDef*%
%ADD15RoundRect,0.250000X1.100000X-0.412500X1.100000X0.412500X-1.100000X0.412500X-1.100000X-0.412500X0*%
%TD*%
%TA.AperFunction,SMDPad,CuDef*%
%ADD16RoundRect,0.250000X0.412500X1.100000X-0.412500X1.100000X-0.412500X-1.100000X0.412500X-1.100000X0*%
%TD*%
%TA.AperFunction,SMDPad,CuDef*%
%ADD17RoundRect,0.250000X-0.625000X0.312500X-0.625000X-0.312500X0.625000X-0.312500X0.625000X0.312500X0*%
%TD*%
%TA.AperFunction,SMDPad,CuDef*%
%ADD18R,0.475000X0.250000*%
%TD*%
%TA.AperFunction,SMDPad,CuDef*%
%ADD19R,0.250000X0.475000*%
%TD*%
%TA.AperFunction,SMDPad,CuDef*%
%ADD20RoundRect,0.250000X-1.100000X0.412500X-1.100000X-0.412500X1.100000X-0.412500X1.100000X0.412500X0*%
%TD*%
%TA.AperFunction,ComponentPad*%
%ADD21C,4.400000*%
%TD*%
%TA.AperFunction,SMDPad,CuDef*%
%ADD22RoundRect,0.075000X0.075000X-0.662500X0.075000X0.662500X-0.075000X0.662500X-0.075000X-0.662500X0*%
%TD*%
%TA.AperFunction,ComponentPad*%
%ADD23C,0.500000*%
%TD*%
%TA.AperFunction,SMDPad,CuDef*%
%ADD24R,1.980000X1.730000*%
%TD*%
%TA.AperFunction,SMDPad,CuDef*%
%ADD25RoundRect,0.250000X0.625000X-0.312500X0.625000X0.312500X-0.625000X0.312500X-0.625000X-0.312500X0*%
%TD*%
%TA.AperFunction,SMDPad,CuDef*%
%ADD26RoundRect,0.250000X-0.312500X-0.625000X0.312500X-0.625000X0.312500X0.625000X-0.312500X0.625000X0*%
%TD*%
%TA.AperFunction,SMDPad,CuDef*%
%ADD27RoundRect,0.250000X-0.412500X-1.100000X0.412500X-1.100000X0.412500X1.100000X-0.412500X1.100000X0*%
%TD*%
%TA.AperFunction,SMDPad,CuDef*%
%ADD28RoundRect,0.031500X-0.168500X-0.143500X0.168500X-0.143500X0.168500X0.143500X-0.168500X0.143500X0*%
%TD*%
%TA.AperFunction,SMDPad,CuDef*%
%ADD29RoundRect,0.035000X-0.140000X-0.165000X0.140000X-0.165000X0.140000X0.165000X-0.140000X0.165000X0*%
%TD*%
%TA.AperFunction,SMDPad,CuDef*%
%ADD30R,1.500000X2.000000*%
%TD*%
%TA.AperFunction,SMDPad,CuDef*%
%ADD31R,3.800000X2.000000*%
%TD*%
%TA.AperFunction,ViaPad*%
%ADD32C,0.800000*%
%TD*%
%TA.AperFunction,Conductor*%
%ADD33C,0.250000*%
%TD*%
G04 APERTURE END LIST*
D10*
%TO.P,J13,1,Pin_1*%
%TO.N,INT_BT*%
X179705000Y-101600000D03*
D11*
%TO.P,J13,2,Pin_2*%
%TO.N,GND*%
X177705000Y-101600000D03*
%TO.P,J13,3,Pin_3*%
X175705000Y-101600000D03*
%TD*%
D12*
%TO.P,U5,0,RX1*%
%TO.N,RXD*%
X130810000Y-139065000D03*
%TO.P,U5,1,TX1*%
%TO.N,TXD*%
X133350000Y-139065000D03*
%TO.P,U5,2,OUT2*%
%TO.N,unconnected-(U5-Pad2)*%
X135890000Y-139065000D03*
%TO.P,U5,3,LRCLK2*%
%TO.N,unconnected-(U5-Pad3)*%
X138430000Y-139065000D03*
%TO.P,U5,3.3V_1,3.3V*%
%TO.N,unconnected-(U5-Pad3.3V_1)*%
X163830000Y-139065000D03*
%TO.P,U5,3.3V_2,3.3V*%
X133350000Y-123825000D03*
%TO.P,U5,3.3V_3,3.3V*%
X173990000Y-133985000D03*
%TO.P,U5,4,BCLK2*%
%TO.N,unconnected-(U5-Pad4)*%
X140970000Y-139065000D03*
%TO.P,U5,5,IN2*%
%TO.N,unconnected-(U5-Pad5)*%
X143510000Y-139065000D03*
D13*
%TO.P,U5,5V,5V*%
%TO.N,unconnected-(U5-Pad5V)*%
X134620000Y-136015000D03*
D12*
%TO.P,U5,6,OUT1D*%
%TO.N,unconnected-(U5-Pad6)*%
X146050000Y-139065000D03*
%TO.P,U5,7,RX2*%
%TO.N,Lidar_RX*%
X148590000Y-139065000D03*
%TO.P,U5,8,TX2*%
%TO.N,Lidar_TX*%
X151130000Y-139065000D03*
%TO.P,U5,9,OUT1C*%
%TO.N,unconnected-(U5-Pad9)*%
X153670000Y-139065000D03*
%TO.P,U5,10,CS1*%
%TO.N,unconnected-(U5-Pad10)*%
X156210000Y-139065000D03*
%TO.P,U5,11,MOSI*%
%TO.N,unconnected-(U5-Pad11)*%
X158750000Y-139065000D03*
%TO.P,U5,12,MISO*%
%TO.N,unconnected-(U5-Pad12)*%
X161290000Y-139065000D03*
%TO.P,U5,13,SCK*%
%TO.N,unconnected-(U5-Pad13)*%
X161290000Y-123825000D03*
%TO.P,U5,14,A0*%
%TO.N,Front Right Control 2*%
X158750000Y-123825000D03*
%TO.P,U5,15,A1*%
%TO.N,Front Right Control 1*%
X156210000Y-123825000D03*
%TO.P,U5,16,A2*%
%TO.N,Front Left Control 2*%
X153670000Y-123825000D03*
%TO.P,U5,17,A3*%
%TO.N,Front Left Control 1*%
X151130000Y-123825000D03*
%TO.P,U5,18,A4*%
%TO.N,SDA*%
X148590000Y-123825000D03*
%TO.P,U5,19,A5*%
%TO.N,SCLK*%
X146050000Y-123825000D03*
%TO.P,U5,20,A6*%
%TO.N,LDR Out*%
X143510000Y-123825000D03*
%TO.P,U5,21,A7*%
%TO.N,unconnected-(U5-Pad21)*%
X140970000Y-123825000D03*
%TO.P,U5,22,A8*%
%TO.N,INT1_ICM*%
X138430000Y-123825000D03*
%TO.P,U5,23,A9*%
%TO.N,Lidar_PWM*%
X135890000Y-123825000D03*
%TO.P,U5,24,A10*%
%TO.N,Mid Left Control 1*%
X166370000Y-139065000D03*
%TO.P,U5,25,A11*%
%TO.N,Mid Left Control 2*%
X168910000Y-139065000D03*
%TO.P,U5,26,A12*%
%TO.N,Mid Right Control 1*%
X171450000Y-139065000D03*
%TO.P,U5,27,A13*%
%TO.N,Mid Right Control 2*%
X173990000Y-139065000D03*
%TO.P,U5,28,RX7*%
%TO.N,INTA*%
X176530000Y-139065000D03*
%TO.P,U5,29,TX7*%
%TO.N,INTM*%
X179070000Y-139065000D03*
%TO.P,U5,30,CRX3*%
%TO.N,WAKEUP*%
X181610000Y-139065000D03*
%TO.P,U5,31,CTX3*%
%TO.N,unconnected-(U5-Pad31)*%
X184150000Y-139065000D03*
%TO.P,U5,32,OUT1B*%
%TO.N,unconnected-(U5-Pad32)*%
X186690000Y-139065000D03*
%TO.P,U5,33,MCLK2*%
%TO.N,FSYNC_ICM*%
X186690000Y-123825000D03*
%TO.P,U5,34,RX8*%
%TO.N,INT_BT*%
X184150000Y-123825000D03*
%TO.P,U5,35,TX8*%
%TO.N,PDN*%
X181610000Y-123825000D03*
%TO.P,U5,36,CS2*%
%TO.N,unconnected-(U5-Pad36)*%
X179070000Y-123825000D03*
%TO.P,U5,37,CS3*%
%TO.N,INT2_ICM*%
X176530000Y-123825000D03*
%TO.P,U5,38,A14*%
%TO.N,Rear Right Control 2*%
X173990000Y-123825000D03*
%TO.P,U5,39,A15*%
%TO.N,Rear Right Control 1*%
X171450000Y-123825000D03*
%TO.P,U5,40,A16*%
%TO.N,Rear Left Control 2*%
X168910000Y-123825000D03*
%TO.P,U5,41,A17*%
%TO.N,Rear Left Control 1*%
X166370000Y-123825000D03*
D13*
%TO.P,U5,D+,D+*%
%TO.N,unconnected-(U5-PadD+)*%
X139700000Y-136015000D03*
%TO.P,U5,D-,D-*%
%TO.N,unconnected-(U5-PadD-)*%
X137160000Y-136015000D03*
D12*
%TO.P,U5,GND1,GND*%
%TO.N,GND*%
X128270000Y-139065000D03*
%TO.P,U5,GND2,GND*%
X163830000Y-123825000D03*
%TO.P,U5,GND3,GND*%
X130810000Y-123825000D03*
%TO.P,U5,GND4,GND*%
X173990000Y-131445000D03*
D14*
%TO.P,U5,GND5,GND*%
X143240000Y-128275000D03*
%TO.P,U5,LED,LED*%
%TO.N,unconnected-(U5-PadLED)*%
X141240000Y-128275000D03*
D12*
%TO.P,U5,ON/OFF,ON/OFF*%
%TO.N,unconnected-(U5-PadON/OFF)*%
X173990000Y-126365000D03*
%TO.P,U5,PROGRAM,PROGRAM*%
%TO.N,unconnected-(U5-PadPROGRAM)*%
X173990000Y-128905000D03*
D14*
%TO.P,U5,R+,R+*%
%TO.N,unconnected-(U5-PadR+)*%
X141240000Y-126275000D03*
%TO.P,U5,R-,R-*%
%TO.N,unconnected-(U5-PadR-)*%
X143240000Y-126275000D03*
%TO.P,U5,T+,T+*%
%TO.N,unconnected-(U5-PadT+)*%
X143240000Y-130275000D03*
%TO.P,U5,T-,T-*%
%TO.N,unconnected-(U5-PadT-)*%
X141240000Y-130275000D03*
D13*
%TO.P,U5,USB_GND1,USB_GND*%
%TO.N,GND*%
X142240000Y-136015000D03*
%TO.P,U5,USB_GND2,USB_GND*%
X144780000Y-136015000D03*
D12*
%TO.P,U5,VBAT,VBAT*%
%TO.N,unconnected-(U5-PadVBAT)*%
X173990000Y-136525000D03*
%TO.P,U5,VIN,VIN*%
%TO.N,5V*%
X128270000Y-123825000D03*
%TO.P,U5,VUSB,VUSB*%
%TO.N,unconnected-(U5-PadVUSB)*%
X130810000Y-126365000D03*
%TD*%
D10*
%TO.P,J6,1,Pin_1*%
%TO.N,LDR Out*%
X176895000Y-78740000D03*
D11*
%TO.P,J6,2,Pin_2*%
%TO.N,GND*%
X174895000Y-78740000D03*
%TD*%
D15*
%TO.P,C1,1*%
%TO.N,5V*%
X128905000Y-95542500D03*
%TO.P,C1,2*%
%TO.N,GND*%
X128905000Y-92417500D03*
%TD*%
D16*
%TO.P,C2,1*%
%TO.N,3.3V*%
X166027500Y-109220000D03*
%TO.P,C2,2*%
%TO.N,GND*%
X162902500Y-109220000D03*
%TD*%
D10*
%TO.P,J14,1,Pin_1*%
%TO.N,Lidar_TX*%
X136062514Y-116598429D03*
D11*
%TO.P,J14,2,Pin_2*%
%TO.N,Lidar_RX*%
X136062514Y-114598429D03*
%TO.P,J14,3,Pin_3*%
%TO.N,Lidar_PWM*%
X136062514Y-112598429D03*
%TD*%
D10*
%TO.P,J4,1,Pin_1*%
%TO.N,Net-(J4-Pad1)*%
X143780000Y-78740000D03*
D11*
%TO.P,J4,2,Pin_2*%
%TO.N,Net-(J4-Pad2)*%
X145780000Y-78740000D03*
%TD*%
D10*
%TO.P,J9,1,Pin_1*%
%TO.N,5V*%
X127635000Y-112665000D03*
D11*
%TO.P,J9,2,Pin_2*%
%TO.N,GND*%
X127635000Y-114665000D03*
%TD*%
D17*
%TO.P,R3,1*%
%TO.N,3.3V*%
X172720000Y-105852500D03*
%TO.P,R3,2*%
%TO.N,SDA*%
X172720000Y-108777500D03*
%TD*%
D18*
%TO.P,U7,1,AP_SDO/AD0*%
%TO.N,GND*%
X170922500Y-113907500D03*
%TO.P,U7,2,RESV_2*%
%TO.N,unconnected-(U7-Pad2)*%
X170922500Y-114407500D03*
%TO.P,U7,3,RESV_3*%
%TO.N,unconnected-(U7-Pad3)*%
X170922500Y-114907500D03*
%TO.P,U7,4,INT1/INT*%
%TO.N,INT1_ICM*%
X170922500Y-115407500D03*
D19*
%TO.P,U7,5,VDDIO*%
%TO.N,3.3V*%
X171585000Y-115570000D03*
%TO.P,U7,6,GND*%
%TO.N,GND*%
X172085000Y-115570000D03*
%TO.P,U7,7,FSYNC*%
%TO.N,FSYNC_ICM*%
X172585000Y-115570000D03*
D18*
%TO.P,U7,8,VDD*%
%TO.N,3.3V*%
X173247500Y-115407500D03*
%TO.P,U7,9,INT2*%
%TO.N,INT2_ICM*%
X173247500Y-114907500D03*
%TO.P,U7,10,RESV_10*%
%TO.N,unconnected-(U7-Pad10)*%
X173247500Y-114407500D03*
%TO.P,U7,11,RESV_11*%
%TO.N,unconnected-(U7-Pad11)*%
X173247500Y-113907500D03*
D19*
%TO.P,U7,12,AP_CS*%
%TO.N,3.3V*%
X172585000Y-113745000D03*
%TO.P,U7,13,AP_SCL/SCLK*%
%TO.N,SCLK*%
X172085000Y-113745000D03*
%TO.P,U7,14,AP_SDA/SDIO/SDI*%
%TO.N,SDA*%
X171585000Y-113745000D03*
%TD*%
D10*
%TO.P,J10,1,Pin_1*%
%TO.N,5V*%
X128270000Y-104140000D03*
D11*
%TO.P,J10,2,Pin_2*%
%TO.N,GND*%
X128270000Y-106140000D03*
%TD*%
D20*
%TO.P,C3,1*%
%TO.N,GND*%
X155815000Y-103822500D03*
%TO.P,C3,2*%
%TO.N,3.3V*%
X155815000Y-106947500D03*
%TD*%
D10*
%TO.P,J7,1,Pin_1*%
%TO.N,Net-(J7-Pad1)*%
X165735000Y-78687500D03*
D11*
%TO.P,J7,2,Pin_2*%
%TO.N,Net-(J7-Pad2)*%
X167735000Y-78687500D03*
%TD*%
D16*
%TO.P,C4,1*%
%TO.N,3.3V*%
X166027500Y-102235000D03*
%TO.P,C4,2*%
%TO.N,GND*%
X162902500Y-102235000D03*
%TD*%
D10*
%TO.P,J1,1,Pin_1*%
%TO.N,Net-(J1-Pad1)*%
X128540000Y-78740000D03*
D11*
%TO.P,J1,2,Pin_2*%
%TO.N,Net-(J1-Pad2)*%
X130540000Y-78740000D03*
%TD*%
D15*
%TO.P,C5,1*%
%TO.N,5V*%
X141605000Y-95542500D03*
%TO.P,C5,2*%
%TO.N,GND*%
X141605000Y-92417500D03*
%TD*%
%TO.P,C6,1*%
%TO.N,5V*%
X154940000Y-95542500D03*
%TO.P,C6,2*%
%TO.N,GND*%
X154940000Y-92417500D03*
%TD*%
D21*
%TO.P,REF1,1*%
%TO.N,N/C*%
X120650000Y-78740000D03*
%TD*%
D10*
%TO.P,J12,1,Pin_1*%
%TO.N,GND*%
X171990000Y-98425000D03*
D11*
%TO.P,J12,2,Pin_2*%
%TO.N,PDN*%
X171990000Y-96425000D03*
%TO.P,J12,3,Pin_3*%
%TO.N,WAKEUP*%
X171990000Y-94425000D03*
%TO.P,J12,4,Pin_4*%
%TO.N,3.3V*%
X171990000Y-92425000D03*
%TD*%
D21*
%TO.P,REF3,1*%
%TO.N,N/C*%
X121285000Y-144780000D03*
%TD*%
D22*
%TO.P,U3,1,IN_1*%
%TO.N,Mid Left Control 1*%
X146955000Y-96142500D03*
%TO.P,U3,2,IN_2*%
%TO.N,Mid Left Control 2*%
X147455000Y-96142500D03*
%TO.P,U3,3,VBB*%
%TO.N,5V*%
X147955000Y-96142500D03*
%TO.P,U3,4,IN_3*%
%TO.N,Mid Right Control 1*%
X148455000Y-96142500D03*
%TO.P,U3,5,IN_4*%
%TO.N,Mid Right Control 2*%
X148955000Y-96142500D03*
%TO.P,U3,6,OUT_4*%
%TO.N,Net-(J3-Pad2)*%
X148955000Y-91817500D03*
%TO.P,U3,7,OUT_3*%
%TO.N,Net-(J3-Pad1)*%
X148455000Y-91817500D03*
%TO.P,U3,8,GND*%
%TO.N,GND*%
X147955000Y-91817500D03*
%TO.P,U3,9,OUT_2*%
%TO.N,Net-(J4-Pad2)*%
X147455000Y-91817500D03*
%TO.P,U3,10,OUT_1*%
%TO.N,Net-(J4-Pad1)*%
X146955000Y-91817500D03*
D23*
%TO.P,U3,11*%
%TO.N,N/C*%
X148555000Y-93480000D03*
X148555000Y-94480000D03*
X147355000Y-94480000D03*
D24*
X147955000Y-93980000D03*
D23*
X147355000Y-93480000D03*
%TD*%
D25*
%TO.P,R1,1*%
%TO.N,3.3V*%
X180975000Y-84012500D03*
%TO.P,R1,2*%
%TO.N,LDR Out*%
X180975000Y-81087500D03*
%TD*%
D10*
%TO.P,J5,1,Pin_1*%
%TO.N,Net-(J5-Pad1)*%
X158115000Y-78740000D03*
D11*
%TO.P,J5,2,Pin_2*%
%TO.N,Net-(J5-Pad2)*%
X160115000Y-78740000D03*
%TD*%
D26*
%TO.P,R4,1*%
%TO.N,3.3V*%
X175702500Y-118110000D03*
%TO.P,R4,2*%
%TO.N,INTA*%
X178627500Y-118110000D03*
%TD*%
D27*
%TO.P,C9,1*%
%TO.N,3.3V*%
X185762500Y-117475000D03*
%TO.P,C9,2*%
%TO.N,GND*%
X188887500Y-117475000D03*
%TD*%
D17*
%TO.P,R2,1*%
%TO.N,3.3V*%
X177800000Y-105852500D03*
%TO.P,R2,2*%
%TO.N,SCLK*%
X177800000Y-108777500D03*
%TD*%
D10*
%TO.P,J11,1,Pin_1*%
%TO.N,RXD*%
X175705000Y-89535000D03*
D11*
%TO.P,J11,2,Pin_2*%
%TO.N,TXD*%
X177705000Y-89535000D03*
%TO.P,J11,3,Pin_3*%
%TO.N,GND*%
X179705000Y-89535000D03*
%TO.P,J11,4,Pin_4*%
%TO.N,unconnected-(J11-Pad4)*%
X181705000Y-89535000D03*
%TD*%
D16*
%TO.P,C7,1*%
%TO.N,3.3V*%
X166027500Y-113030000D03*
%TO.P,C7,2*%
%TO.N,GND*%
X162902500Y-113030000D03*
%TD*%
D21*
%TO.P,REF2,1*%
%TO.N,N/C*%
X186690000Y-78740000D03*
%TD*%
D10*
%TO.P,J2,1,Pin_1*%
%TO.N,Net-(J2-Pad1)*%
X136160000Y-78740000D03*
D11*
%TO.P,J2,2,Pin_2*%
%TO.N,Net-(J2-Pad2)*%
X138160000Y-78740000D03*
%TD*%
D28*
%TO.P,U6,1,A5*%
%TO.N,GND*%
X181470000Y-114185000D03*
%TO.P,U6,2,SDA*%
%TO.N,SDA*%
X181480000Y-114685000D03*
%TO.P,U6,3,VDDIO*%
%TO.N,3.3V*%
X181480000Y-115185000D03*
%TO.P,U6,4,NC*%
%TO.N,unconnected-(U6-Pad4)*%
X181470000Y-115685000D03*
D29*
%TO.P,U6,5,INTA*%
%TO.N,INTA*%
X181995000Y-115700000D03*
%TO.P,U6,6,INTM*%
%TO.N,INTM*%
X182495000Y-115700000D03*
D28*
%TO.P,U6,7,VDDM*%
%TO.N,3.3V*%
X183020000Y-115685000D03*
%TO.P,U6,8,TM*%
%TO.N,unconnected-(U6-Pad8)*%
X183010000Y-115185000D03*
%TO.P,U6,9,GND*%
%TO.N,GND*%
X183010000Y-114685000D03*
%TO.P,U6,10,PM*%
%TO.N,unconnected-(U6-Pad10)*%
X183020000Y-114185000D03*
D29*
%TO.P,U6,11,NC*%
%TO.N,unconnected-(U6-Pad11)*%
X182495000Y-114170000D03*
%TO.P,U6,12,SCL*%
%TO.N,SCLK*%
X181995000Y-114170000D03*
%TD*%
D10*
%TO.P,J8,1,Pin_1*%
%TO.N,5V*%
X131603627Y-112665019D03*
D11*
%TO.P,J8,2,Pin_2*%
%TO.N,GND*%
X131603627Y-114665019D03*
%TD*%
D22*
%TO.P,U1,1,IN_1*%
%TO.N,Front Left Control 1*%
X133620000Y-96142500D03*
%TO.P,U1,2,IN_2*%
%TO.N,Front Left Control 2*%
X134120000Y-96142500D03*
%TO.P,U1,3,VBB*%
%TO.N,5V*%
X134620000Y-96142500D03*
%TO.P,U1,4,IN_3*%
%TO.N,Front Right Control 1*%
X135120000Y-96142500D03*
%TO.P,U1,5,IN_4*%
%TO.N,Front Right Control 2*%
X135620000Y-96142500D03*
%TO.P,U1,6,OUT_4*%
%TO.N,Net-(J2-Pad2)*%
X135620000Y-91817500D03*
%TO.P,U1,7,OUT_3*%
%TO.N,Net-(J2-Pad1)*%
X135120000Y-91817500D03*
%TO.P,U1,8,GND*%
%TO.N,GND*%
X134620000Y-91817500D03*
%TO.P,U1,9,OUT_2*%
%TO.N,Net-(J1-Pad2)*%
X134120000Y-91817500D03*
%TO.P,U1,10,OUT_1*%
%TO.N,Net-(J1-Pad1)*%
X133620000Y-91817500D03*
D23*
%TO.P,U1,11*%
%TO.N,N/C*%
X134020000Y-94480000D03*
D24*
X134620000Y-93980000D03*
D23*
X135220000Y-94480000D03*
X135220000Y-93480000D03*
X134020000Y-93480000D03*
%TD*%
D10*
%TO.P,J3,1,Pin_1*%
%TO.N,Net-(J3-Pad1)*%
X151035000Y-78740000D03*
D11*
%TO.P,J3,2,Pin_2*%
%TO.N,Net-(J3-Pad2)*%
X153035000Y-78740000D03*
%TD*%
D22*
%TO.P,U4,1,IN_1*%
%TO.N,Rear Left Control 1*%
X159655000Y-96142500D03*
%TO.P,U4,2,IN_2*%
%TO.N,Rear Left Control 2*%
X160155000Y-96142500D03*
%TO.P,U4,3,VBB*%
%TO.N,5V*%
X160655000Y-96142500D03*
%TO.P,U4,4,IN_3*%
%TO.N,Rear Right Control 1*%
X161155000Y-96142500D03*
%TO.P,U4,5,IN_4*%
%TO.N,Rear Right Control 2*%
X161655000Y-96142500D03*
%TO.P,U4,6,OUT_4*%
%TO.N,Net-(J7-Pad2)*%
X161655000Y-91817500D03*
%TO.P,U4,7,OUT_3*%
%TO.N,Net-(J7-Pad1)*%
X161155000Y-91817500D03*
%TO.P,U4,8,GND*%
%TO.N,GND*%
X160655000Y-91817500D03*
%TO.P,U4,9,OUT_2*%
%TO.N,Net-(J5-Pad2)*%
X160155000Y-91817500D03*
%TO.P,U4,10,OUT_1*%
%TO.N,Net-(J5-Pad1)*%
X159655000Y-91817500D03*
D23*
%TO.P,U4,11*%
%TO.N,N/C*%
X161255000Y-93480000D03*
D24*
X160655000Y-93980000D03*
D23*
X161255000Y-94480000D03*
X160055000Y-93480000D03*
X160055000Y-94480000D03*
%TD*%
D21*
%TO.P,REF4,1*%
%TO.N,N/C*%
X186690000Y-145415000D03*
%TD*%
D15*
%TO.P,C8,1*%
%TO.N,GND*%
X142480000Y-106947500D03*
%TO.P,C8,2*%
%TO.N,5V*%
X142480000Y-103822500D03*
%TD*%
D30*
%TO.P,U2,1,GND*%
%TO.N,GND*%
X151765000Y-104140000D03*
%TO.P,U2,2,VO*%
%TO.N,3.3V*%
X149465000Y-104140000D03*
D31*
X149465000Y-110440000D03*
D30*
%TO.P,U2,3,VI*%
%TO.N,5V*%
X147165000Y-104140000D03*
%TD*%
D32*
%TO.N,GND*%
X141605000Y-89535000D03*
X142480000Y-109830000D03*
X170180000Y-112117500D03*
X185420000Y-114300000D03*
X134620000Y-89535000D03*
X128905000Y-89535000D03*
X155815000Y-100940000D03*
X154940000Y-90170000D03*
X179705000Y-113030000D03*
X147955000Y-89535000D03*
X172085000Y-117832500D03*
X160655000Y-89535000D03*
%TO.N,PDN*%
X169545000Y-119380000D03*
%TO.N,LDR Out*%
X183515000Y-81280000D03*
%TO.N,INTA*%
X180340000Y-118110000D03*
%TO.N,SCLK*%
X175260000Y-108585000D03*
X155892500Y-113982500D03*
X152400000Y-117475000D03*
%TO.N,SDA*%
X154305000Y-118110000D03*
X156845000Y-115570000D03*
X171585000Y-110355000D03*
X177165000Y-112395000D03*
%TO.N,FSYNC_ICM*%
X173355000Y-116840000D03*
%TO.N,INT2_ICM*%
X175260000Y-114300000D03*
%TO.N,INTM*%
X182880000Y-118745000D03*
%TO.N,Rear Left Control 1*%
X158115000Y-99060000D03*
%TO.N,Rear Left Control 2*%
X159385000Y-99060000D03*
%TO.N,Rear Right Control 1*%
X161925000Y-99060000D03*
%TO.N,Rear Right Control 2*%
X163195000Y-99060000D03*
%TO.N,Mid Left Control 1*%
X145415000Y-99060000D03*
%TO.N,Mid Left Control 2*%
X146685000Y-99058604D03*
%TO.N,Mid Right Control 1*%
X149225000Y-99058604D03*
%TO.N,Mid Right Control 2*%
X150495000Y-99058604D03*
%TO.N,Front Left Control 1*%
X132080000Y-99060000D03*
%TO.N,Front Left Control 2*%
X133350000Y-99060000D03*
%TO.N,Front Right Control 1*%
X135890000Y-99060000D03*
%TO.N,Front Right Control 2*%
X137160000Y-99060000D03*
%TD*%
D33*
%TO.N,3.3V*%
X183972500Y-115685000D02*
X185762500Y-117475000D01*
X180340000Y-116205000D02*
X180340000Y-115502272D01*
X171585000Y-115570000D02*
X171585000Y-116070000D01*
X183020000Y-115685000D02*
X183972500Y-115685000D01*
X171585000Y-116070000D02*
X170815000Y-116840000D01*
X180340000Y-115502272D02*
X180657272Y-115185000D01*
X173247500Y-115407500D02*
X175895000Y-115407500D01*
X172585000Y-113745000D02*
X172585000Y-113165000D01*
X180657272Y-115185000D02*
X181480000Y-115185000D01*
X172585000Y-113165000D02*
X173355000Y-112395000D01*
X149465000Y-104140000D02*
X149465000Y-110440000D01*
%TO.N,GND*%
X187325000Y-114300000D02*
X188887500Y-115862500D01*
X188887500Y-115862500D02*
X188887500Y-117475000D01*
X172085000Y-115570000D02*
X172085000Y-117832500D01*
X162902500Y-113030000D02*
X162902500Y-109220000D01*
X162902500Y-109220000D02*
X162902500Y-102235000D01*
X155815000Y-100940000D02*
X155815000Y-103822500D01*
X128905000Y-92417500D02*
X128905000Y-89535000D01*
X179705000Y-113030000D02*
X180315000Y-113030000D01*
X155497500Y-104140000D02*
X155815000Y-103822500D01*
X151765000Y-104140000D02*
X155497500Y-104140000D01*
X160655000Y-91817500D02*
X160655000Y-89535000D01*
X162902500Y-102235000D02*
X157110000Y-102235000D01*
X170180000Y-113165000D02*
X170922500Y-113907500D01*
X147955000Y-91817500D02*
X147955000Y-89535000D01*
X134620000Y-91817500D02*
X134620000Y-89535000D01*
X180315000Y-113030000D02*
X181470000Y-114185000D01*
X185420000Y-114300000D02*
X187325000Y-114300000D01*
X154940000Y-92417500D02*
X154940000Y-90170000D01*
X157110000Y-102235000D02*
X155815000Y-100940000D01*
X142480000Y-106947500D02*
X142480000Y-109830000D01*
X141605000Y-92417500D02*
X141605000Y-89535000D01*
X185420000Y-114300000D02*
X185035000Y-114685000D01*
X185035000Y-114685000D02*
X183010000Y-114685000D01*
X170180000Y-112117500D02*
X170180000Y-113165000D01*
%TO.N,5V*%
X147955000Y-96141104D02*
X147955000Y-99695000D01*
X134620000Y-96142500D02*
X134620000Y-99695000D01*
X160655000Y-96141104D02*
X160655000Y-99058604D01*
%TO.N,LDR Out*%
X181167500Y-81280000D02*
X180975000Y-81087500D01*
X183515000Y-81280000D02*
X179435000Y-81280000D01*
X179435000Y-81280000D02*
X176895000Y-78740000D01*
X183515000Y-81280000D02*
X181167500Y-81280000D01*
%TO.N,Net-(J1-Pad1)*%
X133620000Y-91075000D02*
X128540000Y-85995000D01*
X128540000Y-85995000D02*
X128540000Y-78740000D01*
X133620000Y-91817500D02*
X133620000Y-91075000D01*
%TO.N,Net-(J1-Pad2)*%
X134120000Y-90060305D02*
X130540000Y-86480305D01*
X130540000Y-86480305D02*
X130540000Y-78740000D01*
X134120000Y-91817500D02*
X134120000Y-90060305D01*
%TO.N,Net-(J2-Pad1)*%
X136160000Y-89020305D02*
X136160000Y-78740000D01*
X135120000Y-90060305D02*
X136160000Y-89020305D01*
X135120000Y-91817500D02*
X135120000Y-90060305D01*
%TO.N,Net-(J2-Pad2)*%
X135620000Y-90440000D02*
X138160000Y-87900000D01*
X138160000Y-87900000D02*
X138160000Y-78740000D01*
X135620000Y-91817500D02*
X135620000Y-90440000D01*
%TO.N,Net-(J3-Pad1)*%
X151035000Y-87480305D02*
X151035000Y-78740000D01*
X148455000Y-91817500D02*
X148455000Y-90060305D01*
X148455000Y-90060305D02*
X151035000Y-87480305D01*
%TO.N,Net-(J3-Pad2)*%
X148955000Y-91817500D02*
X148955000Y-91075000D01*
X153035000Y-86995000D02*
X153035000Y-78740000D01*
X148955000Y-91075000D02*
X153035000Y-86995000D01*
%TO.N,Net-(J4-Pad1)*%
X146955000Y-91817500D02*
X146955000Y-91075000D01*
X146955000Y-91075000D02*
X143780000Y-87900000D01*
X143780000Y-87900000D02*
X143780000Y-78740000D01*
%TO.N,Net-(J4-Pad2)*%
X145780000Y-88385305D02*
X145780000Y-78740000D01*
X147455000Y-90060305D02*
X145780000Y-88385305D01*
X147455000Y-91817500D02*
X147455000Y-90060305D01*
%TO.N,Net-(J5-Pad1)*%
X158115000Y-88900000D02*
X158115000Y-78740000D01*
X159655000Y-91817500D02*
X159655000Y-90440000D01*
X159655000Y-90440000D02*
X158115000Y-88900000D01*
%TO.N,Net-(J5-Pad2)*%
X160155000Y-91817500D02*
X160155000Y-90060305D01*
X160155000Y-90060305D02*
X159385000Y-89290305D01*
X159385000Y-89290305D02*
X159385000Y-80645000D01*
X159385000Y-80645000D02*
X160115000Y-79915000D01*
X160115000Y-79915000D02*
X160115000Y-78740000D01*
%TO.N,Net-(J7-Pad1)*%
X161155000Y-90305000D02*
X165735000Y-85725000D01*
X161155000Y-91817500D02*
X161155000Y-90305000D01*
X165735000Y-85725000D02*
X165735000Y-78687500D01*
%TO.N,Net-(J7-Pad2)*%
X161655000Y-91817500D02*
X161655000Y-90441396D01*
X161655000Y-90441396D02*
X167735000Y-84361396D01*
X167735000Y-84361396D02*
X167735000Y-78687500D01*
%TO.N,INTA*%
X181995000Y-116455000D02*
X180340000Y-118110000D01*
X181995000Y-115700000D02*
X181995000Y-116455000D01*
X178627500Y-118110000D02*
X180340000Y-118110000D01*
%TO.N,SCLK*%
X175260000Y-108585000D02*
X172085000Y-111760000D01*
X177800000Y-108777500D02*
X175452500Y-108777500D01*
X179897500Y-108777500D02*
X177800000Y-108777500D01*
X172085000Y-111760000D02*
X172085000Y-113665000D01*
X175452500Y-108777500D02*
X175260000Y-108585000D01*
X181995000Y-110875000D02*
X179897500Y-108777500D01*
X181995000Y-114170000D02*
X181995000Y-110875000D01*
%TO.N,SDA*%
X171585000Y-110355000D02*
X171585000Y-113745000D01*
X172720000Y-109220000D02*
X171585000Y-110355000D01*
X179455000Y-114685000D02*
X177165000Y-112395000D01*
X181480000Y-114685000D02*
X179455000Y-114685000D01*
X172720000Y-108777500D02*
X172720000Y-109220000D01*
%TO.N,FSYNC_ICM*%
X172585000Y-116070000D02*
X173355000Y-116840000D01*
X172585000Y-115570000D02*
X172585000Y-116070000D01*
%TO.N,INT2_ICM*%
X173247500Y-114907500D02*
X174652500Y-114907500D01*
X174652500Y-114907500D02*
X175260000Y-114300000D01*
%TO.N,INT1_ICM*%
X142240000Y-120015000D02*
X138430000Y-123825000D01*
X170922500Y-115407500D02*
X169072500Y-115407500D01*
X169072500Y-115407500D02*
X164465000Y-120015000D01*
X164465000Y-120015000D02*
X142240000Y-120015000D01*
%TO.N,INTM*%
X182495000Y-118360000D02*
X182880000Y-118745000D01*
X182495000Y-115700000D02*
X182495000Y-118360000D01*
%TO.N,Rear Left Control 1*%
X159655000Y-97520000D02*
X158115000Y-99060000D01*
X159655000Y-96142500D02*
X159655000Y-97520000D01*
%TO.N,Rear Left Control 2*%
X160155000Y-96142500D02*
X160155000Y-98290000D01*
X160155000Y-98290000D02*
X159385000Y-99060000D01*
%TO.N,Rear Right Control 1*%
X161155000Y-98290000D02*
X161925000Y-99060000D01*
X161155000Y-96142500D02*
X161155000Y-98290000D01*
%TO.N,Rear Right Control 2*%
X161655000Y-97520000D02*
X163195000Y-99060000D01*
X161655000Y-96142500D02*
X161655000Y-97520000D01*
%TO.N,Mid Left Control 1*%
X145415000Y-99060000D02*
X146955000Y-97520000D01*
X146955000Y-97520000D02*
X146955000Y-96141104D01*
%TO.N,Mid Left Control 2*%
X147455000Y-98288604D02*
X147455000Y-96141104D01*
X146685000Y-99058604D02*
X147455000Y-98288604D01*
%TO.N,Mid Right Control 1*%
X148455000Y-96141104D02*
X148455000Y-98290000D01*
X148455000Y-98290000D02*
X149223604Y-99058604D01*
X149223604Y-99058604D02*
X149225000Y-99058604D01*
%TO.N,Mid Right Control 2*%
X148955000Y-97518604D02*
X150495000Y-99058604D01*
X148955000Y-96141104D02*
X148955000Y-97518604D01*
%TO.N,Front Left Control 1*%
X133620000Y-96142500D02*
X133620000Y-97520000D01*
X133620000Y-97520000D02*
X132080000Y-99060000D01*
%TO.N,Front Left Control 2*%
X134120000Y-98290000D02*
X133350000Y-99060000D01*
X134120000Y-96142500D02*
X134120000Y-98290000D01*
%TO.N,Front Right Control 1*%
X135120000Y-98290000D02*
X135890000Y-99060000D01*
X135120000Y-96142500D02*
X135120000Y-98290000D01*
%TO.N,Front Right Control 2*%
X135620000Y-97520000D02*
X137160000Y-99060000D01*
X135620000Y-96142500D02*
X135620000Y-97520000D01*
%TD*%
%TA.AperFunction,Conductor*%
%TO.N,5V*%
G36*
X139700000Y-120524000D02*
G01*
X139679998Y-120592121D01*
X139626342Y-120638614D01*
X139574000Y-120650000D01*
X130175000Y-120650000D01*
X130175000Y-122779723D01*
X130154998Y-122847844D01*
X130124669Y-122879956D01*
X130123772Y-122880489D01*
X129963140Y-123021360D01*
X129830869Y-123189145D01*
X129828180Y-123194256D01*
X129828178Y-123194259D01*
X129814405Y-123220438D01*
X129731389Y-123378225D01*
X129729675Y-123383746D01*
X129729673Y-123383750D01*
X129705854Y-123460461D01*
X129668032Y-123582267D01*
X129667354Y-123587998D01*
X129667352Y-123588006D01*
X129665623Y-123602611D01*
X129637752Y-123667908D01*
X129579003Y-123707771D01*
X129508028Y-123709544D01*
X129447363Y-123672663D01*
X129416606Y-123610757D01*
X129415867Y-123606767D01*
X129361038Y-123412357D01*
X129356913Y-123401610D01*
X129267567Y-123220438D01*
X129263663Y-123214066D01*
X129253453Y-123206404D01*
X129241033Y-123213177D01*
X128642022Y-123812188D01*
X128634408Y-123826132D01*
X128634539Y-123827965D01*
X128638790Y-123834580D01*
X129239910Y-124435700D01*
X129252290Y-124442460D01*
X129258870Y-124437534D01*
X129333267Y-124304688D01*
X129337943Y-124294185D01*
X129402878Y-124102894D01*
X129405563Y-124091712D01*
X129413769Y-124035114D01*
X129443339Y-123970568D01*
X129503111Y-123932256D01*
X129574108Y-123932340D01*
X129633788Y-123970795D01*
X129660588Y-124022179D01*
X129709485Y-124214713D01*
X129798933Y-124408740D01*
X129922241Y-124583218D01*
X130075281Y-124732302D01*
X130119002Y-124761516D01*
X130164529Y-124815991D01*
X130175000Y-124866280D01*
X130175000Y-125319723D01*
X130154998Y-125387844D01*
X130124669Y-125419956D01*
X130123772Y-125420489D01*
X129963140Y-125561360D01*
X129959565Y-125565895D01*
X129959564Y-125565896D01*
X129868030Y-125682006D01*
X129810149Y-125723119D01*
X129769080Y-125730000D01*
X125856000Y-125730000D01*
X125787879Y-125709998D01*
X125741386Y-125656342D01*
X125730000Y-125604000D01*
X125730000Y-124805228D01*
X127654132Y-124805228D01*
X127664014Y-124817717D01*
X127708362Y-124847350D01*
X127718472Y-124852840D01*
X127904077Y-124932582D01*
X127915020Y-124936137D01*
X128112042Y-124980719D01*
X128123452Y-124982221D01*
X128325307Y-124990152D01*
X128336789Y-124989550D01*
X128536712Y-124960563D01*
X128547894Y-124957878D01*
X128739185Y-124892943D01*
X128749688Y-124888267D01*
X128877708Y-124816573D01*
X128887570Y-124806497D01*
X128884615Y-124798825D01*
X128282812Y-124197022D01*
X128268868Y-124189408D01*
X128267035Y-124189539D01*
X128260420Y-124193790D01*
X127660328Y-124793882D01*
X127654132Y-124805228D01*
X125730000Y-124805228D01*
X125730000Y-123800218D01*
X127103800Y-123800218D01*
X127117011Y-124001789D01*
X127118811Y-124013156D01*
X127168537Y-124208950D01*
X127172375Y-124219788D01*
X127256950Y-124403246D01*
X127262698Y-124413202D01*
X127277042Y-124433499D01*
X127287630Y-124441887D01*
X127300931Y-124434859D01*
X127897978Y-123837812D01*
X127905592Y-123823868D01*
X127905461Y-123822035D01*
X127901210Y-123815420D01*
X127298558Y-123212768D01*
X127286178Y-123206008D01*
X127280212Y-123210474D01*
X127194546Y-123373298D01*
X127190138Y-123383941D01*
X127130235Y-123576857D01*
X127127845Y-123588101D01*
X127104101Y-123788717D01*
X127103800Y-123800218D01*
X125730000Y-123800218D01*
X125730000Y-122844277D01*
X127653389Y-122844277D01*
X127656876Y-122852666D01*
X128257188Y-123452978D01*
X128271132Y-123460592D01*
X128272965Y-123460461D01*
X128279580Y-123456210D01*
X128879433Y-122856357D01*
X128886193Y-122843977D01*
X128880163Y-122835922D01*
X128804680Y-122788296D01*
X128794436Y-122783076D01*
X128606808Y-122708220D01*
X128595770Y-122704950D01*
X128397650Y-122665542D01*
X128386203Y-122664339D01*
X128184222Y-122661695D01*
X128172742Y-122662598D01*
X127973661Y-122696807D01*
X127962541Y-122699787D01*
X127773019Y-122769705D01*
X127762642Y-122774655D01*
X127662987Y-122833944D01*
X127653389Y-122844277D01*
X125730000Y-122844277D01*
X125730000Y-114633887D01*
X126446837Y-114633887D01*
X126461063Y-114850933D01*
X126462484Y-114856529D01*
X126462485Y-114856534D01*
X126513184Y-115056158D01*
X126514605Y-115061753D01*
X126517022Y-115066996D01*
X126577150Y-115197425D01*
X126605668Y-115259285D01*
X126731204Y-115436914D01*
X126735346Y-115440949D01*
X126796999Y-115501008D01*
X126887009Y-115588692D01*
X127067863Y-115709536D01*
X127073171Y-115711817D01*
X127073172Y-115711817D01*
X127262409Y-115793119D01*
X127262412Y-115793120D01*
X127267712Y-115795397D01*
X127273342Y-115796671D01*
X127371548Y-115818893D01*
X127479860Y-115843402D01*
X127485631Y-115843629D01*
X127485633Y-115843629D01*
X127558620Y-115846496D01*
X127697205Y-115851941D01*
X127912466Y-115820730D01*
X127917930Y-115818875D01*
X127917935Y-115818874D01*
X128112963Y-115752671D01*
X128112968Y-115752669D01*
X128118435Y-115750813D01*
X128308213Y-115644532D01*
X128475446Y-115505446D01*
X128614532Y-115338213D01*
X128720813Y-115148435D01*
X128722669Y-115142968D01*
X128722671Y-115142963D01*
X128788874Y-114947935D01*
X128788875Y-114947930D01*
X128790730Y-114942466D01*
X128821941Y-114727205D01*
X128823570Y-114665000D01*
X128820713Y-114633906D01*
X130415464Y-114633906D01*
X130429690Y-114850952D01*
X130431111Y-114856548D01*
X130431112Y-114856553D01*
X130464899Y-114989587D01*
X130483232Y-115061772D01*
X130574295Y-115259304D01*
X130699831Y-115436933D01*
X130855636Y-115588711D01*
X131036490Y-115709555D01*
X131041798Y-115711836D01*
X131041799Y-115711836D01*
X131231036Y-115793138D01*
X131231039Y-115793139D01*
X131236339Y-115795416D01*
X131241969Y-115796690D01*
X131340091Y-115818893D01*
X131448487Y-115843421D01*
X131454258Y-115843648D01*
X131454260Y-115843648D01*
X131527247Y-115846515D01*
X131665832Y-115851960D01*
X131881093Y-115820749D01*
X131886557Y-115818894D01*
X131886562Y-115818893D01*
X132081590Y-115752690D01*
X132081595Y-115752688D01*
X132087062Y-115750832D01*
X132276840Y-115644551D01*
X132444073Y-115505465D01*
X132583159Y-115338232D01*
X132689440Y-115148454D01*
X132691296Y-115142987D01*
X132691298Y-115142982D01*
X132757501Y-114947954D01*
X132757502Y-114947949D01*
X132759357Y-114942485D01*
X132790568Y-114727224D01*
X132792197Y-114665019D01*
X132783219Y-114567316D01*
X134874351Y-114567316D01*
X134888577Y-114784362D01*
X134889998Y-114789958D01*
X134889999Y-114789963D01*
X134930120Y-114947935D01*
X134942119Y-114995182D01*
X134944536Y-115000425D01*
X134975234Y-115067015D01*
X135033182Y-115192714D01*
X135129144Y-115328497D01*
X135152124Y-115395669D01*
X135135140Y-115464604D01*
X135101811Y-115502041D01*
X135092343Y-115509137D01*
X135024253Y-115560168D01*
X134936899Y-115676724D01*
X134885769Y-115813113D01*
X134879014Y-115875295D01*
X134879014Y-117321563D01*
X134885769Y-117383745D01*
X134936899Y-117520134D01*
X135024253Y-117636690D01*
X135140809Y-117724044D01*
X135277198Y-117775174D01*
X135339380Y-117781929D01*
X136785648Y-117781929D01*
X136847830Y-117775174D01*
X136984219Y-117724044D01*
X137100775Y-117636690D01*
X137188129Y-117520134D01*
X137239259Y-117383745D01*
X137246014Y-117321563D01*
X137246014Y-115875295D01*
X137239259Y-115813113D01*
X137188129Y-115676724D01*
X137100775Y-115560168D01*
X137022836Y-115501756D01*
X136980321Y-115444897D01*
X136975295Y-115374078D01*
X137001527Y-115320361D01*
X137038348Y-115276088D01*
X137042046Y-115271642D01*
X137148327Y-115081864D01*
X137150183Y-115076397D01*
X137150185Y-115076392D01*
X137216388Y-114881364D01*
X137216389Y-114881359D01*
X137218244Y-114875895D01*
X137249455Y-114660634D01*
X137251084Y-114598429D01*
X137231181Y-114381829D01*
X137172140Y-114172484D01*
X137075937Y-113977403D01*
X137046390Y-113937834D01*
X136949247Y-113807744D01*
X136949246Y-113807743D01*
X136945794Y-113803120D01*
X136901031Y-113761741D01*
X136823592Y-113690158D01*
X136787147Y-113629229D01*
X136789428Y-113558269D01*
X136828552Y-113500759D01*
X136853377Y-113480113D01*
X136902960Y-113438875D01*
X137042046Y-113271642D01*
X137148327Y-113081864D01*
X137150183Y-113076397D01*
X137150185Y-113076392D01*
X137216388Y-112881364D01*
X137216389Y-112881359D01*
X137218244Y-112875895D01*
X137249455Y-112660634D01*
X137251084Y-112598429D01*
X137231181Y-112381829D01*
X137172140Y-112172484D01*
X137075937Y-111977403D01*
X137046912Y-111938533D01*
X136949247Y-111807744D01*
X136949246Y-111807743D01*
X136945794Y-111803120D01*
X136890455Y-111751965D01*
X136790310Y-111659392D01*
X136790307Y-111659390D01*
X136786070Y-111655473D01*
X136602113Y-111539405D01*
X136400086Y-111458805D01*
X136186753Y-111416370D01*
X136180978Y-111416294D01*
X136180974Y-111416294D01*
X136071933Y-111414867D01*
X135969260Y-111413523D01*
X135963563Y-111414502D01*
X135963562Y-111414502D01*
X135760579Y-111449381D01*
X135760576Y-111449382D01*
X135754889Y-111450359D01*
X135550821Y-111525643D01*
X135417468Y-111604980D01*
X135389340Y-111621715D01*
X135363890Y-111636856D01*
X135200356Y-111780271D01*
X135196784Y-111784802D01*
X135070218Y-111945350D01*
X135065695Y-111951087D01*
X134964419Y-112143583D01*
X134899917Y-112351311D01*
X134874351Y-112567316D01*
X134888577Y-112784362D01*
X134889998Y-112789958D01*
X134889999Y-112789963D01*
X134940698Y-112989587D01*
X134942119Y-112995182D01*
X135033182Y-113192714D01*
X135158718Y-113370343D01*
X135274304Y-113482941D01*
X135302255Y-113510170D01*
X135337093Y-113572031D01*
X135332956Y-113642907D01*
X135297413Y-113695155D01*
X135200356Y-113780271D01*
X135196784Y-113784802D01*
X135073983Y-113940574D01*
X135065695Y-113951087D01*
X134964419Y-114143583D01*
X134899917Y-114351311D01*
X134874351Y-114567316D01*
X132783219Y-114567316D01*
X132772294Y-114448419D01*
X132770720Y-114442836D01*
X132714822Y-114244638D01*
X132713253Y-114239074D01*
X132617050Y-114043993D01*
X132613594Y-114039365D01*
X132613591Y-114039360D01*
X132537793Y-113937853D01*
X132513061Y-113871304D01*
X132528236Y-113801948D01*
X132563186Y-113761639D01*
X132634351Y-113708304D01*
X132646912Y-113695743D01*
X132723413Y-113593668D01*
X132731951Y-113578073D01*
X132777105Y-113457625D01*
X132780732Y-113442370D01*
X132786258Y-113391505D01*
X132786627Y-113384691D01*
X132786627Y-112937134D01*
X132782152Y-112921895D01*
X132780762Y-112920690D01*
X132773079Y-112919019D01*
X130438743Y-112919019D01*
X130423504Y-112923494D01*
X130422299Y-112924884D01*
X130420628Y-112932567D01*
X130420628Y-113384688D01*
X130420998Y-113391509D01*
X130426522Y-113442371D01*
X130430148Y-113457623D01*
X130475303Y-113578073D01*
X130483841Y-113593668D01*
X130560342Y-113695743D01*
X130572902Y-113708303D01*
X130644205Y-113761741D01*
X130686721Y-113818600D01*
X130691747Y-113889419D01*
X130667591Y-113940574D01*
X130634473Y-113982584D01*
X130606808Y-114017677D01*
X130505532Y-114210173D01*
X130503819Y-114215690D01*
X130459926Y-114357048D01*
X130441030Y-114417901D01*
X130415464Y-114633906D01*
X128820713Y-114633906D01*
X128803667Y-114448400D01*
X128796684Y-114423638D01*
X128774146Y-114343727D01*
X128744626Y-114239055D01*
X128648423Y-114043974D01*
X128644967Y-114039346D01*
X128644964Y-114039341D01*
X128569166Y-113937834D01*
X128544434Y-113871285D01*
X128559609Y-113801929D01*
X128594559Y-113761620D01*
X128665724Y-113708285D01*
X128678285Y-113695724D01*
X128754786Y-113593649D01*
X128763324Y-113578054D01*
X128808478Y-113457606D01*
X128812105Y-113442351D01*
X128817631Y-113391486D01*
X128818000Y-113384672D01*
X128818000Y-112937115D01*
X128813525Y-112921876D01*
X128812135Y-112920671D01*
X128804452Y-112919000D01*
X126470116Y-112919000D01*
X126454877Y-112923475D01*
X126453672Y-112924865D01*
X126452001Y-112932548D01*
X126452001Y-113384669D01*
X126452371Y-113391490D01*
X126457895Y-113442352D01*
X126461521Y-113457604D01*
X126506676Y-113578054D01*
X126515214Y-113593649D01*
X126591715Y-113695724D01*
X126604275Y-113708284D01*
X126675578Y-113761722D01*
X126718094Y-113818581D01*
X126723120Y-113889400D01*
X126698964Y-113940555D01*
X126665831Y-113982584D01*
X126638181Y-114017658D01*
X126536905Y-114210154D01*
X126535192Y-114215671D01*
X126485326Y-114376265D01*
X126472403Y-114417882D01*
X126446837Y-114633887D01*
X125730000Y-114633887D01*
X125730000Y-112392885D01*
X126452000Y-112392885D01*
X126456475Y-112408124D01*
X126457865Y-112409329D01*
X126465548Y-112411000D01*
X127362885Y-112411000D01*
X127378124Y-112406525D01*
X127379329Y-112405135D01*
X127381000Y-112397452D01*
X127381000Y-112392885D01*
X127889000Y-112392885D01*
X127893475Y-112408124D01*
X127894865Y-112409329D01*
X127902548Y-112411000D01*
X128799884Y-112411000D01*
X128815123Y-112406525D01*
X128816328Y-112405135D01*
X128817999Y-112397452D01*
X128817999Y-112392904D01*
X130420627Y-112392904D01*
X130425102Y-112408143D01*
X130426492Y-112409348D01*
X130434175Y-112411019D01*
X131331512Y-112411019D01*
X131346751Y-112406544D01*
X131347956Y-112405154D01*
X131349627Y-112397471D01*
X131349627Y-112392904D01*
X131857627Y-112392904D01*
X131862102Y-112408143D01*
X131863492Y-112409348D01*
X131871175Y-112411019D01*
X132768511Y-112411019D01*
X132783750Y-112406544D01*
X132784955Y-112405154D01*
X132786626Y-112397471D01*
X132786626Y-111945350D01*
X132786256Y-111938529D01*
X132780732Y-111887667D01*
X132777106Y-111872415D01*
X132731951Y-111751965D01*
X132723413Y-111736370D01*
X132646912Y-111634295D01*
X132634351Y-111621734D01*
X132532276Y-111545233D01*
X132516681Y-111536695D01*
X132396233Y-111491541D01*
X132380978Y-111487914D01*
X132330113Y-111482388D01*
X132323299Y-111482019D01*
X131875742Y-111482019D01*
X131860503Y-111486494D01*
X131859298Y-111487884D01*
X131857627Y-111495567D01*
X131857627Y-112392904D01*
X131349627Y-112392904D01*
X131349627Y-111500135D01*
X131345152Y-111484896D01*
X131343762Y-111483691D01*
X131336079Y-111482020D01*
X130883958Y-111482020D01*
X130877137Y-111482390D01*
X130826275Y-111487914D01*
X130811023Y-111491540D01*
X130690573Y-111536695D01*
X130674978Y-111545233D01*
X130572903Y-111621734D01*
X130560342Y-111634295D01*
X130483841Y-111736370D01*
X130475303Y-111751965D01*
X130430149Y-111872413D01*
X130426522Y-111887668D01*
X130420996Y-111938533D01*
X130420627Y-111945347D01*
X130420627Y-112392904D01*
X128817999Y-112392904D01*
X128817999Y-111945331D01*
X128817629Y-111938510D01*
X128812105Y-111887648D01*
X128808479Y-111872396D01*
X128763324Y-111751946D01*
X128754786Y-111736351D01*
X128678285Y-111634276D01*
X128665724Y-111621715D01*
X128563649Y-111545214D01*
X128548054Y-111536676D01*
X128427606Y-111491522D01*
X128412351Y-111487895D01*
X128361486Y-111482369D01*
X128354672Y-111482000D01*
X127907115Y-111482000D01*
X127891876Y-111486475D01*
X127890671Y-111487865D01*
X127889000Y-111495548D01*
X127889000Y-112392885D01*
X127381000Y-112392885D01*
X127381000Y-111500116D01*
X127376525Y-111484877D01*
X127375135Y-111483672D01*
X127367452Y-111482001D01*
X126915331Y-111482001D01*
X126908510Y-111482371D01*
X126857648Y-111487895D01*
X126842396Y-111491521D01*
X126721946Y-111536676D01*
X126706351Y-111545214D01*
X126604276Y-111621715D01*
X126591715Y-111634276D01*
X126515214Y-111736351D01*
X126506676Y-111751946D01*
X126461522Y-111872394D01*
X126457895Y-111887649D01*
X126452369Y-111938514D01*
X126452000Y-111945328D01*
X126452000Y-112392885D01*
X125730000Y-112392885D01*
X125730000Y-106108887D01*
X127081837Y-106108887D01*
X127096063Y-106325933D01*
X127097484Y-106331529D01*
X127097485Y-106331534D01*
X127148184Y-106531158D01*
X127149605Y-106536753D01*
X127240668Y-106734285D01*
X127366204Y-106911914D01*
X127522009Y-107063692D01*
X127702863Y-107184536D01*
X127708171Y-107186817D01*
X127708172Y-107186817D01*
X127897409Y-107268119D01*
X127897412Y-107268120D01*
X127902712Y-107270397D01*
X127908342Y-107271671D01*
X128006464Y-107293874D01*
X128114860Y-107318402D01*
X128120631Y-107318629D01*
X128120633Y-107318629D01*
X128193620Y-107321496D01*
X128332205Y-107326941D01*
X128547466Y-107295730D01*
X128552930Y-107293875D01*
X128552935Y-107293874D01*
X128747963Y-107227671D01*
X128747968Y-107227669D01*
X128753435Y-107225813D01*
X128943213Y-107119532D01*
X129110446Y-106980446D01*
X129249532Y-106813213D01*
X129355813Y-106623435D01*
X129357669Y-106617968D01*
X129357671Y-106617963D01*
X129423874Y-106422935D01*
X129423875Y-106422930D01*
X129425730Y-106417466D01*
X129456941Y-106202205D01*
X129458570Y-106140000D01*
X129438667Y-105923400D01*
X129379626Y-105714055D01*
X129283423Y-105518974D01*
X129279967Y-105514346D01*
X129279964Y-105514341D01*
X129204166Y-105412834D01*
X129179434Y-105346285D01*
X129194609Y-105276929D01*
X129229559Y-105236620D01*
X129300724Y-105183285D01*
X129313285Y-105170724D01*
X129389786Y-105068649D01*
X129398324Y-105053054D01*
X129443478Y-104932606D01*
X129447105Y-104917351D01*
X129452631Y-104866486D01*
X129453000Y-104859672D01*
X129453000Y-104412115D01*
X129448525Y-104396876D01*
X129447135Y-104395671D01*
X129439452Y-104394000D01*
X127105116Y-104394000D01*
X127089877Y-104398475D01*
X127088672Y-104399865D01*
X127087001Y-104407548D01*
X127087001Y-104859669D01*
X127087371Y-104866490D01*
X127092895Y-104917352D01*
X127096521Y-104932604D01*
X127141676Y-105053054D01*
X127150214Y-105068649D01*
X127226715Y-105170724D01*
X127239275Y-105183284D01*
X127310578Y-105236722D01*
X127353094Y-105293581D01*
X127358120Y-105364400D01*
X127333964Y-105415555D01*
X127273181Y-105492658D01*
X127171905Y-105685154D01*
X127107403Y-105892882D01*
X127081837Y-106108887D01*
X125730000Y-106108887D01*
X125730000Y-104140000D01*
X139700000Y-104140000D01*
X139700000Y-120524000D01*
G37*
%TD.AperFunction*%
%TD*%
%TA.AperFunction,Conductor*%
%TO.N,5V*%
G36*
X133063621Y-94000002D02*
G01*
X133110114Y-94053658D01*
X133121500Y-94106000D01*
X133121500Y-94893134D01*
X133121869Y-94896531D01*
X133127402Y-94947460D01*
X133128255Y-94955316D01*
X133131236Y-94963267D01*
X133131270Y-94963733D01*
X133132855Y-94970398D01*
X133131777Y-94970654D01*
X133136422Y-95034073D01*
X133113219Y-95084204D01*
X133035314Y-95185733D01*
X132976519Y-95327676D01*
X132961500Y-95441756D01*
X132961500Y-96843244D01*
X132976519Y-96957324D01*
X132979678Y-96964949D01*
X132981817Y-96972934D01*
X132979930Y-96973440D01*
X132986500Y-97006485D01*
X132986500Y-97205405D01*
X132966498Y-97273526D01*
X132949595Y-97294501D01*
X132129499Y-98114596D01*
X132067187Y-98148621D01*
X132040404Y-98151500D01*
X131984513Y-98151500D01*
X131978061Y-98152872D01*
X131978056Y-98152872D01*
X131891112Y-98171353D01*
X131797712Y-98191206D01*
X131791682Y-98193891D01*
X131791681Y-98193891D01*
X131629278Y-98266197D01*
X131629276Y-98266198D01*
X131623248Y-98268882D01*
X131468747Y-98381134D01*
X131340960Y-98523056D01*
X131245473Y-98688444D01*
X131186458Y-98870072D01*
X131166496Y-99060000D01*
X131186458Y-99249928D01*
X131245473Y-99431556D01*
X131340960Y-99596944D01*
X131468747Y-99738866D01*
X131623248Y-99851118D01*
X131629276Y-99853802D01*
X131629278Y-99853803D01*
X131788546Y-99924713D01*
X131797712Y-99928794D01*
X131891112Y-99948647D01*
X131978056Y-99967128D01*
X131978061Y-99967128D01*
X131984513Y-99968500D01*
X132175487Y-99968500D01*
X132181939Y-99967128D01*
X132181944Y-99967128D01*
X132268888Y-99948647D01*
X132362288Y-99928794D01*
X132371454Y-99924713D01*
X132530722Y-99853803D01*
X132530724Y-99853802D01*
X132536752Y-99851118D01*
X132640940Y-99775421D01*
X132707806Y-99751563D01*
X132776958Y-99767643D01*
X132789056Y-99775418D01*
X132893248Y-99851118D01*
X132899276Y-99853802D01*
X132899278Y-99853803D01*
X133058546Y-99924713D01*
X133067712Y-99928794D01*
X133161112Y-99948647D01*
X133248056Y-99967128D01*
X133248061Y-99967128D01*
X133254513Y-99968500D01*
X133445487Y-99968500D01*
X133451939Y-99967128D01*
X133451944Y-99967128D01*
X133538888Y-99948647D01*
X133632288Y-99928794D01*
X133641454Y-99924713D01*
X133800722Y-99853803D01*
X133800724Y-99853802D01*
X133806752Y-99851118D01*
X133961253Y-99738866D01*
X134089040Y-99596944D01*
X134184527Y-99431556D01*
X134243542Y-99249928D01*
X134260907Y-99084706D01*
X134287920Y-99019050D01*
X134297122Y-99008782D01*
X134512247Y-98793657D01*
X134520537Y-98786113D01*
X134527018Y-98782000D01*
X134532443Y-98776223D01*
X134538552Y-98771169D01*
X134540130Y-98773076D01*
X134590776Y-98743310D01*
X134661716Y-98746138D01*
X134710525Y-98776429D01*
X134942878Y-99008782D01*
X134976904Y-99071094D01*
X134979092Y-99084703D01*
X134996458Y-99249928D01*
X135055473Y-99431556D01*
X135150960Y-99596944D01*
X135278747Y-99738866D01*
X135433248Y-99851118D01*
X135439276Y-99853802D01*
X135439278Y-99853803D01*
X135598546Y-99924713D01*
X135607712Y-99928794D01*
X135701112Y-99948647D01*
X135788056Y-99967128D01*
X135788061Y-99967128D01*
X135794513Y-99968500D01*
X135985487Y-99968500D01*
X135991939Y-99967128D01*
X135991944Y-99967128D01*
X136078888Y-99948647D01*
X136172288Y-99928794D01*
X136181454Y-99924713D01*
X136340722Y-99853803D01*
X136340724Y-99853802D01*
X136346752Y-99851118D01*
X136450940Y-99775421D01*
X136517806Y-99751563D01*
X136586958Y-99767643D01*
X136599056Y-99775418D01*
X136703248Y-99851118D01*
X136709276Y-99853802D01*
X136709278Y-99853803D01*
X136868546Y-99924713D01*
X136877712Y-99928794D01*
X136971112Y-99948647D01*
X137058056Y-99967128D01*
X137058061Y-99967128D01*
X137064513Y-99968500D01*
X137255487Y-99968500D01*
X137261939Y-99967128D01*
X137261944Y-99967128D01*
X137348888Y-99948647D01*
X137442288Y-99928794D01*
X137451454Y-99924713D01*
X137610722Y-99853803D01*
X137610724Y-99853802D01*
X137616752Y-99851118D01*
X137771253Y-99738866D01*
X137899040Y-99596944D01*
X137994527Y-99431556D01*
X138053542Y-99249928D01*
X138073504Y-99060000D01*
X138053542Y-98870072D01*
X137994527Y-98688444D01*
X137899040Y-98523056D01*
X137771253Y-98381134D01*
X137616752Y-98268882D01*
X137610724Y-98266198D01*
X137610722Y-98266197D01*
X137448319Y-98193891D01*
X137448318Y-98193891D01*
X137442288Y-98191206D01*
X137348888Y-98171353D01*
X137261944Y-98152872D01*
X137261939Y-98152872D01*
X137255487Y-98151500D01*
X137199595Y-98151500D01*
X137131474Y-98131498D01*
X137110499Y-98114595D01*
X136290404Y-97294499D01*
X136256379Y-97232187D01*
X136253500Y-97205404D01*
X136253500Y-97006485D01*
X136260070Y-96973440D01*
X136258183Y-96972934D01*
X136260322Y-96964949D01*
X136263481Y-96957324D01*
X136278500Y-96843244D01*
X136278500Y-96002095D01*
X139747001Y-96002095D01*
X139747338Y-96008614D01*
X139757257Y-96104206D01*
X139760149Y-96117600D01*
X139811588Y-96271784D01*
X139817761Y-96284962D01*
X139903063Y-96422807D01*
X139912099Y-96434208D01*
X140026829Y-96548739D01*
X140038240Y-96557751D01*
X140176243Y-96642816D01*
X140189424Y-96648963D01*
X140343710Y-96700138D01*
X140357086Y-96703005D01*
X140451438Y-96712672D01*
X140457854Y-96713000D01*
X141332885Y-96713000D01*
X141348124Y-96708525D01*
X141349329Y-96707135D01*
X141351000Y-96699452D01*
X141351000Y-96694884D01*
X141859000Y-96694884D01*
X141863475Y-96710123D01*
X141864865Y-96711328D01*
X141872548Y-96712999D01*
X142752095Y-96712999D01*
X142758614Y-96712662D01*
X142854206Y-96702743D01*
X142867600Y-96699851D01*
X143021784Y-96648412D01*
X143034962Y-96642239D01*
X143172807Y-96556937D01*
X143184208Y-96547901D01*
X143298739Y-96433171D01*
X143307751Y-96421760D01*
X143392816Y-96283757D01*
X143398963Y-96270576D01*
X143450138Y-96116290D01*
X143453005Y-96102914D01*
X143462672Y-96008562D01*
X143463000Y-96002146D01*
X143463000Y-95814615D01*
X143458525Y-95799376D01*
X143457135Y-95798171D01*
X143449452Y-95796500D01*
X141877115Y-95796500D01*
X141861876Y-95800975D01*
X141860671Y-95802365D01*
X141859000Y-95810048D01*
X141859000Y-96694884D01*
X141351000Y-96694884D01*
X141351000Y-95814615D01*
X141346525Y-95799376D01*
X141345135Y-95798171D01*
X141337452Y-95796500D01*
X139765116Y-95796500D01*
X139749877Y-95800975D01*
X139748672Y-95802365D01*
X139747001Y-95810048D01*
X139747001Y-96002095D01*
X136278500Y-96002095D01*
X136278500Y-95441756D01*
X136263481Y-95327676D01*
X136244825Y-95282635D01*
X136239751Y-95270385D01*
X139747000Y-95270385D01*
X139751475Y-95285624D01*
X139752865Y-95286829D01*
X139760548Y-95288500D01*
X141332885Y-95288500D01*
X141348124Y-95284025D01*
X141349329Y-95282635D01*
X141351000Y-95274952D01*
X141351000Y-95270385D01*
X141859000Y-95270385D01*
X141863475Y-95285624D01*
X141864865Y-95286829D01*
X141872548Y-95288500D01*
X143444884Y-95288500D01*
X143460123Y-95284025D01*
X143461328Y-95282635D01*
X143462999Y-95274952D01*
X143462999Y-95082905D01*
X143462662Y-95076386D01*
X143452743Y-94980794D01*
X143449851Y-94967400D01*
X143398412Y-94813216D01*
X143392239Y-94800038D01*
X143306937Y-94662193D01*
X143297901Y-94650792D01*
X143183171Y-94536261D01*
X143171760Y-94527249D01*
X143033757Y-94442184D01*
X143020576Y-94436037D01*
X142866290Y-94384862D01*
X142852914Y-94381995D01*
X142758562Y-94372328D01*
X142752145Y-94372000D01*
X141877115Y-94372000D01*
X141861876Y-94376475D01*
X141860671Y-94377865D01*
X141859000Y-94385548D01*
X141859000Y-95270385D01*
X141351000Y-95270385D01*
X141351000Y-94390116D01*
X141346525Y-94374877D01*
X141345135Y-94373672D01*
X141337452Y-94372001D01*
X140457905Y-94372001D01*
X140451386Y-94372338D01*
X140355794Y-94382257D01*
X140342400Y-94385149D01*
X140188216Y-94436588D01*
X140175038Y-94442761D01*
X140037193Y-94528063D01*
X140025792Y-94537099D01*
X139911261Y-94651829D01*
X139902249Y-94663240D01*
X139817184Y-94801243D01*
X139811037Y-94814424D01*
X139759862Y-94968710D01*
X139756995Y-94982086D01*
X139747328Y-95076438D01*
X139747000Y-95082855D01*
X139747000Y-95270385D01*
X136239751Y-95270385D01*
X136234084Y-95256704D01*
X136204686Y-95185732D01*
X136126782Y-95084206D01*
X136101181Y-95017986D01*
X136107755Y-94970545D01*
X136107144Y-94970400D01*
X136108658Y-94964033D01*
X136108764Y-94963267D01*
X136108765Y-94963266D01*
X136111745Y-94955316D01*
X136118500Y-94893134D01*
X136118500Y-94106000D01*
X136138502Y-94037879D01*
X136192158Y-93991386D01*
X136244500Y-93980000D01*
X146330500Y-93980000D01*
X146398621Y-94000002D01*
X146445114Y-94053658D01*
X146456500Y-94106000D01*
X146456500Y-94893134D01*
X146456869Y-94896531D01*
X146462402Y-94947460D01*
X146463255Y-94955316D01*
X146466236Y-94963267D01*
X146466270Y-94963733D01*
X146467855Y-94970398D01*
X146466777Y-94970654D01*
X146471422Y-95034073D01*
X146448219Y-95084204D01*
X146370314Y-95185733D01*
X146311519Y-95327676D01*
X146296500Y-95441756D01*
X146296500Y-96843244D01*
X146311519Y-96957324D01*
X146314678Y-96964949D01*
X146316817Y-96972934D01*
X146314930Y-96973440D01*
X146321500Y-97006485D01*
X146321500Y-97205405D01*
X146301498Y-97273526D01*
X146284595Y-97294501D01*
X145464499Y-98114596D01*
X145402187Y-98148621D01*
X145375404Y-98151500D01*
X145319513Y-98151500D01*
X145313061Y-98152872D01*
X145313056Y-98152872D01*
X145226112Y-98171353D01*
X145132712Y-98191206D01*
X145126682Y-98193891D01*
X145126681Y-98193891D01*
X144964278Y-98266197D01*
X144964276Y-98266198D01*
X144958248Y-98268882D01*
X144803747Y-98381134D01*
X144675960Y-98523056D01*
X144580473Y-98688444D01*
X144521458Y-98870072D01*
X144501496Y-99060000D01*
X144521458Y-99249928D01*
X144580473Y-99431556D01*
X144675960Y-99596944D01*
X144803747Y-99738866D01*
X144958248Y-99851118D01*
X144964276Y-99853802D01*
X144964278Y-99853803D01*
X145123546Y-99924713D01*
X145132712Y-99928794D01*
X145226112Y-99948647D01*
X145313056Y-99967128D01*
X145313061Y-99967128D01*
X145319513Y-99968500D01*
X145510487Y-99968500D01*
X145516939Y-99967128D01*
X145516944Y-99967128D01*
X145603888Y-99948647D01*
X145697288Y-99928794D01*
X145706454Y-99924713D01*
X145865722Y-99853803D01*
X145865724Y-99853802D01*
X145871752Y-99851118D01*
X145976901Y-99774723D01*
X146043767Y-99750865D01*
X146112919Y-99766945D01*
X146125007Y-99774713D01*
X146228248Y-99849722D01*
X146234276Y-99852406D01*
X146234278Y-99852407D01*
X146396681Y-99924713D01*
X146402712Y-99927398D01*
X146496113Y-99947251D01*
X146583056Y-99965732D01*
X146583061Y-99965732D01*
X146589513Y-99967104D01*
X146780487Y-99967104D01*
X146786939Y-99965732D01*
X146786944Y-99965732D01*
X146873887Y-99947251D01*
X146967288Y-99927398D01*
X146973319Y-99924713D01*
X147135722Y-99852407D01*
X147135724Y-99852406D01*
X147141752Y-99849722D01*
X147296253Y-99737470D01*
X147424040Y-99595548D01*
X147519527Y-99430160D01*
X147578542Y-99248532D01*
X147595907Y-99083310D01*
X147622920Y-99017654D01*
X147632122Y-99007386D01*
X147847247Y-98792261D01*
X147855537Y-98784717D01*
X147862018Y-98780604D01*
X147867443Y-98774827D01*
X147873552Y-98769773D01*
X147875310Y-98771898D01*
X147925098Y-98742634D01*
X147996038Y-98745461D01*
X148044849Y-98775753D01*
X148278042Y-99008946D01*
X148312068Y-99071258D01*
X148314256Y-99084866D01*
X148331458Y-99248532D01*
X148390473Y-99430160D01*
X148485960Y-99595548D01*
X148613747Y-99737470D01*
X148768248Y-99849722D01*
X148774276Y-99852406D01*
X148774278Y-99852407D01*
X148936681Y-99924713D01*
X148942712Y-99927398D01*
X149036113Y-99947251D01*
X149123056Y-99965732D01*
X149123061Y-99965732D01*
X149129513Y-99967104D01*
X149320487Y-99967104D01*
X149326939Y-99965732D01*
X149326944Y-99965732D01*
X149413887Y-99947251D01*
X149507288Y-99927398D01*
X149513319Y-99924713D01*
X149675722Y-99852407D01*
X149675724Y-99852406D01*
X149681752Y-99849722D01*
X149785940Y-99774025D01*
X149852806Y-99750167D01*
X149921958Y-99766247D01*
X149934056Y-99774022D01*
X150038248Y-99849722D01*
X150044276Y-99852406D01*
X150044278Y-99852407D01*
X150206681Y-99924713D01*
X150212712Y-99927398D01*
X150306113Y-99947251D01*
X150393056Y-99965732D01*
X150393061Y-99965732D01*
X150399513Y-99967104D01*
X150590487Y-99967104D01*
X150596939Y-99965732D01*
X150596944Y-99965732D01*
X150683887Y-99947251D01*
X150777288Y-99927398D01*
X150783319Y-99924713D01*
X150945722Y-99852407D01*
X150945724Y-99852406D01*
X150951752Y-99849722D01*
X151106253Y-99737470D01*
X151234040Y-99595548D01*
X151329527Y-99430160D01*
X151388542Y-99248532D01*
X151405761Y-99084707D01*
X151407814Y-99065169D01*
X151408504Y-99058604D01*
X151388542Y-98868676D01*
X151329527Y-98687048D01*
X151234040Y-98521660D01*
X151106253Y-98379738D01*
X150951752Y-98267486D01*
X150945724Y-98264802D01*
X150945722Y-98264801D01*
X150783319Y-98192495D01*
X150783318Y-98192495D01*
X150777288Y-98189810D01*
X150683888Y-98169957D01*
X150596944Y-98151476D01*
X150596939Y-98151476D01*
X150590487Y-98150104D01*
X150534595Y-98150104D01*
X150466474Y-98130102D01*
X150445499Y-98113199D01*
X149625404Y-97293103D01*
X149591379Y-97230791D01*
X149588500Y-97204008D01*
X149588500Y-97006485D01*
X149595070Y-96973440D01*
X149593183Y-96972934D01*
X149595322Y-96964949D01*
X149598481Y-96957324D01*
X149613500Y-96843244D01*
X149613500Y-96002095D01*
X153082001Y-96002095D01*
X153082338Y-96008614D01*
X153092257Y-96104206D01*
X153095149Y-96117600D01*
X153146588Y-96271784D01*
X153152761Y-96284962D01*
X153238063Y-96422807D01*
X153247099Y-96434208D01*
X153361829Y-96548739D01*
X153373240Y-96557751D01*
X153511243Y-96642816D01*
X153524424Y-96648963D01*
X153678710Y-96700138D01*
X153692086Y-96703005D01*
X153786438Y-96712672D01*
X153792854Y-96713000D01*
X154667885Y-96713000D01*
X154683124Y-96708525D01*
X154684329Y-96707135D01*
X154686000Y-96699452D01*
X154686000Y-96694884D01*
X155194000Y-96694884D01*
X155198475Y-96710123D01*
X155199865Y-96711328D01*
X155207548Y-96712999D01*
X156087095Y-96712999D01*
X156093614Y-96712662D01*
X156189206Y-96702743D01*
X156202600Y-96699851D01*
X156356784Y-96648412D01*
X156369962Y-96642239D01*
X156507807Y-96556937D01*
X156519208Y-96547901D01*
X156633739Y-96433171D01*
X156642751Y-96421760D01*
X156727816Y-96283757D01*
X156733963Y-96270576D01*
X156785138Y-96116290D01*
X156788005Y-96102914D01*
X156797672Y-96008562D01*
X156798000Y-96002146D01*
X156798000Y-95814615D01*
X156793525Y-95799376D01*
X156792135Y-95798171D01*
X156784452Y-95796500D01*
X155212115Y-95796500D01*
X155196876Y-95800975D01*
X155195671Y-95802365D01*
X155194000Y-95810048D01*
X155194000Y-96694884D01*
X154686000Y-96694884D01*
X154686000Y-95814615D01*
X154681525Y-95799376D01*
X154680135Y-95798171D01*
X154672452Y-95796500D01*
X153100116Y-95796500D01*
X153084877Y-95800975D01*
X153083672Y-95802365D01*
X153082001Y-95810048D01*
X153082001Y-96002095D01*
X149613500Y-96002095D01*
X149613500Y-95441756D01*
X149598481Y-95327676D01*
X149579825Y-95282635D01*
X149574751Y-95270385D01*
X153082000Y-95270385D01*
X153086475Y-95285624D01*
X153087865Y-95286829D01*
X153095548Y-95288500D01*
X154667885Y-95288500D01*
X154683124Y-95284025D01*
X154684329Y-95282635D01*
X154686000Y-95274952D01*
X154686000Y-95270385D01*
X155194000Y-95270385D01*
X155198475Y-95285624D01*
X155199865Y-95286829D01*
X155207548Y-95288500D01*
X156779884Y-95288500D01*
X156795123Y-95284025D01*
X156796328Y-95282635D01*
X156797999Y-95274952D01*
X156797999Y-95082905D01*
X156797662Y-95076386D01*
X156787743Y-94980794D01*
X156784851Y-94967400D01*
X156733412Y-94813216D01*
X156727239Y-94800038D01*
X156641937Y-94662193D01*
X156632901Y-94650792D01*
X156518171Y-94536261D01*
X156506760Y-94527249D01*
X156368757Y-94442184D01*
X156355576Y-94436037D01*
X156201290Y-94384862D01*
X156187914Y-94381995D01*
X156093562Y-94372328D01*
X156087145Y-94372000D01*
X155212115Y-94372000D01*
X155196876Y-94376475D01*
X155195671Y-94377865D01*
X155194000Y-94385548D01*
X155194000Y-95270385D01*
X154686000Y-95270385D01*
X154686000Y-94390116D01*
X154681525Y-94374877D01*
X154680135Y-94373672D01*
X154672452Y-94372001D01*
X153792905Y-94372001D01*
X153786386Y-94372338D01*
X153690794Y-94382257D01*
X153677400Y-94385149D01*
X153523216Y-94436588D01*
X153510038Y-94442761D01*
X153372193Y-94528063D01*
X153360792Y-94537099D01*
X153246261Y-94651829D01*
X153237249Y-94663240D01*
X153152184Y-94801243D01*
X153146037Y-94814424D01*
X153094862Y-94968710D01*
X153091995Y-94982086D01*
X153082328Y-95076438D01*
X153082000Y-95082855D01*
X153082000Y-95270385D01*
X149574751Y-95270385D01*
X149569084Y-95256704D01*
X149539686Y-95185732D01*
X149461782Y-95084206D01*
X149436181Y-95017986D01*
X149442755Y-94970545D01*
X149442144Y-94970400D01*
X149443658Y-94964033D01*
X149443764Y-94963267D01*
X149443765Y-94963266D01*
X149446745Y-94955316D01*
X149453500Y-94893134D01*
X149453500Y-94106000D01*
X149473502Y-94037879D01*
X149527158Y-93991386D01*
X149579500Y-93980000D01*
X159030500Y-93980000D01*
X159098621Y-94000002D01*
X159145114Y-94053658D01*
X159156500Y-94106000D01*
X159156500Y-94893134D01*
X159156869Y-94896531D01*
X159162402Y-94947460D01*
X159163255Y-94955316D01*
X159166236Y-94963267D01*
X159166270Y-94963733D01*
X159167855Y-94970398D01*
X159166777Y-94970654D01*
X159171422Y-95034073D01*
X159148219Y-95084204D01*
X159070314Y-95185733D01*
X159011519Y-95327676D01*
X158996500Y-95441756D01*
X158996500Y-96843244D01*
X159011519Y-96957324D01*
X159014678Y-96964949D01*
X159016817Y-96972934D01*
X159014930Y-96973440D01*
X159021500Y-97006485D01*
X159021500Y-97205405D01*
X159001498Y-97273526D01*
X158984595Y-97294501D01*
X158164499Y-98114596D01*
X158102187Y-98148621D01*
X158075404Y-98151500D01*
X158019513Y-98151500D01*
X158013061Y-98152872D01*
X158013056Y-98152872D01*
X157926112Y-98171353D01*
X157832712Y-98191206D01*
X157826682Y-98193891D01*
X157826681Y-98193891D01*
X157664278Y-98266197D01*
X157664276Y-98266198D01*
X157658248Y-98268882D01*
X157503747Y-98381134D01*
X157375960Y-98523056D01*
X157280473Y-98688444D01*
X157221458Y-98870072D01*
X157201496Y-99060000D01*
X157221458Y-99249928D01*
X157280473Y-99431556D01*
X157375960Y-99596944D01*
X157503747Y-99738866D01*
X157658248Y-99851118D01*
X157664276Y-99853802D01*
X157664278Y-99853803D01*
X157823546Y-99924713D01*
X157832712Y-99928794D01*
X157926112Y-99948647D01*
X158013056Y-99967128D01*
X158013061Y-99967128D01*
X158019513Y-99968500D01*
X158210487Y-99968500D01*
X158216939Y-99967128D01*
X158216944Y-99967128D01*
X158303888Y-99948647D01*
X158397288Y-99928794D01*
X158406454Y-99924713D01*
X158565722Y-99853803D01*
X158565724Y-99853802D01*
X158571752Y-99851118D01*
X158675940Y-99775421D01*
X158742806Y-99751563D01*
X158811958Y-99767643D01*
X158824056Y-99775418D01*
X158928248Y-99851118D01*
X158934276Y-99853802D01*
X158934278Y-99853803D01*
X159093546Y-99924713D01*
X159102712Y-99928794D01*
X159196112Y-99948647D01*
X159283056Y-99967128D01*
X159283061Y-99967128D01*
X159289513Y-99968500D01*
X159480487Y-99968500D01*
X159486939Y-99967128D01*
X159486944Y-99967128D01*
X159573888Y-99948647D01*
X159667288Y-99928794D01*
X159676454Y-99924713D01*
X159835722Y-99853803D01*
X159835724Y-99853802D01*
X159841752Y-99851118D01*
X159996253Y-99738866D01*
X160124040Y-99596944D01*
X160219527Y-99431556D01*
X160278542Y-99249928D01*
X160295907Y-99084706D01*
X160322920Y-99019050D01*
X160332122Y-99008782D01*
X160547247Y-98793657D01*
X160555537Y-98786113D01*
X160562018Y-98782000D01*
X160567443Y-98776223D01*
X160573552Y-98771169D01*
X160575130Y-98773076D01*
X160625776Y-98743310D01*
X160696716Y-98746138D01*
X160745525Y-98776429D01*
X160977878Y-99008782D01*
X161011904Y-99071094D01*
X161014092Y-99084703D01*
X161031458Y-99249928D01*
X161090473Y-99431556D01*
X161185960Y-99596944D01*
X161313747Y-99738866D01*
X161468248Y-99851118D01*
X161474276Y-99853802D01*
X161474278Y-99853803D01*
X161633546Y-99924713D01*
X161642712Y-99928794D01*
X161736112Y-99948647D01*
X161823056Y-99967128D01*
X161823061Y-99967128D01*
X161829513Y-99968500D01*
X162020487Y-99968500D01*
X162026939Y-99967128D01*
X162026944Y-99967128D01*
X162113888Y-99948647D01*
X162207288Y-99928794D01*
X162216454Y-99924713D01*
X162375722Y-99853803D01*
X162375724Y-99853802D01*
X162381752Y-99851118D01*
X162485940Y-99775421D01*
X162552806Y-99751563D01*
X162621958Y-99767643D01*
X162634056Y-99775418D01*
X162738248Y-99851118D01*
X162744276Y-99853802D01*
X162744278Y-99853803D01*
X162903546Y-99924713D01*
X162912712Y-99928794D01*
X163006112Y-99948647D01*
X163093056Y-99967128D01*
X163093061Y-99967128D01*
X163099513Y-99968500D01*
X163290487Y-99968500D01*
X163296939Y-99967128D01*
X163296944Y-99967128D01*
X163383888Y-99948647D01*
X163477288Y-99928794D01*
X163486454Y-99924713D01*
X163645722Y-99853803D01*
X163645724Y-99853802D01*
X163651752Y-99851118D01*
X163806253Y-99738866D01*
X163934040Y-99596944D01*
X164029527Y-99431556D01*
X164088542Y-99249928D01*
X164108504Y-99060000D01*
X164088542Y-98870072D01*
X164029527Y-98688444D01*
X163934040Y-98523056D01*
X163806253Y-98381134D01*
X163651752Y-98268882D01*
X163645724Y-98266198D01*
X163645722Y-98266197D01*
X163483319Y-98193891D01*
X163483318Y-98193891D01*
X163477288Y-98191206D01*
X163383888Y-98171353D01*
X163296944Y-98152872D01*
X163296939Y-98152872D01*
X163290487Y-98151500D01*
X163234595Y-98151500D01*
X163166474Y-98131498D01*
X163145499Y-98114595D01*
X162325404Y-97294499D01*
X162291379Y-97232187D01*
X162288500Y-97205404D01*
X162288500Y-97006485D01*
X162295070Y-96973440D01*
X162293183Y-96972934D01*
X162295322Y-96964949D01*
X162298481Y-96957324D01*
X162313500Y-96843244D01*
X162313500Y-95441756D01*
X162298481Y-95327676D01*
X162279825Y-95282635D01*
X162269084Y-95256704D01*
X162239686Y-95185732D01*
X162161782Y-95084206D01*
X162136181Y-95017986D01*
X162142755Y-94970545D01*
X162142144Y-94970400D01*
X162143658Y-94964033D01*
X162143764Y-94963267D01*
X162143765Y-94963266D01*
X162146745Y-94955316D01*
X162153500Y-94893134D01*
X162153500Y-94106000D01*
X162173502Y-94037879D01*
X162227158Y-93991386D01*
X162279500Y-93980000D01*
X164339000Y-93980000D01*
X164407121Y-94000002D01*
X164453614Y-94053658D01*
X164465000Y-94106000D01*
X164465000Y-104649001D01*
X164444998Y-104717122D01*
X164391342Y-104763615D01*
X164339001Y-104775001D01*
X164145516Y-104775003D01*
X163661999Y-104775008D01*
X163593880Y-104755007D01*
X163547387Y-104701351D01*
X163536000Y-104649008D01*
X163536000Y-104151686D01*
X163556002Y-104083565D01*
X163609658Y-104037072D01*
X163622115Y-104032165D01*
X163638946Y-104026550D01*
X163789348Y-103933478D01*
X163914305Y-103808303D01*
X164007115Y-103657738D01*
X164062797Y-103489861D01*
X164073500Y-103385400D01*
X164073500Y-101084600D01*
X164062526Y-100978834D01*
X164006550Y-100811054D01*
X163913478Y-100660652D01*
X163788303Y-100535695D01*
X163782072Y-100531854D01*
X163643968Y-100446725D01*
X163643966Y-100446724D01*
X163637738Y-100442885D01*
X163517657Y-100403056D01*
X163476389Y-100389368D01*
X163476387Y-100389368D01*
X163469861Y-100387203D01*
X163463025Y-100386503D01*
X163463022Y-100386502D01*
X163419969Y-100382091D01*
X163365400Y-100376500D01*
X162439600Y-100376500D01*
X162436354Y-100376837D01*
X162436350Y-100376837D01*
X162340692Y-100386762D01*
X162340688Y-100386763D01*
X162333834Y-100387474D01*
X162327298Y-100389655D01*
X162327296Y-100389655D01*
X162301840Y-100398148D01*
X162166054Y-100443450D01*
X162015652Y-100536522D01*
X161890695Y-100661697D01*
X161886855Y-100667927D01*
X161886854Y-100667928D01*
X161836220Y-100750072D01*
X161797885Y-100812262D01*
X161742203Y-100980139D01*
X161731500Y-101084600D01*
X161731500Y-101475500D01*
X161711498Y-101543621D01*
X161657842Y-101590114D01*
X161605500Y-101601500D01*
X157424594Y-101601500D01*
X157356473Y-101581498D01*
X157335499Y-101564595D01*
X156762122Y-100991218D01*
X156728096Y-100928906D01*
X156725907Y-100915293D01*
X156709232Y-100756635D01*
X156709232Y-100756633D01*
X156708542Y-100750072D01*
X156649527Y-100568444D01*
X156554040Y-100403056D01*
X156530433Y-100376837D01*
X156430675Y-100266045D01*
X156430674Y-100266044D01*
X156426253Y-100261134D01*
X156271752Y-100148882D01*
X156265724Y-100146198D01*
X156265722Y-100146197D01*
X156103319Y-100073891D01*
X156103318Y-100073891D01*
X156097288Y-100071206D01*
X156003888Y-100051353D01*
X155916944Y-100032872D01*
X155916939Y-100032872D01*
X155910487Y-100031500D01*
X155719513Y-100031500D01*
X155713061Y-100032872D01*
X155713056Y-100032872D01*
X155626113Y-100051353D01*
X155532712Y-100071206D01*
X155526682Y-100073891D01*
X155526681Y-100073891D01*
X155364278Y-100146197D01*
X155364276Y-100146198D01*
X155358248Y-100148882D01*
X155203747Y-100261134D01*
X155199326Y-100266044D01*
X155199325Y-100266045D01*
X155099568Y-100376837D01*
X155075960Y-100403056D01*
X154980473Y-100568444D01*
X154921458Y-100750072D01*
X154920768Y-100756633D01*
X154920768Y-100756635D01*
X154914922Y-100812262D01*
X154901496Y-100940000D01*
X154902186Y-100946565D01*
X154906434Y-100986978D01*
X154921458Y-101129928D01*
X154980473Y-101311556D01*
X155075960Y-101476944D01*
X155149137Y-101558215D01*
X155179853Y-101622221D01*
X155181500Y-101642524D01*
X155181500Y-102525500D01*
X155161498Y-102593621D01*
X155107842Y-102640114D01*
X155055500Y-102651500D01*
X154664600Y-102651500D01*
X154661354Y-102651837D01*
X154661350Y-102651837D01*
X154565692Y-102661762D01*
X154565688Y-102661763D01*
X154558834Y-102662474D01*
X154552298Y-102664655D01*
X154552296Y-102664655D01*
X154420194Y-102708728D01*
X154391054Y-102718450D01*
X154240652Y-102811522D01*
X154115695Y-102936697D01*
X154111855Y-102942927D01*
X154111854Y-102942928D01*
X154062938Y-103022285D01*
X154022885Y-103087262D01*
X153967203Y-103255139D01*
X153956500Y-103359600D01*
X153956500Y-103380500D01*
X153936498Y-103448621D01*
X153882842Y-103495114D01*
X153830500Y-103506500D01*
X153149500Y-103506500D01*
X153081379Y-103486498D01*
X153034886Y-103432842D01*
X153023500Y-103380500D01*
X153023500Y-103091866D01*
X153016745Y-103029684D01*
X152965615Y-102893295D01*
X152878261Y-102776739D01*
X152761705Y-102689385D01*
X152625316Y-102638255D01*
X152563134Y-102631500D01*
X150966866Y-102631500D01*
X150904684Y-102638255D01*
X150768295Y-102689385D01*
X150761110Y-102694770D01*
X150761108Y-102694771D01*
X150690565Y-102747640D01*
X150624058Y-102772488D01*
X150554676Y-102757435D01*
X150539435Y-102747640D01*
X150468892Y-102694771D01*
X150468890Y-102694770D01*
X150461705Y-102689385D01*
X150325316Y-102638255D01*
X150263134Y-102631500D01*
X148666866Y-102631500D01*
X148604684Y-102638255D01*
X148468295Y-102689385D01*
X148424369Y-102722306D01*
X148390148Y-102747953D01*
X148323642Y-102772801D01*
X148254259Y-102757748D01*
X148239018Y-102747953D01*
X148168648Y-102695214D01*
X148153054Y-102686676D01*
X148032606Y-102641522D01*
X148017351Y-102637895D01*
X147966486Y-102632369D01*
X147959672Y-102632000D01*
X147437115Y-102632000D01*
X147421876Y-102636475D01*
X147420671Y-102637865D01*
X147419000Y-102645548D01*
X147419000Y-104268000D01*
X147398998Y-104336121D01*
X147345342Y-104382614D01*
X147293000Y-104394000D01*
X145925116Y-104394000D01*
X145909877Y-104398475D01*
X145908672Y-104399865D01*
X145907001Y-104407548D01*
X145907001Y-104649175D01*
X145886999Y-104717296D01*
X145833343Y-104763789D01*
X145781002Y-104775175D01*
X144786697Y-104775185D01*
X144363170Y-104775189D01*
X144295050Y-104755188D01*
X144248557Y-104701532D01*
X144238452Y-104631259D01*
X144255910Y-104583073D01*
X144267816Y-104563757D01*
X144273963Y-104550576D01*
X144325138Y-104396290D01*
X144328005Y-104382914D01*
X144337672Y-104288562D01*
X144338000Y-104282146D01*
X144338000Y-104094615D01*
X144333525Y-104079376D01*
X144332135Y-104078171D01*
X144324452Y-104076500D01*
X140640116Y-104076500D01*
X140624877Y-104080975D01*
X140623672Y-104082365D01*
X140622001Y-104090048D01*
X140622001Y-104282095D01*
X140622338Y-104288614D01*
X140632257Y-104384206D01*
X140635149Y-104397600D01*
X140686588Y-104551784D01*
X140692759Y-104564958D01*
X140703875Y-104582920D01*
X140722713Y-104651372D01*
X140701552Y-104719141D01*
X140647112Y-104764713D01*
X140596732Y-104775224D01*
X137006823Y-104775258D01*
X129579000Y-104775328D01*
X129510880Y-104755327D01*
X129464387Y-104701671D01*
X129453000Y-104649328D01*
X129453000Y-104412115D01*
X129448525Y-104396876D01*
X129447135Y-104395671D01*
X129439452Y-104394000D01*
X127105116Y-104394000D01*
X127089877Y-104398475D01*
X127088672Y-104399865D01*
X127087001Y-104407548D01*
X127087001Y-104649352D01*
X127066999Y-104717473D01*
X127013343Y-104763966D01*
X126961002Y-104775352D01*
X126330358Y-104775358D01*
X125834734Y-104775363D01*
X125766614Y-104755362D01*
X125720121Y-104701706D01*
X125708734Y-104649112D01*
X125710291Y-103867885D01*
X127087000Y-103867885D01*
X127091475Y-103883124D01*
X127092865Y-103884329D01*
X127100548Y-103886000D01*
X127997885Y-103886000D01*
X128013124Y-103881525D01*
X128014329Y-103880135D01*
X128016000Y-103872452D01*
X128016000Y-103867885D01*
X128524000Y-103867885D01*
X128528475Y-103883124D01*
X128529865Y-103884329D01*
X128537548Y-103886000D01*
X129434884Y-103886000D01*
X129450123Y-103881525D01*
X129451328Y-103880135D01*
X129452999Y-103872452D01*
X129452999Y-103867885D01*
X145907000Y-103867885D01*
X145911475Y-103883124D01*
X145912865Y-103884329D01*
X145920548Y-103886000D01*
X146892885Y-103886000D01*
X146908124Y-103881525D01*
X146909329Y-103880135D01*
X146911000Y-103872452D01*
X146911000Y-102650116D01*
X146906525Y-102634877D01*
X146905135Y-102633672D01*
X146897452Y-102632001D01*
X146370331Y-102632001D01*
X146363510Y-102632371D01*
X146312648Y-102637895D01*
X146297396Y-102641521D01*
X146176946Y-102686676D01*
X146161351Y-102695214D01*
X146059276Y-102771715D01*
X146046715Y-102784276D01*
X145970214Y-102886351D01*
X145961676Y-102901946D01*
X145916522Y-103022394D01*
X145912895Y-103037649D01*
X145907369Y-103088514D01*
X145907000Y-103095328D01*
X145907000Y-103867885D01*
X129452999Y-103867885D01*
X129452999Y-103550385D01*
X140622000Y-103550385D01*
X140626475Y-103565624D01*
X140627865Y-103566829D01*
X140635548Y-103568500D01*
X142207885Y-103568500D01*
X142223124Y-103564025D01*
X142224329Y-103562635D01*
X142226000Y-103554952D01*
X142226000Y-103550385D01*
X142734000Y-103550385D01*
X142738475Y-103565624D01*
X142739865Y-103566829D01*
X142747548Y-103568500D01*
X144319884Y-103568500D01*
X144335123Y-103564025D01*
X144336328Y-103562635D01*
X144337999Y-103554952D01*
X144337999Y-103362905D01*
X144337662Y-103356386D01*
X144327743Y-103260794D01*
X144324851Y-103247400D01*
X144273412Y-103093216D01*
X144267239Y-103080038D01*
X144181937Y-102942193D01*
X144172901Y-102930792D01*
X144058171Y-102816261D01*
X144046760Y-102807249D01*
X143908757Y-102722184D01*
X143895576Y-102716037D01*
X143741290Y-102664862D01*
X143727914Y-102661995D01*
X143633562Y-102652328D01*
X143627145Y-102652000D01*
X142752115Y-102652000D01*
X142736876Y-102656475D01*
X142735671Y-102657865D01*
X142734000Y-102665548D01*
X142734000Y-103550385D01*
X142226000Y-103550385D01*
X142226000Y-102670116D01*
X142221525Y-102654877D01*
X142220135Y-102653672D01*
X142212452Y-102652001D01*
X141332905Y-102652001D01*
X141326386Y-102652338D01*
X141230794Y-102662257D01*
X141217400Y-102665149D01*
X141063216Y-102716588D01*
X141050038Y-102722761D01*
X140912193Y-102808063D01*
X140900792Y-102817099D01*
X140786261Y-102931829D01*
X140777249Y-102943240D01*
X140692184Y-103081243D01*
X140686037Y-103094424D01*
X140634862Y-103248710D01*
X140631995Y-103262086D01*
X140622328Y-103356438D01*
X140622000Y-103362855D01*
X140622000Y-103550385D01*
X129452999Y-103550385D01*
X129452999Y-103420331D01*
X129452629Y-103413510D01*
X129447105Y-103362648D01*
X129443479Y-103347396D01*
X129398324Y-103226946D01*
X129389786Y-103211351D01*
X129313285Y-103109276D01*
X129300724Y-103096715D01*
X129198649Y-103020214D01*
X129183054Y-103011676D01*
X129062606Y-102966522D01*
X129047351Y-102962895D01*
X128996486Y-102957369D01*
X128989672Y-102957000D01*
X128542115Y-102957000D01*
X128526876Y-102961475D01*
X128525671Y-102962865D01*
X128524000Y-102970548D01*
X128524000Y-103867885D01*
X128016000Y-103867885D01*
X128016000Y-102975116D01*
X128011525Y-102959877D01*
X128010135Y-102958672D01*
X128002452Y-102957001D01*
X127550331Y-102957001D01*
X127543510Y-102957371D01*
X127492648Y-102962895D01*
X127477396Y-102966521D01*
X127356946Y-103011676D01*
X127341351Y-103020214D01*
X127239276Y-103096715D01*
X127226715Y-103109276D01*
X127150214Y-103211351D01*
X127141676Y-103226946D01*
X127096522Y-103347394D01*
X127092895Y-103362649D01*
X127087369Y-103413514D01*
X127087000Y-103420328D01*
X127087000Y-103867885D01*
X125710291Y-103867885D01*
X125720240Y-98876635D01*
X125725970Y-96002095D01*
X127047001Y-96002095D01*
X127047338Y-96008614D01*
X127057257Y-96104206D01*
X127060149Y-96117600D01*
X127111588Y-96271784D01*
X127117761Y-96284962D01*
X127203063Y-96422807D01*
X127212099Y-96434208D01*
X127326829Y-96548739D01*
X127338240Y-96557751D01*
X127476243Y-96642816D01*
X127489424Y-96648963D01*
X127643710Y-96700138D01*
X127657086Y-96703005D01*
X127751438Y-96712672D01*
X127757854Y-96713000D01*
X128632885Y-96713000D01*
X128648124Y-96708525D01*
X128649329Y-96707135D01*
X128651000Y-96699452D01*
X128651000Y-96694884D01*
X129159000Y-96694884D01*
X129163475Y-96710123D01*
X129164865Y-96711328D01*
X129172548Y-96712999D01*
X130052095Y-96712999D01*
X130058614Y-96712662D01*
X130154206Y-96702743D01*
X130167600Y-96699851D01*
X130321784Y-96648412D01*
X130334962Y-96642239D01*
X130472807Y-96556937D01*
X130484208Y-96547901D01*
X130598739Y-96433171D01*
X130607751Y-96421760D01*
X130692816Y-96283757D01*
X130698963Y-96270576D01*
X130750138Y-96116290D01*
X130753005Y-96102914D01*
X130762672Y-96008562D01*
X130763000Y-96002146D01*
X130763000Y-95814615D01*
X130758525Y-95799376D01*
X130757135Y-95798171D01*
X130749452Y-95796500D01*
X129177115Y-95796500D01*
X129161876Y-95800975D01*
X129160671Y-95802365D01*
X129159000Y-95810048D01*
X129159000Y-96694884D01*
X128651000Y-96694884D01*
X128651000Y-95814615D01*
X128646525Y-95799376D01*
X128645135Y-95798171D01*
X128637452Y-95796500D01*
X127065116Y-95796500D01*
X127049877Y-95800975D01*
X127048672Y-95802365D01*
X127047001Y-95810048D01*
X127047001Y-96002095D01*
X125725970Y-96002095D01*
X125727428Y-95270385D01*
X127047000Y-95270385D01*
X127051475Y-95285624D01*
X127052865Y-95286829D01*
X127060548Y-95288500D01*
X128632885Y-95288500D01*
X128648124Y-95284025D01*
X128649329Y-95282635D01*
X128651000Y-95274952D01*
X128651000Y-95270385D01*
X129159000Y-95270385D01*
X129163475Y-95285624D01*
X129164865Y-95286829D01*
X129172548Y-95288500D01*
X130744884Y-95288500D01*
X130760123Y-95284025D01*
X130761328Y-95282635D01*
X130762999Y-95274952D01*
X130762999Y-95082905D01*
X130762662Y-95076386D01*
X130752743Y-94980794D01*
X130749851Y-94967400D01*
X130698412Y-94813216D01*
X130692239Y-94800038D01*
X130606937Y-94662193D01*
X130597901Y-94650792D01*
X130483171Y-94536261D01*
X130471760Y-94527249D01*
X130333757Y-94442184D01*
X130320576Y-94436037D01*
X130166290Y-94384862D01*
X130152914Y-94381995D01*
X130058562Y-94372328D01*
X130052145Y-94372000D01*
X129177115Y-94372000D01*
X129161876Y-94376475D01*
X129160671Y-94377865D01*
X129159000Y-94385548D01*
X129159000Y-95270385D01*
X128651000Y-95270385D01*
X128651000Y-94390116D01*
X128646525Y-94374877D01*
X128645135Y-94373672D01*
X128637452Y-94372001D01*
X127757905Y-94372001D01*
X127751386Y-94372338D01*
X127655794Y-94382257D01*
X127642400Y-94385149D01*
X127488216Y-94436588D01*
X127475038Y-94442761D01*
X127337193Y-94528063D01*
X127325792Y-94537099D01*
X127211261Y-94651829D01*
X127202249Y-94663240D01*
X127117184Y-94801243D01*
X127111037Y-94814424D01*
X127059862Y-94968710D01*
X127056995Y-94982086D01*
X127047328Y-95076438D01*
X127047000Y-95082855D01*
X127047000Y-95270385D01*
X125727428Y-95270385D01*
X125729749Y-94105748D01*
X125749887Y-94037668D01*
X125803635Y-93991282D01*
X125855749Y-93980000D01*
X132995500Y-93980000D01*
X133063621Y-94000002D01*
G37*
%TD.AperFunction*%
%TD*%
%TA.AperFunction,Conductor*%
%TO.N,3.3V*%
G36*
X192347121Y-82570002D02*
G01*
X192393614Y-82623658D01*
X192405000Y-82676000D01*
X192405000Y-121794000D01*
X192384998Y-121862121D01*
X192331342Y-121908614D01*
X192279000Y-121920000D01*
X143001000Y-121920000D01*
X142932879Y-121899998D01*
X142886386Y-121846342D01*
X142875000Y-121794000D01*
X142875000Y-120774500D01*
X142895002Y-120706379D01*
X142948658Y-120659886D01*
X143001000Y-120648500D01*
X164386233Y-120648500D01*
X164397416Y-120649027D01*
X164404909Y-120650702D01*
X164412835Y-120650453D01*
X164412836Y-120650453D01*
X164472986Y-120648562D01*
X164476945Y-120648500D01*
X164504856Y-120648500D01*
X164508791Y-120648003D01*
X164508856Y-120647995D01*
X164520693Y-120647062D01*
X164552951Y-120646048D01*
X164556970Y-120645922D01*
X164564889Y-120645673D01*
X164584343Y-120640021D01*
X164603700Y-120636013D01*
X164615930Y-120634468D01*
X164615931Y-120634468D01*
X164623797Y-120633474D01*
X164631168Y-120630555D01*
X164631170Y-120630555D01*
X164664912Y-120617196D01*
X164676142Y-120613351D01*
X164710983Y-120603229D01*
X164710984Y-120603229D01*
X164718593Y-120601018D01*
X164725412Y-120596985D01*
X164725417Y-120596983D01*
X164736028Y-120590707D01*
X164753776Y-120582012D01*
X164772617Y-120574552D01*
X164808387Y-120548564D01*
X164818307Y-120542048D01*
X164849535Y-120523580D01*
X164849538Y-120523578D01*
X164856362Y-120519542D01*
X164870683Y-120505221D01*
X164885717Y-120492380D01*
X164895694Y-120485131D01*
X164902107Y-120480472D01*
X164930298Y-120446395D01*
X164938288Y-120437616D01*
X165995904Y-119380000D01*
X168631496Y-119380000D01*
X168632186Y-119386565D01*
X168648187Y-119538803D01*
X168651458Y-119569928D01*
X168710473Y-119751556D01*
X168805960Y-119916944D01*
X168933747Y-120058866D01*
X169088248Y-120171118D01*
X169094276Y-120173802D01*
X169094278Y-120173803D01*
X169256681Y-120246109D01*
X169262712Y-120248794D01*
X169356112Y-120268647D01*
X169443056Y-120287128D01*
X169443061Y-120287128D01*
X169449513Y-120288500D01*
X169640487Y-120288500D01*
X169646939Y-120287128D01*
X169646944Y-120287128D01*
X169733888Y-120268647D01*
X169827288Y-120248794D01*
X169833319Y-120246109D01*
X169995722Y-120173803D01*
X169995724Y-120173802D01*
X170001752Y-120171118D01*
X170156253Y-120058866D01*
X170284040Y-119916944D01*
X170379527Y-119751556D01*
X170438542Y-119569928D01*
X170441814Y-119538803D01*
X170457814Y-119386565D01*
X170458504Y-119380000D01*
X170454064Y-119337751D01*
X170439232Y-119196635D01*
X170439232Y-119196633D01*
X170438542Y-119190072D01*
X170379527Y-119008444D01*
X170284040Y-118843056D01*
X170238744Y-118792749D01*
X170229151Y-118782095D01*
X174632001Y-118782095D01*
X174632338Y-118788614D01*
X174642257Y-118884206D01*
X174645149Y-118897600D01*
X174696588Y-119051784D01*
X174702761Y-119064962D01*
X174788063Y-119202807D01*
X174797099Y-119214208D01*
X174911829Y-119328739D01*
X174923240Y-119337751D01*
X175061243Y-119422816D01*
X175074424Y-119428963D01*
X175228710Y-119480138D01*
X175242086Y-119483005D01*
X175336438Y-119492672D01*
X175342854Y-119493000D01*
X175430385Y-119493000D01*
X175445624Y-119488525D01*
X175446829Y-119487135D01*
X175448500Y-119479452D01*
X175448500Y-119474884D01*
X175956500Y-119474884D01*
X175960975Y-119490123D01*
X175962365Y-119491328D01*
X175970048Y-119492999D01*
X176062095Y-119492999D01*
X176068614Y-119492662D01*
X176164206Y-119482743D01*
X176177600Y-119479851D01*
X176331784Y-119428412D01*
X176344962Y-119422239D01*
X176482807Y-119336937D01*
X176494208Y-119327901D01*
X176608739Y-119213171D01*
X176617751Y-119201760D01*
X176702816Y-119063757D01*
X176708963Y-119050576D01*
X176760138Y-118896290D01*
X176763005Y-118882914D01*
X176772672Y-118788562D01*
X176773000Y-118782146D01*
X176773000Y-118382115D01*
X176768525Y-118366876D01*
X176767135Y-118365671D01*
X176759452Y-118364000D01*
X175974615Y-118364000D01*
X175959376Y-118368475D01*
X175958171Y-118369865D01*
X175956500Y-118377548D01*
X175956500Y-119474884D01*
X175448500Y-119474884D01*
X175448500Y-118382115D01*
X175444025Y-118366876D01*
X175442635Y-118365671D01*
X175434952Y-118364000D01*
X174650116Y-118364000D01*
X174634877Y-118368475D01*
X174633672Y-118369865D01*
X174632001Y-118377548D01*
X174632001Y-118782095D01*
X170229151Y-118782095D01*
X170160675Y-118706045D01*
X170160674Y-118706044D01*
X170156253Y-118701134D01*
X170035764Y-118613593D01*
X170007094Y-118592763D01*
X170007093Y-118592762D01*
X170001752Y-118588882D01*
X169995724Y-118586198D01*
X169995722Y-118586197D01*
X169833319Y-118513891D01*
X169833318Y-118513891D01*
X169827288Y-118511206D01*
X169714721Y-118487279D01*
X169646944Y-118472872D01*
X169646939Y-118472872D01*
X169640487Y-118471500D01*
X169449513Y-118471500D01*
X169443061Y-118472872D01*
X169443056Y-118472872D01*
X169375279Y-118487279D01*
X169262712Y-118511206D01*
X169256682Y-118513891D01*
X169256681Y-118513891D01*
X169094278Y-118586197D01*
X169094276Y-118586198D01*
X169088248Y-118588882D01*
X169082907Y-118592762D01*
X169082906Y-118592763D01*
X169054236Y-118613593D01*
X168933747Y-118701134D01*
X168929326Y-118706044D01*
X168929325Y-118706045D01*
X168851257Y-118792749D01*
X168805960Y-118843056D01*
X168710473Y-119008444D01*
X168651458Y-119190072D01*
X168650768Y-119196633D01*
X168650768Y-119196635D01*
X168635936Y-119337751D01*
X168631496Y-119380000D01*
X165995904Y-119380000D01*
X169298000Y-116077905D01*
X169360312Y-116043879D01*
X169387095Y-116041000D01*
X170937086Y-116041000D01*
X171005207Y-116061002D01*
X171037912Y-116091435D01*
X171091715Y-116163224D01*
X171104276Y-116175785D01*
X171206351Y-116252286D01*
X171221946Y-116260824D01*
X171342397Y-116305979D01*
X171354644Y-116308891D01*
X171416291Y-116344107D01*
X171449112Y-116407061D01*
X171451500Y-116431474D01*
X171451500Y-117129976D01*
X171431498Y-117198097D01*
X171419142Y-117214279D01*
X171345960Y-117295556D01*
X171323659Y-117334182D01*
X171263775Y-117437905D01*
X171250473Y-117460944D01*
X171191458Y-117642572D01*
X171190768Y-117649133D01*
X171190768Y-117649135D01*
X171180950Y-117742548D01*
X171171496Y-117832500D01*
X171172186Y-117839065D01*
X171184662Y-117957763D01*
X171191458Y-118022428D01*
X171250473Y-118204056D01*
X171345960Y-118369444D01*
X171350378Y-118374351D01*
X171350379Y-118374352D01*
X171439087Y-118472872D01*
X171473747Y-118511366D01*
X171483975Y-118518797D01*
X171603976Y-118605983D01*
X171628248Y-118623618D01*
X171634276Y-118626302D01*
X171634278Y-118626303D01*
X171741487Y-118674035D01*
X171802712Y-118701294D01*
X171896113Y-118721147D01*
X171983056Y-118739628D01*
X171983061Y-118739628D01*
X171989513Y-118741000D01*
X172180487Y-118741000D01*
X172186939Y-118739628D01*
X172186944Y-118739628D01*
X172273887Y-118721147D01*
X172367288Y-118701294D01*
X172428513Y-118674035D01*
X172535722Y-118626303D01*
X172535724Y-118626302D01*
X172541752Y-118623618D01*
X172566025Y-118605983D01*
X172686025Y-118518797D01*
X172696253Y-118511366D01*
X172730913Y-118472872D01*
X172819621Y-118374352D01*
X172819622Y-118374351D01*
X172824040Y-118369444D01*
X172919527Y-118204056D01*
X172978542Y-118022428D01*
X172985339Y-117957763D01*
X172997938Y-117837885D01*
X174632000Y-117837885D01*
X174636475Y-117853124D01*
X174637865Y-117854329D01*
X174645548Y-117856000D01*
X175430385Y-117856000D01*
X175445624Y-117851525D01*
X175446829Y-117850135D01*
X175448500Y-117842452D01*
X175448500Y-117837885D01*
X175956500Y-117837885D01*
X175960975Y-117853124D01*
X175962365Y-117854329D01*
X175970048Y-117856000D01*
X176754884Y-117856000D01*
X176770123Y-117851525D01*
X176771328Y-117850135D01*
X176772999Y-117842452D01*
X176772999Y-117437905D01*
X176772662Y-117431386D01*
X176762743Y-117335794D01*
X176759851Y-117322400D01*
X176708412Y-117168216D01*
X176702239Y-117155038D01*
X176616937Y-117017193D01*
X176607901Y-117005792D01*
X176493171Y-116891261D01*
X176481760Y-116882249D01*
X176343757Y-116797184D01*
X176330576Y-116791037D01*
X176176290Y-116739862D01*
X176162914Y-116736995D01*
X176068562Y-116727328D01*
X176062145Y-116727000D01*
X175974615Y-116727000D01*
X175959376Y-116731475D01*
X175958171Y-116732865D01*
X175956500Y-116740548D01*
X175956500Y-117837885D01*
X175448500Y-117837885D01*
X175448500Y-116745116D01*
X175444025Y-116729877D01*
X175442635Y-116728672D01*
X175434952Y-116727001D01*
X175342905Y-116727001D01*
X175336386Y-116727338D01*
X175240794Y-116737257D01*
X175227400Y-116740149D01*
X175073216Y-116791588D01*
X175060038Y-116797761D01*
X174922193Y-116883063D01*
X174910792Y-116892099D01*
X174796261Y-117006829D01*
X174787249Y-117018240D01*
X174702184Y-117156243D01*
X174696037Y-117169424D01*
X174644862Y-117323710D01*
X174641995Y-117337086D01*
X174632328Y-117431438D01*
X174632000Y-117437855D01*
X174632000Y-117837885D01*
X172997938Y-117837885D01*
X172998216Y-117835240D01*
X173025229Y-117769583D01*
X173083451Y-117728953D01*
X173149722Y-117725163D01*
X173175635Y-117730671D01*
X173253056Y-117747128D01*
X173253061Y-117747128D01*
X173259513Y-117748500D01*
X173450487Y-117748500D01*
X173456939Y-117747128D01*
X173456944Y-117747128D01*
X173560278Y-117725163D01*
X173637288Y-117708794D01*
X173658165Y-117699499D01*
X173805722Y-117633803D01*
X173805724Y-117633802D01*
X173811752Y-117631118D01*
X173966253Y-117518866D01*
X174040825Y-117436045D01*
X174089621Y-117381852D01*
X174089622Y-117381851D01*
X174094040Y-117376944D01*
X174173201Y-117239834D01*
X174186223Y-117217279D01*
X174186224Y-117217278D01*
X174189527Y-117211556D01*
X174248542Y-117029928D01*
X174249771Y-117018240D01*
X174267814Y-116846565D01*
X174268504Y-116840000D01*
X174263894Y-116796134D01*
X174249232Y-116656635D01*
X174249232Y-116656633D01*
X174248542Y-116650072D01*
X174189527Y-116468444D01*
X174094040Y-116303056D01*
X174048744Y-116252749D01*
X173970675Y-116166045D01*
X173970674Y-116166044D01*
X173966253Y-116161134D01*
X173862107Y-116085467D01*
X173818753Y-116029244D01*
X173812678Y-115958508D01*
X173847073Y-115894436D01*
X173853285Y-115888224D01*
X173929786Y-115786149D01*
X173938324Y-115770554D01*
X173983479Y-115650103D01*
X173986391Y-115637856D01*
X174021607Y-115576209D01*
X174084561Y-115543388D01*
X174108974Y-115541000D01*
X174573733Y-115541000D01*
X174584916Y-115541527D01*
X174592409Y-115543202D01*
X174600335Y-115542953D01*
X174600336Y-115542953D01*
X174660486Y-115541062D01*
X174664445Y-115541000D01*
X174692356Y-115541000D01*
X174696291Y-115540503D01*
X174696356Y-115540495D01*
X174708193Y-115539562D01*
X174740451Y-115538548D01*
X174744470Y-115538422D01*
X174752389Y-115538173D01*
X174771843Y-115532521D01*
X174791200Y-115528513D01*
X174803430Y-115526968D01*
X174803431Y-115526968D01*
X174811297Y-115525974D01*
X174818668Y-115523055D01*
X174818670Y-115523055D01*
X174852412Y-115509696D01*
X174863642Y-115505851D01*
X174898483Y-115495729D01*
X174898484Y-115495729D01*
X174906093Y-115493518D01*
X174912912Y-115489485D01*
X174912917Y-115489483D01*
X174923528Y-115483207D01*
X174941276Y-115474512D01*
X174960117Y-115467052D01*
X174974205Y-115456817D01*
X174995887Y-115441064D01*
X175005807Y-115434548D01*
X175037035Y-115416080D01*
X175037038Y-115416078D01*
X175043862Y-115412042D01*
X175058183Y-115397721D01*
X175073217Y-115384880D01*
X175083193Y-115377632D01*
X175089607Y-115372972D01*
X175117793Y-115338901D01*
X175125782Y-115330122D01*
X175210499Y-115245405D01*
X175272811Y-115211379D01*
X175299594Y-115208500D01*
X175355487Y-115208500D01*
X175361939Y-115207128D01*
X175361944Y-115207128D01*
X175448888Y-115188647D01*
X175542288Y-115168794D01*
X175554046Y-115163559D01*
X175710722Y-115093803D01*
X175710724Y-115093802D01*
X175716752Y-115091118D01*
X175723753Y-115086032D01*
X175804804Y-115027144D01*
X175871253Y-114978866D01*
X175953070Y-114887999D01*
X175994621Y-114841852D01*
X175994622Y-114841851D01*
X175999040Y-114836944D01*
X176094527Y-114671556D01*
X176153542Y-114489928D01*
X176173504Y-114300000D01*
X176171329Y-114279308D01*
X176154232Y-114116635D01*
X176154232Y-114116633D01*
X176153542Y-114110072D01*
X176094527Y-113928444D01*
X175999040Y-113763056D01*
X175984798Y-113747238D01*
X175875675Y-113626045D01*
X175875674Y-113626044D01*
X175871253Y-113621134D01*
X175765367Y-113544203D01*
X175722094Y-113512763D01*
X175722093Y-113512762D01*
X175716752Y-113508882D01*
X175710724Y-113506198D01*
X175710722Y-113506197D01*
X175548319Y-113433891D01*
X175548318Y-113433891D01*
X175542288Y-113431206D01*
X175447147Y-113410983D01*
X175361944Y-113392872D01*
X175361939Y-113392872D01*
X175355487Y-113391500D01*
X175164513Y-113391500D01*
X175158061Y-113392872D01*
X175158056Y-113392872D01*
X175072853Y-113410983D01*
X174977712Y-113431206D01*
X174971682Y-113433891D01*
X174971681Y-113433891D01*
X174809278Y-113506197D01*
X174809276Y-113506198D01*
X174803248Y-113508882D01*
X174797907Y-113512762D01*
X174797906Y-113512763D01*
X174754633Y-113544203D01*
X174648747Y-113621134D01*
X174644326Y-113626044D01*
X174644325Y-113626045D01*
X174535203Y-113747238D01*
X174520960Y-113763056D01*
X174425473Y-113928444D01*
X174366458Y-114110072D01*
X174361474Y-114157500D01*
X174361088Y-114161169D01*
X174334076Y-114226826D01*
X174275855Y-114267457D01*
X174235778Y-114274000D01*
X174112923Y-114274000D01*
X174044802Y-114253998D01*
X173998309Y-114200342D01*
X173987660Y-114134392D01*
X173993131Y-114084031D01*
X173993500Y-114080634D01*
X173993500Y-113734366D01*
X173986745Y-113672184D01*
X173935615Y-113535795D01*
X173848261Y-113419239D01*
X173731705Y-113331885D01*
X173595316Y-113280755D01*
X173533134Y-113274000D01*
X173232914Y-113274000D01*
X173164793Y-113253998D01*
X173132088Y-113223565D01*
X173078285Y-113151776D01*
X173065724Y-113139215D01*
X172963649Y-113062714D01*
X172948054Y-113054176D01*
X172827603Y-113009021D01*
X172815356Y-113006109D01*
X172753709Y-112970893D01*
X172720888Y-112907939D01*
X172718500Y-112883526D01*
X172718500Y-112074594D01*
X172738502Y-112006473D01*
X172755405Y-111985499D01*
X175210500Y-109530405D01*
X175272812Y-109496379D01*
X175299595Y-109493500D01*
X175355487Y-109493500D01*
X175361939Y-109492128D01*
X175361944Y-109492128D01*
X175462766Y-109470697D01*
X175542288Y-109453794D01*
X175613939Y-109421893D01*
X175665188Y-109411000D01*
X176411425Y-109411000D01*
X176479546Y-109431002D01*
X176518568Y-109470696D01*
X176576522Y-109564348D01*
X176701697Y-109689305D01*
X176707927Y-109693145D01*
X176707928Y-109693146D01*
X176845090Y-109777694D01*
X176852262Y-109782115D01*
X176932005Y-109808564D01*
X177013611Y-109835632D01*
X177013613Y-109835632D01*
X177020139Y-109837797D01*
X177026975Y-109838497D01*
X177026978Y-109838498D01*
X177070031Y-109842909D01*
X177124600Y-109848500D01*
X178475400Y-109848500D01*
X178478646Y-109848163D01*
X178478650Y-109848163D01*
X178574308Y-109838238D01*
X178574312Y-109838237D01*
X178581166Y-109837526D01*
X178587702Y-109835345D01*
X178587704Y-109835345D01*
X178719806Y-109791272D01*
X178748946Y-109781550D01*
X178899348Y-109688478D01*
X179024305Y-109563303D01*
X179081273Y-109470884D01*
X179134045Y-109423391D01*
X179188533Y-109411000D01*
X179582906Y-109411000D01*
X179651027Y-109431002D01*
X179672001Y-109447905D01*
X181324595Y-111100500D01*
X181358621Y-111162812D01*
X181361500Y-111189595D01*
X181361500Y-112876405D01*
X181341498Y-112944526D01*
X181287842Y-112991019D01*
X181217568Y-113001123D01*
X181152988Y-112971629D01*
X181146404Y-112965500D01*
X181083500Y-112902595D01*
X180818647Y-112637742D01*
X180811113Y-112629463D01*
X180807000Y-112622982D01*
X180757348Y-112576356D01*
X180754507Y-112573602D01*
X180734770Y-112553865D01*
X180731573Y-112551385D01*
X180722551Y-112543680D01*
X180696100Y-112518841D01*
X180690321Y-112513414D01*
X180683375Y-112509595D01*
X180683372Y-112509593D01*
X180672566Y-112503652D01*
X180656047Y-112492801D01*
X180655583Y-112492441D01*
X180640041Y-112480386D01*
X180632772Y-112477241D01*
X180632768Y-112477238D01*
X180599463Y-112462826D01*
X180588813Y-112457609D01*
X180550060Y-112436305D01*
X180530437Y-112431267D01*
X180511734Y-112424863D01*
X180500420Y-112419967D01*
X180500419Y-112419967D01*
X180493145Y-112416819D01*
X180485322Y-112415580D01*
X180485312Y-112415577D01*
X180449476Y-112409901D01*
X180437856Y-112407495D01*
X180402709Y-112398471D01*
X180402705Y-112398470D01*
X180397589Y-112397157D01*
X180395031Y-112396500D01*
X180395137Y-112396087D01*
X180334667Y-112369717D01*
X180321896Y-112357401D01*
X180320673Y-112356043D01*
X180316253Y-112351134D01*
X180161752Y-112238882D01*
X180155724Y-112236198D01*
X180155722Y-112236197D01*
X179993319Y-112163891D01*
X179993318Y-112163891D01*
X179987288Y-112161206D01*
X179893888Y-112141353D01*
X179806944Y-112122872D01*
X179806939Y-112122872D01*
X179800487Y-112121500D01*
X179609513Y-112121500D01*
X179603061Y-112122872D01*
X179603056Y-112122872D01*
X179516112Y-112141353D01*
X179422712Y-112161206D01*
X179416682Y-112163891D01*
X179416681Y-112163891D01*
X179254278Y-112236197D01*
X179254276Y-112236198D01*
X179248248Y-112238882D01*
X179093747Y-112351134D01*
X179089327Y-112356043D01*
X179089325Y-112356045D01*
X178975221Y-112482771D01*
X178965960Y-112493056D01*
X178870473Y-112658444D01*
X178811458Y-112840072D01*
X178810768Y-112846633D01*
X178810768Y-112846635D01*
X178810017Y-112853783D01*
X178783004Y-112919440D01*
X178724782Y-112960069D01*
X178653837Y-112962772D01*
X178595612Y-112929707D01*
X178112122Y-112446217D01*
X178078096Y-112383905D01*
X178075907Y-112370292D01*
X178074410Y-112356043D01*
X178068610Y-112300865D01*
X178059232Y-112211635D01*
X178059232Y-112211633D01*
X178058542Y-112205072D01*
X177999527Y-112023444D01*
X177904040Y-111858056D01*
X177835637Y-111782086D01*
X177780675Y-111721045D01*
X177780674Y-111721044D01*
X177776253Y-111716134D01*
X177621752Y-111603882D01*
X177615724Y-111601198D01*
X177615722Y-111601197D01*
X177453319Y-111528891D01*
X177453318Y-111528891D01*
X177447288Y-111526206D01*
X177353888Y-111506353D01*
X177266944Y-111487872D01*
X177266939Y-111487872D01*
X177260487Y-111486500D01*
X177069513Y-111486500D01*
X177063061Y-111487872D01*
X177063056Y-111487872D01*
X176976112Y-111506353D01*
X176882712Y-111526206D01*
X176876682Y-111528891D01*
X176876681Y-111528891D01*
X176714278Y-111601197D01*
X176714276Y-111601198D01*
X176708248Y-111603882D01*
X176553747Y-111716134D01*
X176549326Y-111721044D01*
X176549325Y-111721045D01*
X176494364Y-111782086D01*
X176425960Y-111858056D01*
X176330473Y-112023444D01*
X176271458Y-112205072D01*
X176270768Y-112211633D01*
X176270768Y-112211635D01*
X176261390Y-112300865D01*
X176251496Y-112395000D01*
X176252186Y-112401565D01*
X176270268Y-112573602D01*
X176271458Y-112584928D01*
X176330473Y-112766556D01*
X176333776Y-112772278D01*
X176333777Y-112772279D01*
X176349621Y-112799721D01*
X176425960Y-112931944D01*
X176430378Y-112936851D01*
X176430379Y-112936852D01*
X176456174Y-112965500D01*
X176553747Y-113073866D01*
X176640393Y-113136818D01*
X176700648Y-113180596D01*
X176708248Y-113186118D01*
X176714276Y-113188802D01*
X176714278Y-113188803D01*
X176867385Y-113256970D01*
X176882712Y-113263794D01*
X176958494Y-113279902D01*
X177063056Y-113302128D01*
X177063061Y-113302128D01*
X177069513Y-113303500D01*
X177125406Y-113303500D01*
X177193527Y-113323502D01*
X177214501Y-113340405D01*
X178100921Y-114226826D01*
X178951348Y-115077253D01*
X178958888Y-115085539D01*
X178963000Y-115092018D01*
X178968777Y-115097443D01*
X179012651Y-115138643D01*
X179015493Y-115141398D01*
X179035230Y-115161135D01*
X179038427Y-115163615D01*
X179047447Y-115171318D01*
X179079679Y-115201586D01*
X179086625Y-115205405D01*
X179086628Y-115205407D01*
X179097434Y-115211348D01*
X179113953Y-115222199D01*
X179129959Y-115234614D01*
X179137228Y-115237759D01*
X179137232Y-115237762D01*
X179170537Y-115252174D01*
X179181187Y-115257391D01*
X179219940Y-115278695D01*
X179227615Y-115280666D01*
X179227616Y-115280666D01*
X179239562Y-115283733D01*
X179258267Y-115290137D01*
X179276855Y-115298181D01*
X179284678Y-115299420D01*
X179284688Y-115299423D01*
X179320524Y-115305099D01*
X179332144Y-115307505D01*
X179363959Y-115315673D01*
X179374970Y-115318500D01*
X179395224Y-115318500D01*
X179414934Y-115320051D01*
X179434943Y-115323220D01*
X179442835Y-115322474D01*
X179461580Y-115320702D01*
X179478962Y-115319059D01*
X179490819Y-115318500D01*
X181007062Y-115318500D01*
X181075183Y-115338502D01*
X181121676Y-115392158D01*
X181131780Y-115462432D01*
X181129596Y-115470395D01*
X181130059Y-115470487D01*
X181119500Y-115523572D01*
X181119500Y-115846428D01*
X181130059Y-115899513D01*
X181170285Y-115959715D01*
X181230487Y-115999941D01*
X181242657Y-116002362D01*
X181242660Y-116002363D01*
X181260079Y-116005827D01*
X181322989Y-116038733D01*
X181358122Y-116100427D01*
X181361500Y-116129406D01*
X181361500Y-116140405D01*
X181341498Y-116208526D01*
X181324595Y-116229500D01*
X180389500Y-117164595D01*
X180327188Y-117198621D01*
X180300405Y-117201500D01*
X180244513Y-117201500D01*
X180238061Y-117202872D01*
X180238056Y-117202872D01*
X180152773Y-117221000D01*
X180057712Y-117241206D01*
X180051682Y-117243891D01*
X180051681Y-117243891D01*
X179889278Y-117316197D01*
X179889276Y-117316198D01*
X179883248Y-117318882D01*
X179877909Y-117322761D01*
X179877902Y-117322765D01*
X179862188Y-117334182D01*
X179795320Y-117358040D01*
X179726169Y-117341958D01*
X179676689Y-117291043D01*
X179668605Y-117272121D01*
X179633868Y-117168002D01*
X179631550Y-117161054D01*
X179538478Y-117010652D01*
X179413303Y-116885695D01*
X179349823Y-116846565D01*
X179268968Y-116796725D01*
X179268966Y-116796724D01*
X179262738Y-116792885D01*
X179182995Y-116766436D01*
X179101389Y-116739368D01*
X179101387Y-116739368D01*
X179094861Y-116737203D01*
X179088025Y-116736503D01*
X179088022Y-116736502D01*
X179044969Y-116732091D01*
X178990400Y-116726500D01*
X178264600Y-116726500D01*
X178261354Y-116726837D01*
X178261350Y-116726837D01*
X178165692Y-116736762D01*
X178165688Y-116736763D01*
X178158834Y-116737474D01*
X178152298Y-116739655D01*
X178152296Y-116739655D01*
X178135928Y-116745116D01*
X177991054Y-116793450D01*
X177840652Y-116886522D01*
X177715695Y-117011697D01*
X177622885Y-117162262D01*
X177609415Y-117202872D01*
X177578674Y-117295556D01*
X177567203Y-117330139D01*
X177556500Y-117434600D01*
X177556500Y-118785400D01*
X177556837Y-118788646D01*
X177556837Y-118788650D01*
X177566752Y-118884206D01*
X177567474Y-118891166D01*
X177569655Y-118897702D01*
X177569655Y-118897704D01*
X177582074Y-118934928D01*
X177623450Y-119058946D01*
X177716522Y-119209348D01*
X177841697Y-119334305D01*
X177847927Y-119338145D01*
X177847928Y-119338146D01*
X177985288Y-119422816D01*
X177992262Y-119427115D01*
X178072005Y-119453564D01*
X178153611Y-119480632D01*
X178153613Y-119480632D01*
X178160139Y-119482797D01*
X178166975Y-119483497D01*
X178166978Y-119483498D01*
X178210031Y-119487909D01*
X178264600Y-119493500D01*
X178990400Y-119493500D01*
X178993646Y-119493163D01*
X178993650Y-119493163D01*
X179089308Y-119483238D01*
X179089312Y-119483237D01*
X179096166Y-119482526D01*
X179102702Y-119480345D01*
X179102704Y-119480345D01*
X179234806Y-119436272D01*
X179263946Y-119426550D01*
X179414348Y-119333478D01*
X179539305Y-119208303D01*
X179558396Y-119177332D01*
X179628275Y-119063968D01*
X179628276Y-119063966D01*
X179632115Y-119057738D01*
X179668495Y-118948056D01*
X179708924Y-118889697D01*
X179774488Y-118862460D01*
X179844370Y-118874993D01*
X179862148Y-118885788D01*
X179883248Y-118901118D01*
X179889276Y-118903802D01*
X179889278Y-118903803D01*
X179988675Y-118948057D01*
X180057712Y-118978794D01*
X180151112Y-118998647D01*
X180238056Y-119017128D01*
X180238061Y-119017128D01*
X180244513Y-119018500D01*
X180435487Y-119018500D01*
X180441939Y-119017128D01*
X180441944Y-119017128D01*
X180528888Y-118998647D01*
X180622288Y-118978794D01*
X180691325Y-118948057D01*
X180790722Y-118903803D01*
X180790724Y-118903802D01*
X180796752Y-118901118D01*
X180951253Y-118788866D01*
X180996661Y-118738435D01*
X181074621Y-118651852D01*
X181074622Y-118651851D01*
X181079040Y-118646944D01*
X181164629Y-118498700D01*
X181171223Y-118487279D01*
X181171224Y-118487278D01*
X181174527Y-118481556D01*
X181233542Y-118299928D01*
X181234261Y-118293093D01*
X181248485Y-118157749D01*
X181250907Y-118134706D01*
X181277920Y-118069050D01*
X181287122Y-118058782D01*
X181646405Y-117699499D01*
X181708717Y-117665473D01*
X181779532Y-117670538D01*
X181836368Y-117713085D01*
X181861179Y-117779605D01*
X181861500Y-117788594D01*
X181861500Y-118281233D01*
X181860973Y-118292416D01*
X181859298Y-118299909D01*
X181859547Y-118307835D01*
X181859547Y-118307836D01*
X181861438Y-118367986D01*
X181861500Y-118371945D01*
X181861500Y-118399856D01*
X181861997Y-118403790D01*
X181861997Y-118403791D01*
X181862005Y-118403856D01*
X181862938Y-118415693D01*
X181864327Y-118459889D01*
X181868099Y-118472872D01*
X181869978Y-118479339D01*
X181873987Y-118498700D01*
X181876526Y-118518797D01*
X181879445Y-118526168D01*
X181879445Y-118526170D01*
X181892804Y-118559912D01*
X181896649Y-118571142D01*
X181908982Y-118613593D01*
X181913015Y-118620412D01*
X181913017Y-118620417D01*
X181919293Y-118631028D01*
X181927988Y-118648776D01*
X181935448Y-118667617D01*
X181940111Y-118674035D01*
X181943123Y-118678181D01*
X181964888Y-118745169D01*
X181966496Y-118745000D01*
X181983187Y-118903803D01*
X181986458Y-118934928D01*
X182045473Y-119116556D01*
X182140960Y-119281944D01*
X182145378Y-119286851D01*
X182145379Y-119286852D01*
X182235161Y-119386565D01*
X182268747Y-119423866D01*
X182423248Y-119536118D01*
X182429276Y-119538802D01*
X182429278Y-119538803D01*
X182591681Y-119611109D01*
X182597712Y-119613794D01*
X182691112Y-119633647D01*
X182778056Y-119652128D01*
X182778061Y-119652128D01*
X182784513Y-119653500D01*
X182975487Y-119653500D01*
X182981939Y-119652128D01*
X182981944Y-119652128D01*
X183068888Y-119633647D01*
X183162288Y-119613794D01*
X183168319Y-119611109D01*
X183330722Y-119538803D01*
X183330724Y-119538802D01*
X183336752Y-119536118D01*
X183491253Y-119423866D01*
X183524839Y-119386565D01*
X183614621Y-119286852D01*
X183614622Y-119286851D01*
X183619040Y-119281944D01*
X183714527Y-119116556D01*
X183773542Y-118934928D01*
X183776814Y-118903803D01*
X183792814Y-118751565D01*
X183793504Y-118745000D01*
X183791329Y-118724308D01*
X183780586Y-118622095D01*
X184592001Y-118622095D01*
X184592338Y-118628614D01*
X184602257Y-118724206D01*
X184605149Y-118737600D01*
X184656588Y-118891784D01*
X184662761Y-118904962D01*
X184748063Y-119042807D01*
X184757099Y-119054208D01*
X184871829Y-119168739D01*
X184883240Y-119177751D01*
X185021243Y-119262816D01*
X185034424Y-119268963D01*
X185188710Y-119320138D01*
X185202086Y-119323005D01*
X185296438Y-119332672D01*
X185302854Y-119333000D01*
X185490385Y-119333000D01*
X185505624Y-119328525D01*
X185506829Y-119327135D01*
X185508500Y-119319452D01*
X185508500Y-119314884D01*
X186016500Y-119314884D01*
X186020975Y-119330123D01*
X186022365Y-119331328D01*
X186030048Y-119332999D01*
X186222095Y-119332999D01*
X186228614Y-119332662D01*
X186324206Y-119322743D01*
X186337600Y-119319851D01*
X186491784Y-119268412D01*
X186504962Y-119262239D01*
X186642807Y-119176937D01*
X186654208Y-119167901D01*
X186768739Y-119053171D01*
X186777751Y-119041760D01*
X186862816Y-118903757D01*
X186868963Y-118890576D01*
X186920138Y-118736290D01*
X186923005Y-118722914D01*
X186932672Y-118628562D01*
X186933000Y-118622146D01*
X186933000Y-117747115D01*
X186928525Y-117731876D01*
X186927135Y-117730671D01*
X186919452Y-117729000D01*
X186034615Y-117729000D01*
X186019376Y-117733475D01*
X186018171Y-117734865D01*
X186016500Y-117742548D01*
X186016500Y-119314884D01*
X185508500Y-119314884D01*
X185508500Y-117747115D01*
X185504025Y-117731876D01*
X185502635Y-117730671D01*
X185494952Y-117729000D01*
X184610116Y-117729000D01*
X184594877Y-117733475D01*
X184593672Y-117734865D01*
X184592001Y-117742548D01*
X184592001Y-118622095D01*
X183780586Y-118622095D01*
X183774232Y-118561635D01*
X183774232Y-118561633D01*
X183773542Y-118555072D01*
X183714527Y-118373444D01*
X183709075Y-118364000D01*
X183622341Y-118213774D01*
X183619040Y-118208056D01*
X183609780Y-118197771D01*
X183495675Y-118071045D01*
X183495674Y-118071044D01*
X183491253Y-118066134D01*
X183336752Y-117953882D01*
X183330726Y-117951199D01*
X183330719Y-117951195D01*
X183203252Y-117894444D01*
X183149156Y-117848464D01*
X183128500Y-117779337D01*
X183128500Y-117202885D01*
X184592000Y-117202885D01*
X184596475Y-117218124D01*
X184597865Y-117219329D01*
X184605548Y-117221000D01*
X185490385Y-117221000D01*
X185505624Y-117216525D01*
X185506829Y-117215135D01*
X185508500Y-117207452D01*
X185508500Y-117202885D01*
X186016500Y-117202885D01*
X186020975Y-117218124D01*
X186022365Y-117219329D01*
X186030048Y-117221000D01*
X186914884Y-117221000D01*
X186930123Y-117216525D01*
X186931328Y-117215135D01*
X186932999Y-117207452D01*
X186932999Y-116327905D01*
X186932662Y-116321386D01*
X186922743Y-116225794D01*
X186919851Y-116212400D01*
X186868412Y-116058216D01*
X186862239Y-116045038D01*
X186776937Y-115907193D01*
X186767901Y-115895792D01*
X186653171Y-115781261D01*
X186641760Y-115772249D01*
X186503757Y-115687184D01*
X186490576Y-115681037D01*
X186336290Y-115629862D01*
X186322914Y-115626995D01*
X186228562Y-115617328D01*
X186222145Y-115617000D01*
X186034615Y-115617000D01*
X186019376Y-115621475D01*
X186018171Y-115622865D01*
X186016500Y-115630548D01*
X186016500Y-117202885D01*
X185508500Y-117202885D01*
X185508500Y-115635116D01*
X185504025Y-115619877D01*
X185502635Y-115618672D01*
X185494952Y-115617001D01*
X185302905Y-115617001D01*
X185296386Y-115617338D01*
X185200794Y-115627257D01*
X185187400Y-115630149D01*
X185033216Y-115681588D01*
X185020038Y-115687761D01*
X184882193Y-115773063D01*
X184870792Y-115782099D01*
X184756261Y-115896829D01*
X184747249Y-115908240D01*
X184662184Y-116046243D01*
X184656037Y-116059424D01*
X184604862Y-116213710D01*
X184601995Y-116227086D01*
X184592328Y-116321438D01*
X184592000Y-116327855D01*
X184592000Y-117202885D01*
X183128500Y-117202885D01*
X183128500Y-115660144D01*
X183126437Y-115643817D01*
X183137742Y-115573729D01*
X183185146Y-115520877D01*
X183226861Y-115504447D01*
X183249513Y-115499941D01*
X183294369Y-115469969D01*
X183299399Y-115466608D01*
X183309715Y-115459715D01*
X183328363Y-115431806D01*
X183343047Y-115409831D01*
X183343048Y-115409830D01*
X183349941Y-115399513D01*
X183351215Y-115393110D01*
X183393209Y-115341000D01*
X183465068Y-115318500D01*
X184956233Y-115318500D01*
X184967416Y-115319027D01*
X184974909Y-115320702D01*
X184982835Y-115320453D01*
X184982836Y-115320453D01*
X185042986Y-115318562D01*
X185046945Y-115318500D01*
X185074856Y-115318500D01*
X185078791Y-115318003D01*
X185078856Y-115317995D01*
X185090693Y-115317062D01*
X185122951Y-115316048D01*
X185126970Y-115315922D01*
X185134889Y-115315673D01*
X185154343Y-115310021D01*
X185173700Y-115306013D01*
X185185930Y-115304468D01*
X185185931Y-115304468D01*
X185193797Y-115303474D01*
X185201168Y-115300555D01*
X185201170Y-115300555D01*
X185234912Y-115287196D01*
X185246142Y-115283351D01*
X185280983Y-115273229D01*
X185280984Y-115273229D01*
X185288593Y-115271018D01*
X185295412Y-115266985D01*
X185295417Y-115266983D01*
X185306028Y-115260707D01*
X185323776Y-115252012D01*
X185342617Y-115244552D01*
X185349035Y-115239889D01*
X185349039Y-115239887D01*
X185359120Y-115232563D01*
X185433179Y-115208500D01*
X185515487Y-115208500D01*
X185521939Y-115207128D01*
X185521944Y-115207128D01*
X185608888Y-115188647D01*
X185702288Y-115168794D01*
X185714046Y-115163559D01*
X185870722Y-115093803D01*
X185870724Y-115093802D01*
X185876752Y-115091118D01*
X185883753Y-115086032D01*
X186022970Y-114984884D01*
X186031253Y-114978866D01*
X186035668Y-114973963D01*
X186040580Y-114969540D01*
X186041705Y-114970789D01*
X186095014Y-114937949D01*
X186128200Y-114933500D01*
X187010406Y-114933500D01*
X187078527Y-114953502D01*
X187099501Y-114970405D01*
X187865496Y-115736400D01*
X187899522Y-115798712D01*
X187894457Y-115869527D01*
X187877189Y-115900201D01*
X187875695Y-115901697D01*
X187871853Y-115907929D01*
X187871852Y-115907931D01*
X187793991Y-116034245D01*
X187782885Y-116052262D01*
X187727203Y-116220139D01*
X187716500Y-116324600D01*
X187716500Y-118625400D01*
X187716837Y-118628646D01*
X187716837Y-118628650D01*
X187726752Y-118724206D01*
X187727474Y-118731166D01*
X187729655Y-118737702D01*
X187729655Y-118737704D01*
X187735517Y-118755273D01*
X187783450Y-118898946D01*
X187876522Y-119049348D01*
X187881704Y-119054521D01*
X187892163Y-119064962D01*
X188001697Y-119174305D01*
X188007927Y-119178145D01*
X188007928Y-119178146D01*
X188145288Y-119262816D01*
X188152262Y-119267115D01*
X188211768Y-119286852D01*
X188313611Y-119320632D01*
X188313613Y-119320632D01*
X188320139Y-119322797D01*
X188326975Y-119323497D01*
X188326978Y-119323498D01*
X188369954Y-119327901D01*
X188424600Y-119333500D01*
X189350400Y-119333500D01*
X189353646Y-119333163D01*
X189353650Y-119333163D01*
X189449308Y-119323238D01*
X189449312Y-119323237D01*
X189456166Y-119322526D01*
X189462702Y-119320345D01*
X189462704Y-119320345D01*
X189594944Y-119276226D01*
X189623946Y-119266550D01*
X189774348Y-119173478D01*
X189899305Y-119048303D01*
X189918522Y-119017128D01*
X189988275Y-118903968D01*
X189988276Y-118903966D01*
X189992115Y-118897738D01*
X190042776Y-118745000D01*
X190045632Y-118736389D01*
X190045632Y-118736387D01*
X190047797Y-118729861D01*
X190049218Y-118715998D01*
X190056104Y-118648787D01*
X190058500Y-118625400D01*
X190058500Y-116324600D01*
X190056265Y-116303056D01*
X190048238Y-116225692D01*
X190048237Y-116225688D01*
X190047526Y-116218834D01*
X189991550Y-116051054D01*
X189898478Y-115900652D01*
X189773303Y-115775695D01*
X189757909Y-115766206D01*
X189628968Y-115686725D01*
X189628966Y-115686724D01*
X189622738Y-115682885D01*
X189552906Y-115659723D01*
X189536304Y-115654216D01*
X189477944Y-115613785D01*
X189467522Y-115598768D01*
X189463209Y-115591476D01*
X189454512Y-115573724D01*
X189447052Y-115554883D01*
X189438566Y-115543202D01*
X189421064Y-115519113D01*
X189414548Y-115509193D01*
X189396080Y-115477965D01*
X189396078Y-115477962D01*
X189392042Y-115471138D01*
X189377721Y-115456817D01*
X189364880Y-115441783D01*
X189361821Y-115437573D01*
X189352972Y-115425393D01*
X189318895Y-115397202D01*
X189310116Y-115389212D01*
X187828652Y-113907747D01*
X187821112Y-113899461D01*
X187817000Y-113892982D01*
X187767348Y-113846356D01*
X187764507Y-113843602D01*
X187744770Y-113823865D01*
X187741573Y-113821385D01*
X187732551Y-113813680D01*
X187706100Y-113788841D01*
X187700321Y-113783414D01*
X187693375Y-113779595D01*
X187693372Y-113779593D01*
X187682566Y-113773652D01*
X187666047Y-113762801D01*
X187660048Y-113758148D01*
X187650041Y-113750386D01*
X187642772Y-113747241D01*
X187642768Y-113747238D01*
X187609463Y-113732826D01*
X187598813Y-113727609D01*
X187560060Y-113706305D01*
X187540437Y-113701267D01*
X187521734Y-113694863D01*
X187510420Y-113689967D01*
X187510419Y-113689967D01*
X187503145Y-113686819D01*
X187495322Y-113685580D01*
X187495312Y-113685577D01*
X187459476Y-113679901D01*
X187447856Y-113677495D01*
X187412711Y-113668472D01*
X187412710Y-113668472D01*
X187405030Y-113666500D01*
X187384776Y-113666500D01*
X187365065Y-113664949D01*
X187352886Y-113663020D01*
X187345057Y-113661780D01*
X187337165Y-113662526D01*
X187301039Y-113665941D01*
X187289181Y-113666500D01*
X186128200Y-113666500D01*
X186060079Y-113646498D01*
X186040853Y-113630157D01*
X186040580Y-113630460D01*
X186035668Y-113626037D01*
X186031253Y-113621134D01*
X185971467Y-113577697D01*
X185882094Y-113512763D01*
X185882093Y-113512762D01*
X185876752Y-113508882D01*
X185870724Y-113506198D01*
X185870722Y-113506197D01*
X185708319Y-113433891D01*
X185708318Y-113433891D01*
X185702288Y-113431206D01*
X185607147Y-113410983D01*
X185521944Y-113392872D01*
X185521939Y-113392872D01*
X185515487Y-113391500D01*
X185324513Y-113391500D01*
X185318061Y-113392872D01*
X185318056Y-113392872D01*
X185232853Y-113410983D01*
X185137712Y-113431206D01*
X185131682Y-113433891D01*
X185131681Y-113433891D01*
X184969278Y-113506197D01*
X184969276Y-113506198D01*
X184963248Y-113508882D01*
X184957907Y-113512762D01*
X184957906Y-113512763D01*
X184914633Y-113544203D01*
X184808747Y-113621134D01*
X184804326Y-113626044D01*
X184804325Y-113626045D01*
X184695203Y-113747238D01*
X184680960Y-113763056D01*
X184585473Y-113928444D01*
X184583433Y-113934724D01*
X184583432Y-113934725D01*
X184573778Y-113964437D01*
X184533704Y-114023042D01*
X184468307Y-114050679D01*
X184453945Y-114051500D01*
X183475068Y-114051500D01*
X183406947Y-114031498D01*
X183361185Y-113976741D01*
X183359941Y-113970487D01*
X183337647Y-113937121D01*
X183326608Y-113920601D01*
X183319715Y-113910285D01*
X183259513Y-113870059D01*
X183206428Y-113859500D01*
X182833572Y-113859500D01*
X182827507Y-113860706D01*
X182827501Y-113860707D01*
X182821233Y-113861954D01*
X182750519Y-113855625D01*
X182726653Y-113843141D01*
X182717699Y-113837159D01*
X182717698Y-113837159D01*
X182707378Y-113830263D01*
X182702354Y-113829264D01*
X182651003Y-113787885D01*
X182628500Y-113716021D01*
X182628500Y-110953767D01*
X182629027Y-110942584D01*
X182630702Y-110935091D01*
X182628562Y-110867000D01*
X182628500Y-110863043D01*
X182628500Y-110835144D01*
X182627996Y-110831153D01*
X182627063Y-110819311D01*
X182626409Y-110798483D01*
X182625674Y-110775111D01*
X182623462Y-110767497D01*
X182623461Y-110767492D01*
X182620023Y-110755659D01*
X182616012Y-110736295D01*
X182614467Y-110724064D01*
X182613474Y-110716203D01*
X182610557Y-110708836D01*
X182610556Y-110708831D01*
X182597198Y-110675092D01*
X182593354Y-110663865D01*
X182588964Y-110648757D01*
X182581018Y-110621407D01*
X182570707Y-110603972D01*
X182562012Y-110586224D01*
X182554552Y-110567383D01*
X182528564Y-110531613D01*
X182522048Y-110521693D01*
X182503580Y-110490465D01*
X182503578Y-110490462D01*
X182499542Y-110483638D01*
X182485221Y-110469317D01*
X182472380Y-110454283D01*
X182465131Y-110444306D01*
X182460472Y-110437893D01*
X182426395Y-110409702D01*
X182417616Y-110401712D01*
X180401152Y-108385247D01*
X180393612Y-108376961D01*
X180389500Y-108370482D01*
X180339848Y-108323856D01*
X180337007Y-108321102D01*
X180317270Y-108301365D01*
X180314073Y-108298885D01*
X180305051Y-108291180D01*
X180278600Y-108266341D01*
X180272821Y-108260914D01*
X180265875Y-108257095D01*
X180265872Y-108257093D01*
X180255066Y-108251152D01*
X180238547Y-108240301D01*
X180238083Y-108239941D01*
X180222541Y-108227886D01*
X180215272Y-108224741D01*
X180215268Y-108224738D01*
X180181963Y-108210326D01*
X180171313Y-108205109D01*
X180132560Y-108183805D01*
X180112937Y-108178767D01*
X180094234Y-108172363D01*
X180082920Y-108167467D01*
X180082919Y-108167467D01*
X180075645Y-108164319D01*
X180067822Y-108163080D01*
X180067812Y-108163077D01*
X180031976Y-108157401D01*
X180020356Y-108154995D01*
X179985211Y-108145972D01*
X179985210Y-108145972D01*
X179977530Y-108144000D01*
X179957276Y-108144000D01*
X179937565Y-108142449D01*
X179936385Y-108142262D01*
X179917557Y-108139280D01*
X179909665Y-108140026D01*
X179873539Y-108143441D01*
X179861681Y-108144000D01*
X179188575Y-108144000D01*
X179120454Y-108123998D01*
X179081431Y-108084303D01*
X179081316Y-108084116D01*
X179023478Y-107990652D01*
X178997921Y-107965139D01*
X178903483Y-107870866D01*
X178898303Y-107865695D01*
X178892072Y-107861854D01*
X178753968Y-107776725D01*
X178753966Y-107776724D01*
X178747738Y-107772885D01*
X178587254Y-107719655D01*
X178586389Y-107719368D01*
X178586387Y-107719368D01*
X178579861Y-107717203D01*
X178573025Y-107716503D01*
X178573022Y-107716502D01*
X178529969Y-107712091D01*
X178475400Y-107706500D01*
X177124600Y-107706500D01*
X177121354Y-107706837D01*
X177121350Y-107706837D01*
X177025692Y-107716762D01*
X177025688Y-107716763D01*
X177018834Y-107717474D01*
X177012298Y-107719655D01*
X177012296Y-107719655D01*
X176880194Y-107763728D01*
X176851054Y-107773450D01*
X176700652Y-107866522D01*
X176575695Y-107991697D01*
X176525638Y-108072905D01*
X176518727Y-108084116D01*
X176465955Y-108131609D01*
X176411467Y-108144000D01*
X176127179Y-108144000D01*
X176059058Y-108123998D01*
X176018060Y-108081000D01*
X175999040Y-108048056D01*
X175942696Y-107985479D01*
X175875675Y-107911045D01*
X175875674Y-107911044D01*
X175871253Y-107906134D01*
X175716752Y-107793882D01*
X175710724Y-107791198D01*
X175710722Y-107791197D01*
X175548319Y-107718891D01*
X175548318Y-107718891D01*
X175542288Y-107716206D01*
X175448888Y-107696353D01*
X175361944Y-107677872D01*
X175361939Y-107677872D01*
X175355487Y-107676500D01*
X175164513Y-107676500D01*
X175158061Y-107677872D01*
X175158056Y-107677872D01*
X175071112Y-107696353D01*
X174977712Y-107716206D01*
X174971682Y-107718891D01*
X174971681Y-107718891D01*
X174809278Y-107791197D01*
X174809276Y-107791198D01*
X174803248Y-107793882D01*
X174648747Y-107906134D01*
X174644326Y-107911044D01*
X174644325Y-107911045D01*
X174577305Y-107985479D01*
X174520960Y-108048056D01*
X174486348Y-108108005D01*
X174446873Y-108176379D01*
X174425473Y-108213444D01*
X174366458Y-108395072D01*
X174365768Y-108401633D01*
X174365768Y-108401635D01*
X174354810Y-108505897D01*
X174327797Y-108571554D01*
X174269575Y-108612184D01*
X174198630Y-108614887D01*
X174137486Y-108578805D01*
X174105556Y-108515394D01*
X174103500Y-108492727D01*
X174103500Y-108414600D01*
X174101474Y-108395072D01*
X174093238Y-108315692D01*
X174093237Y-108315688D01*
X174092526Y-108308834D01*
X174089226Y-108298941D01*
X174038868Y-108148002D01*
X174036550Y-108141054D01*
X173943478Y-107990652D01*
X173917921Y-107965139D01*
X173823483Y-107870866D01*
X173818303Y-107865695D01*
X173812072Y-107861854D01*
X173673968Y-107776725D01*
X173673966Y-107776724D01*
X173667738Y-107772885D01*
X173507254Y-107719655D01*
X173506389Y-107719368D01*
X173506387Y-107719368D01*
X173499861Y-107717203D01*
X173493025Y-107716503D01*
X173493022Y-107716502D01*
X173449969Y-107712091D01*
X173395400Y-107706500D01*
X172044600Y-107706500D01*
X172041354Y-107706837D01*
X172041350Y-107706837D01*
X171945692Y-107716762D01*
X171945688Y-107716763D01*
X171938834Y-107717474D01*
X171932298Y-107719655D01*
X171932296Y-107719655D01*
X171800194Y-107763728D01*
X171771054Y-107773450D01*
X171620652Y-107866522D01*
X171495695Y-107991697D01*
X171491855Y-107997927D01*
X171491854Y-107997928D01*
X171409452Y-108131609D01*
X171402885Y-108142262D01*
X171347203Y-108310139D01*
X171346503Y-108316975D01*
X171346502Y-108316978D01*
X171345935Y-108322516D01*
X171336500Y-108414600D01*
X171336500Y-109140400D01*
X171336837Y-109143646D01*
X171336837Y-109143650D01*
X171341268Y-109186351D01*
X171347474Y-109246166D01*
X171349654Y-109252699D01*
X171349656Y-109252710D01*
X171375375Y-109329796D01*
X171377961Y-109400746D01*
X171341777Y-109461830D01*
X171302230Y-109485123D01*
X171302712Y-109486206D01*
X171134278Y-109561197D01*
X171134276Y-109561198D01*
X171128248Y-109563882D01*
X171122907Y-109567762D01*
X171122906Y-109567763D01*
X171072843Y-109604136D01*
X170973747Y-109676134D01*
X170845960Y-109818056D01*
X170750473Y-109983444D01*
X170691458Y-110165072D01*
X170690768Y-110171633D01*
X170690768Y-110171635D01*
X170689434Y-110184329D01*
X170671496Y-110355000D01*
X170672186Y-110361565D01*
X170690059Y-110531613D01*
X170691458Y-110544928D01*
X170750473Y-110726556D01*
X170845960Y-110891944D01*
X170919137Y-110973215D01*
X170949853Y-111037221D01*
X170951500Y-111057524D01*
X170951500Y-111307771D01*
X170931498Y-111375892D01*
X170877842Y-111422385D01*
X170807568Y-111432489D01*
X170751439Y-111409707D01*
X170642094Y-111330263D01*
X170642093Y-111330262D01*
X170636752Y-111326382D01*
X170630724Y-111323698D01*
X170630722Y-111323697D01*
X170468319Y-111251391D01*
X170468318Y-111251391D01*
X170462288Y-111248706D01*
X170368888Y-111228853D01*
X170281944Y-111210372D01*
X170281939Y-111210372D01*
X170275487Y-111209000D01*
X170084513Y-111209000D01*
X170078061Y-111210372D01*
X170078056Y-111210372D01*
X169991113Y-111228853D01*
X169897712Y-111248706D01*
X169891682Y-111251391D01*
X169891681Y-111251391D01*
X169729278Y-111323697D01*
X169729276Y-111323698D01*
X169723248Y-111326382D01*
X169717907Y-111330262D01*
X169717906Y-111330263D01*
X169716173Y-111331522D01*
X169568747Y-111438634D01*
X169564326Y-111443544D01*
X169564325Y-111443545D01*
X169546873Y-111462928D01*
X169440960Y-111580556D01*
X169345473Y-111745944D01*
X169286458Y-111927572D01*
X169285768Y-111934133D01*
X169285768Y-111934135D01*
X169275721Y-112029729D01*
X169266496Y-112117500D01*
X169267186Y-112124065D01*
X169279662Y-112242763D01*
X169286458Y-112307428D01*
X169345473Y-112489056D01*
X169440960Y-112654444D01*
X169514137Y-112735715D01*
X169544853Y-112799721D01*
X169546500Y-112820024D01*
X169546500Y-113086233D01*
X169545973Y-113097416D01*
X169544298Y-113104909D01*
X169544547Y-113112835D01*
X169544547Y-113112836D01*
X169546438Y-113172986D01*
X169546500Y-113176945D01*
X169546500Y-113204856D01*
X169546997Y-113208790D01*
X169546997Y-113208791D01*
X169547005Y-113208856D01*
X169547938Y-113220693D01*
X169549327Y-113264889D01*
X169554978Y-113284339D01*
X169558987Y-113303700D01*
X169561526Y-113323797D01*
X169564445Y-113331168D01*
X169564445Y-113331170D01*
X169577804Y-113364912D01*
X169581649Y-113376142D01*
X169591771Y-113410983D01*
X169593982Y-113418593D01*
X169598015Y-113425412D01*
X169598017Y-113425417D01*
X169604293Y-113436028D01*
X169612988Y-113453776D01*
X169620448Y-113472617D01*
X169625110Y-113479033D01*
X169625110Y-113479034D01*
X169646436Y-113508387D01*
X169652952Y-113518307D01*
X169663295Y-113535795D01*
X169675458Y-113556362D01*
X169689779Y-113570683D01*
X169702619Y-113585716D01*
X169714528Y-113602107D01*
X169732834Y-113617251D01*
X169748605Y-113630298D01*
X169757384Y-113638288D01*
X170142293Y-114023197D01*
X170176319Y-114085509D01*
X170178461Y-114098685D01*
X170183255Y-114142817D01*
X170180826Y-114143081D01*
X170180826Y-114171920D01*
X170183255Y-114172184D01*
X170176500Y-114234366D01*
X170176500Y-114580634D01*
X170176869Y-114584031D01*
X170182340Y-114634392D01*
X170169812Y-114704275D01*
X170121491Y-114756290D01*
X170057077Y-114774000D01*
X169151267Y-114774000D01*
X169140084Y-114773473D01*
X169132591Y-114771798D01*
X169124665Y-114772047D01*
X169124664Y-114772047D01*
X169064514Y-114773938D01*
X169060555Y-114774000D01*
X169032644Y-114774000D01*
X169028710Y-114774497D01*
X169028709Y-114774497D01*
X169028644Y-114774505D01*
X169016807Y-114775438D01*
X168984549Y-114776452D01*
X168980530Y-114776578D01*
X168972611Y-114776827D01*
X168953157Y-114782479D01*
X168933800Y-114786487D01*
X168921570Y-114788032D01*
X168921569Y-114788032D01*
X168913703Y-114789026D01*
X168906332Y-114791945D01*
X168906330Y-114791945D01*
X168872588Y-114805304D01*
X168861358Y-114809149D01*
X168826517Y-114819271D01*
X168826516Y-114819271D01*
X168818907Y-114821482D01*
X168812088Y-114825515D01*
X168812083Y-114825517D01*
X168801472Y-114831793D01*
X168783724Y-114840488D01*
X168764883Y-114847948D01*
X168758467Y-114852610D01*
X168758466Y-114852610D01*
X168729113Y-114873936D01*
X168719193Y-114880452D01*
X168687965Y-114898920D01*
X168687962Y-114898922D01*
X168681138Y-114902958D01*
X168666817Y-114917279D01*
X168651784Y-114930119D01*
X168635393Y-114942028D01*
X168611600Y-114970789D01*
X168607202Y-114976105D01*
X168599212Y-114984884D01*
X164239500Y-119344595D01*
X164177188Y-119378621D01*
X164150405Y-119381500D01*
X143001000Y-119381500D01*
X142932879Y-119361498D01*
X142886386Y-119307842D01*
X142875000Y-119255500D01*
X142875000Y-117475000D01*
X151486496Y-117475000D01*
X151487186Y-117481565D01*
X151503187Y-117633803D01*
X151506458Y-117664928D01*
X151565473Y-117846556D01*
X151568776Y-117852278D01*
X151568777Y-117852279D01*
X151578445Y-117869024D01*
X151660960Y-118011944D01*
X151665378Y-118016851D01*
X151665379Y-118016852D01*
X151709753Y-118066134D01*
X151788747Y-118153866D01*
X151943248Y-118266118D01*
X151949276Y-118268802D01*
X151949278Y-118268803D01*
X152111681Y-118341109D01*
X152117712Y-118343794D01*
X152211112Y-118363647D01*
X152298056Y-118382128D01*
X152298061Y-118382128D01*
X152304513Y-118383500D01*
X152495487Y-118383500D01*
X152501939Y-118382128D01*
X152501944Y-118382128D01*
X152588888Y-118363647D01*
X152682288Y-118343794D01*
X152688319Y-118341109D01*
X152850722Y-118268803D01*
X152850724Y-118268802D01*
X152856752Y-118266118D01*
X153011253Y-118153866D01*
X153090247Y-118066134D01*
X153134621Y-118016852D01*
X153134622Y-118016851D01*
X153139040Y-118011944D01*
X153163892Y-117968899D01*
X153215273Y-117919907D01*
X153284986Y-117906470D01*
X153350897Y-117932857D01*
X153392080Y-117990688D01*
X153398320Y-118045070D01*
X153396106Y-118066134D01*
X153391496Y-118110000D01*
X153392186Y-118116565D01*
X153410740Y-118293093D01*
X153411458Y-118299928D01*
X153470473Y-118481556D01*
X153473776Y-118487278D01*
X153473777Y-118487279D01*
X153480371Y-118498700D01*
X153565960Y-118646944D01*
X153570378Y-118651851D01*
X153570379Y-118651852D01*
X153648339Y-118738435D01*
X153693747Y-118788866D01*
X153848248Y-118901118D01*
X153854276Y-118903802D01*
X153854278Y-118903803D01*
X153953675Y-118948057D01*
X154022712Y-118978794D01*
X154116112Y-118998647D01*
X154203056Y-119017128D01*
X154203061Y-119017128D01*
X154209513Y-119018500D01*
X154400487Y-119018500D01*
X154406939Y-119017128D01*
X154406944Y-119017128D01*
X154493888Y-118998647D01*
X154587288Y-118978794D01*
X154656325Y-118948057D01*
X154755722Y-118903803D01*
X154755724Y-118903802D01*
X154761752Y-118901118D01*
X154916253Y-118788866D01*
X154961661Y-118738435D01*
X155039621Y-118651852D01*
X155039622Y-118651851D01*
X155044040Y-118646944D01*
X155129629Y-118498700D01*
X155136223Y-118487279D01*
X155136224Y-118487278D01*
X155139527Y-118481556D01*
X155198542Y-118299928D01*
X155199261Y-118293093D01*
X155217814Y-118116565D01*
X155218504Y-118110000D01*
X155203674Y-117968901D01*
X155199232Y-117926635D01*
X155199232Y-117926633D01*
X155198542Y-117920072D01*
X155139527Y-117738444D01*
X155134075Y-117729000D01*
X155084175Y-117642572D01*
X155044040Y-117573056D01*
X154998744Y-117522749D01*
X154920675Y-117436045D01*
X154920674Y-117436044D01*
X154916253Y-117431134D01*
X154768261Y-117323611D01*
X154767094Y-117322763D01*
X154767093Y-117322762D01*
X154761752Y-117318882D01*
X154755724Y-117316198D01*
X154755722Y-117316197D01*
X154593319Y-117243891D01*
X154593318Y-117243891D01*
X154587288Y-117241206D01*
X154492227Y-117221000D01*
X154406944Y-117202872D01*
X154406939Y-117202872D01*
X154400487Y-117201500D01*
X154209513Y-117201500D01*
X154203061Y-117202872D01*
X154203056Y-117202872D01*
X154117773Y-117221000D01*
X154022712Y-117241206D01*
X154016682Y-117243891D01*
X154016681Y-117243891D01*
X153854278Y-117316197D01*
X153854276Y-117316198D01*
X153848248Y-117318882D01*
X153842907Y-117322762D01*
X153842906Y-117322763D01*
X153841739Y-117323611D01*
X153693747Y-117431134D01*
X153689326Y-117436044D01*
X153689325Y-117436045D01*
X153611257Y-117522749D01*
X153565960Y-117573056D01*
X153541108Y-117616101D01*
X153489727Y-117665093D01*
X153420014Y-117678530D01*
X153354103Y-117652143D01*
X153312920Y-117594312D01*
X153306680Y-117539930D01*
X153312814Y-117481565D01*
X153313504Y-117475000D01*
X153299009Y-117337086D01*
X153294232Y-117291635D01*
X153294232Y-117291633D01*
X153293542Y-117285072D01*
X153234527Y-117103444D01*
X153139040Y-116938056D01*
X153089169Y-116882668D01*
X153015675Y-116801045D01*
X153015674Y-116801044D01*
X153011253Y-116796134D01*
X152856752Y-116683882D01*
X152850724Y-116681198D01*
X152850722Y-116681197D01*
X152688319Y-116608891D01*
X152688318Y-116608891D01*
X152682288Y-116606206D01*
X152588888Y-116586353D01*
X152501944Y-116567872D01*
X152501939Y-116567872D01*
X152495487Y-116566500D01*
X152304513Y-116566500D01*
X152298061Y-116567872D01*
X152298056Y-116567872D01*
X152211112Y-116586353D01*
X152117712Y-116606206D01*
X152111682Y-116608891D01*
X152111681Y-116608891D01*
X151949278Y-116681197D01*
X151949276Y-116681198D01*
X151943248Y-116683882D01*
X151788747Y-116796134D01*
X151784326Y-116801044D01*
X151784325Y-116801045D01*
X151710832Y-116882668D01*
X151660960Y-116938056D01*
X151565473Y-117103444D01*
X151506458Y-117285072D01*
X151505768Y-117291633D01*
X151505768Y-117291635D01*
X151500991Y-117337086D01*
X151486496Y-117475000D01*
X142875000Y-117475000D01*
X142875000Y-113982500D01*
X154978996Y-113982500D01*
X154979686Y-113989065D01*
X154997775Y-114161169D01*
X154998958Y-114172428D01*
X155057973Y-114354056D01*
X155153460Y-114519444D01*
X155157878Y-114524351D01*
X155157879Y-114524352D01*
X155276825Y-114656455D01*
X155281247Y-114661366D01*
X155435748Y-114773618D01*
X155441776Y-114776302D01*
X155441778Y-114776303D01*
X155604181Y-114848609D01*
X155610212Y-114851294D01*
X155697671Y-114869884D01*
X155790556Y-114889628D01*
X155790561Y-114889628D01*
X155797013Y-114891000D01*
X155969738Y-114891000D01*
X156037859Y-114911002D01*
X156084352Y-114964658D01*
X156094456Y-115034932D01*
X156078857Y-115079999D01*
X156010473Y-115198444D01*
X155951458Y-115380072D01*
X155950768Y-115386633D01*
X155950768Y-115386635D01*
X155939584Y-115493046D01*
X155931496Y-115570000D01*
X155932186Y-115576565D01*
X155943361Y-115682885D01*
X155951458Y-115759928D01*
X156010473Y-115941556D01*
X156105960Y-116106944D01*
X156110378Y-116111851D01*
X156110379Y-116111852D01*
X156183080Y-116192595D01*
X156233747Y-116248866D01*
X156388248Y-116361118D01*
X156394276Y-116363802D01*
X156394278Y-116363803D01*
X156491438Y-116407061D01*
X156562712Y-116438794D01*
X156656113Y-116458647D01*
X156743056Y-116477128D01*
X156743061Y-116477128D01*
X156749513Y-116478500D01*
X156940487Y-116478500D01*
X156946939Y-116477128D01*
X156946944Y-116477128D01*
X157033887Y-116458647D01*
X157127288Y-116438794D01*
X157198562Y-116407061D01*
X157295722Y-116363803D01*
X157295724Y-116363802D01*
X157301752Y-116361118D01*
X157456253Y-116248866D01*
X157506920Y-116192595D01*
X157579621Y-116111852D01*
X157579622Y-116111851D01*
X157584040Y-116106944D01*
X157679527Y-115941556D01*
X157738542Y-115759928D01*
X157746640Y-115682885D01*
X157757814Y-115576565D01*
X157758504Y-115570000D01*
X157750416Y-115493046D01*
X157739232Y-115386635D01*
X157739232Y-115386633D01*
X157738542Y-115380072D01*
X157679527Y-115198444D01*
X157584040Y-115033056D01*
X157538744Y-114982749D01*
X157460675Y-114896045D01*
X157460674Y-114896044D01*
X157456253Y-114891134D01*
X157338119Y-114805304D01*
X157307094Y-114782763D01*
X157307093Y-114782762D01*
X157301752Y-114778882D01*
X157295724Y-114776198D01*
X157295722Y-114776197D01*
X157133319Y-114703891D01*
X157133318Y-114703891D01*
X157127288Y-114701206D01*
X157014721Y-114677279D01*
X156946944Y-114662872D01*
X156946939Y-114662872D01*
X156940487Y-114661500D01*
X156767762Y-114661500D01*
X156699641Y-114641498D01*
X156653148Y-114587842D01*
X156643044Y-114517568D01*
X156658643Y-114472500D01*
X156723723Y-114359779D01*
X156723724Y-114359778D01*
X156727027Y-114354056D01*
X156786042Y-114172428D01*
X156787226Y-114161169D01*
X156805314Y-113989065D01*
X156806004Y-113982500D01*
X156803657Y-113960169D01*
X156786732Y-113799135D01*
X156786732Y-113799133D01*
X156786042Y-113792572D01*
X156727027Y-113610944D01*
X156718223Y-113595694D01*
X156668101Y-113508882D01*
X156631540Y-113445556D01*
X156607263Y-113418593D01*
X156508175Y-113308545D01*
X156508174Y-113308544D01*
X156503753Y-113303634D01*
X156373303Y-113208856D01*
X156354594Y-113195263D01*
X156354593Y-113195262D01*
X156349252Y-113191382D01*
X156343224Y-113188698D01*
X156343222Y-113188697D01*
X156180819Y-113116391D01*
X156180818Y-113116391D01*
X156174788Y-113113706D01*
X156081387Y-113093853D01*
X155994444Y-113075372D01*
X155994439Y-113075372D01*
X155987987Y-113074000D01*
X155797013Y-113074000D01*
X155790561Y-113075372D01*
X155790556Y-113075372D01*
X155703613Y-113093853D01*
X155610212Y-113113706D01*
X155604182Y-113116391D01*
X155604181Y-113116391D01*
X155441778Y-113188697D01*
X155441776Y-113188698D01*
X155435748Y-113191382D01*
X155430407Y-113195262D01*
X155430406Y-113195263D01*
X155411697Y-113208856D01*
X155281247Y-113303634D01*
X155276826Y-113308544D01*
X155276825Y-113308545D01*
X155177738Y-113418593D01*
X155153460Y-113445556D01*
X155116899Y-113508882D01*
X155066778Y-113595694D01*
X155057973Y-113610944D01*
X154998958Y-113792572D01*
X154998268Y-113799133D01*
X154998268Y-113799135D01*
X154981343Y-113960169D01*
X154978996Y-113982500D01*
X142875000Y-113982500D01*
X142875000Y-111484669D01*
X147057001Y-111484669D01*
X147057371Y-111491490D01*
X147062895Y-111542352D01*
X147066521Y-111557604D01*
X147111676Y-111678054D01*
X147120214Y-111693649D01*
X147196715Y-111795724D01*
X147209276Y-111808285D01*
X147311351Y-111884786D01*
X147326946Y-111893324D01*
X147447394Y-111938478D01*
X147462649Y-111942105D01*
X147513514Y-111947631D01*
X147520328Y-111948000D01*
X149192885Y-111948000D01*
X149208124Y-111943525D01*
X149209329Y-111942135D01*
X149211000Y-111934452D01*
X149211000Y-111929884D01*
X149719000Y-111929884D01*
X149723475Y-111945123D01*
X149724865Y-111946328D01*
X149732548Y-111947999D01*
X151409669Y-111947999D01*
X151416490Y-111947629D01*
X151467352Y-111942105D01*
X151482604Y-111938479D01*
X151603054Y-111893324D01*
X151618649Y-111884786D01*
X151720724Y-111808285D01*
X151733285Y-111795724D01*
X151809786Y-111693649D01*
X151818324Y-111678054D01*
X151863478Y-111557606D01*
X151867105Y-111542351D01*
X151872631Y-111491486D01*
X151873000Y-111484672D01*
X151873000Y-110712115D01*
X151868525Y-110696876D01*
X151867135Y-110695671D01*
X151859452Y-110694000D01*
X149737115Y-110694000D01*
X149721876Y-110698475D01*
X149720671Y-110699865D01*
X149719000Y-110707548D01*
X149719000Y-111929884D01*
X149211000Y-111929884D01*
X149211000Y-110712115D01*
X149206525Y-110696876D01*
X149205135Y-110695671D01*
X149197452Y-110694000D01*
X147075116Y-110694000D01*
X147059877Y-110698475D01*
X147058672Y-110699865D01*
X147057001Y-110707548D01*
X147057001Y-111484669D01*
X142875000Y-111484669D01*
X142875000Y-110728720D01*
X142895002Y-110660599D01*
X142936105Y-110621406D01*
X142936752Y-110621118D01*
X142945750Y-110614581D01*
X143000566Y-110574754D01*
X143091253Y-110508866D01*
X143114903Y-110482600D01*
X143214621Y-110371852D01*
X143214622Y-110371851D01*
X143219040Y-110366944D01*
X143314527Y-110201556D01*
X143325467Y-110167885D01*
X147057000Y-110167885D01*
X147061475Y-110183124D01*
X147062865Y-110184329D01*
X147070548Y-110186000D01*
X149192885Y-110186000D01*
X149208124Y-110181525D01*
X149209329Y-110180135D01*
X149211000Y-110172452D01*
X149211000Y-110167885D01*
X149719000Y-110167885D01*
X149723475Y-110183124D01*
X149724865Y-110184329D01*
X149732548Y-110186000D01*
X151854884Y-110186000D01*
X151870123Y-110181525D01*
X151871328Y-110180135D01*
X151872999Y-110172452D01*
X151872999Y-109395331D01*
X151872629Y-109388510D01*
X151867105Y-109337648D01*
X151863479Y-109322396D01*
X151818324Y-109201946D01*
X151809786Y-109186351D01*
X151733285Y-109084276D01*
X151720724Y-109071715D01*
X151618649Y-108995214D01*
X151603054Y-108986676D01*
X151482606Y-108941522D01*
X151467351Y-108937895D01*
X151416486Y-108932369D01*
X151409672Y-108932000D01*
X149737115Y-108932000D01*
X149721876Y-108936475D01*
X149720671Y-108937865D01*
X149719000Y-108945548D01*
X149719000Y-110167885D01*
X149211000Y-110167885D01*
X149211000Y-108950116D01*
X149206525Y-108934877D01*
X149205135Y-108933672D01*
X149197452Y-108932001D01*
X147520331Y-108932001D01*
X147513510Y-108932371D01*
X147462648Y-108937895D01*
X147447396Y-108941521D01*
X147326946Y-108986676D01*
X147311351Y-108995214D01*
X147209276Y-109071715D01*
X147196715Y-109084276D01*
X147120214Y-109186351D01*
X147111676Y-109201946D01*
X147066522Y-109322394D01*
X147062895Y-109337649D01*
X147057369Y-109388514D01*
X147057000Y-109395328D01*
X147057000Y-110167885D01*
X143325467Y-110167885D01*
X143373542Y-110019928D01*
X143393504Y-109830000D01*
X143388068Y-109778275D01*
X143374232Y-109646635D01*
X143374232Y-109646633D01*
X143373542Y-109640072D01*
X143314527Y-109458444D01*
X143219040Y-109293056D01*
X143145863Y-109211785D01*
X143115147Y-109147779D01*
X143113500Y-109127476D01*
X143113500Y-108244500D01*
X143133502Y-108176379D01*
X143187158Y-108129886D01*
X143239500Y-108118500D01*
X143630400Y-108118500D01*
X143633646Y-108118163D01*
X143633650Y-108118163D01*
X143729308Y-108108238D01*
X143729312Y-108108237D01*
X143736166Y-108107526D01*
X143742702Y-108105345D01*
X143742704Y-108105345D01*
X143896998Y-108053868D01*
X143903946Y-108051550D01*
X144054348Y-107958478D01*
X144179305Y-107833303D01*
X144183338Y-107826760D01*
X144268275Y-107688968D01*
X144268276Y-107688966D01*
X144272115Y-107682738D01*
X144327797Y-107514861D01*
X144338500Y-107410400D01*
X144338500Y-107407095D01*
X153957001Y-107407095D01*
X153957338Y-107413614D01*
X153967257Y-107509206D01*
X153970149Y-107522600D01*
X154021588Y-107676784D01*
X154027761Y-107689962D01*
X154113063Y-107827807D01*
X154122099Y-107839208D01*
X154236829Y-107953739D01*
X154248240Y-107962751D01*
X154386243Y-108047816D01*
X154399424Y-108053963D01*
X154553710Y-108105138D01*
X154567086Y-108108005D01*
X154661438Y-108117672D01*
X154667854Y-108118000D01*
X155542885Y-108118000D01*
X155558124Y-108113525D01*
X155559329Y-108112135D01*
X155561000Y-108104452D01*
X155561000Y-108099884D01*
X156069000Y-108099884D01*
X156073475Y-108115123D01*
X156074865Y-108116328D01*
X156082548Y-108117999D01*
X156962095Y-108117999D01*
X156968614Y-108117662D01*
X157064206Y-108107743D01*
X157077600Y-108104851D01*
X157231784Y-108053412D01*
X157244962Y-108047239D01*
X157382807Y-107961937D01*
X157394208Y-107952901D01*
X157508739Y-107838171D01*
X157517751Y-107826760D01*
X157602816Y-107688757D01*
X157608963Y-107675576D01*
X157660138Y-107521290D01*
X157663005Y-107507914D01*
X157672672Y-107413562D01*
X157673000Y-107407146D01*
X157673000Y-107219615D01*
X157668525Y-107204376D01*
X157667135Y-107203171D01*
X157659452Y-107201500D01*
X156087115Y-107201500D01*
X156071876Y-107205975D01*
X156070671Y-107207365D01*
X156069000Y-107215048D01*
X156069000Y-108099884D01*
X155561000Y-108099884D01*
X155561000Y-107219615D01*
X155556525Y-107204376D01*
X155555135Y-107203171D01*
X155547452Y-107201500D01*
X153975116Y-107201500D01*
X153959877Y-107205975D01*
X153958672Y-107207365D01*
X153957001Y-107215048D01*
X153957001Y-107407095D01*
X144338500Y-107407095D01*
X144338500Y-106484600D01*
X144338163Y-106481350D01*
X144328238Y-106385692D01*
X144328237Y-106385688D01*
X144327526Y-106378834D01*
X144271550Y-106211054D01*
X144274636Y-106210025D01*
X144266135Y-106154057D01*
X144295116Y-106089244D01*
X144354536Y-106050389D01*
X144390991Y-106045000D01*
X153904592Y-106045000D01*
X153972713Y-106065002D01*
X154019206Y-106118658D01*
X154029310Y-106188932D01*
X154022388Y-106212158D01*
X154023342Y-106212475D01*
X153969862Y-106373710D01*
X153966995Y-106387086D01*
X153957328Y-106481438D01*
X153957000Y-106487855D01*
X153957000Y-106675385D01*
X153961475Y-106690624D01*
X153962865Y-106691829D01*
X153970548Y-106693500D01*
X157654884Y-106693500D01*
X157670123Y-106689025D01*
X157671328Y-106687635D01*
X157672999Y-106679952D01*
X157672999Y-106487905D01*
X157672662Y-106481386D01*
X157662743Y-106385794D01*
X157659851Y-106372400D01*
X157606094Y-106211268D01*
X157609166Y-106210243D01*
X157600536Y-106154374D01*
X157629352Y-106089488D01*
X157688673Y-106050482D01*
X157725434Y-106045000D01*
X162143000Y-106045000D01*
X162211121Y-106065002D01*
X162257614Y-106118658D01*
X162269000Y-106171000D01*
X162269000Y-107303314D01*
X162248998Y-107371435D01*
X162195342Y-107417928D01*
X162182885Y-107422835D01*
X162166054Y-107428450D01*
X162159830Y-107432301D01*
X162159829Y-107432302D01*
X162037642Y-107507914D01*
X162015652Y-107521522D01*
X161890695Y-107646697D01*
X161886855Y-107652927D01*
X161886854Y-107652928D01*
X161848695Y-107714834D01*
X161797885Y-107797262D01*
X161742203Y-107965139D01*
X161741503Y-107971975D01*
X161741502Y-107971978D01*
X161739589Y-107990652D01*
X161731500Y-108069600D01*
X161731500Y-110370400D01*
X161731837Y-110373646D01*
X161731837Y-110373650D01*
X161741752Y-110469206D01*
X161742474Y-110476166D01*
X161744655Y-110482702D01*
X161744655Y-110482704D01*
X161772906Y-110567383D01*
X161798450Y-110643946D01*
X161891522Y-110794348D01*
X162016697Y-110919305D01*
X162022927Y-110923145D01*
X162022928Y-110923146D01*
X162052045Y-110941094D01*
X162167262Y-111012115D01*
X162168362Y-111012480D01*
X162219746Y-111057723D01*
X162239207Y-111126001D01*
X162218665Y-111193960D01*
X162168259Y-111237714D01*
X162166054Y-111238450D01*
X162015652Y-111331522D01*
X161890695Y-111456697D01*
X161886855Y-111462927D01*
X161886854Y-111462928D01*
X161828494Y-111557606D01*
X161797885Y-111607262D01*
X161742203Y-111775139D01*
X161731500Y-111879600D01*
X161731500Y-114180400D01*
X161731837Y-114183646D01*
X161731837Y-114183650D01*
X161741752Y-114279206D01*
X161742474Y-114286166D01*
X161744655Y-114292702D01*
X161744655Y-114292704D01*
X161763027Y-114347771D01*
X161798450Y-114453946D01*
X161891522Y-114604348D01*
X162016697Y-114729305D01*
X162022927Y-114733145D01*
X162022928Y-114733146D01*
X162160288Y-114817816D01*
X162167262Y-114822115D01*
X162222673Y-114840494D01*
X162328611Y-114875632D01*
X162328613Y-114875632D01*
X162335139Y-114877797D01*
X162341975Y-114878497D01*
X162341978Y-114878498D01*
X162385031Y-114882909D01*
X162439600Y-114888500D01*
X163365400Y-114888500D01*
X163368646Y-114888163D01*
X163368650Y-114888163D01*
X163464308Y-114878238D01*
X163464312Y-114878237D01*
X163471166Y-114877526D01*
X163477702Y-114875345D01*
X163477704Y-114875345D01*
X163627055Y-114825517D01*
X163638946Y-114821550D01*
X163789348Y-114728478D01*
X163914305Y-114603303D01*
X163923835Y-114587842D01*
X164003275Y-114458968D01*
X164003276Y-114458966D01*
X164007115Y-114452738D01*
X164062797Y-114284861D01*
X164073500Y-114180400D01*
X164073500Y-114177095D01*
X164857001Y-114177095D01*
X164857338Y-114183614D01*
X164867257Y-114279206D01*
X164870149Y-114292600D01*
X164921588Y-114446784D01*
X164927761Y-114459962D01*
X165013063Y-114597807D01*
X165022099Y-114609208D01*
X165136829Y-114723739D01*
X165148240Y-114732751D01*
X165286243Y-114817816D01*
X165299424Y-114823963D01*
X165453710Y-114875138D01*
X165467086Y-114878005D01*
X165561438Y-114887672D01*
X165567854Y-114888000D01*
X165755385Y-114888000D01*
X165770624Y-114883525D01*
X165771829Y-114882135D01*
X165773500Y-114874452D01*
X165773500Y-114869884D01*
X166281500Y-114869884D01*
X166285975Y-114885123D01*
X166287365Y-114886328D01*
X166295048Y-114887999D01*
X166487095Y-114887999D01*
X166493614Y-114887662D01*
X166589206Y-114877743D01*
X166602600Y-114874851D01*
X166756784Y-114823412D01*
X166769962Y-114817239D01*
X166907807Y-114731937D01*
X166919208Y-114722901D01*
X167033739Y-114608171D01*
X167042751Y-114596760D01*
X167127816Y-114458757D01*
X167133963Y-114445576D01*
X167185138Y-114291290D01*
X167188005Y-114277914D01*
X167197672Y-114183562D01*
X167198000Y-114177146D01*
X167198000Y-113302115D01*
X167193525Y-113286876D01*
X167192135Y-113285671D01*
X167184452Y-113284000D01*
X166299615Y-113284000D01*
X166284376Y-113288475D01*
X166283171Y-113289865D01*
X166281500Y-113297548D01*
X166281500Y-114869884D01*
X165773500Y-114869884D01*
X165773500Y-113302115D01*
X165769025Y-113286876D01*
X165767635Y-113285671D01*
X165759952Y-113284000D01*
X164875116Y-113284000D01*
X164859877Y-113288475D01*
X164858672Y-113289865D01*
X164857001Y-113297548D01*
X164857001Y-114177095D01*
X164073500Y-114177095D01*
X164073500Y-112757885D01*
X164857000Y-112757885D01*
X164861475Y-112773124D01*
X164862865Y-112774329D01*
X164870548Y-112776000D01*
X167179884Y-112776000D01*
X167195123Y-112771525D01*
X167196328Y-112770135D01*
X167197999Y-112762452D01*
X167197999Y-111882905D01*
X167197662Y-111876386D01*
X167187743Y-111780794D01*
X167184851Y-111767400D01*
X167133412Y-111613216D01*
X167127239Y-111600038D01*
X167041937Y-111462193D01*
X167032901Y-111450792D01*
X166918171Y-111336261D01*
X166906760Y-111327249D01*
X166768760Y-111242186D01*
X166762353Y-111239198D01*
X166709066Y-111192283D01*
X166689603Y-111124006D01*
X166710142Y-111056045D01*
X166762145Y-111010901D01*
X166769961Y-111007239D01*
X166907807Y-110921937D01*
X166919208Y-110912901D01*
X167033739Y-110798171D01*
X167042751Y-110786760D01*
X167127816Y-110648757D01*
X167133963Y-110635576D01*
X167185138Y-110481290D01*
X167188005Y-110467914D01*
X167197672Y-110373562D01*
X167198000Y-110367146D01*
X167198000Y-109492115D01*
X167193525Y-109476876D01*
X167192135Y-109475671D01*
X167184452Y-109474000D01*
X164875116Y-109474000D01*
X164859877Y-109478475D01*
X164858672Y-109479865D01*
X164857001Y-109487548D01*
X164857001Y-110367095D01*
X164857338Y-110373614D01*
X164867257Y-110469206D01*
X164870149Y-110482600D01*
X164921588Y-110636784D01*
X164927761Y-110649962D01*
X165013063Y-110787807D01*
X165022099Y-110799208D01*
X165136829Y-110913739D01*
X165148240Y-110922751D01*
X165286240Y-111007814D01*
X165292647Y-111010802D01*
X165345934Y-111057717D01*
X165365397Y-111125994D01*
X165344858Y-111193955D01*
X165292855Y-111239099D01*
X165285039Y-111242761D01*
X165147193Y-111328063D01*
X165135792Y-111337099D01*
X165021261Y-111451829D01*
X165012249Y-111463240D01*
X164927184Y-111601243D01*
X164921037Y-111614424D01*
X164869862Y-111768710D01*
X164866995Y-111782086D01*
X164857328Y-111876438D01*
X164857000Y-111882855D01*
X164857000Y-112757885D01*
X164073500Y-112757885D01*
X164073500Y-111879600D01*
X164071265Y-111858056D01*
X164063238Y-111780692D01*
X164063237Y-111780688D01*
X164062526Y-111773834D01*
X164006550Y-111606054D01*
X163913478Y-111455652D01*
X163788303Y-111330695D01*
X163637738Y-111237885D01*
X163636638Y-111237520D01*
X163585254Y-111192277D01*
X163565793Y-111123999D01*
X163586335Y-111056040D01*
X163636741Y-111012286D01*
X163638946Y-111011550D01*
X163789348Y-110918478D01*
X163914305Y-110793303D01*
X163948086Y-110738500D01*
X164003275Y-110648968D01*
X164003276Y-110648966D01*
X164007115Y-110642738D01*
X164053147Y-110503955D01*
X164060632Y-110481389D01*
X164060632Y-110481387D01*
X164062797Y-110474861D01*
X164064134Y-110461818D01*
X164073167Y-110373650D01*
X164073500Y-110370400D01*
X164073500Y-108947885D01*
X164857000Y-108947885D01*
X164861475Y-108963124D01*
X164862865Y-108964329D01*
X164870548Y-108966000D01*
X165755385Y-108966000D01*
X165770624Y-108961525D01*
X165771829Y-108960135D01*
X165773500Y-108952452D01*
X165773500Y-108947885D01*
X166281500Y-108947885D01*
X166285975Y-108963124D01*
X166287365Y-108964329D01*
X166295048Y-108966000D01*
X167179884Y-108966000D01*
X167195123Y-108961525D01*
X167196328Y-108960135D01*
X167197999Y-108952452D01*
X167197999Y-108072905D01*
X167197662Y-108066386D01*
X167187743Y-107970794D01*
X167184851Y-107957400D01*
X167133412Y-107803216D01*
X167127239Y-107790038D01*
X167041937Y-107652193D01*
X167032901Y-107640792D01*
X166918171Y-107526261D01*
X166906760Y-107517249D01*
X166768757Y-107432184D01*
X166755576Y-107426037D01*
X166601290Y-107374862D01*
X166587914Y-107371995D01*
X166493562Y-107362328D01*
X166487145Y-107362000D01*
X166299615Y-107362000D01*
X166284376Y-107366475D01*
X166283171Y-107367865D01*
X166281500Y-107375548D01*
X166281500Y-108947885D01*
X165773500Y-108947885D01*
X165773500Y-107380116D01*
X165769025Y-107364877D01*
X165767635Y-107363672D01*
X165759952Y-107362001D01*
X165567905Y-107362001D01*
X165561386Y-107362338D01*
X165465794Y-107372257D01*
X165452400Y-107375149D01*
X165298216Y-107426588D01*
X165285038Y-107432761D01*
X165147193Y-107518063D01*
X165135792Y-107527099D01*
X165021261Y-107641829D01*
X165012249Y-107653240D01*
X164927184Y-107791243D01*
X164921037Y-107804424D01*
X164869862Y-107958710D01*
X164866995Y-107972086D01*
X164857328Y-108066438D01*
X164857000Y-108072855D01*
X164857000Y-108947885D01*
X164073500Y-108947885D01*
X164073500Y-108069600D01*
X164071858Y-108053771D01*
X164063238Y-107970692D01*
X164063237Y-107970688D01*
X164062526Y-107963834D01*
X164058879Y-107952901D01*
X164008868Y-107803002D01*
X164006550Y-107796054D01*
X163913478Y-107645652D01*
X163788303Y-107520695D01*
X163778839Y-107514861D01*
X163643968Y-107431725D01*
X163643966Y-107431724D01*
X163637738Y-107427885D01*
X163630789Y-107425580D01*
X163622330Y-107422774D01*
X163563971Y-107382342D01*
X163536736Y-107316777D01*
X163536000Y-107303182D01*
X163536000Y-106212095D01*
X171337001Y-106212095D01*
X171337338Y-106218614D01*
X171347257Y-106314206D01*
X171350149Y-106327600D01*
X171401588Y-106481784D01*
X171407761Y-106494962D01*
X171493063Y-106632807D01*
X171502099Y-106644208D01*
X171616829Y-106758739D01*
X171628240Y-106767751D01*
X171766243Y-106852816D01*
X171779424Y-106858963D01*
X171933710Y-106910138D01*
X171947086Y-106913005D01*
X172041438Y-106922672D01*
X172047854Y-106923000D01*
X172447885Y-106923000D01*
X172463124Y-106918525D01*
X172464329Y-106917135D01*
X172466000Y-106909452D01*
X172466000Y-106904884D01*
X172974000Y-106904884D01*
X172978475Y-106920123D01*
X172979865Y-106921328D01*
X172987548Y-106922999D01*
X173392095Y-106922999D01*
X173398614Y-106922662D01*
X173494206Y-106912743D01*
X173507600Y-106909851D01*
X173661784Y-106858412D01*
X173674962Y-106852239D01*
X173812807Y-106766937D01*
X173824208Y-106757901D01*
X173938739Y-106643171D01*
X173947751Y-106631760D01*
X174032816Y-106493757D01*
X174038963Y-106480576D01*
X174090138Y-106326290D01*
X174093005Y-106312914D01*
X174102672Y-106218562D01*
X174103000Y-106212146D01*
X174103000Y-106212095D01*
X176417001Y-106212095D01*
X176417338Y-106218614D01*
X176427257Y-106314206D01*
X176430149Y-106327600D01*
X176481588Y-106481784D01*
X176487761Y-106494962D01*
X176573063Y-106632807D01*
X176582099Y-106644208D01*
X176696829Y-106758739D01*
X176708240Y-106767751D01*
X176846243Y-106852816D01*
X176859424Y-106858963D01*
X177013710Y-106910138D01*
X177027086Y-106913005D01*
X177121438Y-106922672D01*
X177127854Y-106923000D01*
X177527885Y-106923000D01*
X177543124Y-106918525D01*
X177544329Y-106917135D01*
X177546000Y-106909452D01*
X177546000Y-106904884D01*
X178054000Y-106904884D01*
X178058475Y-106920123D01*
X178059865Y-106921328D01*
X178067548Y-106922999D01*
X178472095Y-106922999D01*
X178478614Y-106922662D01*
X178574206Y-106912743D01*
X178587600Y-106909851D01*
X178741784Y-106858412D01*
X178754962Y-106852239D01*
X178892807Y-106766937D01*
X178904208Y-106757901D01*
X179018739Y-106643171D01*
X179027751Y-106631760D01*
X179112816Y-106493757D01*
X179118963Y-106480576D01*
X179170138Y-106326290D01*
X179173005Y-106312914D01*
X179182672Y-106218562D01*
X179183000Y-106212146D01*
X179183000Y-106124615D01*
X179178525Y-106109376D01*
X179177135Y-106108171D01*
X179169452Y-106106500D01*
X178072115Y-106106500D01*
X178056876Y-106110975D01*
X178055671Y-106112365D01*
X178054000Y-106120048D01*
X178054000Y-106904884D01*
X177546000Y-106904884D01*
X177546000Y-106124615D01*
X177541525Y-106109376D01*
X177540135Y-106108171D01*
X177532452Y-106106500D01*
X176435116Y-106106500D01*
X176419877Y-106110975D01*
X176418672Y-106112365D01*
X176417001Y-106120048D01*
X176417001Y-106212095D01*
X174103000Y-106212095D01*
X174103000Y-106124615D01*
X174098525Y-106109376D01*
X174097135Y-106108171D01*
X174089452Y-106106500D01*
X172992115Y-106106500D01*
X172976876Y-106110975D01*
X172975671Y-106112365D01*
X172974000Y-106120048D01*
X172974000Y-106904884D01*
X172466000Y-106904884D01*
X172466000Y-106124615D01*
X172461525Y-106109376D01*
X172460135Y-106108171D01*
X172452452Y-106106500D01*
X171355116Y-106106500D01*
X171339877Y-106110975D01*
X171338672Y-106112365D01*
X171337001Y-106120048D01*
X171337001Y-106212095D01*
X163536000Y-106212095D01*
X163536000Y-106171000D01*
X163556002Y-106102879D01*
X163609658Y-106056386D01*
X163662000Y-106045000D01*
X165100000Y-106045000D01*
X165100000Y-105580385D01*
X171337000Y-105580385D01*
X171341475Y-105595624D01*
X171342865Y-105596829D01*
X171350548Y-105598500D01*
X172447885Y-105598500D01*
X172463124Y-105594025D01*
X172464329Y-105592635D01*
X172466000Y-105584952D01*
X172466000Y-105580385D01*
X172974000Y-105580385D01*
X172978475Y-105595624D01*
X172979865Y-105596829D01*
X172987548Y-105598500D01*
X174084884Y-105598500D01*
X174100123Y-105594025D01*
X174101328Y-105592635D01*
X174102999Y-105584952D01*
X174102999Y-105580385D01*
X176417000Y-105580385D01*
X176421475Y-105595624D01*
X176422865Y-105596829D01*
X176430548Y-105598500D01*
X177527885Y-105598500D01*
X177543124Y-105594025D01*
X177544329Y-105592635D01*
X177546000Y-105584952D01*
X177546000Y-105580385D01*
X178054000Y-105580385D01*
X178058475Y-105595624D01*
X178059865Y-105596829D01*
X178067548Y-105598500D01*
X179164884Y-105598500D01*
X179180123Y-105594025D01*
X179181328Y-105592635D01*
X179182999Y-105584952D01*
X179182999Y-105492905D01*
X179182662Y-105486386D01*
X179172743Y-105390794D01*
X179169851Y-105377400D01*
X179118412Y-105223216D01*
X179112239Y-105210038D01*
X179026937Y-105072193D01*
X179017901Y-105060792D01*
X178903171Y-104946261D01*
X178891760Y-104937249D01*
X178753757Y-104852184D01*
X178740576Y-104846037D01*
X178586290Y-104794862D01*
X178572914Y-104791995D01*
X178478562Y-104782328D01*
X178472145Y-104782000D01*
X178072115Y-104782000D01*
X178056876Y-104786475D01*
X178055671Y-104787865D01*
X178054000Y-104795548D01*
X178054000Y-105580385D01*
X177546000Y-105580385D01*
X177546000Y-104800116D01*
X177541525Y-104784877D01*
X177540135Y-104783672D01*
X177532452Y-104782001D01*
X177127905Y-104782001D01*
X177121386Y-104782338D01*
X177025794Y-104792257D01*
X177012400Y-104795149D01*
X176858216Y-104846588D01*
X176845038Y-104852761D01*
X176707193Y-104938063D01*
X176695792Y-104947099D01*
X176581261Y-105061829D01*
X176572249Y-105073240D01*
X176487184Y-105211243D01*
X176481037Y-105224424D01*
X176429862Y-105378710D01*
X176426995Y-105392086D01*
X176417328Y-105486438D01*
X176417000Y-105492855D01*
X176417000Y-105580385D01*
X174102999Y-105580385D01*
X174102999Y-105492905D01*
X174102662Y-105486386D01*
X174092743Y-105390794D01*
X174089851Y-105377400D01*
X174038412Y-105223216D01*
X174032239Y-105210038D01*
X173946937Y-105072193D01*
X173937901Y-105060792D01*
X173823171Y-104946261D01*
X173811760Y-104937249D01*
X173673757Y-104852184D01*
X173660576Y-104846037D01*
X173506290Y-104794862D01*
X173492914Y-104791995D01*
X173398562Y-104782328D01*
X173392145Y-104782000D01*
X172992115Y-104782000D01*
X172976876Y-104786475D01*
X172975671Y-104787865D01*
X172974000Y-104795548D01*
X172974000Y-105580385D01*
X172466000Y-105580385D01*
X172466000Y-104800116D01*
X172461525Y-104784877D01*
X172460135Y-104783672D01*
X172452452Y-104782001D01*
X172047905Y-104782001D01*
X172041386Y-104782338D01*
X171945794Y-104792257D01*
X171932400Y-104795149D01*
X171778216Y-104846588D01*
X171765038Y-104852761D01*
X171627193Y-104938063D01*
X171615792Y-104947099D01*
X171501261Y-105061829D01*
X171492249Y-105073240D01*
X171407184Y-105211243D01*
X171401037Y-105224424D01*
X171349862Y-105378710D01*
X171346995Y-105392086D01*
X171337328Y-105486438D01*
X171337000Y-105492855D01*
X171337000Y-105580385D01*
X165100000Y-105580385D01*
X165100000Y-104133697D01*
X165120002Y-104065576D01*
X165173658Y-104019083D01*
X165243932Y-104008979D01*
X165278743Y-104021580D01*
X165279609Y-104019723D01*
X165299424Y-104028963D01*
X165453710Y-104080138D01*
X165467086Y-104083005D01*
X165561438Y-104092672D01*
X165567854Y-104093000D01*
X165755385Y-104093000D01*
X165770624Y-104088525D01*
X165771829Y-104087135D01*
X165773500Y-104079452D01*
X165773500Y-104074884D01*
X166281500Y-104074884D01*
X166285975Y-104090123D01*
X166287365Y-104091328D01*
X166295048Y-104092999D01*
X166487095Y-104092999D01*
X166493614Y-104092662D01*
X166589206Y-104082743D01*
X166602600Y-104079851D01*
X166756784Y-104028412D01*
X166769962Y-104022239D01*
X166907807Y-103936937D01*
X166919208Y-103927901D01*
X167033739Y-103813171D01*
X167042751Y-103801760D01*
X167127816Y-103663757D01*
X167133963Y-103650576D01*
X167185138Y-103496290D01*
X167188005Y-103482914D01*
X167197672Y-103388562D01*
X167198000Y-103382146D01*
X167198000Y-102507115D01*
X167193525Y-102491876D01*
X167192135Y-102490671D01*
X167184452Y-102489000D01*
X166299615Y-102489000D01*
X166284376Y-102493475D01*
X166283171Y-102494865D01*
X166281500Y-102502548D01*
X166281500Y-104074884D01*
X165773500Y-104074884D01*
X165773500Y-101962885D01*
X166281500Y-101962885D01*
X166285975Y-101978124D01*
X166287365Y-101979329D01*
X166295048Y-101981000D01*
X167179884Y-101981000D01*
X167195123Y-101976525D01*
X167196328Y-101975135D01*
X167197999Y-101967452D01*
X167197999Y-101568887D01*
X174516837Y-101568887D01*
X174531063Y-101785933D01*
X174532484Y-101791529D01*
X174532485Y-101791534D01*
X174577163Y-101967452D01*
X174584605Y-101996753D01*
X174675668Y-102194285D01*
X174679001Y-102199001D01*
X174766730Y-102323134D01*
X174801204Y-102371914D01*
X174957009Y-102523692D01*
X175137863Y-102644536D01*
X175143171Y-102646817D01*
X175143172Y-102646817D01*
X175332409Y-102728119D01*
X175332412Y-102728120D01*
X175337712Y-102730397D01*
X175343342Y-102731671D01*
X175542511Y-102776739D01*
X175549860Y-102778402D01*
X175555631Y-102778629D01*
X175555633Y-102778629D01*
X175628620Y-102781496D01*
X175767205Y-102786941D01*
X175982466Y-102755730D01*
X175987930Y-102753875D01*
X175987935Y-102753874D01*
X176182963Y-102687671D01*
X176182968Y-102687669D01*
X176188435Y-102685813D01*
X176378213Y-102579532D01*
X176545446Y-102440446D01*
X176605252Y-102368537D01*
X176664189Y-102328953D01*
X176735171Y-102327517D01*
X176797913Y-102367258D01*
X176801204Y-102371914D01*
X176805346Y-102375949D01*
X176805348Y-102375951D01*
X176868597Y-102437565D01*
X176957009Y-102523692D01*
X177137863Y-102644536D01*
X177143171Y-102646817D01*
X177143172Y-102646817D01*
X177332409Y-102728119D01*
X177332412Y-102728120D01*
X177337712Y-102730397D01*
X177343342Y-102731671D01*
X177542511Y-102776739D01*
X177549860Y-102778402D01*
X177555631Y-102778629D01*
X177555633Y-102778629D01*
X177628620Y-102781496D01*
X177767205Y-102786941D01*
X177982466Y-102755730D01*
X177987930Y-102753875D01*
X177987935Y-102753874D01*
X178182963Y-102687671D01*
X178182968Y-102687669D01*
X178188435Y-102685813D01*
X178378213Y-102579532D01*
X178426932Y-102539013D01*
X178492096Y-102510832D01*
X178562151Y-102522356D01*
X178608327Y-102560322D01*
X178666739Y-102638261D01*
X178783295Y-102725615D01*
X178919684Y-102776745D01*
X178981866Y-102783500D01*
X180428134Y-102783500D01*
X180490316Y-102776745D01*
X180626705Y-102725615D01*
X180743261Y-102638261D01*
X180830615Y-102521705D01*
X180881745Y-102385316D01*
X180888500Y-102323134D01*
X180888500Y-100876866D01*
X180881745Y-100814684D01*
X180830615Y-100678295D01*
X180743261Y-100561739D01*
X180626705Y-100474385D01*
X180490316Y-100423255D01*
X180428134Y-100416500D01*
X178981866Y-100416500D01*
X178919684Y-100423255D01*
X178783295Y-100474385D01*
X178666739Y-100561739D01*
X178611479Y-100635473D01*
X178610538Y-100636728D01*
X178553679Y-100679243D01*
X178482860Y-100684269D01*
X178433012Y-100661129D01*
X178432795Y-100660963D01*
X178428556Y-100657044D01*
X178244599Y-100540976D01*
X178042572Y-100460376D01*
X177829239Y-100417941D01*
X177823464Y-100417865D01*
X177823460Y-100417865D01*
X177714419Y-100416438D01*
X177611746Y-100415094D01*
X177606049Y-100416073D01*
X177606048Y-100416073D01*
X177403065Y-100450952D01*
X177403062Y-100450953D01*
X177397375Y-100451930D01*
X177193307Y-100527214D01*
X177006376Y-100638427D01*
X176842842Y-100781842D01*
X176839270Y-100786372D01*
X176839269Y-100786374D01*
X176805007Y-100829834D01*
X176747125Y-100870947D01*
X176676205Y-100874239D01*
X176614763Y-100838667D01*
X176605100Y-100827215D01*
X176591737Y-100809319D01*
X176591730Y-100809312D01*
X176588280Y-100804691D01*
X176546485Y-100766056D01*
X176432796Y-100660963D01*
X176432793Y-100660961D01*
X176428556Y-100657044D01*
X176244599Y-100540976D01*
X176042572Y-100460376D01*
X175829239Y-100417941D01*
X175823464Y-100417865D01*
X175823460Y-100417865D01*
X175714419Y-100416438D01*
X175611746Y-100415094D01*
X175606049Y-100416073D01*
X175606048Y-100416073D01*
X175403065Y-100450952D01*
X175403062Y-100450953D01*
X175397375Y-100451930D01*
X175193307Y-100527214D01*
X175006376Y-100638427D01*
X174842842Y-100781842D01*
X174839270Y-100786373D01*
X174718160Y-100940000D01*
X174708181Y-100952658D01*
X174606905Y-101145154D01*
X174542403Y-101352882D01*
X174516837Y-101568887D01*
X167197999Y-101568887D01*
X167197999Y-101087905D01*
X167197662Y-101081386D01*
X167187743Y-100985794D01*
X167184851Y-100972400D01*
X167133412Y-100818216D01*
X167127239Y-100805038D01*
X167041937Y-100667193D01*
X167032901Y-100655792D01*
X166918171Y-100541261D01*
X166906760Y-100532249D01*
X166768757Y-100447184D01*
X166755576Y-100441037D01*
X166601290Y-100389862D01*
X166587914Y-100386995D01*
X166493562Y-100377328D01*
X166487145Y-100377000D01*
X166299615Y-100377000D01*
X166284376Y-100381475D01*
X166283171Y-100382865D01*
X166281500Y-100390548D01*
X166281500Y-101962885D01*
X165773500Y-101962885D01*
X165773500Y-100395116D01*
X165769025Y-100379877D01*
X165767635Y-100378672D01*
X165759952Y-100377001D01*
X165567905Y-100377001D01*
X165561386Y-100377338D01*
X165465794Y-100387257D01*
X165452400Y-100390149D01*
X165298212Y-100441589D01*
X165279451Y-100450378D01*
X165209278Y-100461162D01*
X165144415Y-100432297D01*
X165105454Y-100372946D01*
X165100000Y-100336277D01*
X165100000Y-96393887D01*
X170801837Y-96393887D01*
X170816063Y-96610933D01*
X170817484Y-96616529D01*
X170817485Y-96616534D01*
X170842112Y-96713500D01*
X170869605Y-96821753D01*
X170960668Y-97019285D01*
X171056630Y-97155068D01*
X171079610Y-97222240D01*
X171062626Y-97291175D01*
X171029297Y-97328612D01*
X170958920Y-97381357D01*
X170951739Y-97386739D01*
X170864385Y-97503295D01*
X170813255Y-97639684D01*
X170806500Y-97701866D01*
X170806500Y-99148134D01*
X170813255Y-99210316D01*
X170864385Y-99346705D01*
X170951739Y-99463261D01*
X171068295Y-99550615D01*
X171204684Y-99601745D01*
X171266866Y-99608500D01*
X172713134Y-99608500D01*
X172775316Y-99601745D01*
X172911705Y-99550615D01*
X173028261Y-99463261D01*
X173115615Y-99346705D01*
X173166745Y-99210316D01*
X173173500Y-99148134D01*
X173173500Y-97701866D01*
X173166745Y-97639684D01*
X173115615Y-97503295D01*
X173028261Y-97386739D01*
X172950322Y-97328327D01*
X172907807Y-97271468D01*
X172902781Y-97200649D01*
X172929013Y-97146932D01*
X172965834Y-97102659D01*
X172969532Y-97098213D01*
X173075813Y-96908435D01*
X173077669Y-96902968D01*
X173077671Y-96902963D01*
X173143874Y-96707935D01*
X173143875Y-96707930D01*
X173145730Y-96702466D01*
X173176941Y-96487205D01*
X173178570Y-96425000D01*
X173158667Y-96208400D01*
X173099626Y-95999055D01*
X173003423Y-95803974D01*
X172873280Y-95629691D01*
X172751078Y-95516729D01*
X172714633Y-95455800D01*
X172716914Y-95384840D01*
X172756038Y-95327330D01*
X172826008Y-95269137D01*
X172830446Y-95265446D01*
X172969532Y-95098213D01*
X173075813Y-94908435D01*
X173077669Y-94902968D01*
X173077671Y-94902963D01*
X173143874Y-94707935D01*
X173143875Y-94707930D01*
X173145730Y-94702466D01*
X173176941Y-94487205D01*
X173178570Y-94425000D01*
X173158667Y-94208400D01*
X173099626Y-93999055D01*
X173003423Y-93803974D01*
X172873280Y-93629691D01*
X172750708Y-93516387D01*
X172714263Y-93455458D01*
X172716544Y-93384499D01*
X172755668Y-93326988D01*
X172825653Y-93268782D01*
X172833782Y-93260653D01*
X172965420Y-93102375D01*
X172971944Y-93092882D01*
X173072531Y-92913272D01*
X173077210Y-92902763D01*
X173143386Y-92707817D01*
X173146017Y-92696857D01*
X173144040Y-92682992D01*
X173130474Y-92679000D01*
X170851981Y-92679000D01*
X170838450Y-92682973D01*
X170837158Y-92691962D01*
X170868656Y-92815985D01*
X170872497Y-92826832D01*
X170958685Y-93013789D01*
X170964436Y-93023750D01*
X171083254Y-93191873D01*
X171090725Y-93200621D01*
X171230118Y-93336411D01*
X171264956Y-93398272D01*
X171260819Y-93469148D01*
X171225274Y-93521396D01*
X171127842Y-93606842D01*
X170993181Y-93777658D01*
X170891905Y-93970154D01*
X170827403Y-94177882D01*
X170801837Y-94393887D01*
X170816063Y-94610933D01*
X170817484Y-94616529D01*
X170817485Y-94616534D01*
X170865618Y-94806054D01*
X170869605Y-94821753D01*
X170872022Y-94826996D01*
X170958250Y-95014040D01*
X170960668Y-95019285D01*
X170964001Y-95024001D01*
X171003295Y-95079600D01*
X171086204Y-95196914D01*
X171090346Y-95200949D01*
X171229741Y-95336741D01*
X171264579Y-95398602D01*
X171260442Y-95469478D01*
X171224899Y-95521726D01*
X171127842Y-95606842D01*
X170993181Y-95777658D01*
X170891905Y-95970154D01*
X170827403Y-96177882D01*
X170801837Y-96393887D01*
X165100000Y-96393887D01*
X165100000Y-92167799D01*
X170835218Y-92167799D01*
X170841950Y-92171000D01*
X171717885Y-92171000D01*
X171733124Y-92166525D01*
X171734329Y-92165135D01*
X171736000Y-92157452D01*
X171736000Y-92152885D01*
X172244000Y-92152885D01*
X172248475Y-92168124D01*
X172249865Y-92169329D01*
X172257548Y-92171000D01*
X173129485Y-92171000D01*
X173143016Y-92167027D01*
X173144185Y-92158892D01*
X173100725Y-92004794D01*
X173096603Y-91994055D01*
X173005549Y-91809417D01*
X172999538Y-91799608D01*
X172876360Y-91634651D01*
X172868671Y-91626111D01*
X172717490Y-91486361D01*
X172708365Y-91479360D01*
X172534255Y-91369505D01*
X172524008Y-91364284D01*
X172332793Y-91287997D01*
X172321767Y-91284730D01*
X172261770Y-91272797D01*
X172248894Y-91273949D01*
X172244000Y-91289102D01*
X172244000Y-92152885D01*
X171736000Y-92152885D01*
X171736000Y-91286337D01*
X171732194Y-91273375D01*
X171717278Y-91271439D01*
X171688202Y-91276435D01*
X171677082Y-91279415D01*
X171483940Y-91350669D01*
X171473562Y-91355619D01*
X171296639Y-91460877D01*
X171287327Y-91467643D01*
X171132547Y-91603381D01*
X171124630Y-91611724D01*
X170997180Y-91773394D01*
X170990909Y-91783050D01*
X170895060Y-91965229D01*
X170890655Y-91975863D01*
X170835436Y-92153700D01*
X170835218Y-92167799D01*
X165100000Y-92167799D01*
X165100000Y-90258134D01*
X174521500Y-90258134D01*
X174528255Y-90320316D01*
X174579385Y-90456705D01*
X174666739Y-90573261D01*
X174783295Y-90660615D01*
X174919684Y-90711745D01*
X174981866Y-90718500D01*
X176428134Y-90718500D01*
X176490316Y-90711745D01*
X176626705Y-90660615D01*
X176743261Y-90573261D01*
X176800214Y-90497269D01*
X176857073Y-90454754D01*
X176927892Y-90449728D01*
X176971042Y-90468069D01*
X177044808Y-90517358D01*
X177137863Y-90579536D01*
X177143171Y-90581817D01*
X177143172Y-90581817D01*
X177332409Y-90663119D01*
X177332412Y-90663120D01*
X177337712Y-90665397D01*
X177343342Y-90666671D01*
X177441464Y-90688874D01*
X177549860Y-90713402D01*
X177555631Y-90713629D01*
X177555633Y-90713629D01*
X177628620Y-90716496D01*
X177767205Y-90721941D01*
X177982466Y-90690730D01*
X177987930Y-90688875D01*
X177987935Y-90688874D01*
X178182963Y-90622671D01*
X178182968Y-90622669D01*
X178188435Y-90620813D01*
X178378213Y-90514532D01*
X178545446Y-90375446D01*
X178605252Y-90303537D01*
X178664189Y-90263953D01*
X178735171Y-90262517D01*
X178797913Y-90302258D01*
X178801204Y-90306914D01*
X178805347Y-90310950D01*
X178805348Y-90310951D01*
X178871554Y-90375446D01*
X178957009Y-90458692D01*
X178961813Y-90461902D01*
X179014743Y-90497269D01*
X179137863Y-90579536D01*
X179143171Y-90581817D01*
X179143172Y-90581817D01*
X179332409Y-90663119D01*
X179332412Y-90663120D01*
X179337712Y-90665397D01*
X179343342Y-90666671D01*
X179441464Y-90688874D01*
X179549860Y-90713402D01*
X179555631Y-90713629D01*
X179555633Y-90713629D01*
X179628620Y-90716496D01*
X179767205Y-90721941D01*
X179982466Y-90690730D01*
X179987930Y-90688875D01*
X179987935Y-90688874D01*
X180182963Y-90622671D01*
X180182968Y-90622669D01*
X180188435Y-90620813D01*
X180378213Y-90514532D01*
X180545446Y-90375446D01*
X180605252Y-90303537D01*
X180664189Y-90263953D01*
X180735171Y-90262517D01*
X180797913Y-90302258D01*
X180801204Y-90306914D01*
X180805347Y-90310950D01*
X180805348Y-90310951D01*
X180871554Y-90375446D01*
X180957009Y-90458692D01*
X180961813Y-90461902D01*
X181014743Y-90497269D01*
X181137863Y-90579536D01*
X181143171Y-90581817D01*
X181143172Y-90581817D01*
X181332409Y-90663119D01*
X181332412Y-90663120D01*
X181337712Y-90665397D01*
X181343342Y-90666671D01*
X181441464Y-90688874D01*
X181549860Y-90713402D01*
X181555631Y-90713629D01*
X181555633Y-90713629D01*
X181628620Y-90716496D01*
X181767205Y-90721941D01*
X181982466Y-90690730D01*
X181987930Y-90688875D01*
X181987935Y-90688874D01*
X182182963Y-90622671D01*
X182182968Y-90622669D01*
X182188435Y-90620813D01*
X182378213Y-90514532D01*
X182545446Y-90375446D01*
X182684532Y-90208213D01*
X182790813Y-90018435D01*
X182792669Y-90012968D01*
X182792671Y-90012963D01*
X182858874Y-89817935D01*
X182858875Y-89817930D01*
X182860730Y-89812466D01*
X182891941Y-89597205D01*
X182893570Y-89535000D01*
X182873667Y-89318400D01*
X182814626Y-89109055D01*
X182718423Y-88913974D01*
X182605100Y-88762215D01*
X182591733Y-88744315D01*
X182591732Y-88744314D01*
X182588280Y-88739691D01*
X182544577Y-88699292D01*
X182432796Y-88595963D01*
X182432793Y-88595961D01*
X182428556Y-88592044D01*
X182244599Y-88475976D01*
X182042572Y-88395376D01*
X181829239Y-88352941D01*
X181823464Y-88352865D01*
X181823460Y-88352865D01*
X181714419Y-88351438D01*
X181611746Y-88350094D01*
X181606049Y-88351073D01*
X181606048Y-88351073D01*
X181403065Y-88385952D01*
X181403062Y-88385953D01*
X181397375Y-88386930D01*
X181193307Y-88462214D01*
X181006376Y-88573427D01*
X180842842Y-88716842D01*
X180839270Y-88721372D01*
X180839269Y-88721374D01*
X180805007Y-88764834D01*
X180747125Y-88805947D01*
X180676205Y-88809239D01*
X180614763Y-88773667D01*
X180605100Y-88762215D01*
X180591737Y-88744319D01*
X180591730Y-88744312D01*
X180588280Y-88739691D01*
X180544577Y-88699292D01*
X180432796Y-88595963D01*
X180432793Y-88595961D01*
X180428556Y-88592044D01*
X180244599Y-88475976D01*
X180042572Y-88395376D01*
X179829239Y-88352941D01*
X179823464Y-88352865D01*
X179823460Y-88352865D01*
X179714419Y-88351438D01*
X179611746Y-88350094D01*
X179606049Y-88351073D01*
X179606048Y-88351073D01*
X179403065Y-88385952D01*
X179403062Y-88385953D01*
X179397375Y-88386930D01*
X179193307Y-88462214D01*
X179006376Y-88573427D01*
X178842842Y-88716842D01*
X178839270Y-88721372D01*
X178839269Y-88721374D01*
X178805007Y-88764834D01*
X178747125Y-88805947D01*
X178676205Y-88809239D01*
X178614763Y-88773667D01*
X178605100Y-88762215D01*
X178591737Y-88744319D01*
X178591730Y-88744312D01*
X178588280Y-88739691D01*
X178544577Y-88699292D01*
X178432796Y-88595963D01*
X178432793Y-88595961D01*
X178428556Y-88592044D01*
X178244599Y-88475976D01*
X178042572Y-88395376D01*
X177829239Y-88352941D01*
X177823464Y-88352865D01*
X177823460Y-88352865D01*
X177714419Y-88351438D01*
X177611746Y-88350094D01*
X177606049Y-88351073D01*
X177606048Y-88351073D01*
X177403065Y-88385952D01*
X177403062Y-88385953D01*
X177397375Y-88386930D01*
X177193307Y-88462214D01*
X177006376Y-88573427D01*
X177002032Y-88577237D01*
X176984592Y-88592531D01*
X176920188Y-88622408D01*
X176849855Y-88612722D01*
X176800689Y-88573365D01*
X176798522Y-88570473D01*
X176743261Y-88496739D01*
X176626705Y-88409385D01*
X176490316Y-88358255D01*
X176428134Y-88351500D01*
X174981866Y-88351500D01*
X174919684Y-88358255D01*
X174783295Y-88409385D01*
X174666739Y-88496739D01*
X174579385Y-88613295D01*
X174528255Y-88749684D01*
X174521500Y-88811866D01*
X174521500Y-90258134D01*
X165100000Y-90258134D01*
X165100000Y-87944490D01*
X165120002Y-87876369D01*
X165136905Y-87855395D01*
X168127247Y-84865053D01*
X168135537Y-84857509D01*
X168142018Y-84853396D01*
X168162119Y-84831991D01*
X168188658Y-84803729D01*
X168191413Y-84800887D01*
X168211134Y-84781166D01*
X168213612Y-84777971D01*
X168221318Y-84768949D01*
X168246158Y-84742497D01*
X168251586Y-84736717D01*
X168261346Y-84718964D01*
X168272199Y-84702441D01*
X168279753Y-84692702D01*
X168284613Y-84686437D01*
X168302176Y-84645853D01*
X168307383Y-84635223D01*
X168328695Y-84596456D01*
X168330666Y-84588779D01*
X168330668Y-84588774D01*
X168333732Y-84576838D01*
X168340138Y-84558126D01*
X168345034Y-84546813D01*
X168348181Y-84539541D01*
X168350041Y-84527801D01*
X168355097Y-84495877D01*
X168357504Y-84484256D01*
X168366528Y-84449107D01*
X168366528Y-84449106D01*
X168368500Y-84441426D01*
X168368500Y-84421165D01*
X168370051Y-84401454D01*
X168371979Y-84389281D01*
X168373219Y-84381453D01*
X168372334Y-84372095D01*
X179592001Y-84372095D01*
X179592338Y-84378614D01*
X179602257Y-84474206D01*
X179605149Y-84487600D01*
X179656588Y-84641784D01*
X179662761Y-84654962D01*
X179748063Y-84792807D01*
X179757099Y-84804208D01*
X179871829Y-84918739D01*
X179883240Y-84927751D01*
X180021243Y-85012816D01*
X180034424Y-85018963D01*
X180188710Y-85070138D01*
X180202086Y-85073005D01*
X180296438Y-85082672D01*
X180302854Y-85083000D01*
X180702885Y-85083000D01*
X180718124Y-85078525D01*
X180719329Y-85077135D01*
X180721000Y-85069452D01*
X180721000Y-85064884D01*
X181229000Y-85064884D01*
X181233475Y-85080123D01*
X181234865Y-85081328D01*
X181242548Y-85082999D01*
X181647095Y-85082999D01*
X181653614Y-85082662D01*
X181749206Y-85072743D01*
X181762600Y-85069851D01*
X181916784Y-85018412D01*
X181929962Y-85012239D01*
X182067807Y-84926937D01*
X182079208Y-84917901D01*
X182193739Y-84803171D01*
X182202751Y-84791760D01*
X182287816Y-84653757D01*
X182293963Y-84640576D01*
X182345138Y-84486290D01*
X182348005Y-84472914D01*
X182357672Y-84378562D01*
X182358000Y-84372146D01*
X182358000Y-84284615D01*
X182353525Y-84269376D01*
X182352135Y-84268171D01*
X182344452Y-84266500D01*
X181247115Y-84266500D01*
X181231876Y-84270975D01*
X181230671Y-84272365D01*
X181229000Y-84280048D01*
X181229000Y-85064884D01*
X180721000Y-85064884D01*
X180721000Y-84284615D01*
X180716525Y-84269376D01*
X180715135Y-84268171D01*
X180707452Y-84266500D01*
X179610116Y-84266500D01*
X179594877Y-84270975D01*
X179593672Y-84272365D01*
X179592001Y-84280048D01*
X179592001Y-84372095D01*
X168372334Y-84372095D01*
X168369059Y-84337442D01*
X168368500Y-84325585D01*
X168368500Y-83740385D01*
X179592000Y-83740385D01*
X179596475Y-83755624D01*
X179597865Y-83756829D01*
X179605548Y-83758500D01*
X180702885Y-83758500D01*
X180718124Y-83754025D01*
X180719329Y-83752635D01*
X180721000Y-83744952D01*
X180721000Y-83740385D01*
X181229000Y-83740385D01*
X181233475Y-83755624D01*
X181234865Y-83756829D01*
X181242548Y-83758500D01*
X182339884Y-83758500D01*
X182355123Y-83754025D01*
X182356328Y-83752635D01*
X182357999Y-83744952D01*
X182357999Y-83652905D01*
X182357662Y-83646386D01*
X182347743Y-83550794D01*
X182344851Y-83537400D01*
X182293412Y-83383216D01*
X182287239Y-83370038D01*
X182201937Y-83232193D01*
X182192901Y-83220792D01*
X182078171Y-83106261D01*
X182066760Y-83097249D01*
X181928757Y-83012184D01*
X181915576Y-83006037D01*
X181761290Y-82954862D01*
X181747914Y-82951995D01*
X181653562Y-82942328D01*
X181647145Y-82942000D01*
X181247115Y-82942000D01*
X181231876Y-82946475D01*
X181230671Y-82947865D01*
X181229000Y-82955548D01*
X181229000Y-83740385D01*
X180721000Y-83740385D01*
X180721000Y-82960116D01*
X180716525Y-82944877D01*
X180715135Y-82943672D01*
X180707452Y-82942001D01*
X180302905Y-82942001D01*
X180296386Y-82942338D01*
X180200794Y-82952257D01*
X180187400Y-82955149D01*
X180033216Y-83006588D01*
X180020038Y-83012761D01*
X179882193Y-83098063D01*
X179870792Y-83107099D01*
X179756261Y-83221829D01*
X179747249Y-83233240D01*
X179662184Y-83371243D01*
X179656037Y-83384424D01*
X179604862Y-83538710D01*
X179601995Y-83552086D01*
X179592328Y-83646438D01*
X179592000Y-83652855D01*
X179592000Y-83740385D01*
X168368500Y-83740385D01*
X168368500Y-82676000D01*
X168388502Y-82607879D01*
X168442158Y-82561386D01*
X168494500Y-82550000D01*
X192279000Y-82550000D01*
X192347121Y-82570002D01*
G37*
%TD.AperFunction*%
%TD*%
M02*
