%TF.GenerationSoftware,KiCad,Pcbnew,(6.0.7)*%
%TF.CreationDate,2023-02-02T12:11:48-07:00*%
%TF.ProjectId,Tellus,54656c6c-7573-42e6-9b69-6361645f7063,rev?*%
%TF.SameCoordinates,Original*%
%TF.FileFunction,Drillmap*%
%TF.FilePolarity,Positive*%
%FSLAX45Y45*%
G04 Gerber Fmt 4.5, Leading zero omitted, Abs format (unit mm)*
G04 Created by KiCad (PCBNEW (6.0.7)) date 2023-02-02 12:11:48*
%MOMM*%
%LPD*%
G01*
G04 APERTURE LIST*
%ADD10C,0.100000*%
%ADD11C,0.200000*%
%ADD12C,0.020000*%
%ADD13C,0.040000*%
%ADD14C,0.070000*%
%ADD15C,0.075000*%
%ADD16C,0.080000*%
%ADD17C,0.220000*%
G04 APERTURE END LIST*
D10*
X11730000Y-7540500D02*
X19350000Y-7540500D01*
X19350000Y-7540500D02*
X19350000Y-14906500D01*
X19350000Y-14906500D02*
X11730000Y-14906500D01*
X11730000Y-14906500D02*
X11730000Y-7540500D01*
D11*
D12*
X13392000Y-9338000D02*
X13412000Y-9358000D01*
X13412000Y-9338000D02*
X13392000Y-9358000D01*
X13392000Y-9438000D02*
X13412000Y-9458000D01*
X13412000Y-9438000D02*
X13392000Y-9458000D01*
X13512000Y-9338000D02*
X13532000Y-9358000D01*
X13532000Y-9338000D02*
X13512000Y-9358000D01*
X13512000Y-9438000D02*
X13532000Y-9458000D01*
X13532000Y-9438000D02*
X13512000Y-9458000D01*
X14725500Y-9338000D02*
X14745500Y-9358000D01*
X14745500Y-9338000D02*
X14725500Y-9358000D01*
X14725500Y-9438000D02*
X14745500Y-9458000D01*
X14745500Y-9438000D02*
X14725500Y-9458000D01*
X14845500Y-9338000D02*
X14865500Y-9358000D01*
X14865500Y-9338000D02*
X14845500Y-9358000D01*
X14845500Y-9438000D02*
X14865500Y-9458000D01*
X14865500Y-9438000D02*
X14845500Y-9458000D01*
X15995500Y-9338000D02*
X16015500Y-9358000D01*
X16015500Y-9338000D02*
X15995500Y-9358000D01*
X15995500Y-9438000D02*
X16015500Y-9458000D01*
X16015500Y-9438000D02*
X15995500Y-9458000D01*
X16115500Y-9338000D02*
X16135500Y-9358000D01*
X16135500Y-9338000D02*
X16115500Y-9358000D01*
X16115500Y-9438000D02*
X16135500Y-9458000D01*
X16135500Y-9438000D02*
X16115500Y-9458000D01*
D13*
X12910500Y-8953500D02*
G75*
G03*
X12910500Y-8953500I-20000J0D01*
G01*
X13228000Y-9906000D02*
G75*
G03*
X13228000Y-9906000I-20000J0D01*
G01*
X13355000Y-9906000D02*
G75*
G03*
X13355000Y-9906000I-20000J0D01*
G01*
X13482000Y-8953500D02*
G75*
G03*
X13482000Y-8953500I-20000J0D01*
G01*
X13609000Y-9906000D02*
G75*
G03*
X13609000Y-9906000I-20000J0D01*
G01*
X13736000Y-9906000D02*
G75*
G03*
X13736000Y-9906000I-20000J0D01*
G01*
X14180500Y-8953500D02*
G75*
G03*
X14180500Y-8953500I-20000J0D01*
G01*
X14268000Y-10983000D02*
G75*
G03*
X14268000Y-10983000I-20000J0D01*
G01*
X14561500Y-9906000D02*
G75*
G03*
X14561500Y-9906000I-20000J0D01*
G01*
X14688500Y-9905860D02*
G75*
G03*
X14688500Y-9905860I-20000J0D01*
G01*
X14815500Y-8953500D02*
G75*
G03*
X14815500Y-8953500I-20000J0D01*
G01*
X14942500Y-9905860D02*
G75*
G03*
X14942500Y-9905860I-20000J0D01*
G01*
X15069500Y-9905860D02*
G75*
G03*
X15069500Y-9905860I-20000J0D01*
G01*
X15260000Y-11747500D02*
G75*
G03*
X15260000Y-11747500I-20000J0D01*
G01*
X15450500Y-11811000D02*
G75*
G03*
X15450500Y-11811000I-20000J0D01*
G01*
X15514000Y-9017000D02*
G75*
G03*
X15514000Y-9017000I-20000J0D01*
G01*
X15601500Y-10094000D02*
G75*
G03*
X15601500Y-10094000I-20000J0D01*
G01*
X15609250Y-11398250D02*
G75*
G03*
X15609250Y-11398250I-20000J0D01*
G01*
X15704500Y-11557000D02*
G75*
G03*
X15704500Y-11557000I-20000J0D01*
G01*
X15831500Y-9906000D02*
G75*
G03*
X15831500Y-9906000I-20000J0D01*
G01*
X15958500Y-9906000D02*
G75*
G03*
X15958500Y-9906000I-20000J0D01*
G01*
X16085500Y-8953500D02*
G75*
G03*
X16085500Y-8953500I-20000J0D01*
G01*
X16212500Y-9906000D02*
G75*
G03*
X16212500Y-9906000I-20000J0D01*
G01*
X16339500Y-9906000D02*
G75*
G03*
X16339500Y-9906000I-20000J0D01*
G01*
X16974500Y-11938000D02*
G75*
G03*
X16974500Y-11938000I-20000J0D01*
G01*
X17038000Y-11211750D02*
G75*
G03*
X17038000Y-11211750I-20000J0D01*
G01*
X17178500Y-11035500D02*
G75*
G03*
X17178500Y-11035500I-20000J0D01*
G01*
X17228500Y-11783250D02*
G75*
G03*
X17228500Y-11783250I-20000J0D01*
G01*
X17355500Y-11684000D02*
G75*
G03*
X17355500Y-11684000I-20000J0D01*
G01*
X17546000Y-10858500D02*
G75*
G03*
X17546000Y-10858500I-20000J0D01*
G01*
X17546000Y-11430000D02*
G75*
G03*
X17546000Y-11430000I-20000J0D01*
G01*
X17736500Y-11239500D02*
G75*
G03*
X17736500Y-11239500I-20000J0D01*
G01*
X17990500Y-11303000D02*
G75*
G03*
X17990500Y-11303000I-20000J0D01*
G01*
X18054000Y-11811000D02*
G75*
G03*
X18054000Y-11811000I-20000J0D01*
G01*
X18308000Y-11874500D02*
G75*
G03*
X18308000Y-11874500I-20000J0D01*
G01*
X18371500Y-8128000D02*
G75*
G03*
X18371500Y-8128000I-20000J0D01*
G01*
X18562000Y-11430000D02*
G75*
G03*
X18562000Y-11430000I-20000J0D01*
G01*
D14*
X14124000Y-12592500D02*
X14124000Y-12662500D01*
X14089000Y-12627500D02*
X14159000Y-12627500D01*
X14124000Y-12792500D02*
X14124000Y-12862500D01*
X14089000Y-12827500D02*
X14159000Y-12827500D01*
X14124000Y-12992500D02*
X14124000Y-13062500D01*
X14089000Y-13027500D02*
X14159000Y-13027500D01*
X14324000Y-12592500D02*
X14324000Y-12662500D01*
X14289000Y-12627500D02*
X14359000Y-12627500D01*
X14324000Y-12792500D02*
X14324000Y-12862500D01*
X14289000Y-12827500D02*
X14359000Y-12827500D01*
X14324000Y-12992500D02*
X14324000Y-13062500D01*
X14289000Y-13027500D02*
X14359000Y-13027500D01*
D15*
X13488517Y-13628017D02*
X13488517Y-13574983D01*
X13435483Y-13574983D01*
X13435483Y-13628017D01*
X13488517Y-13628017D01*
X13742517Y-13628017D02*
X13742517Y-13574983D01*
X13689483Y-13574983D01*
X13689483Y-13628017D01*
X13742517Y-13628017D01*
X13996517Y-13628017D02*
X13996517Y-13574983D01*
X13943483Y-13574983D01*
X13943483Y-13628017D01*
X13996517Y-13628017D01*
X14250517Y-13628017D02*
X14250517Y-13574983D01*
X14197483Y-13574983D01*
X14197483Y-13628017D01*
X14250517Y-13628017D01*
X14504517Y-13628017D02*
X14504517Y-13574983D01*
X14451483Y-13574983D01*
X14451483Y-13628017D01*
X14504517Y-13628017D01*
D16*
X12763500Y-11306500D02*
X12803500Y-11266500D01*
X12763500Y-11226500D01*
X12723500Y-11266500D01*
X12763500Y-11306500D01*
X12763500Y-11506500D02*
X12803500Y-11466500D01*
X12763500Y-11426500D01*
X12723500Y-11466500D01*
X12763500Y-11506500D01*
X12827000Y-10454000D02*
X12867000Y-10414000D01*
X12827000Y-10374000D01*
X12787000Y-10414000D01*
X12827000Y-10454000D01*
X12827000Y-10654000D02*
X12867000Y-10614000D01*
X12827000Y-10574000D01*
X12787000Y-10614000D01*
X12827000Y-10654000D01*
X12827000Y-12422500D02*
X12867000Y-12382500D01*
X12827000Y-12342500D01*
X12787000Y-12382500D01*
X12827000Y-12422500D01*
X12827000Y-13946500D02*
X12867000Y-13906500D01*
X12827000Y-13866500D01*
X12787000Y-13906500D01*
X12827000Y-13946500D01*
X12854000Y-7914000D02*
X12894000Y-7874000D01*
X12854000Y-7834000D01*
X12814000Y-7874000D01*
X12854000Y-7914000D01*
X13054000Y-7914000D02*
X13094000Y-7874000D01*
X13054000Y-7834000D01*
X13014000Y-7874000D01*
X13054000Y-7914000D01*
X13081000Y-12422500D02*
X13121000Y-12382500D01*
X13081000Y-12342500D01*
X13041000Y-12382500D01*
X13081000Y-12422500D01*
X13081000Y-12676500D02*
X13121000Y-12636500D01*
X13081000Y-12596500D01*
X13041000Y-12636500D01*
X13081000Y-12676500D01*
X13081000Y-13946500D02*
X13121000Y-13906500D01*
X13081000Y-13866500D01*
X13041000Y-13906500D01*
X13081000Y-13946500D01*
X13160363Y-11306502D02*
X13200363Y-11266502D01*
X13160363Y-11226502D01*
X13120363Y-11266502D01*
X13160363Y-11306502D01*
X13160363Y-11506502D02*
X13200363Y-11466502D01*
X13160363Y-11426502D01*
X13120363Y-11466502D01*
X13160363Y-11506502D01*
X13335000Y-12422500D02*
X13375000Y-12382500D01*
X13335000Y-12342500D01*
X13295000Y-12382500D01*
X13335000Y-12422500D01*
X13335000Y-13946500D02*
X13375000Y-13906500D01*
X13335000Y-13866500D01*
X13295000Y-13906500D01*
X13335000Y-13946500D01*
X13589000Y-12422500D02*
X13629000Y-12382500D01*
X13589000Y-12342500D01*
X13549000Y-12382500D01*
X13589000Y-12422500D01*
X13589000Y-13946500D02*
X13629000Y-13906500D01*
X13589000Y-13866500D01*
X13549000Y-13906500D01*
X13589000Y-13946500D01*
X13606251Y-11299843D02*
X13646251Y-11259843D01*
X13606251Y-11219843D01*
X13566251Y-11259843D01*
X13606251Y-11299843D01*
X13606251Y-11499843D02*
X13646251Y-11459843D01*
X13606251Y-11419843D01*
X13566251Y-11459843D01*
X13606251Y-11499843D01*
X13606251Y-11699843D02*
X13646251Y-11659843D01*
X13606251Y-11619843D01*
X13566251Y-11659843D01*
X13606251Y-11699843D01*
X13616000Y-7914000D02*
X13656000Y-7874000D01*
X13616000Y-7834000D01*
X13576000Y-7874000D01*
X13616000Y-7914000D01*
X13816000Y-7914000D02*
X13856000Y-7874000D01*
X13816000Y-7834000D01*
X13776000Y-7874000D01*
X13816000Y-7914000D01*
X13843000Y-12422500D02*
X13883000Y-12382500D01*
X13843000Y-12342500D01*
X13803000Y-12382500D01*
X13843000Y-12422500D01*
X13843000Y-13946500D02*
X13883000Y-13906500D01*
X13843000Y-13866500D01*
X13803000Y-13906500D01*
X13843000Y-13946500D01*
X14097000Y-12422500D02*
X14137000Y-12382500D01*
X14097000Y-12342500D01*
X14057000Y-12382500D01*
X14097000Y-12422500D01*
X14097000Y-13946500D02*
X14137000Y-13906500D01*
X14097000Y-13866500D01*
X14057000Y-13906500D01*
X14097000Y-13946500D01*
X14351000Y-12422500D02*
X14391000Y-12382500D01*
X14351000Y-12342500D01*
X14311000Y-12382500D01*
X14351000Y-12422500D01*
X14351000Y-13946500D02*
X14391000Y-13906500D01*
X14351000Y-13866500D01*
X14311000Y-13906500D01*
X14351000Y-13946500D01*
X14378000Y-7914000D02*
X14418000Y-7874000D01*
X14378000Y-7834000D01*
X14338000Y-7874000D01*
X14378000Y-7914000D01*
X14578000Y-7914000D02*
X14618000Y-7874000D01*
X14578000Y-7834000D01*
X14538000Y-7874000D01*
X14578000Y-7914000D01*
X14605000Y-12422500D02*
X14645000Y-12382500D01*
X14605000Y-12342500D01*
X14565000Y-12382500D01*
X14605000Y-12422500D01*
X14605000Y-13946500D02*
X14645000Y-13906500D01*
X14605000Y-13866500D01*
X14565000Y-13906500D01*
X14605000Y-13946500D01*
X14859000Y-12422500D02*
X14899000Y-12382500D01*
X14859000Y-12342500D01*
X14819000Y-12382500D01*
X14859000Y-12422500D01*
X14859000Y-13946500D02*
X14899000Y-13906500D01*
X14859000Y-13866500D01*
X14819000Y-13906500D01*
X14859000Y-13946500D01*
X15103500Y-7914000D02*
X15143500Y-7874000D01*
X15103500Y-7834000D01*
X15063500Y-7874000D01*
X15103500Y-7914000D01*
X15113000Y-12422500D02*
X15153000Y-12382500D01*
X15113000Y-12342500D01*
X15073000Y-12382500D01*
X15113000Y-12422500D01*
X15113000Y-13946500D02*
X15153000Y-13906500D01*
X15113000Y-13866500D01*
X15073000Y-13906500D01*
X15113000Y-13946500D01*
X15303500Y-7914000D02*
X15343500Y-7874000D01*
X15303500Y-7834000D01*
X15263500Y-7874000D01*
X15303500Y-7914000D01*
X15367000Y-12422500D02*
X15407000Y-12382500D01*
X15367000Y-12342500D01*
X15327000Y-12382500D01*
X15367000Y-12422500D01*
X15367000Y-13946500D02*
X15407000Y-13906500D01*
X15367000Y-13866500D01*
X15327000Y-13906500D01*
X15367000Y-13946500D01*
X15621000Y-12422500D02*
X15661000Y-12382500D01*
X15621000Y-12342500D01*
X15581000Y-12382500D01*
X15621000Y-12422500D01*
X15621000Y-13946500D02*
X15661000Y-13906500D01*
X15621000Y-13866500D01*
X15581000Y-13906500D01*
X15621000Y-13946500D01*
X15811500Y-7914000D02*
X15851500Y-7874000D01*
X15811500Y-7834000D01*
X15771500Y-7874000D01*
X15811500Y-7914000D01*
X15875000Y-12422500D02*
X15915000Y-12382500D01*
X15875000Y-12342500D01*
X15835000Y-12382500D01*
X15875000Y-12422500D01*
X15875000Y-13946500D02*
X15915000Y-13906500D01*
X15875000Y-13866500D01*
X15835000Y-13906500D01*
X15875000Y-13946500D01*
X16011500Y-7914000D02*
X16051500Y-7874000D01*
X16011500Y-7834000D01*
X15971500Y-7874000D01*
X16011500Y-7914000D01*
X16129000Y-12422500D02*
X16169000Y-12382500D01*
X16129000Y-12342500D01*
X16089000Y-12382500D01*
X16129000Y-12422500D01*
X16129000Y-13946500D02*
X16169000Y-13906500D01*
X16129000Y-13866500D01*
X16089000Y-13906500D01*
X16129000Y-13946500D01*
X16383000Y-12422500D02*
X16423000Y-12382500D01*
X16383000Y-12342500D01*
X16343000Y-12382500D01*
X16383000Y-12422500D01*
X16383000Y-13946500D02*
X16423000Y-13906500D01*
X16383000Y-13866500D01*
X16343000Y-13906500D01*
X16383000Y-13946500D01*
X16573500Y-7908750D02*
X16613500Y-7868750D01*
X16573500Y-7828750D01*
X16533500Y-7868750D01*
X16573500Y-7908750D01*
X16637000Y-12422500D02*
X16677000Y-12382500D01*
X16637000Y-12342500D01*
X16597000Y-12382500D01*
X16637000Y-12422500D01*
X16637000Y-13946500D02*
X16677000Y-13906500D01*
X16637000Y-13866500D01*
X16597000Y-13906500D01*
X16637000Y-13946500D01*
X16773500Y-7908750D02*
X16813500Y-7868750D01*
X16773500Y-7828750D01*
X16733500Y-7868750D01*
X16773500Y-7908750D01*
X16891000Y-12422500D02*
X16931000Y-12382500D01*
X16891000Y-12342500D01*
X16851000Y-12382500D01*
X16891000Y-12422500D01*
X16891000Y-13946500D02*
X16931000Y-13906500D01*
X16891000Y-13866500D01*
X16851000Y-13906500D01*
X16891000Y-13946500D01*
X17145000Y-12422500D02*
X17185000Y-12382500D01*
X17145000Y-12342500D01*
X17105000Y-12382500D01*
X17145000Y-12422500D01*
X17145000Y-13946500D02*
X17185000Y-13906500D01*
X17145000Y-13866500D01*
X17105000Y-13906500D01*
X17145000Y-13946500D01*
X17199000Y-9282500D02*
X17239000Y-9242500D01*
X17199000Y-9202500D01*
X17159000Y-9242500D01*
X17199000Y-9282500D01*
X17199000Y-9482500D02*
X17239000Y-9442500D01*
X17199000Y-9402500D01*
X17159000Y-9442500D01*
X17199000Y-9482500D01*
X17199000Y-9682500D02*
X17239000Y-9642500D01*
X17199000Y-9602500D01*
X17159000Y-9642500D01*
X17199000Y-9682500D01*
X17199000Y-9882500D02*
X17239000Y-9842500D01*
X17199000Y-9802500D01*
X17159000Y-9842500D01*
X17199000Y-9882500D01*
X17399000Y-12422500D02*
X17439000Y-12382500D01*
X17399000Y-12342500D01*
X17359000Y-12382500D01*
X17399000Y-12422500D01*
X17399000Y-12676500D02*
X17439000Y-12636500D01*
X17399000Y-12596500D01*
X17359000Y-12636500D01*
X17399000Y-12676500D01*
X17399000Y-12930500D02*
X17439000Y-12890500D01*
X17399000Y-12850500D01*
X17359000Y-12890500D01*
X17399000Y-12930500D01*
X17399000Y-13184500D02*
X17439000Y-13144500D01*
X17399000Y-13104500D01*
X17359000Y-13144500D01*
X17399000Y-13184500D01*
X17399000Y-13438500D02*
X17439000Y-13398500D01*
X17399000Y-13358500D01*
X17359000Y-13398500D01*
X17399000Y-13438500D01*
X17399000Y-13692500D02*
X17439000Y-13652500D01*
X17399000Y-13612500D01*
X17359000Y-13652500D01*
X17399000Y-13692500D01*
X17399000Y-13946500D02*
X17439000Y-13906500D01*
X17399000Y-13866500D01*
X17359000Y-13906500D01*
X17399000Y-13946500D01*
X17489500Y-7914000D02*
X17529500Y-7874000D01*
X17489500Y-7834000D01*
X17449500Y-7874000D01*
X17489500Y-7914000D01*
X17570500Y-8993500D02*
X17610500Y-8953500D01*
X17570500Y-8913500D01*
X17530500Y-8953500D01*
X17570500Y-8993500D01*
X17570500Y-10200000D02*
X17610500Y-10160000D01*
X17570500Y-10120000D01*
X17530500Y-10160000D01*
X17570500Y-10200000D01*
X17653000Y-12422500D02*
X17693000Y-12382500D01*
X17653000Y-12342500D01*
X17613000Y-12382500D01*
X17653000Y-12422500D01*
X17653000Y-13946500D02*
X17693000Y-13906500D01*
X17653000Y-13866500D01*
X17613000Y-13906500D01*
X17653000Y-13946500D01*
X17689500Y-7914000D02*
X17729500Y-7874000D01*
X17689500Y-7834000D01*
X17649500Y-7874000D01*
X17689500Y-7914000D01*
X17770500Y-8993500D02*
X17810500Y-8953500D01*
X17770500Y-8913500D01*
X17730500Y-8953500D01*
X17770500Y-8993500D01*
X17770500Y-10200000D02*
X17810500Y-10160000D01*
X17770500Y-10120000D01*
X17730500Y-10160000D01*
X17770500Y-10200000D01*
X17907000Y-12422500D02*
X17947000Y-12382500D01*
X17907000Y-12342500D01*
X17867000Y-12382500D01*
X17907000Y-12422500D01*
X17907000Y-13946500D02*
X17947000Y-13906500D01*
X17907000Y-13866500D01*
X17867000Y-13906500D01*
X17907000Y-13946500D01*
X17970500Y-8993500D02*
X18010500Y-8953500D01*
X17970500Y-8913500D01*
X17930500Y-8953500D01*
X17970500Y-8993500D01*
X17970500Y-10200000D02*
X18010500Y-10160000D01*
X17970500Y-10120000D01*
X17930500Y-10160000D01*
X17970500Y-10200000D01*
X18161000Y-12422500D02*
X18201000Y-12382500D01*
X18161000Y-12342500D01*
X18121000Y-12382500D01*
X18161000Y-12422500D01*
X18161000Y-13946500D02*
X18201000Y-13906500D01*
X18161000Y-13866500D01*
X18121000Y-13906500D01*
X18161000Y-13946500D01*
X18170500Y-8993500D02*
X18210500Y-8953500D01*
X18170500Y-8913500D01*
X18130500Y-8953500D01*
X18170500Y-8993500D01*
X18415000Y-12422500D02*
X18455000Y-12382500D01*
X18415000Y-12342500D01*
X18375000Y-12382500D01*
X18415000Y-12422500D01*
X18415000Y-13946500D02*
X18455000Y-13906500D01*
X18415000Y-13866500D01*
X18375000Y-13906500D01*
X18415000Y-13946500D01*
X18669000Y-12422500D02*
X18709000Y-12382500D01*
X18669000Y-12342500D01*
X18629000Y-12382500D01*
X18669000Y-12422500D01*
X18669000Y-13946500D02*
X18709000Y-13906500D01*
X18669000Y-13866500D01*
X18629000Y-13906500D01*
X18669000Y-13946500D01*
D17*
X11955000Y-7764000D02*
X12175000Y-7984000D01*
X12175000Y-7764000D02*
X11955000Y-7984000D01*
X12175000Y-7874000D02*
G75*
G03*
X12175000Y-7874000I-110000J0D01*
G01*
X12018500Y-14368000D02*
X12238500Y-14588000D01*
X12238500Y-14368000D02*
X12018500Y-14588000D01*
X12238500Y-14478000D02*
G75*
G03*
X12238500Y-14478000I-110000J0D01*
G01*
X18559000Y-7764000D02*
X18779000Y-7984000D01*
X18779000Y-7764000D02*
X18559000Y-7984000D01*
X18779000Y-7874000D02*
G75*
G03*
X18779000Y-7874000I-110000J0D01*
G01*
X18559000Y-14431500D02*
X18779000Y-14651500D01*
X18779000Y-14431500D02*
X18559000Y-14651500D01*
X18779000Y-14541500D02*
G75*
G03*
X18779000Y-14541500I-110000J0D01*
G01*
D11*
X11982619Y-15221976D02*
X11982619Y-15021976D01*
X12030238Y-15021976D01*
X12058809Y-15031500D01*
X12077857Y-15050548D01*
X12087381Y-15069595D01*
X12096905Y-15107690D01*
X12096905Y-15136262D01*
X12087381Y-15174357D01*
X12077857Y-15193405D01*
X12058809Y-15212452D01*
X12030238Y-15221976D01*
X11982619Y-15221976D01*
X12182619Y-15221976D02*
X12182619Y-15088643D01*
X12182619Y-15126738D02*
X12192143Y-15107690D01*
X12201667Y-15098167D01*
X12220714Y-15088643D01*
X12239762Y-15088643D01*
X12306428Y-15221976D02*
X12306428Y-15088643D01*
X12306428Y-15021976D02*
X12296905Y-15031500D01*
X12306428Y-15041024D01*
X12315952Y-15031500D01*
X12306428Y-15021976D01*
X12306428Y-15041024D01*
X12430238Y-15221976D02*
X12411190Y-15212452D01*
X12401667Y-15193405D01*
X12401667Y-15021976D01*
X12535000Y-15221976D02*
X12515952Y-15212452D01*
X12506428Y-15193405D01*
X12506428Y-15021976D01*
X12763571Y-15221976D02*
X12763571Y-15021976D01*
X12830238Y-15164833D01*
X12896905Y-15021976D01*
X12896905Y-15221976D01*
X13077857Y-15221976D02*
X13077857Y-15117214D01*
X13068333Y-15098167D01*
X13049286Y-15088643D01*
X13011190Y-15088643D01*
X12992143Y-15098167D01*
X13077857Y-15212452D02*
X13058809Y-15221976D01*
X13011190Y-15221976D01*
X12992143Y-15212452D01*
X12982619Y-15193405D01*
X12982619Y-15174357D01*
X12992143Y-15155309D01*
X13011190Y-15145786D01*
X13058809Y-15145786D01*
X13077857Y-15136262D01*
X13173095Y-15088643D02*
X13173095Y-15288643D01*
X13173095Y-15098167D02*
X13192143Y-15088643D01*
X13230238Y-15088643D01*
X13249286Y-15098167D01*
X13258809Y-15107690D01*
X13268333Y-15126738D01*
X13268333Y-15183881D01*
X13258809Y-15202928D01*
X13249286Y-15212452D01*
X13230238Y-15221976D01*
X13192143Y-15221976D01*
X13173095Y-15212452D01*
X13354048Y-15202928D02*
X13363571Y-15212452D01*
X13354048Y-15221976D01*
X13344524Y-15212452D01*
X13354048Y-15202928D01*
X13354048Y-15221976D01*
X13354048Y-15098167D02*
X13363571Y-15107690D01*
X13354048Y-15117214D01*
X13344524Y-15107690D01*
X13354048Y-15098167D01*
X13354048Y-15117214D01*
D12*
X11705000Y-15541500D02*
X11725000Y-15561500D01*
X11725000Y-15541500D02*
X11705000Y-15561500D01*
D11*
X12020714Y-15441976D02*
X12039762Y-15441976D01*
X12058809Y-15451500D01*
X12068333Y-15461024D01*
X12077857Y-15480071D01*
X12087381Y-15518167D01*
X12087381Y-15565786D01*
X12077857Y-15603881D01*
X12068333Y-15622928D01*
X12058809Y-15632452D01*
X12039762Y-15641976D01*
X12020714Y-15641976D01*
X12001667Y-15632452D01*
X11992143Y-15622928D01*
X11982619Y-15603881D01*
X11973095Y-15565786D01*
X11973095Y-15518167D01*
X11982619Y-15480071D01*
X11992143Y-15461024D01*
X12001667Y-15451500D01*
X12020714Y-15441976D01*
X12173095Y-15622928D02*
X12182619Y-15632452D01*
X12173095Y-15641976D01*
X12163571Y-15632452D01*
X12173095Y-15622928D01*
X12173095Y-15641976D01*
X12258809Y-15461024D02*
X12268333Y-15451500D01*
X12287381Y-15441976D01*
X12335000Y-15441976D01*
X12354048Y-15451500D01*
X12363571Y-15461024D01*
X12373095Y-15480071D01*
X12373095Y-15499119D01*
X12363571Y-15527690D01*
X12249286Y-15641976D01*
X12373095Y-15641976D01*
X12496905Y-15441976D02*
X12515952Y-15441976D01*
X12535000Y-15451500D01*
X12544524Y-15461024D01*
X12554048Y-15480071D01*
X12563571Y-15518167D01*
X12563571Y-15565786D01*
X12554048Y-15603881D01*
X12544524Y-15622928D01*
X12535000Y-15632452D01*
X12515952Y-15641976D01*
X12496905Y-15641976D01*
X12477857Y-15632452D01*
X12468333Y-15622928D01*
X12458809Y-15603881D01*
X12449286Y-15565786D01*
X12449286Y-15518167D01*
X12458809Y-15480071D01*
X12468333Y-15461024D01*
X12477857Y-15451500D01*
X12496905Y-15441976D01*
X12687381Y-15441976D02*
X12706428Y-15441976D01*
X12725476Y-15451500D01*
X12735000Y-15461024D01*
X12744524Y-15480071D01*
X12754048Y-15518167D01*
X12754048Y-15565786D01*
X12744524Y-15603881D01*
X12735000Y-15622928D01*
X12725476Y-15632452D01*
X12706428Y-15641976D01*
X12687381Y-15641976D01*
X12668333Y-15632452D01*
X12658809Y-15622928D01*
X12649286Y-15603881D01*
X12639762Y-15565786D01*
X12639762Y-15518167D01*
X12649286Y-15480071D01*
X12658809Y-15461024D01*
X12668333Y-15451500D01*
X12687381Y-15441976D01*
X12839762Y-15641976D02*
X12839762Y-15508643D01*
X12839762Y-15527690D02*
X12849286Y-15518167D01*
X12868333Y-15508643D01*
X12896905Y-15508643D01*
X12915952Y-15518167D01*
X12925476Y-15537214D01*
X12925476Y-15641976D01*
X12925476Y-15537214D02*
X12935000Y-15518167D01*
X12954048Y-15508643D01*
X12982619Y-15508643D01*
X13001667Y-15518167D01*
X13011190Y-15537214D01*
X13011190Y-15641976D01*
X13106428Y-15641976D02*
X13106428Y-15508643D01*
X13106428Y-15527690D02*
X13115952Y-15518167D01*
X13135000Y-15508643D01*
X13163571Y-15508643D01*
X13182619Y-15518167D01*
X13192143Y-15537214D01*
X13192143Y-15641976D01*
X13192143Y-15537214D02*
X13201667Y-15518167D01*
X13220714Y-15508643D01*
X13249286Y-15508643D01*
X13268333Y-15518167D01*
X13277857Y-15537214D01*
X13277857Y-15641976D01*
X13668333Y-15432452D02*
X13496905Y-15689595D01*
X13925476Y-15441976D02*
X13944524Y-15441976D01*
X13963571Y-15451500D01*
X13973095Y-15461024D01*
X13982619Y-15480071D01*
X13992143Y-15518167D01*
X13992143Y-15565786D01*
X13982619Y-15603881D01*
X13973095Y-15622928D01*
X13963571Y-15632452D01*
X13944524Y-15641976D01*
X13925476Y-15641976D01*
X13906428Y-15632452D01*
X13896905Y-15622928D01*
X13887381Y-15603881D01*
X13877857Y-15565786D01*
X13877857Y-15518167D01*
X13887381Y-15480071D01*
X13896905Y-15461024D01*
X13906428Y-15451500D01*
X13925476Y-15441976D01*
X14077857Y-15622928D02*
X14087381Y-15632452D01*
X14077857Y-15641976D01*
X14068333Y-15632452D01*
X14077857Y-15622928D01*
X14077857Y-15641976D01*
X14211190Y-15441976D02*
X14230238Y-15441976D01*
X14249286Y-15451500D01*
X14258809Y-15461024D01*
X14268333Y-15480071D01*
X14277857Y-15518167D01*
X14277857Y-15565786D01*
X14268333Y-15603881D01*
X14258809Y-15622928D01*
X14249286Y-15632452D01*
X14230238Y-15641976D01*
X14211190Y-15641976D01*
X14192143Y-15632452D01*
X14182619Y-15622928D01*
X14173095Y-15603881D01*
X14163571Y-15565786D01*
X14163571Y-15518167D01*
X14173095Y-15480071D01*
X14182619Y-15461024D01*
X14192143Y-15451500D01*
X14211190Y-15441976D01*
X14401667Y-15441976D02*
X14420714Y-15441976D01*
X14439762Y-15451500D01*
X14449286Y-15461024D01*
X14458809Y-15480071D01*
X14468333Y-15518167D01*
X14468333Y-15565786D01*
X14458809Y-15603881D01*
X14449286Y-15622928D01*
X14439762Y-15632452D01*
X14420714Y-15641976D01*
X14401667Y-15641976D01*
X14382619Y-15632452D01*
X14373095Y-15622928D01*
X14363571Y-15603881D01*
X14354048Y-15565786D01*
X14354048Y-15518167D01*
X14363571Y-15480071D01*
X14373095Y-15461024D01*
X14382619Y-15451500D01*
X14401667Y-15441976D01*
X14535000Y-15441976D02*
X14668333Y-15441976D01*
X14582619Y-15641976D01*
X14754048Y-15641976D02*
X14792143Y-15641976D01*
X14811190Y-15632452D01*
X14820714Y-15622928D01*
X14839762Y-15594357D01*
X14849286Y-15556262D01*
X14849286Y-15480071D01*
X14839762Y-15461024D01*
X14830238Y-15451500D01*
X14811190Y-15441976D01*
X14773095Y-15441976D01*
X14754048Y-15451500D01*
X14744524Y-15461024D01*
X14735000Y-15480071D01*
X14735000Y-15527690D01*
X14744524Y-15546738D01*
X14754048Y-15556262D01*
X14773095Y-15565786D01*
X14811190Y-15565786D01*
X14830238Y-15556262D01*
X14839762Y-15546738D01*
X14849286Y-15527690D01*
X14925476Y-15441976D02*
X14925476Y-15480071D01*
X15001667Y-15441976D02*
X15001667Y-15480071D01*
X15296905Y-15718167D02*
X15287381Y-15708643D01*
X15268333Y-15680071D01*
X15258809Y-15661024D01*
X15249286Y-15632452D01*
X15239762Y-15584833D01*
X15239762Y-15546738D01*
X15249286Y-15499119D01*
X15258809Y-15470548D01*
X15268333Y-15451500D01*
X15287381Y-15422928D01*
X15296905Y-15413405D01*
X15477857Y-15641976D02*
X15363571Y-15641976D01*
X15420714Y-15641976D02*
X15420714Y-15441976D01*
X15401667Y-15470548D01*
X15382619Y-15489595D01*
X15363571Y-15499119D01*
X15554048Y-15461024D02*
X15563571Y-15451500D01*
X15582619Y-15441976D01*
X15630238Y-15441976D01*
X15649286Y-15451500D01*
X15658809Y-15461024D01*
X15668333Y-15480071D01*
X15668333Y-15499119D01*
X15658809Y-15527690D01*
X15544524Y-15641976D01*
X15668333Y-15641976D01*
X15906428Y-15641976D02*
X15906428Y-15441976D01*
X15992143Y-15641976D02*
X15992143Y-15537214D01*
X15982619Y-15518167D01*
X15963571Y-15508643D01*
X15935000Y-15508643D01*
X15915952Y-15518167D01*
X15906428Y-15527690D01*
X16115952Y-15641976D02*
X16096905Y-15632452D01*
X16087381Y-15622928D01*
X16077857Y-15603881D01*
X16077857Y-15546738D01*
X16087381Y-15527690D01*
X16096905Y-15518167D01*
X16115952Y-15508643D01*
X16144524Y-15508643D01*
X16163571Y-15518167D01*
X16173095Y-15527690D01*
X16182619Y-15546738D01*
X16182619Y-15603881D01*
X16173095Y-15622928D01*
X16163571Y-15632452D01*
X16144524Y-15641976D01*
X16115952Y-15641976D01*
X16296905Y-15641976D02*
X16277857Y-15632452D01*
X16268333Y-15613405D01*
X16268333Y-15441976D01*
X16449286Y-15632452D02*
X16430238Y-15641976D01*
X16392143Y-15641976D01*
X16373095Y-15632452D01*
X16363571Y-15613405D01*
X16363571Y-15537214D01*
X16373095Y-15518167D01*
X16392143Y-15508643D01*
X16430238Y-15508643D01*
X16449286Y-15518167D01*
X16458809Y-15537214D01*
X16458809Y-15556262D01*
X16363571Y-15575309D01*
X16535000Y-15632452D02*
X16554048Y-15641976D01*
X16592143Y-15641976D01*
X16611190Y-15632452D01*
X16620714Y-15613405D01*
X16620714Y-15603881D01*
X16611190Y-15584833D01*
X16592143Y-15575309D01*
X16563571Y-15575309D01*
X16544524Y-15565786D01*
X16535000Y-15546738D01*
X16535000Y-15537214D01*
X16544524Y-15518167D01*
X16563571Y-15508643D01*
X16592143Y-15508643D01*
X16611190Y-15518167D01*
X16687381Y-15718167D02*
X16696905Y-15708643D01*
X16715952Y-15680071D01*
X16725476Y-15661024D01*
X16735000Y-15632452D01*
X16744524Y-15584833D01*
X16744524Y-15546738D01*
X16735000Y-15499119D01*
X16725476Y-15470548D01*
X16715952Y-15451500D01*
X16696905Y-15422928D01*
X16687381Y-15413405D01*
D13*
X11725000Y-15815500D02*
G75*
G03*
X11725000Y-15815500I-20000J0D01*
G01*
D11*
X12020714Y-15705976D02*
X12039762Y-15705976D01*
X12058809Y-15715500D01*
X12068333Y-15725024D01*
X12077857Y-15744071D01*
X12087381Y-15782167D01*
X12087381Y-15829786D01*
X12077857Y-15867881D01*
X12068333Y-15886928D01*
X12058809Y-15896452D01*
X12039762Y-15905976D01*
X12020714Y-15905976D01*
X12001667Y-15896452D01*
X11992143Y-15886928D01*
X11982619Y-15867881D01*
X11973095Y-15829786D01*
X11973095Y-15782167D01*
X11982619Y-15744071D01*
X11992143Y-15725024D01*
X12001667Y-15715500D01*
X12020714Y-15705976D01*
X12173095Y-15886928D02*
X12182619Y-15896452D01*
X12173095Y-15905976D01*
X12163571Y-15896452D01*
X12173095Y-15886928D01*
X12173095Y-15905976D01*
X12354048Y-15772643D02*
X12354048Y-15905976D01*
X12306428Y-15696452D02*
X12258809Y-15839309D01*
X12382619Y-15839309D01*
X12496905Y-15705976D02*
X12515952Y-15705976D01*
X12535000Y-15715500D01*
X12544524Y-15725024D01*
X12554048Y-15744071D01*
X12563571Y-15782167D01*
X12563571Y-15829786D01*
X12554048Y-15867881D01*
X12544524Y-15886928D01*
X12535000Y-15896452D01*
X12515952Y-15905976D01*
X12496905Y-15905976D01*
X12477857Y-15896452D01*
X12468333Y-15886928D01*
X12458809Y-15867881D01*
X12449286Y-15829786D01*
X12449286Y-15782167D01*
X12458809Y-15744071D01*
X12468333Y-15725024D01*
X12477857Y-15715500D01*
X12496905Y-15705976D01*
X12687381Y-15705976D02*
X12706428Y-15705976D01*
X12725476Y-15715500D01*
X12735000Y-15725024D01*
X12744524Y-15744071D01*
X12754048Y-15782167D01*
X12754048Y-15829786D01*
X12744524Y-15867881D01*
X12735000Y-15886928D01*
X12725476Y-15896452D01*
X12706428Y-15905976D01*
X12687381Y-15905976D01*
X12668333Y-15896452D01*
X12658809Y-15886928D01*
X12649286Y-15867881D01*
X12639762Y-15829786D01*
X12639762Y-15782167D01*
X12649286Y-15744071D01*
X12658809Y-15725024D01*
X12668333Y-15715500D01*
X12687381Y-15705976D01*
X12839762Y-15905976D02*
X12839762Y-15772643D01*
X12839762Y-15791690D02*
X12849286Y-15782167D01*
X12868333Y-15772643D01*
X12896905Y-15772643D01*
X12915952Y-15782167D01*
X12925476Y-15801214D01*
X12925476Y-15905976D01*
X12925476Y-15801214D02*
X12935000Y-15782167D01*
X12954048Y-15772643D01*
X12982619Y-15772643D01*
X13001667Y-15782167D01*
X13011190Y-15801214D01*
X13011190Y-15905976D01*
X13106428Y-15905976D02*
X13106428Y-15772643D01*
X13106428Y-15791690D02*
X13115952Y-15782167D01*
X13135000Y-15772643D01*
X13163571Y-15772643D01*
X13182619Y-15782167D01*
X13192143Y-15801214D01*
X13192143Y-15905976D01*
X13192143Y-15801214D02*
X13201667Y-15782167D01*
X13220714Y-15772643D01*
X13249286Y-15772643D01*
X13268333Y-15782167D01*
X13277857Y-15801214D01*
X13277857Y-15905976D01*
X13668333Y-15696452D02*
X13496905Y-15953595D01*
X13925476Y-15705976D02*
X13944524Y-15705976D01*
X13963571Y-15715500D01*
X13973095Y-15725024D01*
X13982619Y-15744071D01*
X13992143Y-15782167D01*
X13992143Y-15829786D01*
X13982619Y-15867881D01*
X13973095Y-15886928D01*
X13963571Y-15896452D01*
X13944524Y-15905976D01*
X13925476Y-15905976D01*
X13906428Y-15896452D01*
X13896905Y-15886928D01*
X13887381Y-15867881D01*
X13877857Y-15829786D01*
X13877857Y-15782167D01*
X13887381Y-15744071D01*
X13896905Y-15725024D01*
X13906428Y-15715500D01*
X13925476Y-15705976D01*
X14077857Y-15886928D02*
X14087381Y-15896452D01*
X14077857Y-15905976D01*
X14068333Y-15896452D01*
X14077857Y-15886928D01*
X14077857Y-15905976D01*
X14211190Y-15705976D02*
X14230238Y-15705976D01*
X14249286Y-15715500D01*
X14258809Y-15725024D01*
X14268333Y-15744071D01*
X14277857Y-15782167D01*
X14277857Y-15829786D01*
X14268333Y-15867881D01*
X14258809Y-15886928D01*
X14249286Y-15896452D01*
X14230238Y-15905976D01*
X14211190Y-15905976D01*
X14192143Y-15896452D01*
X14182619Y-15886928D01*
X14173095Y-15867881D01*
X14163571Y-15829786D01*
X14163571Y-15782167D01*
X14173095Y-15744071D01*
X14182619Y-15725024D01*
X14192143Y-15715500D01*
X14211190Y-15705976D01*
X14468333Y-15905976D02*
X14354048Y-15905976D01*
X14411190Y-15905976D02*
X14411190Y-15705976D01*
X14392143Y-15734548D01*
X14373095Y-15753595D01*
X14354048Y-15763119D01*
X14649286Y-15705976D02*
X14554048Y-15705976D01*
X14544524Y-15801214D01*
X14554048Y-15791690D01*
X14573095Y-15782167D01*
X14620714Y-15782167D01*
X14639762Y-15791690D01*
X14649286Y-15801214D01*
X14658809Y-15820262D01*
X14658809Y-15867881D01*
X14649286Y-15886928D01*
X14639762Y-15896452D01*
X14620714Y-15905976D01*
X14573095Y-15905976D01*
X14554048Y-15896452D01*
X14544524Y-15886928D01*
X14725476Y-15705976D02*
X14858809Y-15705976D01*
X14773095Y-15905976D01*
X14925476Y-15705976D02*
X14925476Y-15744071D01*
X15001667Y-15705976D02*
X15001667Y-15744071D01*
X15296905Y-15982167D02*
X15287381Y-15972643D01*
X15268333Y-15944071D01*
X15258809Y-15925024D01*
X15249286Y-15896452D01*
X15239762Y-15848833D01*
X15239762Y-15810738D01*
X15249286Y-15763119D01*
X15258809Y-15734548D01*
X15268333Y-15715500D01*
X15287381Y-15686928D01*
X15296905Y-15677405D01*
X15354048Y-15705976D02*
X15477857Y-15705976D01*
X15411190Y-15782167D01*
X15439762Y-15782167D01*
X15458809Y-15791690D01*
X15468333Y-15801214D01*
X15477857Y-15820262D01*
X15477857Y-15867881D01*
X15468333Y-15886928D01*
X15458809Y-15896452D01*
X15439762Y-15905976D01*
X15382619Y-15905976D01*
X15363571Y-15896452D01*
X15354048Y-15886928D01*
X15544524Y-15705976D02*
X15677857Y-15705976D01*
X15592143Y-15905976D01*
X15906428Y-15905976D02*
X15906428Y-15705976D01*
X15992143Y-15905976D02*
X15992143Y-15801214D01*
X15982619Y-15782167D01*
X15963571Y-15772643D01*
X15935000Y-15772643D01*
X15915952Y-15782167D01*
X15906428Y-15791690D01*
X16115952Y-15905976D02*
X16096905Y-15896452D01*
X16087381Y-15886928D01*
X16077857Y-15867881D01*
X16077857Y-15810738D01*
X16087381Y-15791690D01*
X16096905Y-15782167D01*
X16115952Y-15772643D01*
X16144524Y-15772643D01*
X16163571Y-15782167D01*
X16173095Y-15791690D01*
X16182619Y-15810738D01*
X16182619Y-15867881D01*
X16173095Y-15886928D01*
X16163571Y-15896452D01*
X16144524Y-15905976D01*
X16115952Y-15905976D01*
X16296905Y-15905976D02*
X16277857Y-15896452D01*
X16268333Y-15877405D01*
X16268333Y-15705976D01*
X16449286Y-15896452D02*
X16430238Y-15905976D01*
X16392143Y-15905976D01*
X16373095Y-15896452D01*
X16363571Y-15877405D01*
X16363571Y-15801214D01*
X16373095Y-15782167D01*
X16392143Y-15772643D01*
X16430238Y-15772643D01*
X16449286Y-15782167D01*
X16458809Y-15801214D01*
X16458809Y-15820262D01*
X16363571Y-15839309D01*
X16535000Y-15896452D02*
X16554048Y-15905976D01*
X16592143Y-15905976D01*
X16611190Y-15896452D01*
X16620714Y-15877405D01*
X16620714Y-15867881D01*
X16611190Y-15848833D01*
X16592143Y-15839309D01*
X16563571Y-15839309D01*
X16544524Y-15829786D01*
X16535000Y-15810738D01*
X16535000Y-15801214D01*
X16544524Y-15782167D01*
X16563571Y-15772643D01*
X16592143Y-15772643D01*
X16611190Y-15782167D01*
X16687381Y-15982167D02*
X16696905Y-15972643D01*
X16715952Y-15944071D01*
X16725476Y-15925024D01*
X16735000Y-15896452D01*
X16744524Y-15848833D01*
X16744524Y-15810738D01*
X16735000Y-15763119D01*
X16725476Y-15734548D01*
X16715952Y-15715500D01*
X16696905Y-15686928D01*
X16687381Y-15677405D01*
D14*
X11690000Y-16044500D02*
X11690000Y-16114500D01*
X11655000Y-16079500D02*
X11725000Y-16079500D01*
D11*
X12020714Y-15969976D02*
X12039762Y-15969976D01*
X12058809Y-15979500D01*
X12068333Y-15989024D01*
X12077857Y-16008071D01*
X12087381Y-16046167D01*
X12087381Y-16093786D01*
X12077857Y-16131881D01*
X12068333Y-16150928D01*
X12058809Y-16160452D01*
X12039762Y-16169976D01*
X12020714Y-16169976D01*
X12001667Y-16160452D01*
X11992143Y-16150928D01*
X11982619Y-16131881D01*
X11973095Y-16093786D01*
X11973095Y-16046167D01*
X11982619Y-16008071D01*
X11992143Y-15989024D01*
X12001667Y-15979500D01*
X12020714Y-15969976D01*
X12173095Y-16150928D02*
X12182619Y-16160452D01*
X12173095Y-16169976D01*
X12163571Y-16160452D01*
X12173095Y-16150928D01*
X12173095Y-16169976D01*
X12249286Y-15969976D02*
X12382619Y-15969976D01*
X12296905Y-16169976D01*
X12496905Y-15969976D02*
X12515952Y-15969976D01*
X12535000Y-15979500D01*
X12544524Y-15989024D01*
X12554048Y-16008071D01*
X12563571Y-16046167D01*
X12563571Y-16093786D01*
X12554048Y-16131881D01*
X12544524Y-16150928D01*
X12535000Y-16160452D01*
X12515952Y-16169976D01*
X12496905Y-16169976D01*
X12477857Y-16160452D01*
X12468333Y-16150928D01*
X12458809Y-16131881D01*
X12449286Y-16093786D01*
X12449286Y-16046167D01*
X12458809Y-16008071D01*
X12468333Y-15989024D01*
X12477857Y-15979500D01*
X12496905Y-15969976D01*
X12687381Y-15969976D02*
X12706428Y-15969976D01*
X12725476Y-15979500D01*
X12735000Y-15989024D01*
X12744524Y-16008071D01*
X12754048Y-16046167D01*
X12754048Y-16093786D01*
X12744524Y-16131881D01*
X12735000Y-16150928D01*
X12725476Y-16160452D01*
X12706428Y-16169976D01*
X12687381Y-16169976D01*
X12668333Y-16160452D01*
X12658809Y-16150928D01*
X12649286Y-16131881D01*
X12639762Y-16093786D01*
X12639762Y-16046167D01*
X12649286Y-16008071D01*
X12658809Y-15989024D01*
X12668333Y-15979500D01*
X12687381Y-15969976D01*
X12839762Y-16169976D02*
X12839762Y-16036643D01*
X12839762Y-16055690D02*
X12849286Y-16046167D01*
X12868333Y-16036643D01*
X12896905Y-16036643D01*
X12915952Y-16046167D01*
X12925476Y-16065214D01*
X12925476Y-16169976D01*
X12925476Y-16065214D02*
X12935000Y-16046167D01*
X12954048Y-16036643D01*
X12982619Y-16036643D01*
X13001667Y-16046167D01*
X13011190Y-16065214D01*
X13011190Y-16169976D01*
X13106428Y-16169976D02*
X13106428Y-16036643D01*
X13106428Y-16055690D02*
X13115952Y-16046167D01*
X13135000Y-16036643D01*
X13163571Y-16036643D01*
X13182619Y-16046167D01*
X13192143Y-16065214D01*
X13192143Y-16169976D01*
X13192143Y-16065214D02*
X13201667Y-16046167D01*
X13220714Y-16036643D01*
X13249286Y-16036643D01*
X13268333Y-16046167D01*
X13277857Y-16065214D01*
X13277857Y-16169976D01*
X13668333Y-15960452D02*
X13496905Y-16217595D01*
X13925476Y-15969976D02*
X13944524Y-15969976D01*
X13963571Y-15979500D01*
X13973095Y-15989024D01*
X13982619Y-16008071D01*
X13992143Y-16046167D01*
X13992143Y-16093786D01*
X13982619Y-16131881D01*
X13973095Y-16150928D01*
X13963571Y-16160452D01*
X13944524Y-16169976D01*
X13925476Y-16169976D01*
X13906428Y-16160452D01*
X13896905Y-16150928D01*
X13887381Y-16131881D01*
X13877857Y-16093786D01*
X13877857Y-16046167D01*
X13887381Y-16008071D01*
X13896905Y-15989024D01*
X13906428Y-15979500D01*
X13925476Y-15969976D01*
X14077857Y-16150928D02*
X14087381Y-16160452D01*
X14077857Y-16169976D01*
X14068333Y-16160452D01*
X14077857Y-16150928D01*
X14077857Y-16169976D01*
X14211190Y-15969976D02*
X14230238Y-15969976D01*
X14249286Y-15979500D01*
X14258809Y-15989024D01*
X14268333Y-16008071D01*
X14277857Y-16046167D01*
X14277857Y-16093786D01*
X14268333Y-16131881D01*
X14258809Y-16150928D01*
X14249286Y-16160452D01*
X14230238Y-16169976D01*
X14211190Y-16169976D01*
X14192143Y-16160452D01*
X14182619Y-16150928D01*
X14173095Y-16131881D01*
X14163571Y-16093786D01*
X14163571Y-16046167D01*
X14173095Y-16008071D01*
X14182619Y-15989024D01*
X14192143Y-15979500D01*
X14211190Y-15969976D01*
X14354048Y-15989024D02*
X14363571Y-15979500D01*
X14382619Y-15969976D01*
X14430238Y-15969976D01*
X14449286Y-15979500D01*
X14458809Y-15989024D01*
X14468333Y-16008071D01*
X14468333Y-16027119D01*
X14458809Y-16055690D01*
X14344524Y-16169976D01*
X14468333Y-16169976D01*
X14535000Y-15969976D02*
X14668333Y-15969976D01*
X14582619Y-16169976D01*
X14830238Y-15969976D02*
X14792143Y-15969976D01*
X14773095Y-15979500D01*
X14763571Y-15989024D01*
X14744524Y-16017595D01*
X14735000Y-16055690D01*
X14735000Y-16131881D01*
X14744524Y-16150928D01*
X14754048Y-16160452D01*
X14773095Y-16169976D01*
X14811190Y-16169976D01*
X14830238Y-16160452D01*
X14839762Y-16150928D01*
X14849286Y-16131881D01*
X14849286Y-16084262D01*
X14839762Y-16065214D01*
X14830238Y-16055690D01*
X14811190Y-16046167D01*
X14773095Y-16046167D01*
X14754048Y-16055690D01*
X14744524Y-16065214D01*
X14735000Y-16084262D01*
X14925476Y-15969976D02*
X14925476Y-16008071D01*
X15001667Y-15969976D02*
X15001667Y-16008071D01*
X15296905Y-16246167D02*
X15287381Y-16236643D01*
X15268333Y-16208071D01*
X15258809Y-16189024D01*
X15249286Y-16160452D01*
X15239762Y-16112833D01*
X15239762Y-16074738D01*
X15249286Y-16027119D01*
X15258809Y-15998548D01*
X15268333Y-15979500D01*
X15287381Y-15950928D01*
X15296905Y-15941405D01*
X15458809Y-15969976D02*
X15420714Y-15969976D01*
X15401667Y-15979500D01*
X15392143Y-15989024D01*
X15373095Y-16017595D01*
X15363571Y-16055690D01*
X15363571Y-16131881D01*
X15373095Y-16150928D01*
X15382619Y-16160452D01*
X15401667Y-16169976D01*
X15439762Y-16169976D01*
X15458809Y-16160452D01*
X15468333Y-16150928D01*
X15477857Y-16131881D01*
X15477857Y-16084262D01*
X15468333Y-16065214D01*
X15458809Y-16055690D01*
X15439762Y-16046167D01*
X15401667Y-16046167D01*
X15382619Y-16055690D01*
X15373095Y-16065214D01*
X15363571Y-16084262D01*
X15715952Y-16169976D02*
X15715952Y-15969976D01*
X15801667Y-16169976D02*
X15801667Y-16065214D01*
X15792143Y-16046167D01*
X15773095Y-16036643D01*
X15744524Y-16036643D01*
X15725476Y-16046167D01*
X15715952Y-16055690D01*
X15925476Y-16169976D02*
X15906428Y-16160452D01*
X15896905Y-16150928D01*
X15887381Y-16131881D01*
X15887381Y-16074738D01*
X15896905Y-16055690D01*
X15906428Y-16046167D01*
X15925476Y-16036643D01*
X15954048Y-16036643D01*
X15973095Y-16046167D01*
X15982619Y-16055690D01*
X15992143Y-16074738D01*
X15992143Y-16131881D01*
X15982619Y-16150928D01*
X15973095Y-16160452D01*
X15954048Y-16169976D01*
X15925476Y-16169976D01*
X16106428Y-16169976D02*
X16087381Y-16160452D01*
X16077857Y-16141405D01*
X16077857Y-15969976D01*
X16258809Y-16160452D02*
X16239762Y-16169976D01*
X16201667Y-16169976D01*
X16182619Y-16160452D01*
X16173095Y-16141405D01*
X16173095Y-16065214D01*
X16182619Y-16046167D01*
X16201667Y-16036643D01*
X16239762Y-16036643D01*
X16258809Y-16046167D01*
X16268333Y-16065214D01*
X16268333Y-16084262D01*
X16173095Y-16103309D01*
X16344524Y-16160452D02*
X16363571Y-16169976D01*
X16401667Y-16169976D01*
X16420714Y-16160452D01*
X16430238Y-16141405D01*
X16430238Y-16131881D01*
X16420714Y-16112833D01*
X16401667Y-16103309D01*
X16373095Y-16103309D01*
X16354048Y-16093786D01*
X16344524Y-16074738D01*
X16344524Y-16065214D01*
X16354048Y-16046167D01*
X16373095Y-16036643D01*
X16401667Y-16036643D01*
X16420714Y-16046167D01*
X16496905Y-16246167D02*
X16506428Y-16236643D01*
X16525476Y-16208071D01*
X16535000Y-16189024D01*
X16544524Y-16160452D01*
X16554048Y-16112833D01*
X16554048Y-16074738D01*
X16544524Y-16027119D01*
X16535000Y-15998548D01*
X16525476Y-15979500D01*
X16506428Y-15950928D01*
X16496905Y-15941405D01*
D15*
X11714017Y-16370017D02*
X11714017Y-16316983D01*
X11660983Y-16316983D01*
X11660983Y-16370017D01*
X11714017Y-16370017D01*
D11*
X12020714Y-16233976D02*
X12039762Y-16233976D01*
X12058809Y-16243500D01*
X12068333Y-16253024D01*
X12077857Y-16272071D01*
X12087381Y-16310167D01*
X12087381Y-16357786D01*
X12077857Y-16395881D01*
X12068333Y-16414928D01*
X12058809Y-16424452D01*
X12039762Y-16433976D01*
X12020714Y-16433976D01*
X12001667Y-16424452D01*
X11992143Y-16414928D01*
X11982619Y-16395881D01*
X11973095Y-16357786D01*
X11973095Y-16310167D01*
X11982619Y-16272071D01*
X11992143Y-16253024D01*
X12001667Y-16243500D01*
X12020714Y-16233976D01*
X12173095Y-16414928D02*
X12182619Y-16424452D01*
X12173095Y-16433976D01*
X12163571Y-16424452D01*
X12173095Y-16414928D01*
X12173095Y-16433976D01*
X12249286Y-16233976D02*
X12382619Y-16233976D01*
X12296905Y-16433976D01*
X12554048Y-16233976D02*
X12458809Y-16233976D01*
X12449286Y-16329214D01*
X12458809Y-16319690D01*
X12477857Y-16310167D01*
X12525476Y-16310167D01*
X12544524Y-16319690D01*
X12554048Y-16329214D01*
X12563571Y-16348262D01*
X12563571Y-16395881D01*
X12554048Y-16414928D01*
X12544524Y-16424452D01*
X12525476Y-16433976D01*
X12477857Y-16433976D01*
X12458809Y-16424452D01*
X12449286Y-16414928D01*
X12687381Y-16233976D02*
X12706428Y-16233976D01*
X12725476Y-16243500D01*
X12735000Y-16253024D01*
X12744524Y-16272071D01*
X12754048Y-16310167D01*
X12754048Y-16357786D01*
X12744524Y-16395881D01*
X12735000Y-16414928D01*
X12725476Y-16424452D01*
X12706428Y-16433976D01*
X12687381Y-16433976D01*
X12668333Y-16424452D01*
X12658809Y-16414928D01*
X12649286Y-16395881D01*
X12639762Y-16357786D01*
X12639762Y-16310167D01*
X12649286Y-16272071D01*
X12658809Y-16253024D01*
X12668333Y-16243500D01*
X12687381Y-16233976D01*
X12839762Y-16433976D02*
X12839762Y-16300643D01*
X12839762Y-16319690D02*
X12849286Y-16310167D01*
X12868333Y-16300643D01*
X12896905Y-16300643D01*
X12915952Y-16310167D01*
X12925476Y-16329214D01*
X12925476Y-16433976D01*
X12925476Y-16329214D02*
X12935000Y-16310167D01*
X12954048Y-16300643D01*
X12982619Y-16300643D01*
X13001667Y-16310167D01*
X13011190Y-16329214D01*
X13011190Y-16433976D01*
X13106428Y-16433976D02*
X13106428Y-16300643D01*
X13106428Y-16319690D02*
X13115952Y-16310167D01*
X13135000Y-16300643D01*
X13163571Y-16300643D01*
X13182619Y-16310167D01*
X13192143Y-16329214D01*
X13192143Y-16433976D01*
X13192143Y-16329214D02*
X13201667Y-16310167D01*
X13220714Y-16300643D01*
X13249286Y-16300643D01*
X13268333Y-16310167D01*
X13277857Y-16329214D01*
X13277857Y-16433976D01*
X13668333Y-16224452D02*
X13496905Y-16481595D01*
X13925476Y-16233976D02*
X13944524Y-16233976D01*
X13963571Y-16243500D01*
X13973095Y-16253024D01*
X13982619Y-16272071D01*
X13992143Y-16310167D01*
X13992143Y-16357786D01*
X13982619Y-16395881D01*
X13973095Y-16414928D01*
X13963571Y-16424452D01*
X13944524Y-16433976D01*
X13925476Y-16433976D01*
X13906428Y-16424452D01*
X13896905Y-16414928D01*
X13887381Y-16395881D01*
X13877857Y-16357786D01*
X13877857Y-16310167D01*
X13887381Y-16272071D01*
X13896905Y-16253024D01*
X13906428Y-16243500D01*
X13925476Y-16233976D01*
X14077857Y-16414928D02*
X14087381Y-16424452D01*
X14077857Y-16433976D01*
X14068333Y-16424452D01*
X14077857Y-16414928D01*
X14077857Y-16433976D01*
X14211190Y-16233976D02*
X14230238Y-16233976D01*
X14249286Y-16243500D01*
X14258809Y-16253024D01*
X14268333Y-16272071D01*
X14277857Y-16310167D01*
X14277857Y-16357786D01*
X14268333Y-16395881D01*
X14258809Y-16414928D01*
X14249286Y-16424452D01*
X14230238Y-16433976D01*
X14211190Y-16433976D01*
X14192143Y-16424452D01*
X14182619Y-16414928D01*
X14173095Y-16395881D01*
X14163571Y-16357786D01*
X14163571Y-16310167D01*
X14173095Y-16272071D01*
X14182619Y-16253024D01*
X14192143Y-16243500D01*
X14211190Y-16233976D01*
X14354048Y-16253024D02*
X14363571Y-16243500D01*
X14382619Y-16233976D01*
X14430238Y-16233976D01*
X14449286Y-16243500D01*
X14458809Y-16253024D01*
X14468333Y-16272071D01*
X14468333Y-16291119D01*
X14458809Y-16319690D01*
X14344524Y-16433976D01*
X14468333Y-16433976D01*
X14563571Y-16433976D02*
X14601667Y-16433976D01*
X14620714Y-16424452D01*
X14630238Y-16414928D01*
X14649286Y-16386357D01*
X14658809Y-16348262D01*
X14658809Y-16272071D01*
X14649286Y-16253024D01*
X14639762Y-16243500D01*
X14620714Y-16233976D01*
X14582619Y-16233976D01*
X14563571Y-16243500D01*
X14554048Y-16253024D01*
X14544524Y-16272071D01*
X14544524Y-16319690D01*
X14554048Y-16338738D01*
X14563571Y-16348262D01*
X14582619Y-16357786D01*
X14620714Y-16357786D01*
X14639762Y-16348262D01*
X14649286Y-16338738D01*
X14658809Y-16319690D01*
X14839762Y-16233976D02*
X14744524Y-16233976D01*
X14735000Y-16329214D01*
X14744524Y-16319690D01*
X14763571Y-16310167D01*
X14811190Y-16310167D01*
X14830238Y-16319690D01*
X14839762Y-16329214D01*
X14849286Y-16348262D01*
X14849286Y-16395881D01*
X14839762Y-16414928D01*
X14830238Y-16424452D01*
X14811190Y-16433976D01*
X14763571Y-16433976D01*
X14744524Y-16424452D01*
X14735000Y-16414928D01*
X14925476Y-16233976D02*
X14925476Y-16272071D01*
X15001667Y-16233976D02*
X15001667Y-16272071D01*
X15296905Y-16510167D02*
X15287381Y-16500643D01*
X15268333Y-16472071D01*
X15258809Y-16453024D01*
X15249286Y-16424452D01*
X15239762Y-16376833D01*
X15239762Y-16338738D01*
X15249286Y-16291119D01*
X15258809Y-16262548D01*
X15268333Y-16243500D01*
X15287381Y-16214928D01*
X15296905Y-16205405D01*
X15468333Y-16233976D02*
X15373095Y-16233976D01*
X15363571Y-16329214D01*
X15373095Y-16319690D01*
X15392143Y-16310167D01*
X15439762Y-16310167D01*
X15458809Y-16319690D01*
X15468333Y-16329214D01*
X15477857Y-16348262D01*
X15477857Y-16395881D01*
X15468333Y-16414928D01*
X15458809Y-16424452D01*
X15439762Y-16433976D01*
X15392143Y-16433976D01*
X15373095Y-16424452D01*
X15363571Y-16414928D01*
X15715952Y-16433976D02*
X15715952Y-16233976D01*
X15801667Y-16433976D02*
X15801667Y-16329214D01*
X15792143Y-16310167D01*
X15773095Y-16300643D01*
X15744524Y-16300643D01*
X15725476Y-16310167D01*
X15715952Y-16319690D01*
X15925476Y-16433976D02*
X15906428Y-16424452D01*
X15896905Y-16414928D01*
X15887381Y-16395881D01*
X15887381Y-16338738D01*
X15896905Y-16319690D01*
X15906428Y-16310167D01*
X15925476Y-16300643D01*
X15954048Y-16300643D01*
X15973095Y-16310167D01*
X15982619Y-16319690D01*
X15992143Y-16338738D01*
X15992143Y-16395881D01*
X15982619Y-16414928D01*
X15973095Y-16424452D01*
X15954048Y-16433976D01*
X15925476Y-16433976D01*
X16106428Y-16433976D02*
X16087381Y-16424452D01*
X16077857Y-16405405D01*
X16077857Y-16233976D01*
X16258809Y-16424452D02*
X16239762Y-16433976D01*
X16201667Y-16433976D01*
X16182619Y-16424452D01*
X16173095Y-16405405D01*
X16173095Y-16329214D01*
X16182619Y-16310167D01*
X16201667Y-16300643D01*
X16239762Y-16300643D01*
X16258809Y-16310167D01*
X16268333Y-16329214D01*
X16268333Y-16348262D01*
X16173095Y-16367309D01*
X16344524Y-16424452D02*
X16363571Y-16433976D01*
X16401667Y-16433976D01*
X16420714Y-16424452D01*
X16430238Y-16405405D01*
X16430238Y-16395881D01*
X16420714Y-16376833D01*
X16401667Y-16367309D01*
X16373095Y-16367309D01*
X16354048Y-16357786D01*
X16344524Y-16338738D01*
X16344524Y-16329214D01*
X16354048Y-16310167D01*
X16373095Y-16300643D01*
X16401667Y-16300643D01*
X16420714Y-16310167D01*
X16496905Y-16510167D02*
X16506428Y-16500643D01*
X16525476Y-16472071D01*
X16535000Y-16453024D01*
X16544524Y-16424452D01*
X16554048Y-16376833D01*
X16554048Y-16338738D01*
X16544524Y-16291119D01*
X16535000Y-16262548D01*
X16525476Y-16243500D01*
X16506428Y-16214928D01*
X16496905Y-16205405D01*
D16*
X11685000Y-16647500D02*
X11725000Y-16607500D01*
X11685000Y-16567500D01*
X11645000Y-16607500D01*
X11685000Y-16647500D01*
D11*
X12020714Y-16497976D02*
X12039762Y-16497976D01*
X12058809Y-16507500D01*
X12068333Y-16517024D01*
X12077857Y-16536071D01*
X12087381Y-16574167D01*
X12087381Y-16621786D01*
X12077857Y-16659881D01*
X12068333Y-16678928D01*
X12058809Y-16688452D01*
X12039762Y-16697976D01*
X12020714Y-16697976D01*
X12001667Y-16688452D01*
X11992143Y-16678928D01*
X11982619Y-16659881D01*
X11973095Y-16621786D01*
X11973095Y-16574167D01*
X11982619Y-16536071D01*
X11992143Y-16517024D01*
X12001667Y-16507500D01*
X12020714Y-16497976D01*
X12173095Y-16678928D02*
X12182619Y-16688452D01*
X12173095Y-16697976D01*
X12163571Y-16688452D01*
X12173095Y-16678928D01*
X12173095Y-16697976D01*
X12296905Y-16583690D02*
X12277857Y-16574167D01*
X12268333Y-16564643D01*
X12258809Y-16545595D01*
X12258809Y-16536071D01*
X12268333Y-16517024D01*
X12277857Y-16507500D01*
X12296905Y-16497976D01*
X12335000Y-16497976D01*
X12354048Y-16507500D01*
X12363571Y-16517024D01*
X12373095Y-16536071D01*
X12373095Y-16545595D01*
X12363571Y-16564643D01*
X12354048Y-16574167D01*
X12335000Y-16583690D01*
X12296905Y-16583690D01*
X12277857Y-16593214D01*
X12268333Y-16602738D01*
X12258809Y-16621786D01*
X12258809Y-16659881D01*
X12268333Y-16678928D01*
X12277857Y-16688452D01*
X12296905Y-16697976D01*
X12335000Y-16697976D01*
X12354048Y-16688452D01*
X12363571Y-16678928D01*
X12373095Y-16659881D01*
X12373095Y-16621786D01*
X12363571Y-16602738D01*
X12354048Y-16593214D01*
X12335000Y-16583690D01*
X12496905Y-16497976D02*
X12515952Y-16497976D01*
X12535000Y-16507500D01*
X12544524Y-16517024D01*
X12554048Y-16536071D01*
X12563571Y-16574167D01*
X12563571Y-16621786D01*
X12554048Y-16659881D01*
X12544524Y-16678928D01*
X12535000Y-16688452D01*
X12515952Y-16697976D01*
X12496905Y-16697976D01*
X12477857Y-16688452D01*
X12468333Y-16678928D01*
X12458809Y-16659881D01*
X12449286Y-16621786D01*
X12449286Y-16574167D01*
X12458809Y-16536071D01*
X12468333Y-16517024D01*
X12477857Y-16507500D01*
X12496905Y-16497976D01*
X12687381Y-16497976D02*
X12706428Y-16497976D01*
X12725476Y-16507500D01*
X12735000Y-16517024D01*
X12744524Y-16536071D01*
X12754048Y-16574167D01*
X12754048Y-16621786D01*
X12744524Y-16659881D01*
X12735000Y-16678928D01*
X12725476Y-16688452D01*
X12706428Y-16697976D01*
X12687381Y-16697976D01*
X12668333Y-16688452D01*
X12658809Y-16678928D01*
X12649286Y-16659881D01*
X12639762Y-16621786D01*
X12639762Y-16574167D01*
X12649286Y-16536071D01*
X12658809Y-16517024D01*
X12668333Y-16507500D01*
X12687381Y-16497976D01*
X12839762Y-16697976D02*
X12839762Y-16564643D01*
X12839762Y-16583690D02*
X12849286Y-16574167D01*
X12868333Y-16564643D01*
X12896905Y-16564643D01*
X12915952Y-16574167D01*
X12925476Y-16593214D01*
X12925476Y-16697976D01*
X12925476Y-16593214D02*
X12935000Y-16574167D01*
X12954048Y-16564643D01*
X12982619Y-16564643D01*
X13001667Y-16574167D01*
X13011190Y-16593214D01*
X13011190Y-16697976D01*
X13106428Y-16697976D02*
X13106428Y-16564643D01*
X13106428Y-16583690D02*
X13115952Y-16574167D01*
X13135000Y-16564643D01*
X13163571Y-16564643D01*
X13182619Y-16574167D01*
X13192143Y-16593214D01*
X13192143Y-16697976D01*
X13192143Y-16593214D02*
X13201667Y-16574167D01*
X13220714Y-16564643D01*
X13249286Y-16564643D01*
X13268333Y-16574167D01*
X13277857Y-16593214D01*
X13277857Y-16697976D01*
X13668333Y-16488452D02*
X13496905Y-16745595D01*
X13925476Y-16497976D02*
X13944524Y-16497976D01*
X13963571Y-16507500D01*
X13973095Y-16517024D01*
X13982619Y-16536071D01*
X13992143Y-16574167D01*
X13992143Y-16621786D01*
X13982619Y-16659881D01*
X13973095Y-16678928D01*
X13963571Y-16688452D01*
X13944524Y-16697976D01*
X13925476Y-16697976D01*
X13906428Y-16688452D01*
X13896905Y-16678928D01*
X13887381Y-16659881D01*
X13877857Y-16621786D01*
X13877857Y-16574167D01*
X13887381Y-16536071D01*
X13896905Y-16517024D01*
X13906428Y-16507500D01*
X13925476Y-16497976D01*
X14077857Y-16678928D02*
X14087381Y-16688452D01*
X14077857Y-16697976D01*
X14068333Y-16688452D01*
X14077857Y-16678928D01*
X14077857Y-16697976D01*
X14211190Y-16497976D02*
X14230238Y-16497976D01*
X14249286Y-16507500D01*
X14258809Y-16517024D01*
X14268333Y-16536071D01*
X14277857Y-16574167D01*
X14277857Y-16621786D01*
X14268333Y-16659881D01*
X14258809Y-16678928D01*
X14249286Y-16688452D01*
X14230238Y-16697976D01*
X14211190Y-16697976D01*
X14192143Y-16688452D01*
X14182619Y-16678928D01*
X14173095Y-16659881D01*
X14163571Y-16621786D01*
X14163571Y-16574167D01*
X14173095Y-16536071D01*
X14182619Y-16517024D01*
X14192143Y-16507500D01*
X14211190Y-16497976D01*
X14344524Y-16497976D02*
X14468333Y-16497976D01*
X14401667Y-16574167D01*
X14430238Y-16574167D01*
X14449286Y-16583690D01*
X14458809Y-16593214D01*
X14468333Y-16612262D01*
X14468333Y-16659881D01*
X14458809Y-16678928D01*
X14449286Y-16688452D01*
X14430238Y-16697976D01*
X14373095Y-16697976D01*
X14354048Y-16688452D01*
X14344524Y-16678928D01*
X14658809Y-16697976D02*
X14544524Y-16697976D01*
X14601667Y-16697976D02*
X14601667Y-16497976D01*
X14582619Y-16526548D01*
X14563571Y-16545595D01*
X14544524Y-16555119D01*
X14839762Y-16497976D02*
X14744524Y-16497976D01*
X14735000Y-16593214D01*
X14744524Y-16583690D01*
X14763571Y-16574167D01*
X14811190Y-16574167D01*
X14830238Y-16583690D01*
X14839762Y-16593214D01*
X14849286Y-16612262D01*
X14849286Y-16659881D01*
X14839762Y-16678928D01*
X14830238Y-16688452D01*
X14811190Y-16697976D01*
X14763571Y-16697976D01*
X14744524Y-16688452D01*
X14735000Y-16678928D01*
X14925476Y-16497976D02*
X14925476Y-16536071D01*
X15001667Y-16497976D02*
X15001667Y-16536071D01*
X15296905Y-16774167D02*
X15287381Y-16764643D01*
X15268333Y-16736071D01*
X15258809Y-16717024D01*
X15249286Y-16688452D01*
X15239762Y-16640833D01*
X15239762Y-16602738D01*
X15249286Y-16555119D01*
X15258809Y-16526548D01*
X15268333Y-16507500D01*
X15287381Y-16478928D01*
X15296905Y-16469405D01*
X15401667Y-16583690D02*
X15382619Y-16574167D01*
X15373095Y-16564643D01*
X15363571Y-16545595D01*
X15363571Y-16536071D01*
X15373095Y-16517024D01*
X15382619Y-16507500D01*
X15401667Y-16497976D01*
X15439762Y-16497976D01*
X15458809Y-16507500D01*
X15468333Y-16517024D01*
X15477857Y-16536071D01*
X15477857Y-16545595D01*
X15468333Y-16564643D01*
X15458809Y-16574167D01*
X15439762Y-16583690D01*
X15401667Y-16583690D01*
X15382619Y-16593214D01*
X15373095Y-16602738D01*
X15363571Y-16621786D01*
X15363571Y-16659881D01*
X15373095Y-16678928D01*
X15382619Y-16688452D01*
X15401667Y-16697976D01*
X15439762Y-16697976D01*
X15458809Y-16688452D01*
X15468333Y-16678928D01*
X15477857Y-16659881D01*
X15477857Y-16621786D01*
X15468333Y-16602738D01*
X15458809Y-16593214D01*
X15439762Y-16583690D01*
X15592143Y-16583690D02*
X15573095Y-16574167D01*
X15563571Y-16564643D01*
X15554048Y-16545595D01*
X15554048Y-16536071D01*
X15563571Y-16517024D01*
X15573095Y-16507500D01*
X15592143Y-16497976D01*
X15630238Y-16497976D01*
X15649286Y-16507500D01*
X15658809Y-16517024D01*
X15668333Y-16536071D01*
X15668333Y-16545595D01*
X15658809Y-16564643D01*
X15649286Y-16574167D01*
X15630238Y-16583690D01*
X15592143Y-16583690D01*
X15573095Y-16593214D01*
X15563571Y-16602738D01*
X15554048Y-16621786D01*
X15554048Y-16659881D01*
X15563571Y-16678928D01*
X15573095Y-16688452D01*
X15592143Y-16697976D01*
X15630238Y-16697976D01*
X15649286Y-16688452D01*
X15658809Y-16678928D01*
X15668333Y-16659881D01*
X15668333Y-16621786D01*
X15658809Y-16602738D01*
X15649286Y-16593214D01*
X15630238Y-16583690D01*
X15906428Y-16697976D02*
X15906428Y-16497976D01*
X15992143Y-16697976D02*
X15992143Y-16593214D01*
X15982619Y-16574167D01*
X15963571Y-16564643D01*
X15935000Y-16564643D01*
X15915952Y-16574167D01*
X15906428Y-16583690D01*
X16115952Y-16697976D02*
X16096905Y-16688452D01*
X16087381Y-16678928D01*
X16077857Y-16659881D01*
X16077857Y-16602738D01*
X16087381Y-16583690D01*
X16096905Y-16574167D01*
X16115952Y-16564643D01*
X16144524Y-16564643D01*
X16163571Y-16574167D01*
X16173095Y-16583690D01*
X16182619Y-16602738D01*
X16182619Y-16659881D01*
X16173095Y-16678928D01*
X16163571Y-16688452D01*
X16144524Y-16697976D01*
X16115952Y-16697976D01*
X16296905Y-16697976D02*
X16277857Y-16688452D01*
X16268333Y-16669405D01*
X16268333Y-16497976D01*
X16449286Y-16688452D02*
X16430238Y-16697976D01*
X16392143Y-16697976D01*
X16373095Y-16688452D01*
X16363571Y-16669405D01*
X16363571Y-16593214D01*
X16373095Y-16574167D01*
X16392143Y-16564643D01*
X16430238Y-16564643D01*
X16449286Y-16574167D01*
X16458809Y-16593214D01*
X16458809Y-16612262D01*
X16363571Y-16631309D01*
X16535000Y-16688452D02*
X16554048Y-16697976D01*
X16592143Y-16697976D01*
X16611190Y-16688452D01*
X16620714Y-16669405D01*
X16620714Y-16659881D01*
X16611190Y-16640833D01*
X16592143Y-16631309D01*
X16563571Y-16631309D01*
X16544524Y-16621786D01*
X16535000Y-16602738D01*
X16535000Y-16593214D01*
X16544524Y-16574167D01*
X16563571Y-16564643D01*
X16592143Y-16564643D01*
X16611190Y-16574167D01*
X16687381Y-16774167D02*
X16696905Y-16764643D01*
X16715952Y-16736071D01*
X16725476Y-16717024D01*
X16735000Y-16688452D01*
X16744524Y-16640833D01*
X16744524Y-16602738D01*
X16735000Y-16555119D01*
X16725476Y-16526548D01*
X16715952Y-16507500D01*
X16696905Y-16478928D01*
X16687381Y-16469405D01*
X11525000Y-16771500D02*
X11725000Y-16971500D01*
X11725000Y-16771500D02*
X11525000Y-16971500D01*
X11725000Y-16871500D02*
G75*
G03*
X11725000Y-16871500I-100000J0D01*
G01*
X11973095Y-16781024D02*
X11982619Y-16771500D01*
X12001667Y-16761976D01*
X12049286Y-16761976D01*
X12068333Y-16771500D01*
X12077857Y-16781024D01*
X12087381Y-16800071D01*
X12087381Y-16819119D01*
X12077857Y-16847690D01*
X11963571Y-16961976D01*
X12087381Y-16961976D01*
X12173095Y-16942929D02*
X12182619Y-16952452D01*
X12173095Y-16961976D01*
X12163571Y-16952452D01*
X12173095Y-16942929D01*
X12173095Y-16961976D01*
X12258809Y-16781024D02*
X12268333Y-16771500D01*
X12287381Y-16761976D01*
X12335000Y-16761976D01*
X12354048Y-16771500D01*
X12363571Y-16781024D01*
X12373095Y-16800071D01*
X12373095Y-16819119D01*
X12363571Y-16847690D01*
X12249286Y-16961976D01*
X12373095Y-16961976D01*
X12496905Y-16761976D02*
X12515952Y-16761976D01*
X12535000Y-16771500D01*
X12544524Y-16781024D01*
X12554048Y-16800071D01*
X12563571Y-16838167D01*
X12563571Y-16885786D01*
X12554048Y-16923881D01*
X12544524Y-16942929D01*
X12535000Y-16952452D01*
X12515952Y-16961976D01*
X12496905Y-16961976D01*
X12477857Y-16952452D01*
X12468333Y-16942929D01*
X12458809Y-16923881D01*
X12449286Y-16885786D01*
X12449286Y-16838167D01*
X12458809Y-16800071D01*
X12468333Y-16781024D01*
X12477857Y-16771500D01*
X12496905Y-16761976D01*
X12687381Y-16761976D02*
X12706428Y-16761976D01*
X12725476Y-16771500D01*
X12735000Y-16781024D01*
X12744524Y-16800071D01*
X12754048Y-16838167D01*
X12754048Y-16885786D01*
X12744524Y-16923881D01*
X12735000Y-16942929D01*
X12725476Y-16952452D01*
X12706428Y-16961976D01*
X12687381Y-16961976D01*
X12668333Y-16952452D01*
X12658809Y-16942929D01*
X12649286Y-16923881D01*
X12639762Y-16885786D01*
X12639762Y-16838167D01*
X12649286Y-16800071D01*
X12658809Y-16781024D01*
X12668333Y-16771500D01*
X12687381Y-16761976D01*
X12839762Y-16961976D02*
X12839762Y-16828643D01*
X12839762Y-16847690D02*
X12849286Y-16838167D01*
X12868333Y-16828643D01*
X12896905Y-16828643D01*
X12915952Y-16838167D01*
X12925476Y-16857214D01*
X12925476Y-16961976D01*
X12925476Y-16857214D02*
X12935000Y-16838167D01*
X12954048Y-16828643D01*
X12982619Y-16828643D01*
X13001667Y-16838167D01*
X13011190Y-16857214D01*
X13011190Y-16961976D01*
X13106428Y-16961976D02*
X13106428Y-16828643D01*
X13106428Y-16847690D02*
X13115952Y-16838167D01*
X13135000Y-16828643D01*
X13163571Y-16828643D01*
X13182619Y-16838167D01*
X13192143Y-16857214D01*
X13192143Y-16961976D01*
X13192143Y-16857214D02*
X13201667Y-16838167D01*
X13220714Y-16828643D01*
X13249286Y-16828643D01*
X13268333Y-16838167D01*
X13277857Y-16857214D01*
X13277857Y-16961976D01*
X13668333Y-16752452D02*
X13496905Y-17009595D01*
X13925476Y-16761976D02*
X13944524Y-16761976D01*
X13963571Y-16771500D01*
X13973095Y-16781024D01*
X13982619Y-16800071D01*
X13992143Y-16838167D01*
X13992143Y-16885786D01*
X13982619Y-16923881D01*
X13973095Y-16942929D01*
X13963571Y-16952452D01*
X13944524Y-16961976D01*
X13925476Y-16961976D01*
X13906428Y-16952452D01*
X13896905Y-16942929D01*
X13887381Y-16923881D01*
X13877857Y-16885786D01*
X13877857Y-16838167D01*
X13887381Y-16800071D01*
X13896905Y-16781024D01*
X13906428Y-16771500D01*
X13925476Y-16761976D01*
X14077857Y-16942929D02*
X14087381Y-16952452D01*
X14077857Y-16961976D01*
X14068333Y-16952452D01*
X14077857Y-16942929D01*
X14077857Y-16961976D01*
X14211190Y-16761976D02*
X14230238Y-16761976D01*
X14249286Y-16771500D01*
X14258809Y-16781024D01*
X14268333Y-16800071D01*
X14277857Y-16838167D01*
X14277857Y-16885786D01*
X14268333Y-16923881D01*
X14258809Y-16942929D01*
X14249286Y-16952452D01*
X14230238Y-16961976D01*
X14211190Y-16961976D01*
X14192143Y-16952452D01*
X14182619Y-16942929D01*
X14173095Y-16923881D01*
X14163571Y-16885786D01*
X14163571Y-16838167D01*
X14173095Y-16800071D01*
X14182619Y-16781024D01*
X14192143Y-16771500D01*
X14211190Y-16761976D01*
X14392143Y-16847690D02*
X14373095Y-16838167D01*
X14363571Y-16828643D01*
X14354048Y-16809595D01*
X14354048Y-16800071D01*
X14363571Y-16781024D01*
X14373095Y-16771500D01*
X14392143Y-16761976D01*
X14430238Y-16761976D01*
X14449286Y-16771500D01*
X14458809Y-16781024D01*
X14468333Y-16800071D01*
X14468333Y-16809595D01*
X14458809Y-16828643D01*
X14449286Y-16838167D01*
X14430238Y-16847690D01*
X14392143Y-16847690D01*
X14373095Y-16857214D01*
X14363571Y-16866738D01*
X14354048Y-16885786D01*
X14354048Y-16923881D01*
X14363571Y-16942929D01*
X14373095Y-16952452D01*
X14392143Y-16961976D01*
X14430238Y-16961976D01*
X14449286Y-16952452D01*
X14458809Y-16942929D01*
X14468333Y-16923881D01*
X14468333Y-16885786D01*
X14458809Y-16866738D01*
X14449286Y-16857214D01*
X14430238Y-16847690D01*
X14639762Y-16761976D02*
X14601667Y-16761976D01*
X14582619Y-16771500D01*
X14573095Y-16781024D01*
X14554048Y-16809595D01*
X14544524Y-16847690D01*
X14544524Y-16923881D01*
X14554048Y-16942929D01*
X14563571Y-16952452D01*
X14582619Y-16961976D01*
X14620714Y-16961976D01*
X14639762Y-16952452D01*
X14649286Y-16942929D01*
X14658809Y-16923881D01*
X14658809Y-16876262D01*
X14649286Y-16857214D01*
X14639762Y-16847690D01*
X14620714Y-16838167D01*
X14582619Y-16838167D01*
X14563571Y-16847690D01*
X14554048Y-16857214D01*
X14544524Y-16876262D01*
X14830238Y-16761976D02*
X14792143Y-16761976D01*
X14773095Y-16771500D01*
X14763571Y-16781024D01*
X14744524Y-16809595D01*
X14735000Y-16847690D01*
X14735000Y-16923881D01*
X14744524Y-16942929D01*
X14754048Y-16952452D01*
X14773095Y-16961976D01*
X14811190Y-16961976D01*
X14830238Y-16952452D01*
X14839762Y-16942929D01*
X14849286Y-16923881D01*
X14849286Y-16876262D01*
X14839762Y-16857214D01*
X14830238Y-16847690D01*
X14811190Y-16838167D01*
X14773095Y-16838167D01*
X14754048Y-16847690D01*
X14744524Y-16857214D01*
X14735000Y-16876262D01*
X14925476Y-16761976D02*
X14925476Y-16800071D01*
X15001667Y-16761976D02*
X15001667Y-16800071D01*
X15296905Y-17038167D02*
X15287381Y-17028643D01*
X15268333Y-17000071D01*
X15258809Y-16981024D01*
X15249286Y-16952452D01*
X15239762Y-16904833D01*
X15239762Y-16866738D01*
X15249286Y-16819119D01*
X15258809Y-16790548D01*
X15268333Y-16771500D01*
X15287381Y-16742928D01*
X15296905Y-16733405D01*
X15458809Y-16828643D02*
X15458809Y-16961976D01*
X15411190Y-16752452D02*
X15363571Y-16895310D01*
X15487381Y-16895310D01*
X15715952Y-16961976D02*
X15715952Y-16761976D01*
X15801667Y-16961976D02*
X15801667Y-16857214D01*
X15792143Y-16838167D01*
X15773095Y-16828643D01*
X15744524Y-16828643D01*
X15725476Y-16838167D01*
X15715952Y-16847690D01*
X15925476Y-16961976D02*
X15906428Y-16952452D01*
X15896905Y-16942929D01*
X15887381Y-16923881D01*
X15887381Y-16866738D01*
X15896905Y-16847690D01*
X15906428Y-16838167D01*
X15925476Y-16828643D01*
X15954048Y-16828643D01*
X15973095Y-16838167D01*
X15982619Y-16847690D01*
X15992143Y-16866738D01*
X15992143Y-16923881D01*
X15982619Y-16942929D01*
X15973095Y-16952452D01*
X15954048Y-16961976D01*
X15925476Y-16961976D01*
X16106428Y-16961976D02*
X16087381Y-16952452D01*
X16077857Y-16933405D01*
X16077857Y-16761976D01*
X16258809Y-16952452D02*
X16239762Y-16961976D01*
X16201667Y-16961976D01*
X16182619Y-16952452D01*
X16173095Y-16933405D01*
X16173095Y-16857214D01*
X16182619Y-16838167D01*
X16201667Y-16828643D01*
X16239762Y-16828643D01*
X16258809Y-16838167D01*
X16268333Y-16857214D01*
X16268333Y-16876262D01*
X16173095Y-16895310D01*
X16344524Y-16952452D02*
X16363571Y-16961976D01*
X16401667Y-16961976D01*
X16420714Y-16952452D01*
X16430238Y-16933405D01*
X16430238Y-16923881D01*
X16420714Y-16904833D01*
X16401667Y-16895310D01*
X16373095Y-16895310D01*
X16354048Y-16885786D01*
X16344524Y-16866738D01*
X16344524Y-16857214D01*
X16354048Y-16838167D01*
X16373095Y-16828643D01*
X16401667Y-16828643D01*
X16420714Y-16838167D01*
X16496905Y-17038167D02*
X16506428Y-17028643D01*
X16525476Y-17000071D01*
X16535000Y-16981024D01*
X16544524Y-16952452D01*
X16554048Y-16904833D01*
X16554048Y-16866738D01*
X16544524Y-16819119D01*
X16535000Y-16790548D01*
X16525476Y-16771500D01*
X16506428Y-16742928D01*
X16496905Y-16733405D01*
M02*
