%TF.GenerationSoftware,KiCad,Pcbnew,(6.0.7)*%
%TF.CreationDate,2023-02-02T12:11:16-07:00*%
%TF.ProjectId,Tellus,54656c6c-7573-42e6-9b69-6361645f7063,rev?*%
%TF.SameCoordinates,Original*%
%TF.FileFunction,Soldermask,Top*%
%TF.FilePolarity,Negative*%
%FSLAX46Y46*%
G04 Gerber Fmt 4.6, Leading zero omitted, Abs format (unit mm)*
G04 Created by KiCad (PCBNEW (6.0.7)) date 2023-02-02 12:11:16*
%MOMM*%
%LPD*%
G01*
G04 APERTURE LIST*
G04 Aperture macros list*
%AMRoundRect*
0 Rectangle with rounded corners*
0 $1 Rounding radius*
0 $2 $3 $4 $5 $6 $7 $8 $9 X,Y pos of 4 corners*
0 Add a 4 corners polygon primitive as box body*
4,1,4,$2,$3,$4,$5,$6,$7,$8,$9,$2,$3,0*
0 Add four circle primitives for the rounded corners*
1,1,$1+$1,$2,$3*
1,1,$1+$1,$4,$5*
1,1,$1+$1,$6,$7*
1,1,$1+$1,$8,$9*
0 Add four rect primitives between the rounded corners*
20,1,$1+$1,$2,$3,$4,$5,0*
20,1,$1+$1,$4,$5,$6,$7,0*
20,1,$1+$1,$6,$7,$8,$9,0*
20,1,$1+$1,$8,$9,$2,$3,0*%
G04 Aperture macros list end*
%ADD10C,0.010000*%
%ADD11R,1.350000X1.350000*%
%ADD12O,1.350000X1.350000*%
%ADD13C,1.308000*%
%ADD14C,1.258000*%
%ADD15C,1.208000*%
%ADD16RoundRect,0.250000X1.100000X-0.412500X1.100000X0.412500X-1.100000X0.412500X-1.100000X-0.412500X0*%
%ADD17RoundRect,0.250000X0.412500X1.100000X-0.412500X1.100000X-0.412500X-1.100000X0.412500X-1.100000X0*%
%ADD18RoundRect,0.250000X-0.625000X0.312500X-0.625000X-0.312500X0.625000X-0.312500X0.625000X0.312500X0*%
%ADD19RoundRect,0.250000X-1.100000X0.412500X-1.100000X-0.412500X1.100000X-0.412500X1.100000X0.412500X0*%
%ADD20C,4.400000*%
%ADD21RoundRect,0.075000X0.075000X-0.662500X0.075000X0.662500X-0.075000X0.662500X-0.075000X-0.662500X0*%
%ADD22R,1.980000X1.730000*%
%ADD23RoundRect,0.250000X0.625000X-0.312500X0.625000X0.312500X-0.625000X0.312500X-0.625000X-0.312500X0*%
%ADD24RoundRect,0.250000X-0.312500X-0.625000X0.312500X-0.625000X0.312500X0.625000X-0.312500X0.625000X0*%
%ADD25RoundRect,0.250000X-0.412500X-1.100000X0.412500X-1.100000X0.412500X1.100000X-0.412500X1.100000X0*%
%ADD26R,1.500000X2.000000*%
%ADD27R,3.800000X2.000000*%
G04 APERTURE END LIST*
%TO.C,U7*%
G36*
X171210000Y-115582500D02*
G01*
X170635000Y-115582500D01*
X170635000Y-115232500D01*
X171210000Y-115232500D01*
X171210000Y-115582500D01*
G37*
D10*
X171210000Y-115582500D02*
X170635000Y-115582500D01*
X170635000Y-115232500D01*
X171210000Y-115232500D01*
X171210000Y-115582500D01*
G36*
X172260000Y-115857500D02*
G01*
X171910000Y-115857500D01*
X171910000Y-115282500D01*
X172260000Y-115282500D01*
X172260000Y-115857500D01*
G37*
X172260000Y-115857500D02*
X171910000Y-115857500D01*
X171910000Y-115282500D01*
X172260000Y-115282500D01*
X172260000Y-115857500D01*
G36*
X173535000Y-114082500D02*
G01*
X172960000Y-114082500D01*
X172960000Y-113732500D01*
X173535000Y-113732500D01*
X173535000Y-114082500D01*
G37*
X173535000Y-114082500D02*
X172960000Y-114082500D01*
X172960000Y-113732500D01*
X173535000Y-113732500D01*
X173535000Y-114082500D01*
G36*
X171760000Y-114032500D02*
G01*
X171410000Y-114032500D01*
X171410000Y-113457500D01*
X171760000Y-113457500D01*
X171760000Y-114032500D01*
G37*
X171760000Y-114032500D02*
X171410000Y-114032500D01*
X171410000Y-113457500D01*
X171760000Y-113457500D01*
X171760000Y-114032500D01*
G36*
X173535000Y-115082500D02*
G01*
X172960000Y-115082500D01*
X172960000Y-114732500D01*
X173535000Y-114732500D01*
X173535000Y-115082500D01*
G37*
X173535000Y-115082500D02*
X172960000Y-115082500D01*
X172960000Y-114732500D01*
X173535000Y-114732500D01*
X173535000Y-115082500D01*
G36*
X172260000Y-114032500D02*
G01*
X171910000Y-114032500D01*
X171910000Y-113457500D01*
X172260000Y-113457500D01*
X172260000Y-114032500D01*
G37*
X172260000Y-114032500D02*
X171910000Y-114032500D01*
X171910000Y-113457500D01*
X172260000Y-113457500D01*
X172260000Y-114032500D01*
G36*
X173535000Y-115582500D02*
G01*
X172960000Y-115582500D01*
X172960000Y-115232500D01*
X173535000Y-115232500D01*
X173535000Y-115582500D01*
G37*
X173535000Y-115582500D02*
X172960000Y-115582500D01*
X172960000Y-115232500D01*
X173535000Y-115232500D01*
X173535000Y-115582500D01*
G36*
X171210000Y-114582500D02*
G01*
X170635000Y-114582500D01*
X170635000Y-114232500D01*
X171210000Y-114232500D01*
X171210000Y-114582500D01*
G37*
X171210000Y-114582500D02*
X170635000Y-114582500D01*
X170635000Y-114232500D01*
X171210000Y-114232500D01*
X171210000Y-114582500D01*
G36*
X172760000Y-114032500D02*
G01*
X172410000Y-114032500D01*
X172410000Y-113457500D01*
X172760000Y-113457500D01*
X172760000Y-114032500D01*
G37*
X172760000Y-114032500D02*
X172410000Y-114032500D01*
X172410000Y-113457500D01*
X172760000Y-113457500D01*
X172760000Y-114032500D01*
G36*
X173535000Y-114582500D02*
G01*
X172960000Y-114582500D01*
X172960000Y-114232500D01*
X173535000Y-114232500D01*
X173535000Y-114582500D01*
G37*
X173535000Y-114582500D02*
X172960000Y-114582500D01*
X172960000Y-114232500D01*
X173535000Y-114232500D01*
X173535000Y-114582500D01*
G36*
X171760000Y-115857500D02*
G01*
X171410000Y-115857500D01*
X171410000Y-115282500D01*
X171760000Y-115282500D01*
X171760000Y-115857500D01*
G37*
X171760000Y-115857500D02*
X171410000Y-115857500D01*
X171410000Y-115282500D01*
X171760000Y-115282500D01*
X171760000Y-115857500D01*
G36*
X172760000Y-115857500D02*
G01*
X172410000Y-115857500D01*
X172410000Y-115282500D01*
X172760000Y-115282500D01*
X172760000Y-115857500D01*
G37*
X172760000Y-115857500D02*
X172410000Y-115857500D01*
X172410000Y-115282500D01*
X172760000Y-115282500D01*
X172760000Y-115857500D01*
G36*
X171210000Y-114082500D02*
G01*
X170635000Y-114082500D01*
X170635000Y-113732500D01*
X171210000Y-113732500D01*
X171210000Y-114082500D01*
G37*
X171210000Y-114082500D02*
X170635000Y-114082500D01*
X170635000Y-113732500D01*
X171210000Y-113732500D01*
X171210000Y-114082500D01*
G36*
X171210000Y-115082500D02*
G01*
X170635000Y-115082500D01*
X170635000Y-114732500D01*
X171210000Y-114732500D01*
X171210000Y-115082500D01*
G37*
X171210000Y-115082500D02*
X170635000Y-115082500D01*
X170635000Y-114732500D01*
X171210000Y-114732500D01*
X171210000Y-115082500D01*
%TO.C,U6*%
G36*
X181626000Y-113961000D02*
G01*
X181631000Y-113961000D01*
X181637000Y-113963000D01*
X181642000Y-113964000D01*
X181648000Y-113966000D01*
X181663000Y-113972000D01*
X181673000Y-113978000D01*
X181677000Y-113981000D01*
X181682000Y-113985000D01*
X181694000Y-113997000D01*
X181697000Y-114001000D01*
X181701000Y-114006000D01*
X181704000Y-114010000D01*
X181707000Y-114015000D01*
X181709000Y-114020000D01*
X181712000Y-114025000D01*
X181714000Y-114031000D01*
X181716000Y-114036000D01*
X181717000Y-114041000D01*
X181719000Y-114053000D01*
X181720000Y-114058000D01*
X181720000Y-114312000D01*
X181719000Y-114317000D01*
X181717000Y-114329000D01*
X181716000Y-114334000D01*
X181714000Y-114339000D01*
X181712000Y-114345000D01*
X181709000Y-114350000D01*
X181707000Y-114355000D01*
X181704000Y-114360000D01*
X181701000Y-114364000D01*
X181697000Y-114369000D01*
X181694000Y-114373000D01*
X181682000Y-114385000D01*
X181677000Y-114389000D01*
X181673000Y-114392000D01*
X181663000Y-114398000D01*
X181648000Y-114404000D01*
X181642000Y-114406000D01*
X181637000Y-114407000D01*
X181631000Y-114409000D01*
X181626000Y-114409000D01*
X181620000Y-114410000D01*
X181320000Y-114410000D01*
X181314000Y-114409000D01*
X181309000Y-114409000D01*
X181303000Y-114407000D01*
X181298000Y-114406000D01*
X181292000Y-114404000D01*
X181277000Y-114398000D01*
X181267000Y-114392000D01*
X181263000Y-114389000D01*
X181258000Y-114385000D01*
X181246000Y-114373000D01*
X181243000Y-114369000D01*
X181239000Y-114364000D01*
X181236000Y-114360000D01*
X181233000Y-114355000D01*
X181231000Y-114350000D01*
X181228000Y-114345000D01*
X181226000Y-114339000D01*
X181224000Y-114334000D01*
X181223000Y-114329000D01*
X181221000Y-114317000D01*
X181220000Y-114312000D01*
X181220000Y-114058000D01*
X181221000Y-114053000D01*
X181223000Y-114041000D01*
X181224000Y-114036000D01*
X181226000Y-114031000D01*
X181228000Y-114025000D01*
X181231000Y-114020000D01*
X181233000Y-114015000D01*
X181236000Y-114010000D01*
X181239000Y-114006000D01*
X181243000Y-114001000D01*
X181246000Y-113997000D01*
X181258000Y-113985000D01*
X181263000Y-113981000D01*
X181267000Y-113978000D01*
X181277000Y-113972000D01*
X181292000Y-113966000D01*
X181298000Y-113964000D01*
X181303000Y-113963000D01*
X181309000Y-113961000D01*
X181314000Y-113961000D01*
X181320000Y-113960000D01*
X181620000Y-113960000D01*
X181626000Y-113961000D01*
G37*
X181626000Y-113961000D02*
X181631000Y-113961000D01*
X181637000Y-113963000D01*
X181642000Y-113964000D01*
X181648000Y-113966000D01*
X181663000Y-113972000D01*
X181673000Y-113978000D01*
X181677000Y-113981000D01*
X181682000Y-113985000D01*
X181694000Y-113997000D01*
X181697000Y-114001000D01*
X181701000Y-114006000D01*
X181704000Y-114010000D01*
X181707000Y-114015000D01*
X181709000Y-114020000D01*
X181712000Y-114025000D01*
X181714000Y-114031000D01*
X181716000Y-114036000D01*
X181717000Y-114041000D01*
X181719000Y-114053000D01*
X181720000Y-114058000D01*
X181720000Y-114312000D01*
X181719000Y-114317000D01*
X181717000Y-114329000D01*
X181716000Y-114334000D01*
X181714000Y-114339000D01*
X181712000Y-114345000D01*
X181709000Y-114350000D01*
X181707000Y-114355000D01*
X181704000Y-114360000D01*
X181701000Y-114364000D01*
X181697000Y-114369000D01*
X181694000Y-114373000D01*
X181682000Y-114385000D01*
X181677000Y-114389000D01*
X181673000Y-114392000D01*
X181663000Y-114398000D01*
X181648000Y-114404000D01*
X181642000Y-114406000D01*
X181637000Y-114407000D01*
X181631000Y-114409000D01*
X181626000Y-114409000D01*
X181620000Y-114410000D01*
X181320000Y-114410000D01*
X181314000Y-114409000D01*
X181309000Y-114409000D01*
X181303000Y-114407000D01*
X181298000Y-114406000D01*
X181292000Y-114404000D01*
X181277000Y-114398000D01*
X181267000Y-114392000D01*
X181263000Y-114389000D01*
X181258000Y-114385000D01*
X181246000Y-114373000D01*
X181243000Y-114369000D01*
X181239000Y-114364000D01*
X181236000Y-114360000D01*
X181233000Y-114355000D01*
X181231000Y-114350000D01*
X181228000Y-114345000D01*
X181226000Y-114339000D01*
X181224000Y-114334000D01*
X181223000Y-114329000D01*
X181221000Y-114317000D01*
X181220000Y-114312000D01*
X181220000Y-114058000D01*
X181221000Y-114053000D01*
X181223000Y-114041000D01*
X181224000Y-114036000D01*
X181226000Y-114031000D01*
X181228000Y-114025000D01*
X181231000Y-114020000D01*
X181233000Y-114015000D01*
X181236000Y-114010000D01*
X181239000Y-114006000D01*
X181243000Y-114001000D01*
X181246000Y-113997000D01*
X181258000Y-113985000D01*
X181263000Y-113981000D01*
X181267000Y-113978000D01*
X181277000Y-113972000D01*
X181292000Y-113966000D01*
X181298000Y-113964000D01*
X181303000Y-113963000D01*
X181309000Y-113961000D01*
X181314000Y-113961000D01*
X181320000Y-113960000D01*
X181620000Y-113960000D01*
X181626000Y-113961000D01*
G36*
X182127000Y-113921000D02*
G01*
X182139000Y-113923000D01*
X182144000Y-113924000D01*
X182149000Y-113926000D01*
X182155000Y-113928000D01*
X182160000Y-113931000D01*
X182165000Y-113933000D01*
X182170000Y-113936000D01*
X182174000Y-113939000D01*
X182179000Y-113943000D01*
X182183000Y-113946000D01*
X182195000Y-113958000D01*
X182199000Y-113963000D01*
X182202000Y-113967000D01*
X182208000Y-113977000D01*
X182214000Y-113992000D01*
X182216000Y-113998000D01*
X182217000Y-114003000D01*
X182219000Y-114009000D01*
X182219000Y-114014000D01*
X182220000Y-114020000D01*
X182220000Y-114320000D01*
X182219000Y-114326000D01*
X182219000Y-114331000D01*
X182217000Y-114337000D01*
X182216000Y-114342000D01*
X182214000Y-114348000D01*
X182208000Y-114363000D01*
X182202000Y-114373000D01*
X182199000Y-114377000D01*
X182195000Y-114382000D01*
X182183000Y-114394000D01*
X182179000Y-114397000D01*
X182174000Y-114401000D01*
X182170000Y-114404000D01*
X182165000Y-114407000D01*
X182160000Y-114409000D01*
X182155000Y-114412000D01*
X182149000Y-114414000D01*
X182144000Y-114416000D01*
X182139000Y-114417000D01*
X182127000Y-114419000D01*
X182122000Y-114420000D01*
X181868000Y-114420000D01*
X181863000Y-114419000D01*
X181851000Y-114417000D01*
X181846000Y-114416000D01*
X181841000Y-114414000D01*
X181835000Y-114412000D01*
X181830000Y-114409000D01*
X181825000Y-114407000D01*
X181820000Y-114404000D01*
X181816000Y-114401000D01*
X181811000Y-114397000D01*
X181807000Y-114394000D01*
X181795000Y-114382000D01*
X181791000Y-114377000D01*
X181788000Y-114373000D01*
X181782000Y-114363000D01*
X181776000Y-114348000D01*
X181774000Y-114342000D01*
X181773000Y-114337000D01*
X181771000Y-114331000D01*
X181771000Y-114326000D01*
X181770000Y-114320000D01*
X181770000Y-114020000D01*
X181771000Y-114014000D01*
X181771000Y-114009000D01*
X181773000Y-114003000D01*
X181774000Y-113998000D01*
X181776000Y-113992000D01*
X181782000Y-113977000D01*
X181788000Y-113967000D01*
X181791000Y-113963000D01*
X181795000Y-113958000D01*
X181807000Y-113946000D01*
X181811000Y-113943000D01*
X181816000Y-113939000D01*
X181820000Y-113936000D01*
X181825000Y-113933000D01*
X181830000Y-113931000D01*
X181835000Y-113928000D01*
X181841000Y-113926000D01*
X181846000Y-113924000D01*
X181851000Y-113923000D01*
X181863000Y-113921000D01*
X181868000Y-113920000D01*
X182122000Y-113920000D01*
X182127000Y-113921000D01*
G37*
X182127000Y-113921000D02*
X182139000Y-113923000D01*
X182144000Y-113924000D01*
X182149000Y-113926000D01*
X182155000Y-113928000D01*
X182160000Y-113931000D01*
X182165000Y-113933000D01*
X182170000Y-113936000D01*
X182174000Y-113939000D01*
X182179000Y-113943000D01*
X182183000Y-113946000D01*
X182195000Y-113958000D01*
X182199000Y-113963000D01*
X182202000Y-113967000D01*
X182208000Y-113977000D01*
X182214000Y-113992000D01*
X182216000Y-113998000D01*
X182217000Y-114003000D01*
X182219000Y-114009000D01*
X182219000Y-114014000D01*
X182220000Y-114020000D01*
X182220000Y-114320000D01*
X182219000Y-114326000D01*
X182219000Y-114331000D01*
X182217000Y-114337000D01*
X182216000Y-114342000D01*
X182214000Y-114348000D01*
X182208000Y-114363000D01*
X182202000Y-114373000D01*
X182199000Y-114377000D01*
X182195000Y-114382000D01*
X182183000Y-114394000D01*
X182179000Y-114397000D01*
X182174000Y-114401000D01*
X182170000Y-114404000D01*
X182165000Y-114407000D01*
X182160000Y-114409000D01*
X182155000Y-114412000D01*
X182149000Y-114414000D01*
X182144000Y-114416000D01*
X182139000Y-114417000D01*
X182127000Y-114419000D01*
X182122000Y-114420000D01*
X181868000Y-114420000D01*
X181863000Y-114419000D01*
X181851000Y-114417000D01*
X181846000Y-114416000D01*
X181841000Y-114414000D01*
X181835000Y-114412000D01*
X181830000Y-114409000D01*
X181825000Y-114407000D01*
X181820000Y-114404000D01*
X181816000Y-114401000D01*
X181811000Y-114397000D01*
X181807000Y-114394000D01*
X181795000Y-114382000D01*
X181791000Y-114377000D01*
X181788000Y-114373000D01*
X181782000Y-114363000D01*
X181776000Y-114348000D01*
X181774000Y-114342000D01*
X181773000Y-114337000D01*
X181771000Y-114331000D01*
X181771000Y-114326000D01*
X181770000Y-114320000D01*
X181770000Y-114020000D01*
X181771000Y-114014000D01*
X181771000Y-114009000D01*
X181773000Y-114003000D01*
X181774000Y-113998000D01*
X181776000Y-113992000D01*
X181782000Y-113977000D01*
X181788000Y-113967000D01*
X181791000Y-113963000D01*
X181795000Y-113958000D01*
X181807000Y-113946000D01*
X181811000Y-113943000D01*
X181816000Y-113939000D01*
X181820000Y-113936000D01*
X181825000Y-113933000D01*
X181830000Y-113931000D01*
X181835000Y-113928000D01*
X181841000Y-113926000D01*
X181846000Y-113924000D01*
X181851000Y-113923000D01*
X181863000Y-113921000D01*
X181868000Y-113920000D01*
X182122000Y-113920000D01*
X182127000Y-113921000D01*
G36*
X183176000Y-115461000D02*
G01*
X183181000Y-115461000D01*
X183187000Y-115463000D01*
X183192000Y-115464000D01*
X183198000Y-115466000D01*
X183213000Y-115472000D01*
X183223000Y-115478000D01*
X183227000Y-115481000D01*
X183232000Y-115485000D01*
X183244000Y-115497000D01*
X183247000Y-115501000D01*
X183251000Y-115506000D01*
X183254000Y-115510000D01*
X183257000Y-115515000D01*
X183259000Y-115520000D01*
X183262000Y-115525000D01*
X183264000Y-115531000D01*
X183266000Y-115536000D01*
X183267000Y-115541000D01*
X183269000Y-115553000D01*
X183270000Y-115558000D01*
X183270000Y-115812000D01*
X183269000Y-115817000D01*
X183267000Y-115829000D01*
X183266000Y-115834000D01*
X183264000Y-115839000D01*
X183262000Y-115845000D01*
X183259000Y-115850000D01*
X183257000Y-115855000D01*
X183254000Y-115860000D01*
X183251000Y-115864000D01*
X183247000Y-115869000D01*
X183244000Y-115873000D01*
X183232000Y-115885000D01*
X183227000Y-115889000D01*
X183223000Y-115892000D01*
X183213000Y-115898000D01*
X183198000Y-115904000D01*
X183192000Y-115906000D01*
X183187000Y-115907000D01*
X183181000Y-115909000D01*
X183176000Y-115909000D01*
X183170000Y-115910000D01*
X182870000Y-115910000D01*
X182864000Y-115909000D01*
X182859000Y-115909000D01*
X182853000Y-115907000D01*
X182848000Y-115906000D01*
X182842000Y-115904000D01*
X182827000Y-115898000D01*
X182817000Y-115892000D01*
X182813000Y-115889000D01*
X182808000Y-115885000D01*
X182796000Y-115873000D01*
X182793000Y-115869000D01*
X182789000Y-115864000D01*
X182786000Y-115860000D01*
X182783000Y-115855000D01*
X182781000Y-115850000D01*
X182778000Y-115845000D01*
X182776000Y-115839000D01*
X182774000Y-115834000D01*
X182773000Y-115829000D01*
X182771000Y-115817000D01*
X182770000Y-115812000D01*
X182770000Y-115558000D01*
X182771000Y-115553000D01*
X182773000Y-115541000D01*
X182774000Y-115536000D01*
X182776000Y-115531000D01*
X182778000Y-115525000D01*
X182781000Y-115520000D01*
X182783000Y-115515000D01*
X182786000Y-115510000D01*
X182789000Y-115506000D01*
X182793000Y-115501000D01*
X182796000Y-115497000D01*
X182808000Y-115485000D01*
X182813000Y-115481000D01*
X182817000Y-115478000D01*
X182827000Y-115472000D01*
X182842000Y-115466000D01*
X182848000Y-115464000D01*
X182853000Y-115463000D01*
X182859000Y-115461000D01*
X182864000Y-115461000D01*
X182870000Y-115460000D01*
X183170000Y-115460000D01*
X183176000Y-115461000D01*
G37*
X183176000Y-115461000D02*
X183181000Y-115461000D01*
X183187000Y-115463000D01*
X183192000Y-115464000D01*
X183198000Y-115466000D01*
X183213000Y-115472000D01*
X183223000Y-115478000D01*
X183227000Y-115481000D01*
X183232000Y-115485000D01*
X183244000Y-115497000D01*
X183247000Y-115501000D01*
X183251000Y-115506000D01*
X183254000Y-115510000D01*
X183257000Y-115515000D01*
X183259000Y-115520000D01*
X183262000Y-115525000D01*
X183264000Y-115531000D01*
X183266000Y-115536000D01*
X183267000Y-115541000D01*
X183269000Y-115553000D01*
X183270000Y-115558000D01*
X183270000Y-115812000D01*
X183269000Y-115817000D01*
X183267000Y-115829000D01*
X183266000Y-115834000D01*
X183264000Y-115839000D01*
X183262000Y-115845000D01*
X183259000Y-115850000D01*
X183257000Y-115855000D01*
X183254000Y-115860000D01*
X183251000Y-115864000D01*
X183247000Y-115869000D01*
X183244000Y-115873000D01*
X183232000Y-115885000D01*
X183227000Y-115889000D01*
X183223000Y-115892000D01*
X183213000Y-115898000D01*
X183198000Y-115904000D01*
X183192000Y-115906000D01*
X183187000Y-115907000D01*
X183181000Y-115909000D01*
X183176000Y-115909000D01*
X183170000Y-115910000D01*
X182870000Y-115910000D01*
X182864000Y-115909000D01*
X182859000Y-115909000D01*
X182853000Y-115907000D01*
X182848000Y-115906000D01*
X182842000Y-115904000D01*
X182827000Y-115898000D01*
X182817000Y-115892000D01*
X182813000Y-115889000D01*
X182808000Y-115885000D01*
X182796000Y-115873000D01*
X182793000Y-115869000D01*
X182789000Y-115864000D01*
X182786000Y-115860000D01*
X182783000Y-115855000D01*
X182781000Y-115850000D01*
X182778000Y-115845000D01*
X182776000Y-115839000D01*
X182774000Y-115834000D01*
X182773000Y-115829000D01*
X182771000Y-115817000D01*
X182770000Y-115812000D01*
X182770000Y-115558000D01*
X182771000Y-115553000D01*
X182773000Y-115541000D01*
X182774000Y-115536000D01*
X182776000Y-115531000D01*
X182778000Y-115525000D01*
X182781000Y-115520000D01*
X182783000Y-115515000D01*
X182786000Y-115510000D01*
X182789000Y-115506000D01*
X182793000Y-115501000D01*
X182796000Y-115497000D01*
X182808000Y-115485000D01*
X182813000Y-115481000D01*
X182817000Y-115478000D01*
X182827000Y-115472000D01*
X182842000Y-115466000D01*
X182848000Y-115464000D01*
X182853000Y-115463000D01*
X182859000Y-115461000D01*
X182864000Y-115461000D01*
X182870000Y-115460000D01*
X183170000Y-115460000D01*
X183176000Y-115461000D01*
G36*
X181626000Y-115461000D02*
G01*
X181631000Y-115461000D01*
X181637000Y-115463000D01*
X181642000Y-115464000D01*
X181648000Y-115466000D01*
X181663000Y-115472000D01*
X181673000Y-115478000D01*
X181677000Y-115481000D01*
X181682000Y-115485000D01*
X181694000Y-115497000D01*
X181697000Y-115501000D01*
X181701000Y-115506000D01*
X181704000Y-115510000D01*
X181707000Y-115515000D01*
X181709000Y-115520000D01*
X181712000Y-115525000D01*
X181714000Y-115531000D01*
X181716000Y-115536000D01*
X181717000Y-115541000D01*
X181719000Y-115553000D01*
X181720000Y-115558000D01*
X181720000Y-115812000D01*
X181719000Y-115817000D01*
X181717000Y-115829000D01*
X181716000Y-115834000D01*
X181714000Y-115839000D01*
X181712000Y-115845000D01*
X181709000Y-115850000D01*
X181707000Y-115855000D01*
X181704000Y-115860000D01*
X181701000Y-115864000D01*
X181697000Y-115869000D01*
X181694000Y-115873000D01*
X181682000Y-115885000D01*
X181677000Y-115889000D01*
X181673000Y-115892000D01*
X181663000Y-115898000D01*
X181648000Y-115904000D01*
X181642000Y-115906000D01*
X181637000Y-115907000D01*
X181631000Y-115909000D01*
X181626000Y-115909000D01*
X181620000Y-115910000D01*
X181320000Y-115910000D01*
X181314000Y-115909000D01*
X181309000Y-115909000D01*
X181303000Y-115907000D01*
X181298000Y-115906000D01*
X181292000Y-115904000D01*
X181277000Y-115898000D01*
X181267000Y-115892000D01*
X181263000Y-115889000D01*
X181258000Y-115885000D01*
X181246000Y-115873000D01*
X181243000Y-115869000D01*
X181239000Y-115864000D01*
X181236000Y-115860000D01*
X181233000Y-115855000D01*
X181231000Y-115850000D01*
X181228000Y-115845000D01*
X181226000Y-115839000D01*
X181224000Y-115834000D01*
X181223000Y-115829000D01*
X181221000Y-115817000D01*
X181220000Y-115812000D01*
X181220000Y-115558000D01*
X181221000Y-115553000D01*
X181223000Y-115541000D01*
X181224000Y-115536000D01*
X181226000Y-115531000D01*
X181228000Y-115525000D01*
X181231000Y-115520000D01*
X181233000Y-115515000D01*
X181236000Y-115510000D01*
X181239000Y-115506000D01*
X181243000Y-115501000D01*
X181246000Y-115497000D01*
X181258000Y-115485000D01*
X181263000Y-115481000D01*
X181267000Y-115478000D01*
X181277000Y-115472000D01*
X181292000Y-115466000D01*
X181298000Y-115464000D01*
X181303000Y-115463000D01*
X181309000Y-115461000D01*
X181314000Y-115461000D01*
X181320000Y-115460000D01*
X181620000Y-115460000D01*
X181626000Y-115461000D01*
G37*
X181626000Y-115461000D02*
X181631000Y-115461000D01*
X181637000Y-115463000D01*
X181642000Y-115464000D01*
X181648000Y-115466000D01*
X181663000Y-115472000D01*
X181673000Y-115478000D01*
X181677000Y-115481000D01*
X181682000Y-115485000D01*
X181694000Y-115497000D01*
X181697000Y-115501000D01*
X181701000Y-115506000D01*
X181704000Y-115510000D01*
X181707000Y-115515000D01*
X181709000Y-115520000D01*
X181712000Y-115525000D01*
X181714000Y-115531000D01*
X181716000Y-115536000D01*
X181717000Y-115541000D01*
X181719000Y-115553000D01*
X181720000Y-115558000D01*
X181720000Y-115812000D01*
X181719000Y-115817000D01*
X181717000Y-115829000D01*
X181716000Y-115834000D01*
X181714000Y-115839000D01*
X181712000Y-115845000D01*
X181709000Y-115850000D01*
X181707000Y-115855000D01*
X181704000Y-115860000D01*
X181701000Y-115864000D01*
X181697000Y-115869000D01*
X181694000Y-115873000D01*
X181682000Y-115885000D01*
X181677000Y-115889000D01*
X181673000Y-115892000D01*
X181663000Y-115898000D01*
X181648000Y-115904000D01*
X181642000Y-115906000D01*
X181637000Y-115907000D01*
X181631000Y-115909000D01*
X181626000Y-115909000D01*
X181620000Y-115910000D01*
X181320000Y-115910000D01*
X181314000Y-115909000D01*
X181309000Y-115909000D01*
X181303000Y-115907000D01*
X181298000Y-115906000D01*
X181292000Y-115904000D01*
X181277000Y-115898000D01*
X181267000Y-115892000D01*
X181263000Y-115889000D01*
X181258000Y-115885000D01*
X181246000Y-115873000D01*
X181243000Y-115869000D01*
X181239000Y-115864000D01*
X181236000Y-115860000D01*
X181233000Y-115855000D01*
X181231000Y-115850000D01*
X181228000Y-115845000D01*
X181226000Y-115839000D01*
X181224000Y-115834000D01*
X181223000Y-115829000D01*
X181221000Y-115817000D01*
X181220000Y-115812000D01*
X181220000Y-115558000D01*
X181221000Y-115553000D01*
X181223000Y-115541000D01*
X181224000Y-115536000D01*
X181226000Y-115531000D01*
X181228000Y-115525000D01*
X181231000Y-115520000D01*
X181233000Y-115515000D01*
X181236000Y-115510000D01*
X181239000Y-115506000D01*
X181243000Y-115501000D01*
X181246000Y-115497000D01*
X181258000Y-115485000D01*
X181263000Y-115481000D01*
X181267000Y-115478000D01*
X181277000Y-115472000D01*
X181292000Y-115466000D01*
X181298000Y-115464000D01*
X181303000Y-115463000D01*
X181309000Y-115461000D01*
X181314000Y-115461000D01*
X181320000Y-115460000D01*
X181620000Y-115460000D01*
X181626000Y-115461000D01*
G36*
X181636000Y-114961000D02*
G01*
X181641000Y-114961000D01*
X181647000Y-114963000D01*
X181652000Y-114964000D01*
X181658000Y-114966000D01*
X181673000Y-114972000D01*
X181683000Y-114978000D01*
X181687000Y-114981000D01*
X181692000Y-114985000D01*
X181704000Y-114997000D01*
X181707000Y-115001000D01*
X181711000Y-115006000D01*
X181714000Y-115010000D01*
X181717000Y-115015000D01*
X181719000Y-115020000D01*
X181722000Y-115025000D01*
X181724000Y-115031000D01*
X181726000Y-115036000D01*
X181727000Y-115041000D01*
X181729000Y-115053000D01*
X181730000Y-115058000D01*
X181730000Y-115312000D01*
X181729000Y-115317000D01*
X181727000Y-115329000D01*
X181726000Y-115334000D01*
X181724000Y-115339000D01*
X181722000Y-115345000D01*
X181719000Y-115350000D01*
X181717000Y-115355000D01*
X181714000Y-115360000D01*
X181711000Y-115364000D01*
X181707000Y-115369000D01*
X181704000Y-115373000D01*
X181692000Y-115385000D01*
X181687000Y-115389000D01*
X181683000Y-115392000D01*
X181673000Y-115398000D01*
X181658000Y-115404000D01*
X181652000Y-115406000D01*
X181647000Y-115407000D01*
X181641000Y-115409000D01*
X181636000Y-115409000D01*
X181630000Y-115410000D01*
X181330000Y-115410000D01*
X181324000Y-115409000D01*
X181319000Y-115409000D01*
X181313000Y-115407000D01*
X181308000Y-115406000D01*
X181302000Y-115404000D01*
X181287000Y-115398000D01*
X181277000Y-115392000D01*
X181273000Y-115389000D01*
X181268000Y-115385000D01*
X181256000Y-115373000D01*
X181253000Y-115369000D01*
X181249000Y-115364000D01*
X181246000Y-115360000D01*
X181243000Y-115355000D01*
X181241000Y-115350000D01*
X181238000Y-115345000D01*
X181236000Y-115339000D01*
X181234000Y-115334000D01*
X181233000Y-115329000D01*
X181231000Y-115317000D01*
X181230000Y-115312000D01*
X181230000Y-115058000D01*
X181231000Y-115053000D01*
X181233000Y-115041000D01*
X181234000Y-115036000D01*
X181236000Y-115031000D01*
X181238000Y-115025000D01*
X181241000Y-115020000D01*
X181243000Y-115015000D01*
X181246000Y-115010000D01*
X181249000Y-115006000D01*
X181253000Y-115001000D01*
X181256000Y-114997000D01*
X181268000Y-114985000D01*
X181273000Y-114981000D01*
X181277000Y-114978000D01*
X181287000Y-114972000D01*
X181302000Y-114966000D01*
X181308000Y-114964000D01*
X181313000Y-114963000D01*
X181319000Y-114961000D01*
X181324000Y-114961000D01*
X181330000Y-114960000D01*
X181630000Y-114960000D01*
X181636000Y-114961000D01*
G37*
X181636000Y-114961000D02*
X181641000Y-114961000D01*
X181647000Y-114963000D01*
X181652000Y-114964000D01*
X181658000Y-114966000D01*
X181673000Y-114972000D01*
X181683000Y-114978000D01*
X181687000Y-114981000D01*
X181692000Y-114985000D01*
X181704000Y-114997000D01*
X181707000Y-115001000D01*
X181711000Y-115006000D01*
X181714000Y-115010000D01*
X181717000Y-115015000D01*
X181719000Y-115020000D01*
X181722000Y-115025000D01*
X181724000Y-115031000D01*
X181726000Y-115036000D01*
X181727000Y-115041000D01*
X181729000Y-115053000D01*
X181730000Y-115058000D01*
X181730000Y-115312000D01*
X181729000Y-115317000D01*
X181727000Y-115329000D01*
X181726000Y-115334000D01*
X181724000Y-115339000D01*
X181722000Y-115345000D01*
X181719000Y-115350000D01*
X181717000Y-115355000D01*
X181714000Y-115360000D01*
X181711000Y-115364000D01*
X181707000Y-115369000D01*
X181704000Y-115373000D01*
X181692000Y-115385000D01*
X181687000Y-115389000D01*
X181683000Y-115392000D01*
X181673000Y-115398000D01*
X181658000Y-115404000D01*
X181652000Y-115406000D01*
X181647000Y-115407000D01*
X181641000Y-115409000D01*
X181636000Y-115409000D01*
X181630000Y-115410000D01*
X181330000Y-115410000D01*
X181324000Y-115409000D01*
X181319000Y-115409000D01*
X181313000Y-115407000D01*
X181308000Y-115406000D01*
X181302000Y-115404000D01*
X181287000Y-115398000D01*
X181277000Y-115392000D01*
X181273000Y-115389000D01*
X181268000Y-115385000D01*
X181256000Y-115373000D01*
X181253000Y-115369000D01*
X181249000Y-115364000D01*
X181246000Y-115360000D01*
X181243000Y-115355000D01*
X181241000Y-115350000D01*
X181238000Y-115345000D01*
X181236000Y-115339000D01*
X181234000Y-115334000D01*
X181233000Y-115329000D01*
X181231000Y-115317000D01*
X181230000Y-115312000D01*
X181230000Y-115058000D01*
X181231000Y-115053000D01*
X181233000Y-115041000D01*
X181234000Y-115036000D01*
X181236000Y-115031000D01*
X181238000Y-115025000D01*
X181241000Y-115020000D01*
X181243000Y-115015000D01*
X181246000Y-115010000D01*
X181249000Y-115006000D01*
X181253000Y-115001000D01*
X181256000Y-114997000D01*
X181268000Y-114985000D01*
X181273000Y-114981000D01*
X181277000Y-114978000D01*
X181287000Y-114972000D01*
X181302000Y-114966000D01*
X181308000Y-114964000D01*
X181313000Y-114963000D01*
X181319000Y-114961000D01*
X181324000Y-114961000D01*
X181330000Y-114960000D01*
X181630000Y-114960000D01*
X181636000Y-114961000D01*
G36*
X181636000Y-114461000D02*
G01*
X181641000Y-114461000D01*
X181647000Y-114463000D01*
X181652000Y-114464000D01*
X181658000Y-114466000D01*
X181673000Y-114472000D01*
X181683000Y-114478000D01*
X181687000Y-114481000D01*
X181692000Y-114485000D01*
X181704000Y-114497000D01*
X181707000Y-114501000D01*
X181711000Y-114506000D01*
X181714000Y-114510000D01*
X181717000Y-114515000D01*
X181719000Y-114520000D01*
X181722000Y-114525000D01*
X181724000Y-114531000D01*
X181726000Y-114536000D01*
X181727000Y-114541000D01*
X181729000Y-114553000D01*
X181730000Y-114558000D01*
X181730000Y-114812000D01*
X181729000Y-114817000D01*
X181727000Y-114829000D01*
X181726000Y-114834000D01*
X181724000Y-114839000D01*
X181722000Y-114845000D01*
X181719000Y-114850000D01*
X181717000Y-114855000D01*
X181714000Y-114860000D01*
X181711000Y-114864000D01*
X181707000Y-114869000D01*
X181704000Y-114873000D01*
X181692000Y-114885000D01*
X181687000Y-114889000D01*
X181683000Y-114892000D01*
X181673000Y-114898000D01*
X181658000Y-114904000D01*
X181652000Y-114906000D01*
X181647000Y-114907000D01*
X181641000Y-114909000D01*
X181636000Y-114909000D01*
X181630000Y-114910000D01*
X181330000Y-114910000D01*
X181324000Y-114909000D01*
X181319000Y-114909000D01*
X181313000Y-114907000D01*
X181308000Y-114906000D01*
X181302000Y-114904000D01*
X181287000Y-114898000D01*
X181277000Y-114892000D01*
X181273000Y-114889000D01*
X181268000Y-114885000D01*
X181256000Y-114873000D01*
X181253000Y-114869000D01*
X181249000Y-114864000D01*
X181246000Y-114860000D01*
X181243000Y-114855000D01*
X181241000Y-114850000D01*
X181238000Y-114845000D01*
X181236000Y-114839000D01*
X181234000Y-114834000D01*
X181233000Y-114829000D01*
X181231000Y-114817000D01*
X181230000Y-114812000D01*
X181230000Y-114558000D01*
X181231000Y-114553000D01*
X181233000Y-114541000D01*
X181234000Y-114536000D01*
X181236000Y-114531000D01*
X181238000Y-114525000D01*
X181241000Y-114520000D01*
X181243000Y-114515000D01*
X181246000Y-114510000D01*
X181249000Y-114506000D01*
X181253000Y-114501000D01*
X181256000Y-114497000D01*
X181268000Y-114485000D01*
X181273000Y-114481000D01*
X181277000Y-114478000D01*
X181287000Y-114472000D01*
X181302000Y-114466000D01*
X181308000Y-114464000D01*
X181313000Y-114463000D01*
X181319000Y-114461000D01*
X181324000Y-114461000D01*
X181330000Y-114460000D01*
X181630000Y-114460000D01*
X181636000Y-114461000D01*
G37*
X181636000Y-114461000D02*
X181641000Y-114461000D01*
X181647000Y-114463000D01*
X181652000Y-114464000D01*
X181658000Y-114466000D01*
X181673000Y-114472000D01*
X181683000Y-114478000D01*
X181687000Y-114481000D01*
X181692000Y-114485000D01*
X181704000Y-114497000D01*
X181707000Y-114501000D01*
X181711000Y-114506000D01*
X181714000Y-114510000D01*
X181717000Y-114515000D01*
X181719000Y-114520000D01*
X181722000Y-114525000D01*
X181724000Y-114531000D01*
X181726000Y-114536000D01*
X181727000Y-114541000D01*
X181729000Y-114553000D01*
X181730000Y-114558000D01*
X181730000Y-114812000D01*
X181729000Y-114817000D01*
X181727000Y-114829000D01*
X181726000Y-114834000D01*
X181724000Y-114839000D01*
X181722000Y-114845000D01*
X181719000Y-114850000D01*
X181717000Y-114855000D01*
X181714000Y-114860000D01*
X181711000Y-114864000D01*
X181707000Y-114869000D01*
X181704000Y-114873000D01*
X181692000Y-114885000D01*
X181687000Y-114889000D01*
X181683000Y-114892000D01*
X181673000Y-114898000D01*
X181658000Y-114904000D01*
X181652000Y-114906000D01*
X181647000Y-114907000D01*
X181641000Y-114909000D01*
X181636000Y-114909000D01*
X181630000Y-114910000D01*
X181330000Y-114910000D01*
X181324000Y-114909000D01*
X181319000Y-114909000D01*
X181313000Y-114907000D01*
X181308000Y-114906000D01*
X181302000Y-114904000D01*
X181287000Y-114898000D01*
X181277000Y-114892000D01*
X181273000Y-114889000D01*
X181268000Y-114885000D01*
X181256000Y-114873000D01*
X181253000Y-114869000D01*
X181249000Y-114864000D01*
X181246000Y-114860000D01*
X181243000Y-114855000D01*
X181241000Y-114850000D01*
X181238000Y-114845000D01*
X181236000Y-114839000D01*
X181234000Y-114834000D01*
X181233000Y-114829000D01*
X181231000Y-114817000D01*
X181230000Y-114812000D01*
X181230000Y-114558000D01*
X181231000Y-114553000D01*
X181233000Y-114541000D01*
X181234000Y-114536000D01*
X181236000Y-114531000D01*
X181238000Y-114525000D01*
X181241000Y-114520000D01*
X181243000Y-114515000D01*
X181246000Y-114510000D01*
X181249000Y-114506000D01*
X181253000Y-114501000D01*
X181256000Y-114497000D01*
X181268000Y-114485000D01*
X181273000Y-114481000D01*
X181277000Y-114478000D01*
X181287000Y-114472000D01*
X181302000Y-114466000D01*
X181308000Y-114464000D01*
X181313000Y-114463000D01*
X181319000Y-114461000D01*
X181324000Y-114461000D01*
X181330000Y-114460000D01*
X181630000Y-114460000D01*
X181636000Y-114461000D01*
G36*
X183166000Y-114461000D02*
G01*
X183171000Y-114461000D01*
X183177000Y-114463000D01*
X183182000Y-114464000D01*
X183188000Y-114466000D01*
X183203000Y-114472000D01*
X183213000Y-114478000D01*
X183217000Y-114481000D01*
X183222000Y-114485000D01*
X183234000Y-114497000D01*
X183237000Y-114501000D01*
X183241000Y-114506000D01*
X183244000Y-114510000D01*
X183247000Y-114515000D01*
X183249000Y-114520000D01*
X183252000Y-114525000D01*
X183254000Y-114531000D01*
X183256000Y-114536000D01*
X183257000Y-114541000D01*
X183259000Y-114553000D01*
X183260000Y-114558000D01*
X183260000Y-114812000D01*
X183259000Y-114817000D01*
X183257000Y-114829000D01*
X183256000Y-114834000D01*
X183254000Y-114839000D01*
X183252000Y-114845000D01*
X183249000Y-114850000D01*
X183247000Y-114855000D01*
X183244000Y-114860000D01*
X183241000Y-114864000D01*
X183237000Y-114869000D01*
X183234000Y-114873000D01*
X183222000Y-114885000D01*
X183217000Y-114889000D01*
X183213000Y-114892000D01*
X183203000Y-114898000D01*
X183188000Y-114904000D01*
X183182000Y-114906000D01*
X183177000Y-114907000D01*
X183171000Y-114909000D01*
X183166000Y-114909000D01*
X183160000Y-114910000D01*
X182860000Y-114910000D01*
X182854000Y-114909000D01*
X182849000Y-114909000D01*
X182843000Y-114907000D01*
X182838000Y-114906000D01*
X182832000Y-114904000D01*
X182817000Y-114898000D01*
X182807000Y-114892000D01*
X182803000Y-114889000D01*
X182798000Y-114885000D01*
X182786000Y-114873000D01*
X182783000Y-114869000D01*
X182779000Y-114864000D01*
X182776000Y-114860000D01*
X182773000Y-114855000D01*
X182771000Y-114850000D01*
X182768000Y-114845000D01*
X182766000Y-114839000D01*
X182764000Y-114834000D01*
X182763000Y-114829000D01*
X182761000Y-114817000D01*
X182760000Y-114812000D01*
X182760000Y-114558000D01*
X182761000Y-114553000D01*
X182763000Y-114541000D01*
X182764000Y-114536000D01*
X182766000Y-114531000D01*
X182768000Y-114525000D01*
X182771000Y-114520000D01*
X182773000Y-114515000D01*
X182776000Y-114510000D01*
X182779000Y-114506000D01*
X182783000Y-114501000D01*
X182786000Y-114497000D01*
X182798000Y-114485000D01*
X182803000Y-114481000D01*
X182807000Y-114478000D01*
X182817000Y-114472000D01*
X182832000Y-114466000D01*
X182838000Y-114464000D01*
X182843000Y-114463000D01*
X182849000Y-114461000D01*
X182854000Y-114461000D01*
X182860000Y-114460000D01*
X183160000Y-114460000D01*
X183166000Y-114461000D01*
G37*
X183166000Y-114461000D02*
X183171000Y-114461000D01*
X183177000Y-114463000D01*
X183182000Y-114464000D01*
X183188000Y-114466000D01*
X183203000Y-114472000D01*
X183213000Y-114478000D01*
X183217000Y-114481000D01*
X183222000Y-114485000D01*
X183234000Y-114497000D01*
X183237000Y-114501000D01*
X183241000Y-114506000D01*
X183244000Y-114510000D01*
X183247000Y-114515000D01*
X183249000Y-114520000D01*
X183252000Y-114525000D01*
X183254000Y-114531000D01*
X183256000Y-114536000D01*
X183257000Y-114541000D01*
X183259000Y-114553000D01*
X183260000Y-114558000D01*
X183260000Y-114812000D01*
X183259000Y-114817000D01*
X183257000Y-114829000D01*
X183256000Y-114834000D01*
X183254000Y-114839000D01*
X183252000Y-114845000D01*
X183249000Y-114850000D01*
X183247000Y-114855000D01*
X183244000Y-114860000D01*
X183241000Y-114864000D01*
X183237000Y-114869000D01*
X183234000Y-114873000D01*
X183222000Y-114885000D01*
X183217000Y-114889000D01*
X183213000Y-114892000D01*
X183203000Y-114898000D01*
X183188000Y-114904000D01*
X183182000Y-114906000D01*
X183177000Y-114907000D01*
X183171000Y-114909000D01*
X183166000Y-114909000D01*
X183160000Y-114910000D01*
X182860000Y-114910000D01*
X182854000Y-114909000D01*
X182849000Y-114909000D01*
X182843000Y-114907000D01*
X182838000Y-114906000D01*
X182832000Y-114904000D01*
X182817000Y-114898000D01*
X182807000Y-114892000D01*
X182803000Y-114889000D01*
X182798000Y-114885000D01*
X182786000Y-114873000D01*
X182783000Y-114869000D01*
X182779000Y-114864000D01*
X182776000Y-114860000D01*
X182773000Y-114855000D01*
X182771000Y-114850000D01*
X182768000Y-114845000D01*
X182766000Y-114839000D01*
X182764000Y-114834000D01*
X182763000Y-114829000D01*
X182761000Y-114817000D01*
X182760000Y-114812000D01*
X182760000Y-114558000D01*
X182761000Y-114553000D01*
X182763000Y-114541000D01*
X182764000Y-114536000D01*
X182766000Y-114531000D01*
X182768000Y-114525000D01*
X182771000Y-114520000D01*
X182773000Y-114515000D01*
X182776000Y-114510000D01*
X182779000Y-114506000D01*
X182783000Y-114501000D01*
X182786000Y-114497000D01*
X182798000Y-114485000D01*
X182803000Y-114481000D01*
X182807000Y-114478000D01*
X182817000Y-114472000D01*
X182832000Y-114466000D01*
X182838000Y-114464000D01*
X182843000Y-114463000D01*
X182849000Y-114461000D01*
X182854000Y-114461000D01*
X182860000Y-114460000D01*
X183160000Y-114460000D01*
X183166000Y-114461000D01*
G36*
X183176000Y-113961000D02*
G01*
X183181000Y-113961000D01*
X183187000Y-113963000D01*
X183192000Y-113964000D01*
X183198000Y-113966000D01*
X183213000Y-113972000D01*
X183223000Y-113978000D01*
X183227000Y-113981000D01*
X183232000Y-113985000D01*
X183244000Y-113997000D01*
X183247000Y-114001000D01*
X183251000Y-114006000D01*
X183254000Y-114010000D01*
X183257000Y-114015000D01*
X183259000Y-114020000D01*
X183262000Y-114025000D01*
X183264000Y-114031000D01*
X183266000Y-114036000D01*
X183267000Y-114041000D01*
X183269000Y-114053000D01*
X183270000Y-114058000D01*
X183270000Y-114312000D01*
X183269000Y-114317000D01*
X183267000Y-114329000D01*
X183266000Y-114334000D01*
X183264000Y-114339000D01*
X183262000Y-114345000D01*
X183259000Y-114350000D01*
X183257000Y-114355000D01*
X183254000Y-114360000D01*
X183251000Y-114364000D01*
X183247000Y-114369000D01*
X183244000Y-114373000D01*
X183232000Y-114385000D01*
X183227000Y-114389000D01*
X183223000Y-114392000D01*
X183213000Y-114398000D01*
X183198000Y-114404000D01*
X183192000Y-114406000D01*
X183187000Y-114407000D01*
X183181000Y-114409000D01*
X183176000Y-114409000D01*
X183170000Y-114410000D01*
X182870000Y-114410000D01*
X182864000Y-114409000D01*
X182859000Y-114409000D01*
X182853000Y-114407000D01*
X182848000Y-114406000D01*
X182842000Y-114404000D01*
X182827000Y-114398000D01*
X182817000Y-114392000D01*
X182813000Y-114389000D01*
X182808000Y-114385000D01*
X182796000Y-114373000D01*
X182793000Y-114369000D01*
X182789000Y-114364000D01*
X182786000Y-114360000D01*
X182783000Y-114355000D01*
X182781000Y-114350000D01*
X182778000Y-114345000D01*
X182776000Y-114339000D01*
X182774000Y-114334000D01*
X182773000Y-114329000D01*
X182771000Y-114317000D01*
X182770000Y-114312000D01*
X182770000Y-114058000D01*
X182771000Y-114053000D01*
X182773000Y-114041000D01*
X182774000Y-114036000D01*
X182776000Y-114031000D01*
X182778000Y-114025000D01*
X182781000Y-114020000D01*
X182783000Y-114015000D01*
X182786000Y-114010000D01*
X182789000Y-114006000D01*
X182793000Y-114001000D01*
X182796000Y-113997000D01*
X182808000Y-113985000D01*
X182813000Y-113981000D01*
X182817000Y-113978000D01*
X182827000Y-113972000D01*
X182842000Y-113966000D01*
X182848000Y-113964000D01*
X182853000Y-113963000D01*
X182859000Y-113961000D01*
X182864000Y-113961000D01*
X182870000Y-113960000D01*
X183170000Y-113960000D01*
X183176000Y-113961000D01*
G37*
X183176000Y-113961000D02*
X183181000Y-113961000D01*
X183187000Y-113963000D01*
X183192000Y-113964000D01*
X183198000Y-113966000D01*
X183213000Y-113972000D01*
X183223000Y-113978000D01*
X183227000Y-113981000D01*
X183232000Y-113985000D01*
X183244000Y-113997000D01*
X183247000Y-114001000D01*
X183251000Y-114006000D01*
X183254000Y-114010000D01*
X183257000Y-114015000D01*
X183259000Y-114020000D01*
X183262000Y-114025000D01*
X183264000Y-114031000D01*
X183266000Y-114036000D01*
X183267000Y-114041000D01*
X183269000Y-114053000D01*
X183270000Y-114058000D01*
X183270000Y-114312000D01*
X183269000Y-114317000D01*
X183267000Y-114329000D01*
X183266000Y-114334000D01*
X183264000Y-114339000D01*
X183262000Y-114345000D01*
X183259000Y-114350000D01*
X183257000Y-114355000D01*
X183254000Y-114360000D01*
X183251000Y-114364000D01*
X183247000Y-114369000D01*
X183244000Y-114373000D01*
X183232000Y-114385000D01*
X183227000Y-114389000D01*
X183223000Y-114392000D01*
X183213000Y-114398000D01*
X183198000Y-114404000D01*
X183192000Y-114406000D01*
X183187000Y-114407000D01*
X183181000Y-114409000D01*
X183176000Y-114409000D01*
X183170000Y-114410000D01*
X182870000Y-114410000D01*
X182864000Y-114409000D01*
X182859000Y-114409000D01*
X182853000Y-114407000D01*
X182848000Y-114406000D01*
X182842000Y-114404000D01*
X182827000Y-114398000D01*
X182817000Y-114392000D01*
X182813000Y-114389000D01*
X182808000Y-114385000D01*
X182796000Y-114373000D01*
X182793000Y-114369000D01*
X182789000Y-114364000D01*
X182786000Y-114360000D01*
X182783000Y-114355000D01*
X182781000Y-114350000D01*
X182778000Y-114345000D01*
X182776000Y-114339000D01*
X182774000Y-114334000D01*
X182773000Y-114329000D01*
X182771000Y-114317000D01*
X182770000Y-114312000D01*
X182770000Y-114058000D01*
X182771000Y-114053000D01*
X182773000Y-114041000D01*
X182774000Y-114036000D01*
X182776000Y-114031000D01*
X182778000Y-114025000D01*
X182781000Y-114020000D01*
X182783000Y-114015000D01*
X182786000Y-114010000D01*
X182789000Y-114006000D01*
X182793000Y-114001000D01*
X182796000Y-113997000D01*
X182808000Y-113985000D01*
X182813000Y-113981000D01*
X182817000Y-113978000D01*
X182827000Y-113972000D01*
X182842000Y-113966000D01*
X182848000Y-113964000D01*
X182853000Y-113963000D01*
X182859000Y-113961000D01*
X182864000Y-113961000D01*
X182870000Y-113960000D01*
X183170000Y-113960000D01*
X183176000Y-113961000D01*
G36*
X182627000Y-115451000D02*
G01*
X182639000Y-115453000D01*
X182644000Y-115454000D01*
X182649000Y-115456000D01*
X182655000Y-115458000D01*
X182660000Y-115461000D01*
X182665000Y-115463000D01*
X182670000Y-115466000D01*
X182674000Y-115469000D01*
X182679000Y-115473000D01*
X182683000Y-115476000D01*
X182695000Y-115488000D01*
X182699000Y-115493000D01*
X182702000Y-115497000D01*
X182708000Y-115507000D01*
X182714000Y-115522000D01*
X182716000Y-115528000D01*
X182717000Y-115533000D01*
X182719000Y-115539000D01*
X182719000Y-115544000D01*
X182720000Y-115550000D01*
X182720000Y-115850000D01*
X182719000Y-115856000D01*
X182719000Y-115861000D01*
X182717000Y-115867000D01*
X182716000Y-115872000D01*
X182714000Y-115878000D01*
X182708000Y-115893000D01*
X182702000Y-115903000D01*
X182699000Y-115907000D01*
X182695000Y-115912000D01*
X182683000Y-115924000D01*
X182679000Y-115927000D01*
X182674000Y-115931000D01*
X182670000Y-115934000D01*
X182665000Y-115937000D01*
X182660000Y-115939000D01*
X182655000Y-115942000D01*
X182649000Y-115944000D01*
X182644000Y-115946000D01*
X182639000Y-115947000D01*
X182627000Y-115949000D01*
X182622000Y-115950000D01*
X182368000Y-115950000D01*
X182363000Y-115949000D01*
X182351000Y-115947000D01*
X182346000Y-115946000D01*
X182341000Y-115944000D01*
X182335000Y-115942000D01*
X182330000Y-115939000D01*
X182325000Y-115937000D01*
X182320000Y-115934000D01*
X182316000Y-115931000D01*
X182311000Y-115927000D01*
X182307000Y-115924000D01*
X182295000Y-115912000D01*
X182291000Y-115907000D01*
X182288000Y-115903000D01*
X182282000Y-115893000D01*
X182276000Y-115878000D01*
X182274000Y-115872000D01*
X182273000Y-115867000D01*
X182271000Y-115861000D01*
X182271000Y-115856000D01*
X182270000Y-115850000D01*
X182270000Y-115550000D01*
X182271000Y-115544000D01*
X182271000Y-115539000D01*
X182273000Y-115533000D01*
X182274000Y-115528000D01*
X182276000Y-115522000D01*
X182282000Y-115507000D01*
X182288000Y-115497000D01*
X182291000Y-115493000D01*
X182295000Y-115488000D01*
X182307000Y-115476000D01*
X182311000Y-115473000D01*
X182316000Y-115469000D01*
X182320000Y-115466000D01*
X182325000Y-115463000D01*
X182330000Y-115461000D01*
X182335000Y-115458000D01*
X182341000Y-115456000D01*
X182346000Y-115454000D01*
X182351000Y-115453000D01*
X182363000Y-115451000D01*
X182368000Y-115450000D01*
X182622000Y-115450000D01*
X182627000Y-115451000D01*
G37*
X182627000Y-115451000D02*
X182639000Y-115453000D01*
X182644000Y-115454000D01*
X182649000Y-115456000D01*
X182655000Y-115458000D01*
X182660000Y-115461000D01*
X182665000Y-115463000D01*
X182670000Y-115466000D01*
X182674000Y-115469000D01*
X182679000Y-115473000D01*
X182683000Y-115476000D01*
X182695000Y-115488000D01*
X182699000Y-115493000D01*
X182702000Y-115497000D01*
X182708000Y-115507000D01*
X182714000Y-115522000D01*
X182716000Y-115528000D01*
X182717000Y-115533000D01*
X182719000Y-115539000D01*
X182719000Y-115544000D01*
X182720000Y-115550000D01*
X182720000Y-115850000D01*
X182719000Y-115856000D01*
X182719000Y-115861000D01*
X182717000Y-115867000D01*
X182716000Y-115872000D01*
X182714000Y-115878000D01*
X182708000Y-115893000D01*
X182702000Y-115903000D01*
X182699000Y-115907000D01*
X182695000Y-115912000D01*
X182683000Y-115924000D01*
X182679000Y-115927000D01*
X182674000Y-115931000D01*
X182670000Y-115934000D01*
X182665000Y-115937000D01*
X182660000Y-115939000D01*
X182655000Y-115942000D01*
X182649000Y-115944000D01*
X182644000Y-115946000D01*
X182639000Y-115947000D01*
X182627000Y-115949000D01*
X182622000Y-115950000D01*
X182368000Y-115950000D01*
X182363000Y-115949000D01*
X182351000Y-115947000D01*
X182346000Y-115946000D01*
X182341000Y-115944000D01*
X182335000Y-115942000D01*
X182330000Y-115939000D01*
X182325000Y-115937000D01*
X182320000Y-115934000D01*
X182316000Y-115931000D01*
X182311000Y-115927000D01*
X182307000Y-115924000D01*
X182295000Y-115912000D01*
X182291000Y-115907000D01*
X182288000Y-115903000D01*
X182282000Y-115893000D01*
X182276000Y-115878000D01*
X182274000Y-115872000D01*
X182273000Y-115867000D01*
X182271000Y-115861000D01*
X182271000Y-115856000D01*
X182270000Y-115850000D01*
X182270000Y-115550000D01*
X182271000Y-115544000D01*
X182271000Y-115539000D01*
X182273000Y-115533000D01*
X182274000Y-115528000D01*
X182276000Y-115522000D01*
X182282000Y-115507000D01*
X182288000Y-115497000D01*
X182291000Y-115493000D01*
X182295000Y-115488000D01*
X182307000Y-115476000D01*
X182311000Y-115473000D01*
X182316000Y-115469000D01*
X182320000Y-115466000D01*
X182325000Y-115463000D01*
X182330000Y-115461000D01*
X182335000Y-115458000D01*
X182341000Y-115456000D01*
X182346000Y-115454000D01*
X182351000Y-115453000D01*
X182363000Y-115451000D01*
X182368000Y-115450000D01*
X182622000Y-115450000D01*
X182627000Y-115451000D01*
G36*
X183166000Y-114961000D02*
G01*
X183171000Y-114961000D01*
X183177000Y-114963000D01*
X183182000Y-114964000D01*
X183188000Y-114966000D01*
X183203000Y-114972000D01*
X183213000Y-114978000D01*
X183217000Y-114981000D01*
X183222000Y-114985000D01*
X183234000Y-114997000D01*
X183237000Y-115001000D01*
X183241000Y-115006000D01*
X183244000Y-115010000D01*
X183247000Y-115015000D01*
X183249000Y-115020000D01*
X183252000Y-115025000D01*
X183254000Y-115031000D01*
X183256000Y-115036000D01*
X183257000Y-115041000D01*
X183259000Y-115053000D01*
X183260000Y-115058000D01*
X183260000Y-115312000D01*
X183259000Y-115317000D01*
X183257000Y-115329000D01*
X183256000Y-115334000D01*
X183254000Y-115339000D01*
X183252000Y-115345000D01*
X183249000Y-115350000D01*
X183247000Y-115355000D01*
X183244000Y-115360000D01*
X183241000Y-115364000D01*
X183237000Y-115369000D01*
X183234000Y-115373000D01*
X183222000Y-115385000D01*
X183217000Y-115389000D01*
X183213000Y-115392000D01*
X183203000Y-115398000D01*
X183188000Y-115404000D01*
X183182000Y-115406000D01*
X183177000Y-115407000D01*
X183171000Y-115409000D01*
X183166000Y-115409000D01*
X183160000Y-115410000D01*
X182860000Y-115410000D01*
X182854000Y-115409000D01*
X182849000Y-115409000D01*
X182843000Y-115407000D01*
X182838000Y-115406000D01*
X182832000Y-115404000D01*
X182817000Y-115398000D01*
X182807000Y-115392000D01*
X182803000Y-115389000D01*
X182798000Y-115385000D01*
X182786000Y-115373000D01*
X182783000Y-115369000D01*
X182779000Y-115364000D01*
X182776000Y-115360000D01*
X182773000Y-115355000D01*
X182771000Y-115350000D01*
X182768000Y-115345000D01*
X182766000Y-115339000D01*
X182764000Y-115334000D01*
X182763000Y-115329000D01*
X182761000Y-115317000D01*
X182760000Y-115312000D01*
X182760000Y-115058000D01*
X182761000Y-115053000D01*
X182763000Y-115041000D01*
X182764000Y-115036000D01*
X182766000Y-115031000D01*
X182768000Y-115025000D01*
X182771000Y-115020000D01*
X182773000Y-115015000D01*
X182776000Y-115010000D01*
X182779000Y-115006000D01*
X182783000Y-115001000D01*
X182786000Y-114997000D01*
X182798000Y-114985000D01*
X182803000Y-114981000D01*
X182807000Y-114978000D01*
X182817000Y-114972000D01*
X182832000Y-114966000D01*
X182838000Y-114964000D01*
X182843000Y-114963000D01*
X182849000Y-114961000D01*
X182854000Y-114961000D01*
X182860000Y-114960000D01*
X183160000Y-114960000D01*
X183166000Y-114961000D01*
G37*
X183166000Y-114961000D02*
X183171000Y-114961000D01*
X183177000Y-114963000D01*
X183182000Y-114964000D01*
X183188000Y-114966000D01*
X183203000Y-114972000D01*
X183213000Y-114978000D01*
X183217000Y-114981000D01*
X183222000Y-114985000D01*
X183234000Y-114997000D01*
X183237000Y-115001000D01*
X183241000Y-115006000D01*
X183244000Y-115010000D01*
X183247000Y-115015000D01*
X183249000Y-115020000D01*
X183252000Y-115025000D01*
X183254000Y-115031000D01*
X183256000Y-115036000D01*
X183257000Y-115041000D01*
X183259000Y-115053000D01*
X183260000Y-115058000D01*
X183260000Y-115312000D01*
X183259000Y-115317000D01*
X183257000Y-115329000D01*
X183256000Y-115334000D01*
X183254000Y-115339000D01*
X183252000Y-115345000D01*
X183249000Y-115350000D01*
X183247000Y-115355000D01*
X183244000Y-115360000D01*
X183241000Y-115364000D01*
X183237000Y-115369000D01*
X183234000Y-115373000D01*
X183222000Y-115385000D01*
X183217000Y-115389000D01*
X183213000Y-115392000D01*
X183203000Y-115398000D01*
X183188000Y-115404000D01*
X183182000Y-115406000D01*
X183177000Y-115407000D01*
X183171000Y-115409000D01*
X183166000Y-115409000D01*
X183160000Y-115410000D01*
X182860000Y-115410000D01*
X182854000Y-115409000D01*
X182849000Y-115409000D01*
X182843000Y-115407000D01*
X182838000Y-115406000D01*
X182832000Y-115404000D01*
X182817000Y-115398000D01*
X182807000Y-115392000D01*
X182803000Y-115389000D01*
X182798000Y-115385000D01*
X182786000Y-115373000D01*
X182783000Y-115369000D01*
X182779000Y-115364000D01*
X182776000Y-115360000D01*
X182773000Y-115355000D01*
X182771000Y-115350000D01*
X182768000Y-115345000D01*
X182766000Y-115339000D01*
X182764000Y-115334000D01*
X182763000Y-115329000D01*
X182761000Y-115317000D01*
X182760000Y-115312000D01*
X182760000Y-115058000D01*
X182761000Y-115053000D01*
X182763000Y-115041000D01*
X182764000Y-115036000D01*
X182766000Y-115031000D01*
X182768000Y-115025000D01*
X182771000Y-115020000D01*
X182773000Y-115015000D01*
X182776000Y-115010000D01*
X182779000Y-115006000D01*
X182783000Y-115001000D01*
X182786000Y-114997000D01*
X182798000Y-114985000D01*
X182803000Y-114981000D01*
X182807000Y-114978000D01*
X182817000Y-114972000D01*
X182832000Y-114966000D01*
X182838000Y-114964000D01*
X182843000Y-114963000D01*
X182849000Y-114961000D01*
X182854000Y-114961000D01*
X182860000Y-114960000D01*
X183160000Y-114960000D01*
X183166000Y-114961000D01*
G36*
X182127000Y-115451000D02*
G01*
X182139000Y-115453000D01*
X182144000Y-115454000D01*
X182149000Y-115456000D01*
X182155000Y-115458000D01*
X182160000Y-115461000D01*
X182165000Y-115463000D01*
X182170000Y-115466000D01*
X182174000Y-115469000D01*
X182179000Y-115473000D01*
X182183000Y-115476000D01*
X182195000Y-115488000D01*
X182199000Y-115493000D01*
X182202000Y-115497000D01*
X182208000Y-115507000D01*
X182214000Y-115522000D01*
X182216000Y-115528000D01*
X182217000Y-115533000D01*
X182219000Y-115539000D01*
X182219000Y-115544000D01*
X182220000Y-115550000D01*
X182220000Y-115850000D01*
X182219000Y-115856000D01*
X182219000Y-115861000D01*
X182217000Y-115867000D01*
X182216000Y-115872000D01*
X182214000Y-115878000D01*
X182208000Y-115893000D01*
X182202000Y-115903000D01*
X182199000Y-115907000D01*
X182195000Y-115912000D01*
X182183000Y-115924000D01*
X182179000Y-115927000D01*
X182174000Y-115931000D01*
X182170000Y-115934000D01*
X182165000Y-115937000D01*
X182160000Y-115939000D01*
X182155000Y-115942000D01*
X182149000Y-115944000D01*
X182144000Y-115946000D01*
X182139000Y-115947000D01*
X182127000Y-115949000D01*
X182122000Y-115950000D01*
X181868000Y-115950000D01*
X181863000Y-115949000D01*
X181851000Y-115947000D01*
X181846000Y-115946000D01*
X181841000Y-115944000D01*
X181835000Y-115942000D01*
X181830000Y-115939000D01*
X181825000Y-115937000D01*
X181820000Y-115934000D01*
X181816000Y-115931000D01*
X181811000Y-115927000D01*
X181807000Y-115924000D01*
X181795000Y-115912000D01*
X181791000Y-115907000D01*
X181788000Y-115903000D01*
X181782000Y-115893000D01*
X181776000Y-115878000D01*
X181774000Y-115872000D01*
X181773000Y-115867000D01*
X181771000Y-115861000D01*
X181771000Y-115856000D01*
X181770000Y-115850000D01*
X181770000Y-115550000D01*
X181771000Y-115544000D01*
X181771000Y-115539000D01*
X181773000Y-115533000D01*
X181774000Y-115528000D01*
X181776000Y-115522000D01*
X181782000Y-115507000D01*
X181788000Y-115497000D01*
X181791000Y-115493000D01*
X181795000Y-115488000D01*
X181807000Y-115476000D01*
X181811000Y-115473000D01*
X181816000Y-115469000D01*
X181820000Y-115466000D01*
X181825000Y-115463000D01*
X181830000Y-115461000D01*
X181835000Y-115458000D01*
X181841000Y-115456000D01*
X181846000Y-115454000D01*
X181851000Y-115453000D01*
X181863000Y-115451000D01*
X181868000Y-115450000D01*
X182122000Y-115450000D01*
X182127000Y-115451000D01*
G37*
X182127000Y-115451000D02*
X182139000Y-115453000D01*
X182144000Y-115454000D01*
X182149000Y-115456000D01*
X182155000Y-115458000D01*
X182160000Y-115461000D01*
X182165000Y-115463000D01*
X182170000Y-115466000D01*
X182174000Y-115469000D01*
X182179000Y-115473000D01*
X182183000Y-115476000D01*
X182195000Y-115488000D01*
X182199000Y-115493000D01*
X182202000Y-115497000D01*
X182208000Y-115507000D01*
X182214000Y-115522000D01*
X182216000Y-115528000D01*
X182217000Y-115533000D01*
X182219000Y-115539000D01*
X182219000Y-115544000D01*
X182220000Y-115550000D01*
X182220000Y-115850000D01*
X182219000Y-115856000D01*
X182219000Y-115861000D01*
X182217000Y-115867000D01*
X182216000Y-115872000D01*
X182214000Y-115878000D01*
X182208000Y-115893000D01*
X182202000Y-115903000D01*
X182199000Y-115907000D01*
X182195000Y-115912000D01*
X182183000Y-115924000D01*
X182179000Y-115927000D01*
X182174000Y-115931000D01*
X182170000Y-115934000D01*
X182165000Y-115937000D01*
X182160000Y-115939000D01*
X182155000Y-115942000D01*
X182149000Y-115944000D01*
X182144000Y-115946000D01*
X182139000Y-115947000D01*
X182127000Y-115949000D01*
X182122000Y-115950000D01*
X181868000Y-115950000D01*
X181863000Y-115949000D01*
X181851000Y-115947000D01*
X181846000Y-115946000D01*
X181841000Y-115944000D01*
X181835000Y-115942000D01*
X181830000Y-115939000D01*
X181825000Y-115937000D01*
X181820000Y-115934000D01*
X181816000Y-115931000D01*
X181811000Y-115927000D01*
X181807000Y-115924000D01*
X181795000Y-115912000D01*
X181791000Y-115907000D01*
X181788000Y-115903000D01*
X181782000Y-115893000D01*
X181776000Y-115878000D01*
X181774000Y-115872000D01*
X181773000Y-115867000D01*
X181771000Y-115861000D01*
X181771000Y-115856000D01*
X181770000Y-115850000D01*
X181770000Y-115550000D01*
X181771000Y-115544000D01*
X181771000Y-115539000D01*
X181773000Y-115533000D01*
X181774000Y-115528000D01*
X181776000Y-115522000D01*
X181782000Y-115507000D01*
X181788000Y-115497000D01*
X181791000Y-115493000D01*
X181795000Y-115488000D01*
X181807000Y-115476000D01*
X181811000Y-115473000D01*
X181816000Y-115469000D01*
X181820000Y-115466000D01*
X181825000Y-115463000D01*
X181830000Y-115461000D01*
X181835000Y-115458000D01*
X181841000Y-115456000D01*
X181846000Y-115454000D01*
X181851000Y-115453000D01*
X181863000Y-115451000D01*
X181868000Y-115450000D01*
X182122000Y-115450000D01*
X182127000Y-115451000D01*
G36*
X182627000Y-113921000D02*
G01*
X182639000Y-113923000D01*
X182644000Y-113924000D01*
X182649000Y-113926000D01*
X182655000Y-113928000D01*
X182660000Y-113931000D01*
X182665000Y-113933000D01*
X182670000Y-113936000D01*
X182674000Y-113939000D01*
X182679000Y-113943000D01*
X182683000Y-113946000D01*
X182695000Y-113958000D01*
X182699000Y-113963000D01*
X182702000Y-113967000D01*
X182708000Y-113977000D01*
X182714000Y-113992000D01*
X182716000Y-113998000D01*
X182717000Y-114003000D01*
X182719000Y-114009000D01*
X182719000Y-114014000D01*
X182720000Y-114020000D01*
X182720000Y-114320000D01*
X182719000Y-114326000D01*
X182719000Y-114331000D01*
X182717000Y-114337000D01*
X182716000Y-114342000D01*
X182714000Y-114348000D01*
X182708000Y-114363000D01*
X182702000Y-114373000D01*
X182699000Y-114377000D01*
X182695000Y-114382000D01*
X182683000Y-114394000D01*
X182679000Y-114397000D01*
X182674000Y-114401000D01*
X182670000Y-114404000D01*
X182665000Y-114407000D01*
X182660000Y-114409000D01*
X182655000Y-114412000D01*
X182649000Y-114414000D01*
X182644000Y-114416000D01*
X182639000Y-114417000D01*
X182627000Y-114419000D01*
X182622000Y-114420000D01*
X182368000Y-114420000D01*
X182363000Y-114419000D01*
X182351000Y-114417000D01*
X182346000Y-114416000D01*
X182341000Y-114414000D01*
X182335000Y-114412000D01*
X182330000Y-114409000D01*
X182325000Y-114407000D01*
X182320000Y-114404000D01*
X182316000Y-114401000D01*
X182311000Y-114397000D01*
X182307000Y-114394000D01*
X182295000Y-114382000D01*
X182291000Y-114377000D01*
X182288000Y-114373000D01*
X182282000Y-114363000D01*
X182276000Y-114348000D01*
X182274000Y-114342000D01*
X182273000Y-114337000D01*
X182271000Y-114331000D01*
X182271000Y-114326000D01*
X182270000Y-114320000D01*
X182270000Y-114020000D01*
X182271000Y-114014000D01*
X182271000Y-114009000D01*
X182273000Y-114003000D01*
X182274000Y-113998000D01*
X182276000Y-113992000D01*
X182282000Y-113977000D01*
X182288000Y-113967000D01*
X182291000Y-113963000D01*
X182295000Y-113958000D01*
X182307000Y-113946000D01*
X182311000Y-113943000D01*
X182316000Y-113939000D01*
X182320000Y-113936000D01*
X182325000Y-113933000D01*
X182330000Y-113931000D01*
X182335000Y-113928000D01*
X182341000Y-113926000D01*
X182346000Y-113924000D01*
X182351000Y-113923000D01*
X182363000Y-113921000D01*
X182368000Y-113920000D01*
X182622000Y-113920000D01*
X182627000Y-113921000D01*
G37*
X182627000Y-113921000D02*
X182639000Y-113923000D01*
X182644000Y-113924000D01*
X182649000Y-113926000D01*
X182655000Y-113928000D01*
X182660000Y-113931000D01*
X182665000Y-113933000D01*
X182670000Y-113936000D01*
X182674000Y-113939000D01*
X182679000Y-113943000D01*
X182683000Y-113946000D01*
X182695000Y-113958000D01*
X182699000Y-113963000D01*
X182702000Y-113967000D01*
X182708000Y-113977000D01*
X182714000Y-113992000D01*
X182716000Y-113998000D01*
X182717000Y-114003000D01*
X182719000Y-114009000D01*
X182719000Y-114014000D01*
X182720000Y-114020000D01*
X182720000Y-114320000D01*
X182719000Y-114326000D01*
X182719000Y-114331000D01*
X182717000Y-114337000D01*
X182716000Y-114342000D01*
X182714000Y-114348000D01*
X182708000Y-114363000D01*
X182702000Y-114373000D01*
X182699000Y-114377000D01*
X182695000Y-114382000D01*
X182683000Y-114394000D01*
X182679000Y-114397000D01*
X182674000Y-114401000D01*
X182670000Y-114404000D01*
X182665000Y-114407000D01*
X182660000Y-114409000D01*
X182655000Y-114412000D01*
X182649000Y-114414000D01*
X182644000Y-114416000D01*
X182639000Y-114417000D01*
X182627000Y-114419000D01*
X182622000Y-114420000D01*
X182368000Y-114420000D01*
X182363000Y-114419000D01*
X182351000Y-114417000D01*
X182346000Y-114416000D01*
X182341000Y-114414000D01*
X182335000Y-114412000D01*
X182330000Y-114409000D01*
X182325000Y-114407000D01*
X182320000Y-114404000D01*
X182316000Y-114401000D01*
X182311000Y-114397000D01*
X182307000Y-114394000D01*
X182295000Y-114382000D01*
X182291000Y-114377000D01*
X182288000Y-114373000D01*
X182282000Y-114363000D01*
X182276000Y-114348000D01*
X182274000Y-114342000D01*
X182273000Y-114337000D01*
X182271000Y-114331000D01*
X182271000Y-114326000D01*
X182270000Y-114320000D01*
X182270000Y-114020000D01*
X182271000Y-114014000D01*
X182271000Y-114009000D01*
X182273000Y-114003000D01*
X182274000Y-113998000D01*
X182276000Y-113992000D01*
X182282000Y-113977000D01*
X182288000Y-113967000D01*
X182291000Y-113963000D01*
X182295000Y-113958000D01*
X182307000Y-113946000D01*
X182311000Y-113943000D01*
X182316000Y-113939000D01*
X182320000Y-113936000D01*
X182325000Y-113933000D01*
X182330000Y-113931000D01*
X182335000Y-113928000D01*
X182341000Y-113926000D01*
X182346000Y-113924000D01*
X182351000Y-113923000D01*
X182363000Y-113921000D01*
X182368000Y-113920000D01*
X182622000Y-113920000D01*
X182627000Y-113921000D01*
%TD*%
D11*
%TO.C,J13*%
X179705000Y-101600000D03*
D12*
X177705000Y-101600000D03*
X175705000Y-101600000D03*
%TD*%
D13*
%TO.C,U5*%
X130810000Y-139065000D03*
X133350000Y-139065000D03*
X135890000Y-139065000D03*
X138430000Y-139065000D03*
X163830000Y-139065000D03*
X133350000Y-123825000D03*
X173990000Y-133985000D03*
X140970000Y-139065000D03*
X143510000Y-139065000D03*
D14*
X134620000Y-136015000D03*
D13*
X146050000Y-139065000D03*
X148590000Y-139065000D03*
X151130000Y-139065000D03*
X153670000Y-139065000D03*
X156210000Y-139065000D03*
X158750000Y-139065000D03*
X161290000Y-139065000D03*
X161290000Y-123825000D03*
X158750000Y-123825000D03*
X156210000Y-123825000D03*
X153670000Y-123825000D03*
X151130000Y-123825000D03*
X148590000Y-123825000D03*
X146050000Y-123825000D03*
X143510000Y-123825000D03*
X140970000Y-123825000D03*
X138430000Y-123825000D03*
X135890000Y-123825000D03*
X166370000Y-139065000D03*
X168910000Y-139065000D03*
X171450000Y-139065000D03*
X173990000Y-139065000D03*
X176530000Y-139065000D03*
X179070000Y-139065000D03*
X181610000Y-139065000D03*
X184150000Y-139065000D03*
X186690000Y-139065000D03*
X186690000Y-123825000D03*
X184150000Y-123825000D03*
X181610000Y-123825000D03*
X179070000Y-123825000D03*
X176530000Y-123825000D03*
X173990000Y-123825000D03*
X171450000Y-123825000D03*
X168910000Y-123825000D03*
X166370000Y-123825000D03*
D14*
X139700000Y-136015000D03*
X137160000Y-136015000D03*
D13*
X128270000Y-139065000D03*
X163830000Y-123825000D03*
X130810000Y-123825000D03*
X173990000Y-131445000D03*
D15*
X143240000Y-128275000D03*
X141240000Y-128275000D03*
D13*
X173990000Y-126365000D03*
X173990000Y-128905000D03*
D15*
X141240000Y-126275000D03*
X143240000Y-126275000D03*
X143240000Y-130275000D03*
X141240000Y-130275000D03*
D14*
X142240000Y-136015000D03*
X144780000Y-136015000D03*
D13*
X173990000Y-136525000D03*
X128270000Y-123825000D03*
X130810000Y-126365000D03*
%TD*%
D11*
%TO.C,J6*%
X176895000Y-78740000D03*
D12*
X174895000Y-78740000D03*
%TD*%
D16*
%TO.C,C1*%
X128905000Y-95542500D03*
X128905000Y-92417500D03*
%TD*%
D17*
%TO.C,C2*%
X166027500Y-109220000D03*
X162902500Y-109220000D03*
%TD*%
D11*
%TO.C,J14*%
X136062514Y-116598429D03*
D12*
X136062514Y-114598429D03*
X136062514Y-112598429D03*
%TD*%
D11*
%TO.C,J4*%
X143780000Y-78740000D03*
D12*
X145780000Y-78740000D03*
%TD*%
D11*
%TO.C,J9*%
X127635000Y-112665000D03*
D12*
X127635000Y-114665000D03*
%TD*%
D18*
%TO.C,R3*%
X172720000Y-105852500D03*
X172720000Y-108777500D03*
%TD*%
D11*
%TO.C,J10*%
X128270000Y-104140000D03*
D12*
X128270000Y-106140000D03*
%TD*%
D19*
%TO.C,C3*%
X155815000Y-103822500D03*
X155815000Y-106947500D03*
%TD*%
D11*
%TO.C,J7*%
X165735000Y-78687500D03*
D12*
X167735000Y-78687500D03*
%TD*%
D17*
%TO.C,C4*%
X166027500Y-102235000D03*
X162902500Y-102235000D03*
%TD*%
D11*
%TO.C,J1*%
X128540000Y-78740000D03*
D12*
X130540000Y-78740000D03*
%TD*%
D16*
%TO.C,C5*%
X141605000Y-95542500D03*
X141605000Y-92417500D03*
%TD*%
%TO.C,C6*%
X154940000Y-95542500D03*
X154940000Y-92417500D03*
%TD*%
D20*
%TO.C,REF1*%
X120650000Y-78740000D03*
%TD*%
D11*
%TO.C,J12*%
X171990000Y-98425000D03*
D12*
X171990000Y-96425000D03*
X171990000Y-94425000D03*
X171990000Y-92425000D03*
%TD*%
D20*
%TO.C,REF3*%
X121285000Y-144780000D03*
%TD*%
D21*
%TO.C,U3*%
X146955000Y-96142500D03*
X147455000Y-96142500D03*
X147955000Y-96142500D03*
X148455000Y-96142500D03*
X148955000Y-96142500D03*
X148955000Y-91817500D03*
X148455000Y-91817500D03*
X147955000Y-91817500D03*
X147455000Y-91817500D03*
X146955000Y-91817500D03*
D22*
X147955000Y-93980000D03*
%TD*%
D23*
%TO.C,R1*%
X180975000Y-84012500D03*
X180975000Y-81087500D03*
%TD*%
D11*
%TO.C,J5*%
X158115000Y-78740000D03*
D12*
X160115000Y-78740000D03*
%TD*%
D24*
%TO.C,R4*%
X175702500Y-118110000D03*
X178627500Y-118110000D03*
%TD*%
D25*
%TO.C,C9*%
X185762500Y-117475000D03*
X188887500Y-117475000D03*
%TD*%
D18*
%TO.C,R2*%
X177800000Y-105852500D03*
X177800000Y-108777500D03*
%TD*%
D11*
%TO.C,J11*%
X175705000Y-89535000D03*
D12*
X177705000Y-89535000D03*
X179705000Y-89535000D03*
X181705000Y-89535000D03*
%TD*%
D17*
%TO.C,C7*%
X166027500Y-113030000D03*
X162902500Y-113030000D03*
%TD*%
D20*
%TO.C,REF2*%
X186690000Y-78740000D03*
%TD*%
D11*
%TO.C,J2*%
X136160000Y-78740000D03*
D12*
X138160000Y-78740000D03*
%TD*%
D11*
%TO.C,J8*%
X131603627Y-112665019D03*
D12*
X131603627Y-114665019D03*
%TD*%
D21*
%TO.C,U1*%
X133620000Y-96142500D03*
X134120000Y-96142500D03*
X134620000Y-96142500D03*
X135120000Y-96142500D03*
X135620000Y-96142500D03*
X135620000Y-91817500D03*
X135120000Y-91817500D03*
X134620000Y-91817500D03*
X134120000Y-91817500D03*
X133620000Y-91817500D03*
D22*
X134620000Y-93980000D03*
%TD*%
D11*
%TO.C,J3*%
X151035000Y-78740000D03*
D12*
X153035000Y-78740000D03*
%TD*%
D21*
%TO.C,U4*%
X159655000Y-96142500D03*
X160155000Y-96142500D03*
X160655000Y-96142500D03*
X161155000Y-96142500D03*
X161655000Y-96142500D03*
X161655000Y-91817500D03*
X161155000Y-91817500D03*
X160655000Y-91817500D03*
X160155000Y-91817500D03*
X159655000Y-91817500D03*
D22*
X160655000Y-93980000D03*
%TD*%
D20*
%TO.C,REF4*%
X186690000Y-145415000D03*
%TD*%
D16*
%TO.C,C8*%
X142480000Y-106947500D03*
X142480000Y-103822500D03*
%TD*%
D26*
%TO.C,U2*%
X151765000Y-104140000D03*
X149465000Y-104140000D03*
D27*
X149465000Y-110440000D03*
D26*
X147165000Y-104140000D03*
%TD*%
M02*
